<?xml version="1.0" standalone="no"?>
<!DOCTYPE svg PUBLIC "-//W3C//DTD SVG 1.1//EN" "http://www.w3.org/Graphics/SVG/1.1/DTD/svg11.dtd" >
<svg xmlns="http://www.w3.org/2000/svg" xmlns:xlink="http://www.w3.org/1999/xlink" version="1.1">
<metadata>
Created by FontForge 20170731 at Mon Sep 21 17:55:18 2015
 By Aleksey,,,
Copyright 2015 Dalton Maag Ltd. Modification of this file requires prior written permission from Dalton Maag Ltd.
</metadata>
<defs>
<font id="Foco-Light" horiz-adv-x="0" >
  <font-face 
    font-family="Foco Light"
    font-weight="300"
    font-stretch="normal"
    units-per-em="1000"
    panose-1="2 11 3 4 5 2 2 2 2 3"
    ascent="710"
    descent="-290"
    x-height="467"
    cap-height="669"
    bbox="-184 -303 1120 999"
    underline-thickness="63"
    underline-position="-216"
    unicode-range="U+0008-FEFF"
  />
<missing-glyph horiz-adv-x="500" 
d="M50 0v750h400v-750h-400zM400 50v650h-300v-650h300z" />
    <glyph glyph-name="f_f" unicode="ff" horiz-adv-x="629" 
d="M659 618q-19 27 -44.5 39.5t-59.5 12.5q-46 0 -72 -20.5t-34 -64.5q-3 -19 -3 -42v-76h175v-47h-175v-420h-57v420h-252v-420h-57v526q0 29 3 53q23 138 161 138q71 0 113 -35q18 -14 18 -30q0 -6 -3 -12.5t-13 -21.5h-9q-19 27 -44.5 39.5t-59.5 12.5q-46 0 -72 -20.5
t-34 -64.5q-3 -19 -3 -42v-76h252v59q0 29 3 53q23 138 161 138q71 0 113 -35q18 -14 18 -30q0 -6 -3 -12.5t-13 -21.5h-9z" />
    <glyph glyph-name="f_i" unicode="fi" horiz-adv-x="517" 
d="M441 -5q-24 0 -39 9.5t-22 29.5t-7 64v322h-236v-420h-57v526q0 29 3 53q11 67 56.5 102.5t117.5 35.5q40 0 77 -12.5t61 -32.5q18 -14 18 -30q0 -12 -16 -35h-9q-21 29 -55.5 46t-76.5 17q-48 0 -78.5 -22t-37.5 -63q-3 -19 -3 -42v-76h294v-372q0 -25 4 -41t14.5 -23.5
t32.5 -9.5v-21q-19 -5 -41 -5z" />
    <glyph glyph-name="f_l" unicode="fl" horiz-adv-x="527" 
d="M383 642q-22 12 -54 19t-65 7q-52 0 -84.5 -21.5t-39.5 -61.5q-3 -19 -3 -42v-76h175v-47h-175v-420h-57v526q0 29 3 53q8 66 56 102t126 36q56 0 107.5 -16.5t68.5 -36.5v-572q0 -25 4.5 -40t15 -22t31.5 -9v-21q-19 -5 -41 -5q-24 0 -39 9.5t-22 29.5t-7 64v544z" />
    <glyph glyph-name="f_f_i" unicode="ffi" horiz-adv-x="826" 
d="M750 -5q-24 0 -39 9.5t-22 29.5t-7 64v322h-236v-420h-57v420h-252v-420h-57v526q0 29 3 53q23 138 161 138q71 0 113 -35q18 -14 18 -30q0 -6 -3 -12.5t-13 -21.5h-9q-19 27 -44.5 39.5t-59.5 12.5q-46 0 -72 -20.5t-34 -64.5q-3 -19 -3 -42v-76h252v59q0 29 3 53
q11 67 56.5 102.5t117.5 35.5q40 0 77 -12.5t61 -32.5q18 -14 18 -30q0 -12 -16 -35h-9q-21 29 -55.5 46t-76.5 17q-48 0 -78.5 -22t-37.5 -63q-3 -19 -3 -42v-76h294v-372q0 -25 4 -41t14.5 -23.5t32.5 -9.5v-21q-19 -5 -41 -5z" />
    <glyph glyph-name="f_f_l" unicode="ffl" horiz-adv-x="833" 
d="M689 642q-22 12 -54 19t-65 7q-52 0 -84.5 -21.5t-39.5 -61.5q-3 -19 -3 -42v-76h175v-47h-175v-420h-57v420h-249v-420h-57v526q0 29 3 53q23 138 161 138q71 0 113 -35q18 -14 18 -30q0 -6 -3 -12.5t-13 -21.5h-9q-19 27 -44.5 39.5t-59.5 12.5q-46 0 -72 -20.5
t-34 -64.5q-3 -19 -3 -42v-76h249v59q0 29 3 53q8 66 56 102t126 36q56 0 104.5 -15t71.5 -38v-572q0 -25 4.5 -40t15 -22t31.5 -9v-21q-19 -5 -41 -5q-24 0 -39 9.5t-22 29.5t-7 64v544z" />
    <glyph glyph-name=".notdef" horiz-adv-x="500" 
d="M50 0v750h400v-750h-400zM400 50v650h-300v-650h300z" />
    <glyph glyph-name=".null" 
 />
    <glyph glyph-name=".null" 
 />
    <glyph glyph-name=".null" 
 />
    <glyph glyph-name="nonmarkingreturn" unicode="&#x9;" horiz-adv-x="200" 
 />
    <glyph glyph-name="nonmarkingreturn" unicode="&#xd;" horiz-adv-x="200" 
 />
    <glyph glyph-name="space" unicode=" " horiz-adv-x="200" 
 />
    <glyph glyph-name="exclam" unicode="!" horiz-adv-x="226" 
d="M144 159q-2 -1 -5 -1h-5q-22 0 -35.5 13t-13.5 38v461q3 1 5.5 1h4.5q22 0 35.5 -13t13.5 -38v-461zM164 36q0 -21 -14 -36t-34 -15t-34 15t-14 36t14 36t34 15t34 -15t14 -36z" />
    <glyph glyph-name="quotedbl" unicode="&#x22;" horiz-adv-x="316" 
d="M248 449h-54v231q6 1 14 1q22 0 35 -13t13 -38zM109 449h-54v231q6 1 14 1q22 0 35 -13t13 -38z" />
    <glyph glyph-name="numbersign" unicode="#" horiz-adv-x="654" 
d="M440 191l-22 -162h-50l22 162h-160l-22 -162h-50l22 162h-145l7 45h145l23 167h-145l7 46h145l22 154h50l-22 -154h160l22 154h50l-22 -154h145l-7 -46h-145l-23 -167h145l-7 -45h-145zM420 403h-160l-23 -167h160z" />
    <glyph glyph-name="dollar" unicode="$" horiz-adv-x="540" 
d="M245 -9h-5q-58 0 -107 17.5t-75 43.5q-13 9 -13 23q0 15 23 41q31 -35 75.5 -54.5t97.5 -19.5h4v274q-35 14 -66 28.5t-55 34.5t-38 49t-14 73q0 72 47 116.5t126 50.5v91h51v-91q45 -5 76.5 -17.5t50.5 -26t26 -19.5q12 -10 12 -23t-19 -35h-11q-21 26 -57.5 45.5
t-77.5 23.5v-254q55 -24 82.5 -42t45 -39t26 -47t8.5 -57q0 -74 -42.5 -121t-119.5 -60v-90h-51v85zM133 505q0 -28 9 -49t30.5 -38t72.5 -40v239q-53 -5 -82.5 -35.5t-29.5 -76.5zM397 172q0 27 -8.5 48.5t-28 38.5t-64.5 39v-251q101 20 101 125z" />
    <glyph glyph-name="percent" unicode="%" horiz-adv-x="821" 
d="M765 158q0 -82 -39 -127.5t-107 -45.5q-71 0 -109 45t-38 128q0 82 39 128t107 46q71 0 109 -45t38 -129zM343 507q0 -82 -39 -127.5t-107 -45.5q-71 0 -109 45t-38 128q0 82 39 128t107 46q71 0 109 -45t38 -129zM206 0h-61l443 645q17 24 26.5 30t22.5 6q12 0 24 -4
l8 -3zM708 159q0 62 -22.5 94.5t-67.5 32.5q-88 0 -88 -128q0 -62 22.5 -94.5t65.5 -32.5q90 0 90 128zM286 508q0 62 -22.5 94.5t-67.5 32.5q-88 0 -88 -128q0 -62 22.5 -94.5t65.5 -32.5q90 0 90 128z" />
    <glyph glyph-name="ampersand" unicode="&#x26;" horiz-adv-x="680" 
d="M473 106q-48 -60 -98 -87.5t-113 -27.5q-98 0 -152.5 52t-54.5 140q0 78 47 138t127 89q-30 38 -41 65t-11 62q0 43 22 75.5t59.5 50.5t82.5 18q71 0 113 -35q18 -14 18 -30q0 -6 -3 -12.5t-13 -21.5h-9q-19 27 -44.5 39.5t-59.5 12.5q-50 0 -79 -24.5t-29 -68.5
q0 -27 10.5 -52t39.5 -61l181 -226q36 81 36 178v24.5t-2 25.5h145v-46h-91v-11q0 -116 -52 -217l124 -155q-12 -6 -29 -6q-20 0 -33.5 7.5t-29.5 28.5zM259 372q-72 -27 -110 -74t-38 -111q0 -65 41 -106t109 -41q53 0 94 24.5t84 82.5z" />
    <glyph glyph-name="quotesingle" unicode="'" horiz-adv-x="177" 
d="M109 449h-54v231q6 1 14 1q22 0 35 -13t13 -38z" />
    <glyph glyph-name="parenleft" unicode="(" horiz-adv-x="264" 
d="M238 712q-31 -35 -55 -94q-54 -134 -54 -322q0 -189 54 -323q24 -59 55 -94q-13 -5 -22 -5q-25 0 -45 22q-30 35 -57 99t-40.5 140t-13.5 161q0 88 14 164t40.5 138t56.5 97q20 22 45 22q9 0 22 -5z" />
    <glyph glyph-name="parenright" unicode=")" horiz-adv-x="264" 
d="M26 712q13 5 22 5q25 0 45 -22q31 -36 57.5 -99.5t40 -139t13.5 -160.5q0 -88 -14.5 -164.5t-41 -139t-55.5 -96.5q-20 -22 -45 -22q-9 0 -22 5q30 36 54 94q55 136 55 323q0 186 -55 322q-24 58 -54 94z" />
    <glyph glyph-name="asterisk" unicode="*" horiz-adv-x="389" 
d="M349 607q0 -21 -17 -26l-65 -19q-9 -3 -14 -3t-9 4.5t-4 9.5q0 6 4 10l56 56q7 7 16 7q13 0 23 -12.5t10 -26.5zM228 691q0 -5 -3 -17l-17 -69q-3 -10 -13 -10t-13 10l-17 70q-3 9 -3 14q0 13 9 20.5t24 7.5t24 -7t9 -19zM349 468q0 -12 -5 -21q-9 -18 -28 -18
q-5 0 -11 3t-9 7l-52 54q-4 4 -4 10q0 5 3.5 9.5t8.5 4.5q3 0 12 -3l67 -20q18 -6 18 -26zM149 573q0 -5 -4 -9.5t-9 -4.5t-14 3l-64 20q-17 5 -17 26q0 14 10 26.5t23 12.5q9 0 16 -7l55 -57q4 -4 4 -10zM227 385q0 -11 -9 -18.5t-24 -7.5t-24 8t-9 19q0 5 3 15l18 70
q3 10 13 10q9 0 12 -10l16 -66q4 -9 4 -20zM149 503q0 -6 -4 -10l-56 -56q-7 -7 -16 -7q-13 0 -23 12.5t-10 26.5q0 21 17 26l66 19q9 3 13 3q5 0 9 -4t4 -10z" />
    <glyph glyph-name="plus" unicode="+" horiz-adv-x="540" 
d="M297 311v-158h-54v157h-157v55h157v158h54v-157h157v-55h-157z" />
    <glyph glyph-name="comma" unicode="," horiz-adv-x="217" 
d="M157 26q0 -30 -11.5 -60.5t-30.5 -53.5q-22 -27 -46 -27q-19 0 -29 21q23 11 40.5 33.5t20.5 46.5q-16 7 -26 20t-10 29q0 21 12 34.5t32 13.5q23 0 35.5 -15t12.5 -42z" />
    <glyph glyph-name="hyphen" unicode="-" horiz-adv-x="444" 
d="M121 242q-45 0 -45 35q0 5 0.5 8.5t1.5 8.5h251q25 0 35.5 -8.5t10.5 -26.5q0 -5 -0.5 -9t-1.5 -8h-252z" />
    <glyph glyph-name="period" unicode="." horiz-adv-x="216" 
d="M156 36q0 -21 -14 -36t-34 -15t-34 15t-14 36t14 36t34 15t34 -15t14 -36z" />
    <glyph glyph-name="slash" unicode="/" horiz-adv-x="376" 
d="M81 0h-61l261 633q10 24 19.5 32t24.5 8q11 0 23 -4l8 -3z" />
    <glyph glyph-name="zero" unicode="0" horiz-adv-x="540" 
d="M498 326q0 -166 -58.5 -253.5t-169.5 -87.5q-113 0 -170.5 86t-57.5 255q0 166 60 255.5t172 89.5q110 0 167 -88t57 -257zM436 326q0 148 -41 221t-124 73q-167 0 -167 -294q0 -290 167 -290q84 0 124.5 72t40.5 218z" />
    <glyph glyph-name="one" unicode="1" horiz-adv-x="540" 
d="M281 0v592l-149 -78q-17 19 -17 33q0 15 19 25l153 86q11 7 23 7q8 0 16 -3t13 -8v-654h-58z" />
    <glyph glyph-name="two" unicode="2" horiz-adv-x="540" 
d="M54 0v50q150 127 224 215q56 66 79.5 117.5t23.5 103.5q0 64 -34.5 98.5t-96.5 34.5q-32 0 -61.5 -10.5t-55 -29.5t-39.5 -39h-11q-20 23 -20 35t12 25q26 29 74.5 50t103.5 21q90 0 138.5 -47.5t48.5 -137.5q0 -120 -125 -259q-38 -44 -87.5 -91.5t-96.5 -85.5h297
q22 0 35.5 -11t13.5 -30q0 -6 -1 -9h-422z" />
    <glyph glyph-name="three" unicode="3" horiz-adv-x="540" 
d="M451 183q0 -93 -57 -145.5t-160 -52.5q-56 0 -104 17t-73 42q-13 9 -13 23q0 7 6.5 19t17.5 24q16 -20 44 -38t59 -27t64 -9q72 0 114 38.5t42 109.5q0 45 -20 76t-57.5 47.5t-80.5 16.5h-28v49h28q38 0 72 16t51.5 45t17.5 70q0 56 -34 86t-98 30q-34 0 -60.5 -9
t-46 -22t-32 -25t-18.5 -18h-11q-20 23 -20 34t12 23q32 32 80 50t104 18q87 0 136 -44t49 -118q0 -33 -10.5 -60.5t-28.5 -48t-40 -34.5t-36 -16q61 -13 96 -56.5t35 -110.5z" />
    <glyph glyph-name="four" unicode="4" horiz-adv-x="540" 
d="M48 182v45l313 418q13 20 30 20q18 0 29 -8v-425h34q44 0 44 -38q0 -8 -1 -12h-77v-182h-58v182h-314zM362 232v330l-249 -330h249z" />
    <glyph glyph-name="five" unicode="5" horiz-adv-x="540" 
d="M171 609l-20 -201q38 9 89 9q104 0 164 -56.5t60 -159.5q0 -99 -57.5 -157.5t-159.5 -58.5q-56 0 -104 17t-73 42q-13 9 -13 23q0 7 6.5 19t17.5 24q27 -33 71 -53.5t96 -20.5q44 0 80.5 20.5t56 56t19.5 83.5q0 83 -47 126.5t-133 43.5q-56 0 -118 -16l-15 7l30 306h317
q1 -5 1 -9q0 -21 -12 -33t-34 -12h-222z" />
    <glyph glyph-name="six" unicode="6" horiz-adv-x="540" 
d="M482 218q0 -72 -26.5 -124.5t-73 -80.5t-105.5 -28q-105 0 -158 70.5t-53 209.5q0 95 25.5 170t70.5 127.5t103.5 80.5t119.5 28q19 0 28 -7t9 -24q0 -6 -0.5 -10.5t-1.5 -9.5h-21q-58 0 -104.5 -21.5t-80 -59t-54.5 -85t-24 -82.5q27 32 69 51t89 19q59 0 101 -28.5
t64.5 -80t22.5 -115.5zM421 211q0 84 -36 131.5t-102 47.5q-47 0 -87 -23.5t-66 -63.5q-1 -8 -2 -21t-1 -29q0 -105 39 -162t115 -57q64 0 102 48t38 129z" />
    <glyph glyph-name="seven" unicode="7" horiz-adv-x="540" 
d="M188 0h-63l288 609h-355q-1 5 -1 11q0 19 14.5 31t37.5 12h343q17 0 24 -6t7 -19v-13z" />
    <glyph glyph-name="eight" unicode="8" horiz-adv-x="540" 
d="M492 177q0 -90 -60 -141t-162 -51q-107 0 -164 48.5t-57 140.5q0 62 38 110.5t97 62.5q-54 18 -83 58t-29 94q0 77 56 124.5t143 47.5q92 0 145.5 -44.5t53.5 -124.5q0 -53 -29.5 -93t-84.5 -60q61 -11 98.5 -59t37.5 -113zM410 501q0 58 -36 89.5t-103 31.5
q-66 0 -102.5 -32t-36.5 -90q0 -53 40 -89t99 -36q39 0 71 18t50 47t18 61zM430 177q0 66 -43 105.5t-116 39.5t-117 -40t-44 -105q0 -67 43.5 -105.5t117.5 -38.5t116.5 38.5t42.5 105.5z" />
    <glyph glyph-name="nine" unicode="9" horiz-adv-x="540" 
d="M59 439q0 71 26 123.5t72.5 80.5t106.5 28q100 0 155.5 -72.5t55.5 -203.5q0 -126 -43 -217.5t-117 -142t-159 -50.5q-19 0 -28 7t-9 24q0 6 0.5 10.5t1.5 9.5h21q58 0 104.5 22t80 60t54.5 86.5t24 83.5q-28 -33 -68 -51.5t-86 -18.5q-90 0 -141 61t-51 160zM120 446
q0 -84 35.5 -130t102.5 -46q47 0 87 23.5t66 63.5q1 8 2 21t1 29q0 66 -18 115t-52 74.5t-84 25.5q-64 0 -102 -48t-38 -128z" />
    <glyph glyph-name="colon" unicode=":" horiz-adv-x="216" 
d="M156 36q0 -21 -14 -36t-34 -15t-34 15t-14 36t14 36t34 15t34 -15t14 -36zM156 414q0 -21 -14 -36t-34 -15t-34 15t-14 36t14 36t34 15t34 -15t14 -36z" />
    <glyph glyph-name="semicolon" unicode=";" horiz-adv-x="217" 
d="M157 26q0 -30 -11.5 -60.5t-30.5 -53.5q-22 -27 -46 -27q-19 0 -29 21q23 11 40.5 33.5t20.5 46.5q-16 7 -26 20t-10 29q0 21 12 34.5t32 13.5q23 0 35.5 -15t12.5 -42zM169 414q0 -21 -14 -36t-34 -15t-34 15t-14 36t14 36t34 15t34 -15t14 -36z" />
    <glyph glyph-name="less" unicode="&#x3c;" horiz-adv-x="540" 
d="M94 315v47l350 173v-62l-274 -135l274 -134v-63z" />
    <glyph glyph-name="equal" unicode="=" horiz-adv-x="540" 
d="M84 221v55h372v-55h-372zM84 394v56h372v-55z" />
    <glyph glyph-name="greater" unicode="&#x3e;" horiz-adv-x="540" 
d="M444 362v-47l-350 -174v63l275 134l-275 135v62z" />
    <glyph glyph-name="question" unicode="?" horiz-adv-x="431" 
d="M211 172q-3 -1 -12 -1q-41 0 -41 50q1 27 15 51t36 46.5t46 45.5q43 41 59.5 72t16.5 65q0 61 -36.5 95t-98.5 34q-83 0 -143 -60h-11q-20 23 -20 34t12 23q24 24 68 39t98 15q86 0 138.5 -46t52.5 -127q0 -30 -8 -57t-26 -52.5t-55 -60.5q-24 -22 -45.5 -42t-35 -42.5
t-13.5 -50.5q0 -22 3 -31zM236 36q0 -21 -14 -36t-34 -15t-34 15t-14 36t14 36t34 15t34 -15t14 -36z" />
    <glyph glyph-name="at" unicode="@" horiz-adv-x="789" 
d="M710 264q0 -120 -43.5 -206t-124 -131t-189.5 -45q-127 0 -194.5 51t-67.5 144q0 60 34.5 101.5t100 63t148.5 21.5q21 0 45 -2q0 135 -123 135q-78 0 -133 -43h-9q-14 20 -14 33t26 27q26 15 62 23.5t73 8.5q86 0 131 -45.5t45 -130.5v-118q0 -29 4.5 -47t15 -26.5
t35.5 -10.5v-22q-15 -4 -36 -4q-36 0 -56 18t-20 52v110q-7 1 -26 1q-121 0 -182.5 -37t-61.5 -108q0 -69 54 -107t157 -38q90 0 155.5 40t99.5 114t34 178q0 98 -41 168.5t-114.5 108t-169.5 37.5q-55 0 -104.5 -13t-90 -35.5t-56.5 -41.5h-11q-20 23 -20 34t12 23
q19 19 66 41t100 33t110 11q117 0 202.5 -46.5t131 -129.5t45.5 -190z" />
    <glyph glyph-name="A" unicode="A" horiz-adv-x="610" 
d="M522 0l-69 187h-299l-69 -187h-60l252 665q14 6 29 6q13 0 21.5 -7t13.5 -21l244 -643h-63zM303 595l-131 -358h261z" />
    <glyph glyph-name="B" unicode="B" horiz-adv-x="562" 
d="M512 188q0 -98 -62 -143t-205 -45h-160v668q78 8 163 8q122 0 176.5 -37.5t54.5 -124.5q0 -32 -9 -58.5t-25.5 -47.5t-38.5 -36t-42 -21q69 -10 108.5 -52t39.5 -111zM417 513q0 40 -17 65t-54.5 37t-109.5 12q-62 0 -93 -4v-253h115q72 0 115.5 38.5t43.5 104.5z
M450 186q0 135 -190 135h-117v-272h73q96 0 143 13t69 43.5t22 80.5z" />
    <glyph glyph-name="C" unicode="C" horiz-adv-x="596" 
d="M528 113q28 -26 28 -37q0 -9 -10 -20q-16 -18 -47.5 -35.5t-67.5 -26.5t-76 -9q-140 0 -215 90.5t-75 256.5q0 165 77 257t219 92q55 0 102 -18t79 -50q12 -12 12 -23t-20 -34h-11q-29 35 -72 54.5t-93 19.5q-113 0 -172 -77.5t-59 -220.5q0 -142 60 -220t174 -78
q65 0 122 39q27 19 45 40z" />
    <glyph glyph-name="D" unicode="D" horiz-adv-x="641" 
d="M576 340q0 -99 -29.5 -169.5t-89.5 -114.5q-76 -56 -203 -56h-169v667q82 9 160 9q168 0 249.5 -81.5t81.5 -254.5zM514 340q0 145 -65.5 215.5t-200.5 70.5q-59 0 -104 -5v-572h114q125 0 190.5 75t65.5 216z" />
    <glyph glyph-name="E" unicode="E" horiz-adv-x="493" 
d="M85 0v669h371q1 -2 1 -4.5v-4.5q0 -41 -46 -41h-267v-242h236v-51h-236v-276h280q23 0 36 -11t13 -30v-4.5t-1 -4.5h-387z" />
    <glyph glyph-name="F" unicode="F" horiz-adv-x="467" 
d="M85 0v669h373q0 -23 -12.5 -36.5t-35.5 -13.5h-266v-236h236v-51h-236v-332h-59z" />
    <glyph glyph-name="G" unicode="G" horiz-adv-x="650" 
d="M585 87q-17 -28 -47 -49q-36 -28 -80.5 -40.5t-102.5 -12.5q-140 0 -215 92t-75 261q0 164 77 253.5t219 89.5q55 0 102 -18t79 -50q12 -12 12 -23t-20 -34h-11q-29 35 -72 54.5t-93 19.5q-114 0 -172.5 -74.5t-58.5 -217.5q0 -145 60 -224.5t174 -79.5q58 0 100.5 17.5
t66.5 49.5v191h-154v50h211v-255z" />
    <glyph glyph-name="H" unicode="H" horiz-adv-x="649" 
d="M564 0h-59v325h-361v-325h-59v670q6 1 11 1q22 0 35 -13t13 -38v-245h361v295q6 1 11 1q22 0 35 -13t13 -38v-620z" />
    <glyph glyph-name="I" unicode="I" horiz-adv-x="229" 
d="M144 0h-59v670q4 1 6.5 1h6.5q20 0 33 -13.5t13 -37.5v-620z" />
    <glyph glyph-name="J" unicode="J" horiz-adv-x="229" 
d="M144 23q0 -11 -0.5 -23t-1.5 -23q-5 -44 -25 -78t-51.5 -51.5t-73.5 -17.5q-23 0 -32.5 7t-9.5 25q0 4 0.5 8.5t1.5 9.5q5 -1 9.5 -1h9.5q45 0 70.5 18.5t37.5 59.5q6 19 6 59v654q6 1 11 1q22 0 35 -13t13 -38v-597z" />
    <glyph glyph-name="K" unicode="K" horiz-adv-x="535" 
d="M429 646q25 25 49 25q11 0 27 -7l10 -6l-279 -295l299 -366q-16 -6 -33 -6q-21 0 -36.5 7.5t-30.5 25.5l-263 322v27zM144 0h-59v670q6 1 11 1q22 0 35 -13t13 -38v-620z" />
    <glyph glyph-name="L" unicode="L" horiz-adv-x="472" 
d="M144 50h255q23 0 36 -11t13 -30v-4.5t-1 -4.5h-362v670q6 1 11 1q22 0 35 -13t13 -38v-570z" />
    <glyph glyph-name="M" unicode="M" horiz-adv-x="790" 
d="M117 667q9 4 28 4q14 0 22.5 -6t18.5 -24l207 -430l209 428q9 16 19.5 24t26.5 8q20 0 29 -4l48 -667h-55l-40 576l-207 -416h-63l-196 401l-42 -561h-57z" />
    <glyph glyph-name="N" unicode="N" horiz-adv-x="661" 
d="M576 0h-61l-375 568v-568h-55v667q9 4 28 4q15 0 24 -5.5t19 -20.5l365 -562v587q7 1 13 1q42 0 42 -51v-620z" />
    <glyph glyph-name="O" unicode="O" horiz-adv-x="696" 
d="M631 338q0 -109 -34.5 -189.5t-98.5 -122t-153 -41.5q-90 0 -152.5 43t-95 123t-32.5 186q0 105 35.5 183.5t100 119.5t153.5 41q133 0 205 -91t72 -252zM568 337q0 142 -55 217.5t-160 75.5q-110 0 -167 -75t-57 -218q0 -144 56.5 -223t163.5 -79q106 0 162.5 79
t56.5 223z" />
    <glyph glyph-name="P" unicode="P" horiz-adv-x="531" 
d="M491 488q0 -216 -264 -216h-83v-272h-59v668q90 8 148 8q131 0 194.5 -46.5t63.5 -141.5zM429 482q0 73 -46.5 109t-146.5 36q-57 0 -93 -4v-302h94q97 0 144.5 40t47.5 121z" />
    <glyph glyph-name="Q" unicode="Q" horiz-adv-x="696" 
d="M567 -95q-3 -26 -6.5 -37t-10.5 -16t-17 -5q-30 0 -67 19t-77 53q-12 11 -21 18.5t-15 15.5q6 8 15.5 10.5t19.5 -0.5q13 -5 29 -14t36.5 -18.5t48.5 -17t65 -8.5zM631 338q0 -109 -34.5 -189.5t-98.5 -122t-153 -41.5q-90 0 -152.5 43t-95 123t-32.5 186
q0 105 35.5 183.5t100 119.5t153.5 41q133 0 205 -91t72 -252zM568 337q0 142 -55 217.5t-160 75.5q-110 0 -167 -75t-57 -218q0 -144 56.5 -223t163.5 -79q106 0 162.5 79t56.5 223z" />
    <glyph glyph-name="R" unicode="R" horiz-adv-x="543" 
d="M481 492q0 -77 -42.5 -126t-121.5 -65l195 -304q-15 -6 -30 -6q-19 0 -34 10.5t-30 33.5l-166 258h-108v-293h-59v668q90 8 148 8q130 0 189 -44t59 -140zM419 489q0 73 -43 105.5t-146 32.5q-51 0 -87 -4v-281h86q190 0 190 147z" />
    <glyph glyph-name="S" unicode="S" horiz-adv-x="486" 
d="M53 105q29 -32 74.5 -50.5t97.5 -18.5q75 0 114.5 35.5t39.5 99.5q0 38 -12 65t-41 46t-88 37q-77 24 -116 48.5t-57.5 58.5t-18.5 80q0 81 56 128t149 47q46 -1 79 -10t53 -20.5t28 -17.5q13 -10 13 -25q0 -12 -18 -36h-11q-58 58 -146 58q-69 0 -105.5 -32t-36.5 -88
q0 -33 14 -57t46.5 -43t94.5 -37q63 -19 102 -45t58 -63t19 -85q0 -91 -58.5 -143t-159.5 -52q-59 0 -107.5 16t-71.5 39q-14 10 -14 23q0 16 23 42z" />
    <glyph glyph-name="T" unicode="T" horiz-adv-x="517" 
d="M516 669q1 -6 1 -10q0 -18 -13 -29t-36 -11h-178v-619h-59v619h-230q-1 5 -1 9q0 20 12.5 30.5t35.5 10.5h468z" />
    <glyph glyph-name="U" unicode="U" horiz-adv-x="638" 
d="M558 263q0 -56 -3 -80q-6 -62 -36 -107t-80.5 -68t-118.5 -23q-107 0 -165 49t-70 149q-5 40 -5 80v407q6 1 11 1q22 0 35 -13t13 -38v-371q0 -70 14 -109q36 -107 169 -107q130 0 164 105q13 37 13 111v421q6 1 11 1q22 0 35 -13t13 -38v-357z" />
    <glyph glyph-name="V" unicode="V" horiz-adv-x="563" 
d="M312 -5h-61l-241 673q5 1 11.5 2t14.5 1q41 0 56 -47l191 -570l192 571q9 25 22 35.5t35 10.5q5 0 10.5 -0.5t10.5 -1.5z" />
    <glyph glyph-name="W" unicode="W" horiz-adv-x="863" 
d="M637 -5h-67l-134 435l-136 -435h-68l-222 673q15 3 26 3q19 0 31.5 -11t21.5 -37l179 -576l142 472l-43 150q5 1 10.5 1.5t13.5 0.5q39 0 51 -48l163 -574l172 571q15 51 54 51q6 0 11.5 -0.5t10.5 -1.5z" />
    <glyph glyph-name="X" unicode="X" horiz-adv-x="542" 
d="M268 291l-174 -291h-65l206 341l-189 324q15 6 29 6q21 0 35 -9t26 -30l136 -244l143 239q14 24 27.5 34t32.5 10q14 0 29 -6l-199 -326l210 -342q-15 -6 -28 -6q-20 0 -34 9t-27 30z" />
    <glyph glyph-name="Y" unicode="Y" horiz-adv-x="499" 
d="M279 288v-288h-59v287l-215 380q12 5 32 5q18 0 29 -7t21 -26l165 -291l160 288q11 19 23.5 27t30.5 8q19 0 28 -3z" />
    <glyph glyph-name="Z" unicode="Z" horiz-adv-x="510" 
d="M461 669q29 0 29 -26v-15l-403 -578h354q23 0 36 -11t13 -30v-4.5t-1 -4.5h-474v44l397 575h-390q-1 4 -1 9q0 19 13 30t36 11h391z" />
    <glyph glyph-name="bracketleft" unicode="[" horiz-adv-x="249" 
d="M60 -136v853h164v-48h-105v-757h105v-48h-164z" />
    <glyph glyph-name="backslash" unicode="\" horiz-adv-x="376" 
d="M20 666l9 3q9 4 22 4q15 0 24.5 -8t19.5 -32l261 -633h-61z" />
    <glyph glyph-name="bracketright" unicode="]" horiz-adv-x="249" 
d="M25 -136v48h105v757h-105v48h164v-853h-164z" />
    <glyph glyph-name="asciicircum" unicode="^" horiz-adv-x="540" 
d="M399 310l-129 310l-129 -310h-59l156 361h69l151 -361h-59z" />
    <glyph glyph-name="underscore" unicode="_" horiz-adv-x="460" 
d="M41 -144v44h378v-44h-378z" />
    <glyph glyph-name="grave" unicode="`" horiz-adv-x="500" 
d="M163 654q22 16 45 16q12 0 22 -6.5t22 -24.5l85 -110q-5 -4 -13.5 -6.5t-17.5 -2.5q-19 0 -33 15z" />
    <glyph glyph-name="a" unicode="a" horiz-adv-x="486" 
d="M461 0q-20 -5 -36 -5q-34 0 -54 16.5t-22 46.5q-67 -67 -162 -67q-68 0 -107.5 35t-39.5 101q0 53 32 89.5t93 56t138 19.5q12 0 23 -0.5t22 -1.5v24q0 59 -27.5 85.5t-88.5 26.5q-40 0 -76 -11t-62 -31h-9q-14 20 -14 33t26 27q25 14 64 22.5t76 8.5q90 0 129.5 -39
t39.5 -131v-200q0 -28 4 -45.5t14 -26.5t37 -11v-22zM349 249q-6 1 -12.5 1h-13.5q-223 0 -223 -121q0 -43 24.5 -67t72.5 -24q38 0 72.5 14t57 33.5t22.5 32.5v131z" />
    <glyph glyph-name="b" unicode="b" horiz-adv-x="530" 
d="M80 0v709q6 1 10 1q22 0 34.5 -12.5t12.5 -37.5v-243q26 26 64 42t79 16q93 0 144 -61.5t51 -177.5q0 -81 -25 -137t-71.5 -85t-106.5 -29q-32 0 -56 7.5t-40.5 17t-26 18.5t-12.5 12v-40h-57zM414 229q0 96 -36.5 146t-108.5 50q-41 0 -74 -14t-50 -37q-8 -11 -8 -22
v-259q22 -26 55.5 -43t70.5 -17q73 0 112 50.5t39 145.5z" />
    <glyph glyph-name="c" unicode="c" horiz-adv-x="455" 
d="M401 91q23 -20 23 -33q0 -10 -18 -27q-25 -22 -60.5 -34t-75.5 -12q-66 0 -115.5 29t-74.5 83.5t-25 133.5q0 78 28 132t79.5 83t109.5 29q83 0 135 -43q18 -14 18 -30q0 -11 -16 -37h-9q-45 61 -126 61q-76 0 -117 -51.5t-41 -143.5q0 -93 41.5 -145.5t118.5 -52.5
q53 0 94 29q16 11 31 29z" />
    <glyph glyph-name="d" unicode="d" horiz-adv-x="531" 
d="M394 709q3 1 5.5 1h4.5q22 0 34.5 -12.5t12.5 -37.5v-660h-57v45q-20 -27 -56.5 -43.5t-81.5 -16.5q-95 0 -148 62.5t-53 178.5q0 80 26.5 135t74.5 84.5t108 29.5q41 -1 68.5 -12t42.5 -24t19 -18v288zM117 237q0 -99 38.5 -151t112.5 -52q47 0 85 24t41 51v260
q-49 58 -122 58q-76 0 -115.5 -48.5t-39.5 -141.5z" />
    <glyph glyph-name="e" unicode="e" horiz-adv-x="497" 
d="M435 57q0 -15 -26 -33.5t-61 -28.5t-73 -10q-107 0 -163.5 64t-56.5 186q0 75 26.5 129t74.5 82.5t108 28.5q87 0 135 -54.5t48 -147.5q0 -24 -3 -51h-328q2 -92 43 -140.5t118 -48.5q46 0 82 16.5t54 42.5q22 -25 22 -35zM390 265q0 162 -131 162q-64 0 -102 -43
t-40 -119h273z" />
    <glyph glyph-name="f" unicode="f" horiz-adv-x="320" 
d="M350 618q-19 27 -44.5 39.5t-59.5 12.5q-46 0 -72 -20.5t-34 -64.5q-3 -19 -3 -42v-76h175v-47h-175v-420h-57v526q0 29 3 53q23 138 161 138q71 0 113 -35q18 -14 18 -30q0 -6 -3 -12.5t-13 -21.5h-9z" />
    <glyph glyph-name="g" unicode="g" horiz-adv-x="531" 
d="M451 25q0 -71 -10 -115q-33 -137 -210 -137q-47 0 -87.5 11.5t-61.5 29.5q-15 14 -15 27q0 7 6.5 16.5t16.5 18.5q12 -15 35 -28q41 -27 105 -27q142 0 158 114q6 40 6 96v17q-31 -31 -63 -44t-73 -13q-94 0 -148.5 63t-54.5 176q0 78 26.5 132.5t75 83.5t107.5 29
q32 0 55.5 -7t39 -17t24 -18.5l11.5 -11.5q0 21 13 33.5t32 12.5q7 0 12 -1v-441zM117 237q0 -94 39 -145.5t112 -51.5q34 0 62.5 11.5t46 29t17.5 34.5v254q-49 58 -122 58q-76 0 -115.5 -48.5t-39.5 -141.5z" />
    <glyph glyph-name="h" unicode="h" horiz-adv-x="542" 
d="M137 411q29 30 72.5 47t95.5 17q61 0 100 -27t49 -75q8 -32 8 -89v-284h-58v284q0 49 -9 75q-19 64 -109 64q-37 0 -72 -12t-56 -29t-21 -32v-350h-57v709q6 1 10 1q22 0 34.5 -12.5t12.5 -37.5v-249z" />
    <glyph glyph-name="i" unicode="i" horiz-adv-x="224" 
d="M148 -5q-23 0 -38 9t-22 29t-7 65v369h3q54 0 54 -52v-320q0 -25 4 -41t14.5 -23.5t32.5 -9.5v-21q-19 -5 -41 -5zM150 590q0 -19 -12.5 -32.5t-30.5 -13.5t-30.5 13.5t-12.5 32.5t12.5 32.5t30.5 13.5t30.5 -13.5t12.5 -32.5z" />
    <glyph glyph-name="j" unicode="j" horiz-adv-x="218" 
d="M138 -57q0 -56 -11 -89q-13 -39 -42 -60t-69 -21q-19 0 -28 9.5t-9 35.5q46 0 69 17t29 55q4 17 4 43v534h3q54 0 54 -52v-472zM150 590q0 -19 -12.5 -32.5t-30.5 -13.5t-30.5 13.5t-12.5 32.5t12.5 32.5t30.5 13.5t30.5 -13.5t12.5 -32.5z" />
    <glyph glyph-name="k" unicode="k" horiz-adv-x="472" 
d="M80 0v709q6 1 10 1q22 0 35 -13t13 -38v-659h-58zM171 246v28l166 164q16 16 28 22.5t25 6.5q11 0 27 -7l11 -7l-197 -191l228 -265q-15 -6 -31 -6q-37 0 -65 34z" />
    <glyph glyph-name="l" unicode="l" horiz-adv-x="224" 
d="M80 709q6 1 10 1q22 0 35 -13t13 -38v-567q0 -25 4.5 -40t15 -22t31.5 -9v-21q-19 -5 -41 -5q-24 0 -39 9.5t-22 29.5t-7 64v611z" />
    <glyph glyph-name="m" unicode="m" horiz-adv-x="821" 
d="M137 412q61 63 157 63q97 0 132 -65q61 65 161 65q61 0 98.5 -26.5t47.5 -75.5q8 -32 8 -89v-284h-58v284q0 49 -9 75q-10 34 -36 49t-73 15q-34 0 -67.5 -15.5t-57.5 -40.5q8 -31 8 -83v-284h-58v284q0 49 -9 75q-10 34 -36.5 49t-72.5 15q-37 0 -71 -14.5t-55 -39.5
q-8 -10 -8 -25v-344h-58v467h4q53 0 53 -55z" />
    <glyph glyph-name="n" unicode="n" horiz-adv-x="543" 
d="M137 412q28 29 72.5 46t96.5 17q61 0 100 -27t49 -75q8 -32 8 -89v-284h-58v284q0 49 -9 75q-19 64 -113 64q-39 0 -78 -15.5t-59 -38.5q-8 -10 -8 -25v-344h-58v467h4q53 0 53 -55z" />
    <glyph glyph-name="o" unicode="o" horiz-adv-x="535" 
d="M419 231q0 97 -38 146t-112 49q-73 0 -113 -52.5t-40 -142.5q0 -95 38.5 -146.5t112.5 -51.5q75 0 113.5 50.5t38.5 147.5zM480 231q0 -114 -55.5 -180t-157.5 -66q-101 0 -156.5 65t-55.5 178q0 73 27.5 130t76 87t112.5 30q100 0 154.5 -65t54.5 -179z" />
    <glyph glyph-name="p" unicode="p" horiz-adv-x="530" 
d="M80 -218v685h4q53 0 53 -50q26 26 64 42t79 16q93 0 144 -61.5t51 -177.5q0 -81 -25 -137t-71.5 -85t-106.5 -29q-43 1 -71.5 12t-44 23.5t-19.5 17.5v-256h-57zM414 229q0 96 -36.5 146t-108.5 50q-41 0 -74 -14t-50 -37q-8 -11 -8 -22v-261q22 -26 55.5 -42t70.5 -16
q74 0 112.5 50t38.5 146z" />
    <glyph glyph-name="q" unicode="q" horiz-adv-x="531" 
d="M451 -218h-57v260q-31 -31 -63 -44t-73 -13q-95 0 -149 63t-54 177q0 80 26.5 135.5t75 85t107.5 29.5q32 0 55.5 -7t39 -17t24 -18.5l11.5 -11.5q0 21 13 33.5t32 12.5q7 0 12 -1v-684zM117 233q0 -97 39 -148t112 -51q34 0 62.5 11.5t46 29t17.5 34.5v260
q-49 58 -122 58q-76 0 -115.5 -49.5t-39.5 -144.5z" />
    <glyph glyph-name="r" unicode="r" horiz-adv-x="329" 
d="M137 413q18 28 47.5 45t62.5 17q30 0 48.5 -9t18.5 -26q0 -9 -5.5 -21t-13.5 -21q-13 13 -27 18t-35 5q-37 0 -66.5 -24t-29.5 -54v-343h-57v467h4q25 0 39 -14t14 -40z" />
    <glyph glyph-name="s" unicode="s" horiz-adv-x="396" 
d="M194 427q-44 0 -72.5 -20.5t-28.5 -56.5q0 -19 9.5 -34t31 -27t73.5 -26q26 -8 51.5 -17.5t46 -24t33.5 -38.5t13 -60q0 -63 -45.5 -100.5t-117.5 -37.5q-43 0 -82.5 10t-60.5 24q-15 11 -15 23q0 7 4.5 15t15.5 23q24 -20 61 -34.5t75 -14.5q50 0 79.5 23.5t29.5 65.5
q0 23 -10 41t-32.5 31t-78.5 27q-61 17 -86.5 33.5t-38 40.5t-12.5 57q0 38 20.5 66t56.5 43.5t79 15.5q41 0 75 -11t56 -30q19 -14 19 -29q0 -8 -4.5 -17.5t-10.5 -20.5h-9q-45 60 -125 60z" />
    <glyph glyph-name="t" unicode="t" horiz-adv-x="330" 
d="M288 467v-46h-156v-293q0 -95 73 -95q34 0 64 22q12 9 23 22q23 -23 23 -34q0 -10 -19 -25.5t-44 -24t-52 -8.5q-91 0 -115 70q-10 30 -10 83v472q5 1 9 1q22 0 35 -13t13 -38v-93h156z" />
    <glyph glyph-name="u" unicode="u" horiz-adv-x="543" 
d="M463 0h-58v54q-29 -30 -73 -46.5t-95 -16.5q-62 0 -101 27.5t-48 74.5q-8 32 -8 89v285h4q53 0 53 -54v-231q0 -46 10 -75q19 -64 113 -64q35 0 69.5 12.5t55.5 29t21 31.5v351h4q53 0 53 -55v-412z" />
    <glyph glyph-name="v" unicode="v" horiz-adv-x="444" 
d="M249 -4h-60l-174 466q15 5 27 5q20 0 32.5 -11t22.5 -41l123 -362l131 366q10 27 22.5 37.5t30.5 10.5q11 0 25 -6z" />
    <glyph glyph-name="w" unicode="w" horiz-adv-x="686" 
d="M513 -4h-63l-103 267l-112 -267h-59l-161 466l14 3.5t12 1.5q17 0 29.5 -12.5t23.5 -42.5l116 -360l111 275l-52 136q9 4 23 4q20 0 33 -11.5t23 -39.5l134 -361l114 360q10 29 22 40.5t29 11.5q15 0 24 -4z" />
    <glyph glyph-name="x" unicode="x" horiz-adv-x="418" 
d="M209 274l117 165q12 16 23 22t27 6q13 0 27 -6l-163 -231l158 -233q-14 -6 -26 -6q-17 0 -29.5 7t-25.5 24l-111 163l-108 -161q-13 -20 -24.5 -26.5t-30.5 -6.5q-16 0 -28 5l160 235l-155 231q12 5 28 5q20 0 30 -5.5t23 -25.5z" />
    <glyph glyph-name="y" unicode="y" horiz-adv-x="444" 
d="M227 -102q-17 -46 -36.5 -72.5t-46 -39.5t-61.5 -13q-37 0 -60 12q-19 10 -19 24q0 16 18 39q27 -27 64 -27q31 0 50.5 21t41.5 81l29 77h-28l-164 462q13 5 27 5q19 0 31.5 -11t23.5 -44l123 -365l130 370q17 50 54 50q11 0 25 -6z" />
    <glyph glyph-name="z" unicode="z" horiz-adv-x="408" 
d="M28 0v44l277 373h-273q0 26 11 38t35 12h270q28 0 28 -26v-18l-280 -372h247q24 0 34.5 -12t10.5 -39h-360z" />
    <glyph glyph-name="braceleft" unicode="{" horiz-adv-x="301" 
d="M172 437q0 -61 -17.5 -94.5t-55.5 -48.5q73 -16 73 -145v-151q0 -46 24.5 -67t81.5 -21q3 -14 3 -26q0 -22 -31 -22q-66 0 -102 37t-36 101v156q0 53 -19 82.5t-53 29.5v53q35 0 53.5 29.5t18.5 82.5v146q0 64 36 101t102 37q31 0 31 -22q0 -7 -0.5 -13t-2.5 -13
q-57 0 -81.5 -21t-24.5 -67v-144z" />
    <glyph glyph-name="bar" unicode="|" horiz-adv-x="259" 
d="M96 -188v982h57v-982h-57z" />
    <glyph glyph-name="braceright" unicode="}" horiz-adv-x="301" 
d="M119 581q0 46 -24.5 67t-81.5 21q-1 7 -2 13t-1 13q0 22 31 22q66 0 102 -37t36 -101v-146q0 -53 18.5 -82.5t53.5 -29.5v-53q-34 0 -53 -29.5t-19 -82.5v-156q0 -64 -36 -101t-102 -37q-31 0 -31 22q0 12 3 26q57 0 81.5 21t24.5 67v151q0 129 73 145q-38 15 -55.5 48.5
t-17.5 94.5v144z" />
    <glyph glyph-name="asciitilde" unicode="~" horiz-adv-x="540" 
d="M482 659q-3 -58 -35.5 -92.5t-80.5 -34.5q-25 0 -47.5 9.5t-54.5 34.5q-27 20 -44.5 27.5t-35.5 7.5q-34 0 -55 -19.5t-27 -56.5h-44q8 58 41.5 90.5t86.5 32.5q28 0 49.5 -8t38.5 -19.5t33 -24.5q22 -17 34.5 -22t25.5 -5q30 0 47 18.5t23 61.5h45z" />
    <glyph glyph-name="uni00A0" unicode="&#xa0;" horiz-adv-x="200" 
 />
    <glyph glyph-name="exclamdown" unicode="&#xa1;" horiz-adv-x="226" 
d="M82 301q7 1 10 1q22 0 35.5 -13t13.5 -38v-461q-2 -1 -5 -1h-5q-22 0 -35.5 13t-13.5 38v461zM62 424q0 21 14 36t34 15t34 -15t14 -36t-14 -36t-34 -15t-34 15t-14 36z" />
    <glyph glyph-name="cent" unicode="&#xa2;" horiz-adv-x="540" 
d="M434 201q23 -20 23 -33q0 -10 -18 -27q-13 -12 -31 -21.5t-38.5 -15.5t-42.5 -8v-105h-51v105q-91 9 -139.5 68t-48.5 163q0 103 49.5 164.5t138.5 74.5v96h51v-94q68 -5 113 -42q18 -14 18 -30q0 -11 -16 -37h-9q-39 56 -106 61v-376q40 3 80 31q16 10 27 26zM149 327
q0 -76 33 -123.5t94 -58.5v373q-62 -9 -94.5 -59t-32.5 -132z" />
    <glyph glyph-name="sterling" unicode="&#xa3;" horiz-adv-x="540" 
d="M138 0v295h-74v50h73v131q0 93 51 143t142 50q47 0 88 -16t69 -44q12 -12 12 -23t-20 -34h-11q-8 10 -23.5 25.5t-43.5 27.5t-72 13q-66 0 -100 -37t-34 -110v-126h221v-50h-221v-245h272q23 0 34 -8.5t11 -27.5q0 -8 -1 -14h-373z" />
    <glyph glyph-name="currency" unicode="&#xa4;" horiz-adv-x="540" 
d="M443 120l-51 50q-56 -43 -124 -43q-69 0 -122 41l-49 -48l-39 38l49 48q-20 26 -31 59.5t-11 67.5q0 35 11.5 69.5t31.5 60.5l-50 48l39 39l50 -50q56 40 121 40q69 0 123 -42l52 52l39 -39l-52 -51q19 -26 29.5 -59.5t10.5 -67.5q0 -69 -39 -124l51 -51zM413 333
q0 74 -38.5 116.5t-106.5 42.5t-107 -43t-39 -116t39 -115.5t107 -42.5t106.5 42.5t38.5 115.5z" />
    <glyph glyph-name="yen" unicode="&#xa5;" horiz-adv-x="540" 
d="M39 667q12 5 32 5t30.5 -6.5t19.5 -24.5l151 -293l146 290q9 18 21 25.5t32 7.5q19 0 28 -3l-176 -334h125v-47h-149v-88h149v-47h-149v-152h-59v152h-144v47h144v88h-144v47h119z" />
    <glyph glyph-name="brokenbar" unicode="&#xa6;" horiz-adv-x="259" 
d="M96 -188v403h57v-403h-57zM153 419h-57v375h57v-375z" />
    <glyph glyph-name="section" unicode="&#xa7;" horiz-adv-x="503" 
d="M70 307q0 39 25.5 73.5t60.5 49.5q-34 24 -46.5 49t-12.5 61q0 64 45.5 102.5t117.5 38.5q83 0 135 -43q18 -14 18 -30q0 -11 -16 -37h-9q-45 62 -128 62q-43 0 -73.5 -25.5t-30.5 -63.5q0 -23 8 -40t27.5 -31t68.5 -34q76 -32 108.5 -55t48.5 -50.5t16 -61.5
q0 -44 -24 -78.5t-64 -51.5q26 -20 37.5 -34.5t17 -31.5t5.5 -39q0 -65 -44.5 -103t-118.5 -38q-43 0 -79.5 11.5t-59.5 30.5q-18 14 -18 30q0 14 20 38h9q45 -62 128 -62q48 0 76 24t28 66q0 27 -11.5 44t-35.5 30t-59 28q-60 26 -88 43.5t-46 37t-27 42t-9 48.5zM130 308
q0 -22 11.5 -41t38.5 -37.5t93 -49.5l22 -10q36 14 58 40t22 58q0 17 -7 32.5t-21.5 29.5t-39.5 27.5t-78 34.5l-23 9q-33 -10 -54.5 -35t-21.5 -58z" />
    <glyph glyph-name="dieresis" unicode="&#xa8;" horiz-adv-x="500" 
d="M380 585q0 -19 -12 -31.5t-31 -12.5t-31 12.5t-12 31.5t12.5 31.5t30.5 12.5t30.5 -12.5t12.5 -31.5zM206 585q0 -19 -12 -31.5t-31 -12.5t-31 12t-12 32q0 19 12.5 31.5t30.5 12.5t30.5 -12.5t12.5 -31.5z" />
    <glyph glyph-name="copyright" unicode="&#xa9;" horiz-adv-x="796" 
d="M728 335q0 -102 -43.5 -183t-118 -124t-168.5 -43q-100 0 -174.5 46.5t-115 126.5t-40.5 177q0 101 43.5 181t118 122.5t168.5 42.5q100 0 174.5 -46t115 -125t40.5 -175zM676 335q0 86 -37 155t-99 106t-141 37q-84 0 -146.5 -40t-96.5 -108.5t-34 -149.5
q0 -87 37 -156.5t99 -107t141 -37.5q84 0 146.5 40.5t96.5 109.5t34 151zM551 189q0 -9 -17 -26q-22 -20 -56 -31.5t-73 -11.5q-57 0 -102 27t-68 76t-23 117q0 70 26 118.5t72.5 75t95.5 26.5q81 0 129 -40q17 -16 17 -29q0 -12 -15 -38h-9q-22 31 -51 45t-68 14
q-66 0 -102.5 -46t-36.5 -126q0 -81 36 -126.5t104 -45.5q53 0 89 27q19 12 30 28q22 -19 22 -34z" />
    <glyph glyph-name="ordfeminine" unicode="&#xaa;" horiz-adv-x="417" 
d="M377 323q-16 -4 -34 -4q-24 0 -40.5 10t-21.5 29q-51 -42 -115 -42q-54 0 -85 26.5t-31 76.5q0 60 55.5 93t146.5 33q20 0 27 -1q0 51 -21.5 72.5t-66.5 21.5q-57 0 -98 -33h-12q-13 19 -13 29q0 11 23 23q19 11 47 17.5t57 6.5q74 0 107 -32.5t33 -106.5v-141
q0 -32 8.5 -45.5t33.5 -13.5v-19zM280 511h-13q-78 0 -120 -23t-42 -68q0 -30 18 -47.5t50 -17.5q27 0 51.5 9t40 21.5t15.5 21.5v104z" />
    <glyph glyph-name="guillemotleft" unicode="&#xab;" horiz-adv-x="460" 
d="M294 272l90 -102q14 -17 14 -34q0 -18 -10 -34l-129 118q-17 15 -23 26.5t-6 25.5q0 13 6.5 24.5t25.5 28.5l126 118q5 -5 8.5 -14.5t3.5 -17.5q0 -21 -13 -34zM124 272l90 -102q14 -17 14 -34q0 -18 -10 -34l-129 118q-17 15 -23 26.5t-6 25.5q0 13 6.5 24.5t25.5 28.5
l126 118q5 -5 8.5 -14.5t3.5 -17.5q0 -21 -13 -34z" />
    <glyph glyph-name="logicalnot" unicode="&#xac;" horiz-adv-x="540" 
d="M424 185v181h-364v55h419v-236h-55z" />
    <glyph glyph-name="uni00AD" unicode="&#xad;" horiz-adv-x="444" 
d="M121 242q-45 0 -45 35q0 5 0.5 8.5t1.5 8.5h251q25 0 35.5 -8.5t10.5 -26.5q0 -5 -0.5 -9t-1.5 -8h-252z" />
    <glyph glyph-name="registered" unicode="&#xae;" horiz-adv-x="796" 
d="M553 128q-7 -4 -22 -4q-28 0 -45 27l-91 152h-67v-175h-47v416q52 4 117 4q73 0 112 -30.5t39 -87.5q0 -48 -29 -81.5t-74 -40.5zM500 428q0 78 -102 78q-28 0 -70 -3v-158h76q96 0 96 83zM728 335q0 -102 -43.5 -183t-118 -124t-168.5 -43q-100 0 -174.5 46.5
t-115 126.5t-40.5 177q0 101 43.5 181t118 122.5t168.5 42.5q100 0 174.5 -46t115 -125t40.5 -175zM676 335q0 86 -37 155t-99 106t-141 37q-84 0 -146.5 -40t-96.5 -108.5t-34 -149.5q0 -87 37 -156.5t99 -107t141 -37.5q84 0 146.5 40.5t96.5 109.5t34 151z" />
    <glyph glyph-name="macron" unicode="&#xaf;" horiz-adv-x="500" 
d="M146 558q-23 0 -34 7.5t-11 24.5q0 5 0.5 8.5t1.5 8.5h251q24 0 35 -7.5t11 -24.5q0 -5 -0.5 -9t-1.5 -8h-252z" />
    <glyph glyph-name="degree" unicode="&#xb0;" horiz-adv-x="377" 
d="M317 565q0 -54 -37 -90.5t-92 -36.5q-57 0 -93 36t-36 91q0 54 36.5 91t92.5 37q59 0 94 -35t35 -93zM268 565q0 36 -22.5 59.5t-57.5 23.5q-33 0 -55 -23.5t-22 -59.5q0 -35 22 -58.5t55 -23.5q34 0 57 23.5t23 58.5z" />
    <glyph glyph-name="plusminus" unicode="&#xb1;" horiz-adv-x="540" 
d="M295 311v-158h-55v157h-158v55h158v159h55v-158h156v-55h-156zM82 0v56h376v-56h-376z" />
    <glyph glyph-name="uni00B2" unicode="&#xb2;" horiz-adv-x="320" 
d="M52 404v39q55 48 102 101q33 39 47 67t14 54q0 64 -65 64q-22 0 -41 -9t-32 -25h-14q-15 15 -15 26q0 8 11 17q13 13 40 23.5t55 10.5q54 0 82 -26.5t28 -77.5q0 -33 -16.5 -68t-53.5 -78q-33 -37 -71 -73h121q18 0 28 -10t10 -25v-10h-230z" />
    <glyph glyph-name="uni00B3" unicode="&#xb3;" horiz-adv-x="320" 
d="M278 507q0 -51 -33.5 -80.5t-92.5 -29.5q-32 0 -59.5 10.5t-42.5 25.5q-9 9 -9 17q0 11 23 37q14 -19 38 -32.5t50 -13.5q36 0 55 17t19 49t-21.5 49.5t-53.5 17.5h-29v42h29q29 0 47.5 16t18.5 44q0 53 -62 53q-22 0 -43.5 -10t-34.5 -25h-15q-16 15 -16 25q0 8 9 17
q17 17 44 27t60 10q52 0 81 -24t29 -66q0 -19 -8 -36.5t-21.5 -31.5t-26.5 -19q31 -13 48 -35.5t17 -53.5z" />
    <glyph glyph-name="acute" unicode="&#xb4;" horiz-adv-x="500" 
d="M227 535q-14 -15 -33 -15q-8 0 -17.5 3t-13.5 6l85 110q16 21 24.5 26t19.5 5q23 0 45 -16z" />
    <glyph glyph-name="mu" unicode="&#xb5;" horiz-adv-x="546" 
d="M405 54q-28 -29 -69.5 -46t-85.5 -17q-80 0 -113 40v-249h-57v685h4q53 0 53 -54v-231q0 -75 31 -107t100 -32q32 0 65 12.5t53 29t20 31.5v351h4q53 0 53 -55v-307q0 -32 5 -48t20 -22.5t48 -6.5v-23q-27 -10 -52 -10q-65 0 -79 59z" />
    <glyph glyph-name="paragraph" unicode="&#xb6;" horiz-adv-x="554" 
d="M268 -118v383h-18q-59 0 -103 26.5t-68 72t-24 100.5q0 64 27 110.5t74.5 71.5t107.5 25h158q26 0 37 -11.5t11 -37.5v-740h-60v739h-84v-739h-58zM268 621h-18q-62 0 -98.5 -41t-36.5 -114q0 -67 37.5 -109t99.5 -42h16v306z" />
    <glyph glyph-name="periodcentered" unicode="&#xb7;" horiz-adv-x="216" 
d="M156 348q0 -21 -14 -36t-34 -15t-34 15t-14 36t14 36t34 15t34 -15t14 -36z" />
    <glyph glyph-name="cedilla" unicode="&#xb8;" horiz-adv-x="500" 
d="M307 -124q0 -36 -25.5 -60t-60.5 -24q-27 0 -27 23q0 5 0.5 11t2.5 11q5 -1 10 -1h10q42 0 42 32q0 12 -6 20t-14.5 15.5t-14.5 16.5t-6 23q0 27 26 57h43q-7 -7 -14.5 -16t-8.5 -20q0 -10 6.5 -18t15 -17t15 -21.5t6.5 -31.5z" />
    <glyph glyph-name="uni00B9" unicode="&#xb9;" horiz-adv-x="320" 
d="M162 404v306l-112 -59q-5 5 -9.5 15t-4.5 17q0 11 16 20l115 65q12 5 19 5q17 0 28 -7v-362h-52z" />
    <glyph glyph-name="ordmasculine" unicode="&#xba;" horiz-adv-x="450" 
d="M390 500q0 -88 -43 -137.5t-123 -49.5q-78 0 -121 49t-43 135q0 83 45 133.5t122 50.5q78 0 120.5 -48.5t42.5 -132.5zM332 500q0 68 -27 103t-79 35t-80.5 -36.5t-28.5 -101.5q0 -67 27.5 -104t79.5 -37q54 0 81 36t27 105z" />
    <glyph glyph-name="guillemotright" unicode="&#xbb;" horiz-adv-x="460" 
d="M243 379q-13 13 -13 34q0 8 3.5 17.5t8.5 14.5l126 -118q19 -17 25.5 -28.5t6.5 -24.5q0 -14 -6 -25.5t-23 -26.5l-129 -118q-10 16 -10 34q0 17 14 34l90 102zM73 379q-13 13 -13 34q0 8 3.5 17.5t8.5 14.5l126 -118q19 -17 25.5 -28.5t6.5 -24.5q0 -14 -6 -25.5
t-23 -26.5l-129 -118q-10 16 -10 34q0 17 14 34l90 102z" />
    <glyph glyph-name="onequarter" unicode="&#xbc;" horiz-adv-x="810" 
d="M217 0h-57l359 644q12 22 22 29.5t26 7.5q13 0 23 -4l5 -2zM152 314v306l-112 -59q-5 5 -9.5 15t-4.5 17q0 11 16 20l115 65q12 5 19 5q17 0 28 -7v-362h-52zM455 79v39l172 245q5 6 10 10t16 4q15 0 22 -6v-250h16q31 0 31 -27q0 -2 -0.5 -4.5t-0.5 -4.5q-1 -1 -1 -2.5
v-3.5h-45v-71h-50v71h-170zM625 121v173l-119 -173h119z" />
    <glyph glyph-name="onehalf" unicode="&#xbd;" horiz-adv-x="810" 
d="M193 0h-57l359 644q12 22 22 29.5t26 7.5q13 0 23 -4l5 -2zM139 314v306l-112 -59q-5 5 -9.5 15t-4.5 17q0 11 16 20l115 65q12 5 19 5q17 0 28 -7v-362h-52zM512 1v39q55 48 102 101q33 39 47 67t14 54q0 64 -65 64q-22 0 -41 -9t-32 -25h-14q-15 15 -15 26q0 8 11 17
q13 13 40 23.5t55 10.5q54 0 82 -26.5t28 -77.5q0 -33 -16.5 -68t-53.5 -78q-33 -37 -71 -73h121q18 0 28 -10t10 -25v-10h-230z" />
    <glyph glyph-name="threequarters" unicode="&#xbe;" horiz-adv-x="810" 
d="M245 0h-57l359 644q12 22 22 29.5t26 7.5q13 0 23 -4l5 -2zM287 417q0 -51 -33.5 -80.5t-92.5 -29.5q-32 0 -59.5 10.5t-42.5 25.5q-9 9 -9 17q0 11 23 37q14 -19 38 -32.5t50 -13.5q36 0 55 17t19 49t-21.5 49.5t-53.5 17.5h-29v42h29q29 0 47.5 16t18.5 44q0 53 -62 53
q-22 0 -43.5 -10t-34.5 -25h-15q-16 15 -16 25q0 8 9 17q17 17 44 27t60 10q52 0 81 -24t29 -66q0 -19 -8 -36.5t-21.5 -31.5t-26.5 -19q31 -13 48 -35.5t17 -53.5zM455 79v39l172 245q5 6 10 10t16 4q15 0 22 -6v-250h16q31 0 31 -27q0 -2 -0.5 -4.5t-0.5 -4.5
q-1 -1 -1 -2.5v-3.5h-45v-71h-50v71h-170zM625 121v173l-119 -173h119z" />
    <glyph glyph-name="questiondown" unicode="&#xbf;" horiz-adv-x="431" 
d="M220 288q3 1 12 1q41 0 41 -50q-1 -27 -15 -51t-36 -46.5t-46 -45.5q-41 -39 -58.5 -71t-17.5 -66q0 -61 36.5 -95t98.5 -34q83 0 143 60h11q20 -23 20 -34t-12 -23q-24 -24 -68 -39t-98 -15q-87 0 -139 46t-52 127q0 30 8 57t26 52.5t55 60.5q24 21 45.5 41.5t35 43.5
t13.5 50q0 22 -3 31zM195 424q0 21 14 36t34 15t34 -15t14 -36t-14 -36t-34 -15t-34 15t-14 36z" />
    <glyph glyph-name="Agrave" unicode="&#xc0;" horiz-adv-x="610" 
d="M522 0l-69 187h-299l-69 -187h-60l252 665q14 6 29 6q13 0 21.5 -7t13.5 -21l244 -643h-63zM303 595l-131 -358h261zM144 809q15 16 25 22t20 6q9 0 18.5 -4t23.5 -16l110 -87q-4 -6 -14.5 -11t-20.5 -5q-12 0 -26 8z" />
    <glyph glyph-name="Aacute" unicode="&#xc1;" horiz-adv-x="610" 
d="M522 0l-69 187h-299l-69 -187h-60l252 665q14 6 29 6q13 0 21.5 -7t13.5 -21l244 -643h-63zM303 595l-131 -358h261zM332 722q-14 -8 -26 -8q-10 0 -20.5 5t-14.5 11l110 87q14 12 23.5 16t18.5 4q10 0 20 -6t25 -22z" />
    <glyph glyph-name="Acircumflex" unicode="&#xc2;" horiz-adv-x="610" 
d="M522 0l-69 187h-299l-69 -187h-60l252 665q14 6 29 6q13 0 21.5 -7t13.5 -21l244 -643h-63zM303 595l-131 -358h261zM305 786l-64 -58q-17 -14 -34 -14q-16 0 -27 9l79 92q11 13 20.5 21t26.5 8t27 -8.5t21 -21.5l78 -91q-11 -9 -27 -9q-21 0 -34 13z" />
    <glyph glyph-name="Atilde" unicode="&#xc3;" horiz-adv-x="610" 
d="M522 0l-69 187h-299l-69 -187h-60l252 665q14 6 29 6q13 0 21.5 -7t13.5 -21l244 -643h-63zM303 595l-131 -358h261zM367 735q-28 1 -49 10t-39 17.5t-37 9.5q-17 0 -33 -10t-34 -33q-8 4 -13 13t-5 19q0 21 29 40t60 19q21 0 37.5 -6t30 -13t26.5 -13t27 -6q17 0 32 11
t34 39q8 -3 15 -13t7 -22q0 -20 -27.5 -41t-60.5 -21z" />
    <glyph glyph-name="Adieresis" unicode="&#xc4;" horiz-adv-x="610" 
d="M522 0l-69 187h-299l-69 -187h-60l252 665q14 6 29 6q13 0 21.5 -7t13.5 -21l244 -643h-63zM303 595l-131 -358h261zM436 789q0 -19 -12 -31.5t-31 -12.5t-31 12.5t-12 31.5t12.5 31.5t30.5 12.5t30.5 -12.5t12.5 -31.5zM262 789q0 -19 -12 -31.5t-31 -12.5t-31 12
t-12 32q0 19 12.5 31.5t30.5 12.5t30.5 -12.5t12.5 -31.5z" />
    <glyph glyph-name="Aring" unicode="&#xc5;" horiz-adv-x="610" 
d="M522 0l-69 187h-299l-69 -187h-60l252 665q14 6 29 6q13 0 21.5 -7t13.5 -21l244 -643h-63zM303 595l-131 -358h261zM407 751q0 -46 -28.5 -75.5t-73.5 -29.5q-46 0 -74.5 29.5t-28.5 74.5q0 46 28.5 76t74.5 30q45 0 73.5 -29.5t28.5 -75.5zM364 751q0 27 -17 46.5
t-42 19.5q-26 0 -43 -19t-17 -47t17 -47.5t43 -19.5t42.5 19.5t16.5 47.5z" />
    <glyph glyph-name="AE" unicode="&#xc6;" horiz-adv-x="854" 
d="M506 50h290q21 0 29.5 -7t8.5 -27q0 -4 -0.5 -8t-1.5 -8h-385v185h-259l-106 -185h-67l370 618q19 31 34.5 41t38.5 10h362q1 -4 1.5 -8t0.5 -8q0 -20 -9 -27t-30 -7h-277v-242h236v-51h-236v-276zM447 237v381l-228 -381h228z" />
    <glyph glyph-name="Ccedilla" unicode="&#xc7;" horiz-adv-x="596" 
d="M528 113q28 -26 28 -37q0 -9 -10 -20q-16 -18 -47.5 -35.5t-67.5 -26.5t-76 -9q-140 0 -215 90.5t-75 256.5q0 165 77 257t219 92q55 0 102 -18t79 -50q12 -12 12 -23t-20 -34h-11q-29 35 -72 54.5t-93 19.5q-113 0 -172 -77.5t-59 -220.5q0 -142 60 -220t174 -78
q65 0 122 39q27 19 45 40zM400 -124q0 -36 -25.5 -60t-60.5 -24q-27 0 -27 23q0 5 0.5 11t2.5 11q5 -1 10 -1h10q42 0 42 32q0 12 -6 20t-14.5 15.5t-14.5 16.5t-6 23q0 16 11 35.5t27 34.5l31 -13q-7 -7 -14.5 -16t-8.5 -20q0 -10 6.5 -18t15 -17t15 -21.5t6.5 -31.5z" />
    <glyph glyph-name="Egrave" unicode="&#xc8;" horiz-adv-x="493" 
d="M85 0v669h371q1 -2 1 -4.5v-4.5q0 -41 -46 -41h-267v-242h236v-51h-236v-276h280q23 0 36 -11t13 -30v-4.5t-1 -4.5h-387zM109 809q15 16 25 22t20 6q9 0 18.5 -4t23.5 -16l110 -87q-4 -6 -14.5 -11t-20.5 -5q-12 0 -26 8z" />
    <glyph glyph-name="Eacute" unicode="&#xc9;" horiz-adv-x="493" 
d="M85 0v669h371q1 -2 1 -4.5v-4.5q0 -41 -46 -41h-267v-242h236v-51h-236v-276h280q23 0 36 -11t13 -30v-4.5t-1 -4.5h-387zM297 722q-14 -8 -26 -8q-10 0 -20.5 5t-14.5 11l110 87q14 12 23.5 16t18.5 4q10 0 20 -6t25 -22z" />
    <glyph glyph-name="Ecircumflex" unicode="&#xca;" horiz-adv-x="493" 
d="M85 0v669h371q1 -2 1 -4.5v-4.5q0 -41 -46 -41h-267v-242h236v-51h-236v-276h280q23 0 36 -11t13 -30v-4.5t-1 -4.5h-387zM270 786l-64 -58q-17 -14 -34 -14q-16 0 -27 9l79 92q11 13 20.5 21t26.5 8t27 -8.5t21 -21.5l78 -91q-11 -9 -27 -9q-21 0 -34 13z" />
    <glyph glyph-name="Edieresis" unicode="&#xcb;" horiz-adv-x="493" 
d="M85 0v669h371q1 -2 1 -4.5v-4.5q0 -41 -46 -41h-267v-242h236v-51h-236v-276h280q23 0 36 -11t13 -30v-4.5t-1 -4.5h-387zM401 789q0 -19 -12 -31.5t-31 -12.5t-31 12.5t-12 31.5t12.5 31.5t30.5 12.5t30.5 -12.5t12.5 -31.5zM227 789q0 -19 -12 -31.5t-31 -12.5t-31 12
t-12 32q0 19 12.5 31.5t30.5 12.5t30.5 -12.5t12.5 -31.5z" />
    <glyph glyph-name="Igrave" unicode="&#xcc;" horiz-adv-x="229" 
d="M144 0h-59v670q4 1 6.5 1h6.5q20 0 33 -13.5t13 -37.5v-620zM-47 809q15 16 25 22t20 6q9 0 18.5 -4t23.5 -16l110 -87q-4 -6 -14.5 -11t-20.5 -5q-12 0 -26 8z" />
    <glyph glyph-name="Iacute" unicode="&#xcd;" horiz-adv-x="229" 
d="M144 0h-59v670q4 1 6.5 1h6.5q20 0 33 -13.5t13 -37.5v-620zM141 722q-14 -8 -26 -8q-10 0 -20.5 5t-14.5 11l110 87q14 12 23.5 16t18.5 4q10 0 20 -6t25 -22z" />
    <glyph glyph-name="Icircumflex" unicode="&#xce;" horiz-adv-x="229" 
d="M144 0h-59v670q4 1 6.5 1h6.5q20 0 33 -13.5t13 -37.5v-620zM114 786l-64 -58q-17 -14 -34 -14q-16 0 -27 9l79 92q11 13 20.5 21t26.5 8t27 -8.5t21 -21.5l78 -91q-11 -9 -27 -9q-21 0 -34 13z" />
    <glyph glyph-name="Idieresis" unicode="&#xcf;" horiz-adv-x="229" 
d="M144 0h-59v670q4 1 6.5 1h6.5q20 0 33 -13.5t13 -37.5v-620zM245 789q0 -19 -12 -31.5t-31 -12.5t-31 12.5t-12 31.5t12.5 31.5t30.5 12.5t30.5 -12.5t12.5 -31.5zM71 789q0 -19 -12 -31.5t-31 -12.5t-31 12t-12 32q0 19 12.5 31.5t30.5 12.5t30.5 -12.5t12.5 -31.5z" />
    <glyph glyph-name="Eth" unicode="&#xd0;" horiz-adv-x="641" 
d="M19 371h66v296q82 9 160 9q168 0 249.5 -81.5t81.5 -254.5q0 -106 -35.5 -183t-101.5 -117t-159 -40h-195v323h-66v48zM514 340q0 145 -65.5 215.5t-200.5 70.5q-59 0 -104 -5v-250h196v-48h-196v-274h118q252 0 252 291z" />
    <glyph glyph-name="Ntilde" unicode="&#xd1;" horiz-adv-x="661" 
d="M576 0h-61l-375 568v-568h-55v667q9 4 28 4q15 0 24 -5.5t19 -20.5l365 -562v587q7 1 13 1q42 0 42 -51v-620zM391 735q-28 1 -49 10t-39 17.5t-37 9.5q-17 0 -33 -10t-34 -33q-8 4 -13 13t-5 19q0 21 29 40t60 19q21 0 37.5 -6t30 -13t26.5 -13t27 -6q17 0 32 11t34 39
q8 -3 15 -13t7 -22q0 -20 -27.5 -41t-60.5 -21z" />
    <glyph glyph-name="Ograve" unicode="&#xd2;" horiz-adv-x="696" 
d="M631 338q0 -109 -34.5 -189.5t-98.5 -122t-153 -41.5q-90 0 -152.5 43t-95 123t-32.5 186q0 105 35.5 183.5t100 119.5t153.5 41q133 0 205 -91t72 -252zM568 337q0 142 -55 217.5t-160 75.5q-110 0 -167 -75t-57 -218q0 -144 56.5 -223t163.5 -79q106 0 162.5 79
t56.5 223zM192 809q15 16 25 22t20 6q9 0 18.5 -4t23.5 -16l110 -87q-4 -6 -14.5 -11t-20.5 -5q-12 0 -26 8z" />
    <glyph glyph-name="Oacute" unicode="&#xd3;" horiz-adv-x="696" 
d="M631 338q0 -109 -34.5 -189.5t-98.5 -122t-153 -41.5q-90 0 -152.5 43t-95 123t-32.5 186q0 105 35.5 183.5t100 119.5t153.5 41q133 0 205 -91t72 -252zM568 337q0 142 -55 217.5t-160 75.5q-110 0 -167 -75t-57 -218q0 -144 56.5 -223t163.5 -79q106 0 162.5 79
t56.5 223zM380 722q-14 -8 -26 -8q-10 0 -20.5 5t-14.5 11l110 87q14 12 23.5 16t18.5 4q10 0 20 -6t25 -22z" />
    <glyph glyph-name="Ocircumflex" unicode="&#xd4;" horiz-adv-x="696" 
d="M631 338q0 -109 -34.5 -189.5t-98.5 -122t-153 -41.5q-90 0 -152.5 43t-95 123t-32.5 186q0 105 35.5 183.5t100 119.5t153.5 41q133 0 205 -91t72 -252zM568 337q0 142 -55 217.5t-160 75.5q-110 0 -167 -75t-57 -218q0 -144 56.5 -223t163.5 -79q106 0 162.5 79
t56.5 223zM353 786l-64 -58q-17 -14 -34 -14q-16 0 -27 9l79 92q11 13 20.5 21t26.5 8t27 -8.5t21 -21.5l78 -91q-11 -9 -27 -9q-21 0 -34 13z" />
    <glyph glyph-name="Otilde" unicode="&#xd5;" horiz-adv-x="696" 
d="M631 338q0 -109 -34.5 -189.5t-98.5 -122t-153 -41.5q-90 0 -152.5 43t-95 123t-32.5 186q0 105 35.5 183.5t100 119.5t153.5 41q133 0 205 -91t72 -252zM568 337q0 142 -55 217.5t-160 75.5q-110 0 -167 -75t-57 -218q0 -144 56.5 -223t163.5 -79q106 0 162.5 79
t56.5 223zM415 735q-28 1 -49 10t-39 17.5t-37 9.5q-17 0 -33 -10t-34 -33q-8 4 -13 13t-5 19q0 21 29 40t60 19q21 0 37.5 -6t30 -13t26.5 -13t27 -6q17 0 32 11t34 39q8 -3 15 -13t7 -22q0 -20 -27.5 -41t-60.5 -21z" />
    <glyph glyph-name="Odieresis" unicode="&#xd6;" horiz-adv-x="696" 
d="M631 338q0 -109 -34.5 -189.5t-98.5 -122t-153 -41.5q-90 0 -152.5 43t-95 123t-32.5 186q0 105 35.5 183.5t100 119.5t153.5 41q133 0 205 -91t72 -252zM568 337q0 142 -55 217.5t-160 75.5q-110 0 -167 -75t-57 -218q0 -144 56.5 -223t163.5 -79q106 0 162.5 79
t56.5 223zM484 789q0 -19 -12 -31.5t-31 -12.5t-31 12.5t-12 31.5t12.5 31.5t30.5 12.5t30.5 -12.5t12.5 -31.5zM310 789q0 -19 -12 -31.5t-31 -12.5t-31 12t-12 32q0 19 12.5 31.5t30.5 12.5t30.5 -12.5t12.5 -31.5z" />
    <glyph glyph-name="multiply" unicode="&#xd7;" horiz-adv-x="540" 
d="M406 164l-136 136l-136 -136l-40 40l136 136l-136 135l40 41l136 -137l135 137l40 -41l-136 -136l136 -135z" />
    <glyph glyph-name="Oslash" unicode="&#xd8;" horiz-adv-x="696" 
d="M631 338q0 -109 -34.5 -189.5t-98.5 -122t-153 -41.5q-75 0 -130 29l-4 3l-49 -89l-42 23l51 93q-24 22 -43 49q-63 93 -63 244q0 105 35.5 183.5t100 119.5t153.5 41q74 0 126 -27l21 -12l43 77l41 -22l-47 -85q14 -13 28 -32q65 -91 65 -242zM455 606q-40 24 -102 24
q-110 0 -167 -75t-57 -218q0 -130 47 -210q12 -18 24 -32l274 498q-4 4 -9 7zM568 337q0 130 -47 205l-12 17l-272 -495q1 -1 3 -2l4 -2q43 -25 105 -25q106 0 162.5 79t56.5 223z" />
    <glyph glyph-name="Ugrave" unicode="&#xd9;" horiz-adv-x="638" 
d="M558 263q0 -56 -3 -80q-6 -62 -36 -107t-80.5 -68t-118.5 -23q-107 0 -165 49t-70 149q-5 40 -5 80v407q6 1 11 1q22 0 35 -13t13 -38v-371q0 -70 14 -109q36 -107 169 -107q130 0 164 105q13 37 13 111v421q6 1 11 1q22 0 35 -13t13 -38v-357zM144 809q15 16 25 22t20 6
q9 0 18.5 -4t23.5 -16l110 -87q-4 -6 -14.5 -11t-20.5 -5q-12 0 -26 8z" />
    <glyph glyph-name="Uacute" unicode="&#xda;" horiz-adv-x="638" 
d="M558 263q0 -56 -3 -80q-6 -62 -36 -107t-80.5 -68t-118.5 -23q-107 0 -165 49t-70 149q-5 40 -5 80v407q6 1 11 1q22 0 35 -13t13 -38v-371q0 -70 14 -109q36 -107 169 -107q130 0 164 105q13 37 13 111v421q6 1 11 1q22 0 35 -13t13 -38v-357zM332 722q-14 -8 -26 -8
q-10 0 -20.5 5t-14.5 11l110 87q14 12 23.5 16t18.5 4q10 0 20 -6t25 -22z" />
    <glyph glyph-name="Ucircumflex" unicode="&#xdb;" horiz-adv-x="638" 
d="M558 263q0 -56 -3 -80q-6 -62 -36 -107t-80.5 -68t-118.5 -23q-107 0 -165 49t-70 149q-5 40 -5 80v407q6 1 11 1q22 0 35 -13t13 -38v-371q0 -70 14 -109q36 -107 169 -107q130 0 164 105q13 37 13 111v421q6 1 11 1q22 0 35 -13t13 -38v-357zM305 786l-64 -58
q-17 -14 -34 -14q-16 0 -27 9l79 92q11 13 20.5 21t26.5 8t27 -8.5t21 -21.5l78 -91q-11 -9 -27 -9q-21 0 -34 13z" />
    <glyph glyph-name="Udieresis" unicode="&#xdc;" horiz-adv-x="638" 
d="M558 263q0 -56 -3 -80q-6 -62 -36 -107t-80.5 -68t-118.5 -23q-107 0 -165 49t-70 149q-5 40 -5 80v407q6 1 11 1q22 0 35 -13t13 -38v-371q0 -70 14 -109q36 -107 169 -107q130 0 164 105q13 37 13 111v421q6 1 11 1q22 0 35 -13t13 -38v-357zM436 789q0 -19 -12 -31.5
t-31 -12.5t-31 12.5t-12 31.5t12.5 31.5t30.5 12.5t30.5 -12.5t12.5 -31.5zM262 789q0 -19 -12 -31.5t-31 -12.5t-31 12t-12 32q0 19 12.5 31.5t30.5 12.5t30.5 -12.5t12.5 -31.5z" />
    <glyph glyph-name="Yacute" unicode="&#xdd;" horiz-adv-x="499" 
d="M279 288v-288h-59v287l-215 380q12 5 32 5q18 0 29 -7t21 -26l165 -291l160 288q11 19 23.5 27t30.5 8q19 0 28 -3zM280 722q-14 -8 -26 -8q-10 0 -20.5 5t-14.5 11l110 87q14 12 23.5 16t18.5 4q10 0 20 -6t25 -22z" />
    <glyph glyph-name="Thorn" unicode="&#xde;" horiz-adv-x="544" 
d="M432 348q0 147 -196 147q-57 0 -93 -4v-309h97q97 0 144.5 41t47.5 125zM143 540q39 4 90 4q261 0 261 -190q0 -221 -264 -221h-86v-133h-59v670q6 1 11 1q22 0 34.5 -13t12.5 -38v-80z" />
    <glyph glyph-name="germandbls" unicode="&#xdf;" horiz-adv-x="537" 
d="M258 341q0 31 14.5 57.5t57.5 63.5q32 29 46.5 54.5t14.5 52.5q0 44 -34.5 72t-91.5 28q-53 0 -86 -24.5t-39 -71.5q-3 -19 -3 -42v-531h-57v519q0 45 3 61q9 64 59 100.5t123 36.5q83 0 134 -40t51 -107q0 -69 -75 -132q-26 -22 -38 -35.5t-17.5 -27t-5.5 -28.5
q0 -27 19.5 -46.5t66.5 -37.5q39 -18 60.5 -36.5t32 -43.5t10.5 -57q0 -43 -20 -75t-55.5 -49t-84.5 -17q-43 0 -79.5 10t-57.5 26q-14 11 -14 24q0 12 19 37q58 -49 135 -49q45 0 73 23.5t28 65.5q0 34 -17.5 56.5t-62.5 41.5q-61 23 -85 51t-24 70z" />
    <glyph glyph-name="agrave" unicode="&#xe0;" horiz-adv-x="486" 
d="M461 0q-20 -5 -36 -5q-34 0 -54 16.5t-22 46.5q-67 -67 -162 -67q-68 0 -107.5 35t-39.5 101q0 53 32 89.5t93 56t138 19.5q12 0 23 -0.5t22 -1.5v24q0 59 -27.5 85.5t-88.5 26.5q-40 0 -76 -11t-62 -31h-9q-14 20 -14 33t26 27q25 14 64 22.5t76 8.5q90 0 129.5 -39
t39.5 -131v-200q0 -28 4 -45.5t14 -26.5t37 -11v-22zM349 249q-6 1 -12.5 1h-13.5q-223 0 -223 -121q0 -43 24.5 -67t72.5 -24q38 0 72.5 14t57 33.5t22.5 32.5v131zM89 654q22 16 45 16q12 0 22 -6.5t22 -24.5l85 -110q-5 -4 -13.5 -6.5t-17.5 -2.5q-19 0 -33 15z" />
    <glyph glyph-name="aacute" unicode="&#xe1;" horiz-adv-x="486" 
d="M461 0q-20 -5 -36 -5q-34 0 -54 16.5t-22 46.5q-67 -67 -162 -67q-68 0 -107.5 35t-39.5 101q0 53 32 89.5t93 56t138 19.5q12 0 23 -0.5t22 -1.5v24q0 59 -27.5 85.5t-88.5 26.5q-40 0 -76 -11t-62 -31h-9q-14 20 -14 33t26 27q25 14 64 22.5t76 8.5q90 0 129.5 -39
t39.5 -131v-200q0 -28 4 -45.5t14 -26.5t37 -11v-22zM349 249q-6 1 -12.5 1h-13.5q-223 0 -223 -121q0 -43 24.5 -67t72.5 -24q38 0 72.5 14t57 33.5t22.5 32.5v131zM265 535q-14 -15 -33 -15q-8 0 -17.5 3t-13.5 6l85 110q16 21 24.5 26t19.5 5q23 0 45 -16z" />
    <glyph glyph-name="acircumflex" unicode="&#xe2;" horiz-adv-x="486" 
d="M461 0q-20 -5 -36 -5q-34 0 -54 16.5t-22 46.5q-67 -67 -162 -67q-68 0 -107.5 35t-39.5 101q0 53 32 89.5t93 56t138 19.5q12 0 23 -0.5t22 -1.5v24q0 59 -27.5 85.5t-88.5 26.5q-40 0 -76 -11t-62 -31h-9q-14 20 -14 33t26 27q25 14 64 22.5t76 8.5q90 0 129.5 -39
t39.5 -131v-200q0 -28 4 -45.5t14 -26.5t37 -11v-22zM349 249q-6 1 -12.5 1h-13.5q-223 0 -223 -121q0 -43 24.5 -67t72.5 -24q38 0 72.5 14t57 33.5t22.5 32.5v131zM232 615l-63 -72q-15 -17 -37 -17q-18 0 -28 10l81 103q11 14 20 22.5t26 8.5t26 -8.5t20 -22.5l83 -106
q-16 -9 -29 -9q-19 0 -36 18z" />
    <glyph glyph-name="atilde" unicode="&#xe3;" horiz-adv-x="486" 
d="M461 0q-20 -5 -36 -5q-34 0 -54 16.5t-22 46.5q-67 -67 -162 -67q-68 0 -107.5 35t-39.5 101q0 53 32 89.5t93 56t138 19.5q12 0 23 -0.5t22 -1.5v24q0 59 -27.5 85.5t-88.5 26.5q-40 0 -76 -11t-62 -31h-9q-14 20 -14 33t26 27q25 14 64 22.5t76 8.5q90 0 129.5 -39
t39.5 -131v-200q0 -28 4 -45.5t14 -26.5t37 -11v-22zM349 249q-6 1 -12.5 1h-13.5q-223 0 -223 -121q0 -43 24.5 -67t72.5 -24q38 0 72.5 14t57 33.5t22.5 32.5v131zM293 540q-28 1 -49 10t-39 17.5t-37 9.5q-17 0 -33 -10t-34 -33q-8 4 -13 13t-5 19q0 21 29 40t60 19
q21 0 37.5 -6t30 -13t26.5 -13t27 -6q17 0 32 11t34 39q8 -3 15 -13t7 -22q0 -20 -27.5 -41t-60.5 -21z" />
    <glyph glyph-name="adieresis" unicode="&#xe4;" horiz-adv-x="486" 
d="M461 0q-20 -5 -36 -5q-34 0 -54 16.5t-22 46.5q-67 -67 -162 -67q-68 0 -107.5 35t-39.5 101q0 53 32 89.5t93 56t138 19.5q12 0 23 -0.5t22 -1.5v24q0 59 -27.5 85.5t-88.5 26.5q-40 0 -76 -11t-62 -31h-9q-14 20 -14 33t26 27q25 14 64 22.5t76 8.5q90 0 129.5 -39
t39.5 -131v-200q0 -28 4 -45.5t14 -26.5t37 -11v-22zM349 249q-6 1 -12.5 1h-13.5q-223 0 -223 -121q0 -43 24.5 -67t72.5 -24q38 0 72.5 14t57 33.5t22.5 32.5v131zM362 585q0 -19 -12 -31.5t-31 -12.5t-31 12.5t-12 31.5t12.5 31.5t30.5 12.5t30.5 -12.5t12.5 -31.5z
M188 585q0 -19 -12 -31.5t-31 -12.5t-31 12t-12 32q0 19 12.5 31.5t30.5 12.5t30.5 -12.5t12.5 -31.5z" />
    <glyph glyph-name="aring" unicode="&#xe5;" horiz-adv-x="486" 
d="M461 0q-20 -5 -36 -5q-34 0 -54 16.5t-22 46.5q-67 -67 -162 -67q-68 0 -107.5 35t-39.5 101q0 53 32 89.5t93 56t138 19.5q12 0 23 -0.5t22 -1.5v24q0 59 -27.5 85.5t-88.5 26.5q-40 0 -76 -11t-62 -31h-9q-14 20 -14 33t26 27q25 14 64 22.5t76 8.5q90 0 129.5 -39
t39.5 -131v-200q0 -28 4 -45.5t14 -26.5t37 -11v-22zM349 249q-6 1 -12.5 1h-13.5q-223 0 -223 -121q0 -43 24.5 -67t72.5 -24q38 0 72.5 14t57 33.5t22.5 32.5v131zM334 625q0 -46 -28.5 -75.5t-73.5 -29.5q-46 0 -74.5 29.5t-28.5 74.5q0 46 28.5 76t74.5 30
q45 0 73.5 -29.5t28.5 -75.5zM291 625q0 27 -17 46.5t-42 19.5q-26 0 -43 -19t-17 -47t17 -47.5t43 -19.5t42.5 19t16.5 47v1z" />
    <glyph glyph-name="ae" unicode="&#xe6;" horiz-adv-x="787" 
d="M725 63q0 -15 -26 -33.5t-61 -28.5t-73 -10q-119 0 -179 84q-71 -82 -187 -82q-159 0 -159 129q0 51 32.5 85.5t93 53t137.5 18.5q12 0 23 -0.5t22 -1.5q0 79 -32.5 114t-101.5 35q-78 0 -133 -43h-9q-14 20 -14 33t26 27q27 15 63.5 23.5t71.5 8.5q128 0 167 -94
q27 45 71.5 69.5t96.5 24.5q89 0 136 -51t47 -141q0 -24 -3 -51h-328v-8q0 -86 42.5 -135.5t118.5 -49.5q46 0 82 16.5t54 42.5q22 -25 22 -35zM364 117q-18 48 -18 106v14q-8 1 -23 1q-109 0 -166 -28.5t-57 -85.5q0 -84 109 -84q50 0 93 23t62 54zM680 275q0 78 -32 115
t-99 37q-62 0 -101 -41.5t-41 -110.5h273z" />
    <glyph glyph-name="ccedilla" unicode="&#xe7;" horiz-adv-x="455" 
d="M401 91q23 -20 23 -33q0 -10 -18 -27q-25 -22 -60.5 -34t-75.5 -12q-66 0 -115.5 29t-74.5 83.5t-25 133.5q0 78 28 132t79.5 83t109.5 29q83 0 135 -43q18 -14 18 -30q0 -11 -16 -37h-9q-45 61 -126 61q-76 0 -117 -51.5t-41 -143.5q0 -93 41.5 -145.5t118.5 -52.5
q53 0 94 29q16 11 31 29zM316 -124q0 -36 -25.5 -60t-60.5 -24q-27 0 -27 23q0 5 0.5 11t2.5 11q5 -1 10 -1h10q42 0 42 32q0 12 -6 20t-14.5 15.5t-14.5 16.5t-6 23q0 27 26 57h43q-7 -7 -14.5 -16t-8.5 -20q0 -10 6.5 -18t15 -17t15 -21.5t6.5 -31.5z" />
    <glyph glyph-name="egrave" unicode="&#xe8;" horiz-adv-x="497" 
d="M435 57q0 -15 -26 -33.5t-61 -28.5t-73 -10q-107 0 -163.5 64t-56.5 186q0 75 26.5 129t74.5 82.5t108 28.5q87 0 135 -54.5t48 -147.5q0 -24 -3 -51h-328q2 -92 43 -140.5t118 -48.5q46 0 82 16.5t54 42.5q22 -25 22 -35zM390 265q0 162 -131 162q-64 0 -102 -43
t-40 -119h273zM119 654q22 16 45 16q12 0 22 -6.5t22 -24.5l85 -110q-5 -4 -13.5 -6.5t-17.5 -2.5q-19 0 -33 15z" />
    <glyph glyph-name="eacute" unicode="&#xe9;" horiz-adv-x="497" 
d="M435 57q0 -15 -26 -33.5t-61 -28.5t-73 -10q-107 0 -163.5 64t-56.5 186q0 75 26.5 129t74.5 82.5t108 28.5q87 0 135 -54.5t48 -147.5q0 -24 -3 -51h-328q2 -92 43 -140.5t118 -48.5q46 0 82 16.5t54 42.5q22 -25 22 -35zM390 265q0 162 -131 162q-64 0 -102 -43
t-40 -119h273zM295 535q-14 -15 -33 -15q-8 0 -17.5 3t-13.5 6l85 110q16 21 24.5 26t19.5 5q23 0 45 -16z" />
    <glyph glyph-name="ecircumflex" unicode="&#xea;" horiz-adv-x="497" 
d="M435 57q0 -15 -26 -33.5t-61 -28.5t-73 -10q-107 0 -163.5 64t-56.5 186q0 75 26.5 129t74.5 82.5t108 28.5q87 0 135 -54.5t48 -147.5q0 -24 -3 -51h-328q2 -92 43 -140.5t118 -48.5q46 0 82 16.5t54 42.5q22 -25 22 -35zM390 265q0 162 -131 162q-64 0 -102 -43
t-40 -119h273zM262 615l-63 -72q-15 -17 -37 -17q-18 0 -28 10l81 103q11 14 20 22.5t26 8.5t26 -8.5t20 -22.5l83 -106q-16 -9 -29 -9q-19 0 -36 18z" />
    <glyph glyph-name="edieresis" unicode="&#xeb;" horiz-adv-x="497" 
d="M435 57q0 -15 -26 -33.5t-61 -28.5t-73 -10q-107 0 -163.5 64t-56.5 186q0 75 26.5 129t74.5 82.5t108 28.5q87 0 135 -54.5t48 -147.5q0 -24 -3 -51h-328q2 -92 43 -140.5t118 -48.5q46 0 82 16.5t54 42.5q22 -25 22 -35zM390 265q0 162 -131 162q-64 0 -102 -43
t-40 -119h273zM392 585q0 -19 -12 -31.5t-31 -12.5t-31 12.5t-12 31.5t12.5 31.5t30.5 12.5t30.5 -12.5t12.5 -31.5zM218 585q0 -19 -12 -31.5t-31 -12.5t-31 12t-12 32q0 19 12.5 31.5t30.5 12.5t30.5 -12.5t12.5 -31.5z" />
    <glyph glyph-name="igrave" unicode="&#xec;" horiz-adv-x="224" 
d="M148 -5q-23 0 -38 9t-22 29t-7 65v369h3q54 0 54 -52v-320q0 -25 4 -41t14.5 -23.5t32.5 -9.5v-21q-19 -5 -41 -5zM-34 654q22 16 45 16q12 0 22 -6.5t22 -24.5l85 -110q-5 -4 -13.5 -6.5t-17.5 -2.5q-19 0 -33 15z" />
    <glyph glyph-name="iacute" unicode="&#xed;" horiz-adv-x="224" 
d="M148 -5q-23 0 -38 9t-22 29t-7 65v369h3q54 0 54 -52v-320q0 -25 4 -41t14.5 -23.5t32.5 -9.5v-21q-19 -5 -41 -5zM142 535q-14 -15 -33 -15q-8 0 -17.5 3t-13.5 6l85 110q16 21 24.5 26t19.5 5q23 0 45 -16z" />
    <glyph glyph-name="icircumflex" unicode="&#xee;" horiz-adv-x="224" 
d="M148 -5q-23 0 -38 9t-22 29t-7 65v369h3q54 0 54 -52v-320q0 -25 4 -41t14.5 -23.5t32.5 -9.5v-21q-19 -5 -41 -5zM109 615l-63 -72q-15 -17 -37 -17q-18 0 -28 10l81 103q11 14 20 22.5t26 8.5t26 -8.5t20 -22.5l83 -106q-16 -9 -29 -9q-19 0 -36 18z" />
    <glyph glyph-name="idieresis" unicode="&#xef;" horiz-adv-x="224" 
d="M148 -5q-23 0 -38 9t-22 29t-7 65v369h3q54 0 54 -52v-320q0 -25 4 -41t14.5 -23.5t32.5 -9.5v-21q-19 -5 -41 -5zM239 585q0 -19 -12 -31.5t-31 -12.5t-31 12.5t-12 31.5t12.5 31.5t30.5 12.5t30.5 -12.5t12.5 -31.5zM65 585q0 -19 -12 -31.5t-31 -12.5t-31 12t-12 32
q0 19 12.5 31.5t30.5 12.5t30.5 -12.5t12.5 -31.5z" />
    <glyph glyph-name="eth" unicode="&#xf0;" horiz-adv-x="545" 
d="M176 543l92 49q-32 18 -75 29.5t-86 13.5v7q0 41 36 41q39 0 87.5 -16.5t90.5 -43.5l115 64l24 -40l-100 -55q122 -116 122 -327q0 -133 -55 -203.5t-158 -70.5q-99 0 -155.5 64t-56.5 180q0 108 58 169t154 61q38 0 75 -14.5t58 -37.5q-16 46 -41.5 89t-49.5 62
l-111 -60zM422 259q0 59 -11 96q-58 58 -144 58q-73 0 -111 -45t-38 -133q0 -89 41.5 -141.5t110.5 -52.5q70 0 111 57.5t41 160.5z" />
    <glyph glyph-name="ntilde" unicode="&#xf1;" horiz-adv-x="543" 
d="M137 412q28 29 72.5 46t96.5 17q61 0 100 -27t49 -75q8 -32 8 -89v-284h-58v284q0 49 -9 75q-19 64 -113 64q-39 0 -78 -15.5t-59 -38.5q-8 -10 -8 -25v-344h-58v467h4q53 0 53 -55zM329 540q-28 1 -49 10t-39 17.5t-37 9.5q-17 0 -33 -10t-34 -33q-8 4 -13 13t-5 19
q0 21 29 40t60 19q21 0 37.5 -6t30 -13t26.5 -13t27 -6q17 0 32 11t34 39q8 -3 15 -13t7 -22q0 -20 -27.5 -41t-60.5 -21z" />
    <glyph glyph-name="ograve" unicode="&#xf2;" horiz-adv-x="535" 
d="M419 231q0 97 -38 146t-112 49q-73 0 -113 -52.5t-40 -142.5q0 -95 38.5 -146.5t112.5 -51.5q75 0 113.5 50.5t38.5 147.5zM480 231q0 -114 -55.5 -180t-157.5 -66q-101 0 -156.5 65t-55.5 178q0 73 27.5 130t76 87t112.5 30q100 0 154.5 -65t54.5 -179zM127 654
q22 16 45 16q12 0 22 -6.5t22 -24.5l85 -110q-5 -4 -13.5 -6.5t-17.5 -2.5q-19 0 -33 15z" />
    <glyph glyph-name="oacute" unicode="&#xf3;" horiz-adv-x="535" 
d="M419 231q0 97 -38 146t-112 49q-73 0 -113 -52.5t-40 -142.5q0 -95 38.5 -146.5t112.5 -51.5q75 0 113.5 50.5t38.5 147.5zM480 231q0 -114 -55.5 -180t-157.5 -66q-101 0 -156.5 65t-55.5 178q0 73 27.5 130t76 87t112.5 30q100 0 154.5 -65t54.5 -179zM303 535
q-14 -15 -33 -15q-8 0 -17.5 3t-13.5 6l85 110q16 21 24.5 26t19.5 5q23 0 45 -16z" />
    <glyph glyph-name="ocircumflex" unicode="&#xf4;" horiz-adv-x="535" 
d="M419 231q0 97 -38 146t-112 49q-73 0 -113 -52.5t-40 -142.5q0 -95 38.5 -146.5t112.5 -51.5q75 0 113.5 50.5t38.5 147.5zM480 231q0 -114 -55.5 -180t-157.5 -66q-101 0 -156.5 65t-55.5 178q0 73 27.5 130t76 87t112.5 30q100 0 154.5 -65t54.5 -179zM270 615l-63 -72
q-15 -17 -37 -17q-18 0 -28 10l81 103q11 14 20 22.5t26 8.5t26 -8.5t20 -22.5l83 -106q-16 -9 -29 -9q-19 0 -36 18z" />
    <glyph glyph-name="otilde" unicode="&#xf5;" horiz-adv-x="535" 
d="M419 231q0 97 -38 146t-112 49q-73 0 -113 -52.5t-40 -142.5q0 -95 38.5 -146.5t112.5 -51.5q75 0 113.5 50.5t38.5 147.5zM480 231q0 -114 -55.5 -180t-157.5 -66q-101 0 -156.5 65t-55.5 178q0 73 27.5 130t76 87t112.5 30q100 0 154.5 -65t54.5 -179zM331 540
q-28 1 -49 10t-39 17.5t-37 9.5q-17 0 -33 -10t-34 -33q-8 4 -13 13t-5 19q0 21 29 40t60 19q21 0 37.5 -6t30 -13t26.5 -13t27 -6q17 0 32 11t34 39q8 -3 15 -13t7 -22q0 -20 -27.5 -41t-60.5 -21z" />
    <glyph glyph-name="odieresis" unicode="&#xf6;" horiz-adv-x="535" 
d="M419 231q0 97 -38 146t-112 49q-73 0 -113 -52.5t-40 -142.5q0 -95 38.5 -146.5t112.5 -51.5q75 0 113.5 50.5t38.5 147.5zM480 231q0 -114 -55.5 -180t-157.5 -66q-101 0 -156.5 65t-55.5 178q0 73 27.5 130t76 87t112.5 30q100 0 154.5 -65t54.5 -179zM400 585
q0 -19 -12 -31.5t-31 -12.5t-31 12.5t-12 31.5t12.5 31.5t30.5 12.5t30.5 -12.5t12.5 -31.5zM226 585q0 -19 -12 -31.5t-31 -12.5t-31 12t-12 32q0 19 12.5 31.5t30.5 12.5t30.5 -12.5t12.5 -31.5z" />
    <glyph glyph-name="divide" unicode="&#xf7;" horiz-adv-x="540" 
d="M314 476q0 -20 -13 -33.5t-31 -13.5q-19 0 -32 13.5t-13 33.5t13 33.5t31 13.5q19 0 32 -13.5t13 -33.5zM314 200q0 -20 -13 -33.5t-31 -13.5q-19 0 -32 13.5t-13 33.5t13 33.5t31 13.5q19 0 32 -13.5t13 -33.5zM86 311v55h368v-55h-368z" />
    <glyph glyph-name="oslash" unicode="&#xf8;" horiz-adv-x="535" 
d="M480 231q0 -114 -55.5 -180t-157.5 -66q-56 0 -98 20l-12 6t-11 7l-48 -68l-36 25l50 72l-9 11q-48 65 -48 170q0 73 27.5 130t76 87t112.5 30q55 0 97 -20q6 -3 11.5 -6t10.5 -7l47 66l36 -25l-50 -71l9 -11q48 -65 48 -170zM419 231q0 85 -29 132l-1 1l-213 -302
l16 -11q30 -18 75 -18q75 0 113.5 50.5t38.5 147.5zM344 408q-28 18 -75 18q-73 0 -113 -52.5t-40 -142.5q0 -83 30 -134l1 -1l212 302z" />
    <glyph glyph-name="ugrave" unicode="&#xf9;" horiz-adv-x="543" 
d="M463 0h-58v54q-29 -30 -73 -46.5t-95 -16.5q-62 0 -101 27.5t-48 74.5q-8 32 -8 89v285h4q53 0 53 -54v-231q0 -46 10 -75q19 -64 113 -64q35 0 69.5 12.5t55.5 29t21 31.5v351h4q53 0 53 -55v-412zM117 654q22 16 45 16q12 0 22 -6.5t22 -24.5l85 -110q-5 -4 -13.5 -6.5
t-17.5 -2.5q-19 0 -33 15z" />
    <glyph glyph-name="uacute" unicode="&#xfa;" horiz-adv-x="543" 
d="M463 0h-58v54q-29 -30 -73 -46.5t-95 -16.5q-62 0 -101 27.5t-48 74.5q-8 32 -8 89v285h4q53 0 53 -54v-231q0 -46 10 -75q19 -64 113 -64q35 0 69.5 12.5t55.5 29t21 31.5v351h4q53 0 53 -55v-412zM293 535q-14 -15 -33 -15q-8 0 -17.5 3t-13.5 6l85 110q16 21 24.5 26
t19.5 5q23 0 45 -16z" />
    <glyph glyph-name="ucircumflex" unicode="&#xfb;" horiz-adv-x="543" 
d="M463 0h-58v54q-29 -30 -73 -46.5t-95 -16.5q-62 0 -101 27.5t-48 74.5q-8 32 -8 89v285h4q53 0 53 -54v-231q0 -46 10 -75q19 -64 113 -64q35 0 69.5 12.5t55.5 29t21 31.5v351h4q53 0 53 -55v-412zM260 615l-63 -72q-15 -17 -37 -17q-18 0 -28 10l81 103q11 14 20 22.5
t26 8.5t26 -8.5t20 -22.5l83 -106q-16 -9 -29 -9q-19 0 -36 18z" />
    <glyph glyph-name="udieresis" unicode="&#xfc;" horiz-adv-x="543" 
d="M463 0h-58v54q-29 -30 -73 -46.5t-95 -16.5q-62 0 -101 27.5t-48 74.5q-8 32 -8 89v285h4q53 0 53 -54v-231q0 -46 10 -75q19 -64 113 -64q35 0 69.5 12.5t55.5 29t21 31.5v351h4q53 0 53 -55v-412zM390 585q0 -19 -12 -31.5t-31 -12.5t-31 12.5t-12 31.5t12.5 31.5
t30.5 12.5t30.5 -12.5t12.5 -31.5zM216 585q0 -19 -12 -31.5t-31 -12.5t-31 12t-12 32q0 19 12.5 31.5t30.5 12.5t30.5 -12.5t12.5 -31.5z" />
    <glyph glyph-name="yacute" unicode="&#xfd;" horiz-adv-x="444" 
d="M227 -102q-17 -46 -36.5 -72.5t-46 -39.5t-61.5 -13q-37 0 -60 12q-19 10 -19 24q0 16 18 39q27 -27 64 -27q31 0 50.5 21t41.5 81l29 77h-28l-164 462q13 5 27 5q19 0 31.5 -11t23.5 -44l123 -365l130 370q17 50 54 50q11 0 25 -6zM253 535q-14 -15 -33 -15
q-8 0 -17.5 3t-13.5 6l85 110q16 21 24.5 26t19.5 5q23 0 45 -16z" />
    <glyph glyph-name="thorn" unicode="&#xfe;" horiz-adv-x="530" 
d="M80 709q6 1 10 1q23 0 35.5 -13t12.5 -37v-243q27 27 64 42.5t78 15.5q93 0 144 -61.5t51 -177.5q0 -79 -25.5 -133.5t-72.5 -83t-105 -28.5q-43 1 -71.5 12t-44 23.5t-19.5 17.5v-262h-57v927zM414 229q0 96 -36.5 146t-108.5 50q-41 0 -74 -14t-50 -37q-8 -11 -8 -22
v-255q22 -26 55.5 -42t70.5 -16q73 0 112 49t39 141z" />
    <glyph glyph-name="ydieresis" unicode="&#xff;" horiz-adv-x="444" 
d="M227 -102q-17 -46 -36.5 -72.5t-46 -39.5t-61.5 -13q-37 0 -60 12q-19 10 -19 24q0 16 18 39q27 -27 64 -27q31 0 50.5 21t41.5 81l29 77h-28l-164 462q13 5 27 5q19 0 31.5 -11t23.5 -44l123 -365l130 370q17 50 54 50q11 0 25 -6zM350 585q0 -19 -12 -31.5t-31 -12.5
t-31 12.5t-12 31.5t12.5 31.5t30.5 12.5t30.5 -12.5t12.5 -31.5zM176 585q0 -19 -12 -31.5t-31 -12.5t-31 12t-12 32q0 19 12.5 31.5t30.5 12.5t30.5 -12.5t12.5 -31.5z" />
    <glyph glyph-name="Amacron" unicode="&#x100;" horiz-adv-x="610" 
d="M522 0l-69 187h-299l-69 -187h-60l252 665q14 6 29 6q13 0 21.5 -7t13.5 -21l244 -643h-63zM303 595l-131 -358h261zM202 742q-23 0 -34 7.5t-11 24.5q0 5 0.5 8.5t1.5 8.5h251q24 0 35 -7.5t11 -24.5q0 -5 -0.5 -9t-1.5 -8h-252z" />
    <glyph glyph-name="amacron" unicode="&#x101;" horiz-adv-x="486" 
d="M461 0q-20 -5 -36 -5q-34 0 -54 16.5t-22 46.5q-67 -67 -162 -67q-68 0 -107.5 35t-39.5 101q0 53 32 89.5t93 56t138 19.5q12 0 23 -0.5t22 -1.5v24q0 59 -27.5 85.5t-88.5 26.5q-40 0 -76 -11t-62 -31h-9q-14 20 -14 33t26 27q25 14 64 22.5t76 8.5q90 0 129.5 -39
t39.5 -131v-200q0 -28 4 -45.5t14 -26.5t37 -11v-22zM349 249q-6 1 -12.5 1h-13.5q-223 0 -223 -121q0 -43 24.5 -67t72.5 -24q38 0 72.5 14t57 33.5t22.5 32.5v131zM129 558q-23 0 -34 7.5t-11 24.5q0 5 0.5 8.5t1.5 8.5h251q24 0 35 -7.5t11 -24.5q0 -5 -0.5 -9t-1.5 -8
h-252z" />
    <glyph glyph-name="Abreve" unicode="&#x102;" horiz-adv-x="610" 
d="M522 0l-69 187h-299l-69 -187h-60l252 665q14 6 29 6q13 0 21.5 -7t13.5 -21l244 -643h-63zM303 595l-131 -358h261zM227 812q13 -31 31 -43t49 -12q32 0 50 12.5t30 42.5q7 17 14.5 24t18.5 7q19 0 27 -5q-4 -19 -6.5 -26.5t-7.5 -20.5q-16 -38 -48 -58.5t-78 -20.5
q-47 0 -78 18.5t-49 57.5q-7 15 -10 24t-5 26q8 5 30 5q11 0 17.5 -6.5t14.5 -24.5z" />
    <glyph glyph-name="abreve" unicode="&#x103;" horiz-adv-x="486" 
d="M461 0q-20 -5 -36 -5q-34 0 -54 16.5t-22 46.5q-67 -67 -162 -67q-68 0 -107.5 35t-39.5 101q0 53 32 89.5t93 56t138 19.5q12 0 23 -0.5t22 -1.5v24q0 59 -27.5 85.5t-88.5 26.5q-40 0 -76 -11t-62 -31h-9q-14 20 -14 33t26 27q25 14 64 22.5t76 8.5q90 0 129.5 -39
t39.5 -131v-200q0 -28 4 -45.5t14 -26.5t37 -11v-22zM349 249q-6 1 -12.5 1h-13.5q-223 0 -223 -121q0 -43 24.5 -67t72.5 -24q38 0 72.5 14t57 33.5t22.5 32.5v131zM153 630q10 -35 28.5 -50t51.5 -15t51.5 15t28.5 49q9 31 33 31q19 0 27 -5q-2 -11 -4 -19t-4 -15.5
t-5 -17.5q-31 -83 -127 -83q-49 0 -79 18.5t-48 60.5q-9 21 -15 56q8 5 30 5q13 0 20 -7t12 -23z" />
    <glyph glyph-name="Aogonek" unicode="&#x104;" horiz-adv-x="610" 
d="M522 0l-69 187h-299l-69 -187h-60l252 665q14 6 29 6q13 0 21.5 -7t13.5 -21l244 -643h-63zM303 595l-131 -358h261zM588 -147q6 -5 12.5 -11.5t6.5 -15.5q0 -10 -11 -19q-20 -17 -56 -17q-40 0 -61 20.5t-21 58.5q0 39 25 78t58 60l44 -7q-20 -12 -39 -34.5t-29.5 -46
t-10.5 -44.5q0 -45 38 -45q13 0 23.5 5t20.5 18z" />
    <glyph glyph-name="aogonek" unicode="&#x105;" horiz-adv-x="486" 
d="M461 0q-20 -5 -36 -5q-34 0 -54 16.5t-22 46.5q-67 -67 -162 -67q-68 0 -107.5 35t-39.5 101q0 53 32 89.5t93 56t138 19.5q12 0 23 -0.5t22 -1.5v24q0 59 -27.5 85.5t-88.5 26.5q-40 0 -76 -11t-62 -31h-9q-14 20 -14 33t26 27q25 14 64 22.5t76 8.5q90 0 129.5 -39
t39.5 -131v-200q0 -28 4 -45.5t14 -26.5t37 -11v-22zM349 249q-6 1 -12.5 1h-13.5q-223 0 -223 -121q0 -43 24.5 -67t72.5 -24q38 0 72.5 14t57 33.5t22.5 32.5v131zM464 -147q6 -5 12.5 -11.5t6.5 -15.5q0 -10 -11 -19q-20 -17 -56 -17q-40 0 -61 20.5t-21 58.5q0 39 25 78
t58 60l44 -7q-20 -12 -39 -34.5t-29.5 -46t-10.5 -44.5q0 -45 38 -45q13 0 23.5 5t20.5 18z" />
    <glyph glyph-name="Cacute" unicode="&#x106;" horiz-adv-x="596" 
d="M528 113q28 -26 28 -37q0 -9 -10 -20q-16 -18 -47.5 -35.5t-67.5 -26.5t-76 -9q-140 0 -215 90.5t-75 256.5q0 165 77 257t219 92q55 0 102 -18t79 -50q12 -12 12 -23t-20 -34h-11q-29 35 -72 54.5t-93 19.5q-113 0 -172 -77.5t-59 -220.5q0 -142 60 -220t174 -78
q65 0 122 39q27 19 45 40zM381 722q-14 -8 -26 -8q-10 0 -20.5 5t-14.5 11l110 87q14 12 23.5 16t18.5 4q10 0 20 -6t25 -22z" />
    <glyph glyph-name="cacute" unicode="&#x107;" horiz-adv-x="455" 
d="M401 91q23 -20 23 -33q0 -10 -18 -27q-25 -22 -60.5 -34t-75.5 -12q-66 0 -115.5 29t-74.5 83.5t-25 133.5q0 78 28 132t79.5 83t109.5 29q83 0 135 -43q18 -14 18 -30q0 -11 -16 -37h-9q-45 61 -126 61q-76 0 -117 -51.5t-41 -143.5q0 -93 41.5 -145.5t118.5 -52.5
q53 0 94 29q16 11 31 29zM306 535q-14 -15 -33 -15q-8 0 -17.5 3t-13.5 6l85 110q16 21 24.5 26t19.5 5q23 0 45 -16z" />
    <glyph glyph-name="Ccircumflex" unicode="&#x108;" horiz-adv-x="596" 
d="M528 113q28 -26 28 -37q0 -9 -10 -20q-16 -18 -47.5 -35.5t-67.5 -26.5t-76 -9q-140 0 -215 90.5t-75 256.5q0 165 77 257t219 92q55 0 102 -18t79 -50q12 -12 12 -23t-20 -34h-11q-29 35 -72 54.5t-93 19.5q-113 0 -172 -77.5t-59 -220.5q0 -142 60 -220t174 -78
q65 0 122 39q27 19 45 40zM354 786l-64 -58q-17 -14 -34 -14q-16 0 -27 9l79 92q11 13 20.5 21t26.5 8t27 -8.5t21 -21.5l78 -91q-11 -9 -27 -9q-21 0 -34 13z" />
    <glyph glyph-name="ccircumflex" unicode="&#x109;" horiz-adv-x="455" 
d="M401 91q23 -20 23 -33q0 -10 -18 -27q-25 -22 -60.5 -34t-75.5 -12q-66 0 -115.5 29t-74.5 83.5t-25 133.5q0 78 28 132t79.5 83t109.5 29q83 0 135 -43q18 -14 18 -30q0 -11 -16 -37h-9q-45 61 -126 61q-76 0 -117 -51.5t-41 -143.5q0 -93 41.5 -145.5t118.5 -52.5
q53 0 94 29q16 11 31 29zM273 615l-63 -72q-15 -17 -37 -17q-18 0 -28 10l81 103q11 14 20 22.5t26 8.5t26 -8.5t20 -22.5l83 -106q-16 -9 -29 -9q-19 0 -36 18z" />
    <glyph glyph-name="Cdotaccent" unicode="&#x10a;" horiz-adv-x="596" 
d="M528 113q28 -26 28 -37q0 -9 -10 -20q-16 -18 -47.5 -35.5t-67.5 -26.5t-76 -9q-140 0 -215 90.5t-75 256.5q0 165 77 257t219 92q55 0 102 -18t79 -50q12 -12 12 -23t-20 -34h-11q-29 35 -72 54.5t-93 19.5q-113 0 -172 -77.5t-59 -220.5q0 -142 60 -220t174 -78
q65 0 122 39q27 19 45 40zM402 774q0 -21 -13.5 -36t-33.5 -15t-33.5 15t-13.5 36t13.5 36t33.5 15t33.5 -15t13.5 -36z" />
    <glyph glyph-name="cdotaccent" unicode="&#x10b;" horiz-adv-x="455" 
d="M401 91q23 -20 23 -33q0 -10 -18 -27q-25 -22 -60.5 -34t-75.5 -12q-66 0 -115.5 29t-74.5 83.5t-25 133.5q0 78 28 132t79.5 83t109.5 29q83 0 135 -43q18 -14 18 -30q0 -11 -16 -37h-9q-45 61 -126 61q-76 0 -117 -51.5t-41 -143.5q0 -93 41.5 -145.5t118.5 -52.5
q53 0 94 29q16 11 31 29zM320 590q0 -21 -13.5 -36t-33.5 -15t-33.5 15t-13.5 36t13.5 36t33.5 15t33.5 -15t13.5 -36z" />
    <glyph glyph-name="Ccaron" unicode="&#x10c;" horiz-adv-x="596" 
d="M528 113q28 -26 28 -37q0 -9 -10 -20q-16 -18 -47.5 -35.5t-67.5 -26.5t-76 -9q-140 0 -215 90.5t-75 256.5q0 165 77 257t219 92q55 0 102 -18t79 -50q12 -12 12 -23t-20 -34h-11q-29 35 -72 54.5t-93 19.5q-113 0 -172 -77.5t-59 -220.5q0 -142 60 -220t174 -78
q65 0 122 39q27 19 45 40zM356 770l64 58q17 14 34 14q16 0 27 -9l-79 -92q-11 -13 -20.5 -21t-26.5 -8t-27 8.5t-21 21.5l-78 91q11 9 27 9q21 0 34 -13z" />
    <glyph glyph-name="ccaron" unicode="&#x10d;" horiz-adv-x="455" 
d="M401 91q23 -20 23 -33q0 -10 -18 -27q-25 -22 -60.5 -34t-75.5 -12q-66 0 -115.5 29t-74.5 83.5t-25 133.5q0 78 28 132t79.5 83t109.5 29q83 0 135 -43q18 -14 18 -30q0 -11 -16 -37h-9q-45 61 -126 61q-76 0 -117 -51.5t-41 -143.5q0 -93 41.5 -145.5t118.5 -52.5
q53 0 94 29q16 11 31 29zM337 648q14 18 36 18q16 0 29 -9l-83 -106q-11 -14 -20 -22.5t-26 -8.5t-26 8.5t-20 22.5l-81 103q10 10 28 10q22 0 37 -17l63 -72z" />
    <glyph glyph-name="Dcaron" unicode="&#x10e;" horiz-adv-x="641" 
d="M576 340q0 -99 -29.5 -169.5t-89.5 -114.5q-76 -56 -203 -56h-169v667q82 9 160 9q168 0 249.5 -81.5t81.5 -254.5zM514 340q0 145 -65.5 215.5t-200.5 70.5q-59 0 -104 -5v-572h114q125 0 190.5 75t65.5 216zM284 770l64 58q17 14 34 14q16 0 27 -9l-79 -92
q-11 -13 -20.5 -21t-26.5 -8t-27 8.5t-21 21.5l-78 91q11 9 27 9q21 0 34 -13z" />
    <glyph glyph-name="dcaron" unicode="&#x10f;" horiz-adv-x="567" 
d="M394 709q3 1 5.5 1h4.5q22 0 34.5 -12.5t12.5 -37.5v-660h-57v45q-20 -27 -56.5 -43.5t-81.5 -16.5q-95 0 -148 62.5t-53 178.5q0 80 26.5 135t74.5 84.5t108 29.5q41 -1 68.5 -12t42.5 -24t19 -18v288zM117 237q0 -99 38.5 -151t112.5 -52q47 0 85 24t41 51v260
q-49 58 -122 58q-76 0 -115.5 -48.5t-39.5 -141.5zM571 542q-1 -17 -12.5 -26t-30.5 -9h-5v140q0 26 3.5 36.5t11.5 17.5q12 9 29 9q2 0 6 -0.5t9 -1.5z" />
    <glyph glyph-name="Dcroat" unicode="&#x110;" horiz-adv-x="641" 
d="M19 371h66v296q82 9 160 9q168 0 249.5 -81.5t81.5 -254.5q0 -106 -35.5 -183t-101.5 -117t-159 -40h-195v323h-66v48zM514 340q0 145 -65.5 215.5t-200.5 70.5q-59 0 -104 -5v-250h196v-48h-196v-274h118q252 0 252 291z" />
    <glyph glyph-name="dcroat" unicode="&#x111;" horiz-adv-x="531" 
d="M394 0v45q-20 -27 -56.5 -43.5t-81.5 -16.5q-95 0 -148 62.5t-53 178.5q0 80 26.5 135t74.5 84.5t108 29.5q35 0 66 -11t52 -31l12 -12v145h-220v49h220v94q3 1 5.5 1h4.5q22 0 34.5 -12.5t12.5 -37.5v-45h65v-49h-65v-566h-57zM117 237q0 -99 38.5 -151t112.5 -52
q47 0 85 24t41 51v260q-49 58 -122 58q-76 0 -115.5 -48.5t-39.5 -141.5z" />
    <glyph glyph-name="Emacron" unicode="&#x112;" horiz-adv-x="493" 
d="M85 0v669h371q1 -2 1 -4.5v-4.5q0 -41 -46 -41h-267v-242h236v-51h-236v-276h280q23 0 36 -11t13 -30v-4.5t-1 -4.5h-387zM167 742q-23 0 -34 7.5t-11 24.5q0 5 0.5 8.5t1.5 8.5h251q24 0 35 -7.5t11 -24.5q0 -5 -0.5 -9t-1.5 -8h-252z" />
    <glyph glyph-name="emacron" unicode="&#x113;" horiz-adv-x="497" 
d="M435 57q0 -15 -26 -33.5t-61 -28.5t-73 -10q-107 0 -163.5 64t-56.5 186q0 75 26.5 129t74.5 82.5t108 28.5q87 0 135 -54.5t48 -147.5q0 -24 -3 -51h-328q2 -92 43 -140.5t118 -48.5q46 0 82 16.5t54 42.5q22 -25 22 -35zM390 265q0 162 -131 162q-64 0 -102 -43
t-40 -119h273zM159 558q-23 0 -34 7.5t-11 24.5q0 5 0.5 8.5t1.5 8.5h251q24 0 35 -7.5t11 -24.5q0 -5 -0.5 -9t-1.5 -8h-252z" />
    <glyph glyph-name="Ebreve" unicode="&#x114;" horiz-adv-x="493" 
d="M85 0v669h371q1 -2 1 -4.5v-4.5q0 -41 -46 -41h-267v-242h236v-51h-236v-276h280q23 0 36 -11t13 -30v-4.5t-1 -4.5h-387zM192 812q13 -31 31 -43t49 -12q32 0 50 12.5t30 42.5q7 17 14.5 24t18.5 7q19 0 27 -5q-4 -19 -6.5 -26.5t-7.5 -20.5q-16 -38 -48 -58.5
t-78 -20.5q-47 0 -78 18.5t-49 57.5q-7 15 -10 24t-5 26q8 5 30 5q11 0 17.5 -6.5t14.5 -24.5z" />
    <glyph glyph-name="ebreve" unicode="&#x115;" horiz-adv-x="497" 
d="M435 57q0 -15 -26 -33.5t-61 -28.5t-73 -10q-107 0 -163.5 64t-56.5 186q0 75 26.5 129t74.5 82.5t108 28.5q87 0 135 -54.5t48 -147.5q0 -24 -3 -51h-328q2 -92 43 -140.5t118 -48.5q46 0 82 16.5t54 42.5q22 -25 22 -35zM390 265q0 162 -131 162q-64 0 -102 -43
t-40 -119h273zM183 630q10 -35 28.5 -50t51.5 -15t51.5 15t28.5 49q9 31 33 31q19 0 27 -5q-2 -11 -4 -19t-4 -15.5t-5 -17.5q-31 -83 -127 -83q-49 0 -79 18.5t-48 60.5q-9 21 -15 56q8 5 30 5q13 0 20 -7t12 -23z" />
    <glyph glyph-name="Edotaccent" unicode="&#x116;" horiz-adv-x="493" 
d="M85 0v669h371q1 -2 1 -4.5v-4.5q0 -41 -46 -41h-267v-242h236v-51h-236v-276h280q23 0 36 -11t13 -30v-4.5t-1 -4.5h-387zM318 774q0 -21 -13.5 -36t-33.5 -15t-33.5 15t-13.5 36t13.5 36t33.5 15t33.5 -15t13.5 -36z" />
    <glyph glyph-name="edotaccent" unicode="&#x117;" horiz-adv-x="497" 
d="M435 57q0 -15 -26 -33.5t-61 -28.5t-73 -10q-107 0 -163.5 64t-56.5 186q0 75 26.5 129t74.5 82.5t108 28.5q87 0 135 -54.5t48 -147.5q0 -24 -3 -51h-328q2 -92 43 -140.5t118 -48.5q46 0 82 16.5t54 42.5q22 -25 22 -35zM390 265q0 162 -131 162q-64 0 -102 -43
t-40 -119h273zM309 590q0 -21 -13.5 -36t-33.5 -15t-33.5 15t-13.5 36t13.5 36t33.5 15t33.5 -15t13.5 -36z" />
    <glyph glyph-name="Eogonek" unicode="&#x118;" horiz-adv-x="493" 
d="M85 0v669h371q1 -2 1 -4.5v-4.5q0 -41 -46 -41h-267v-242h236v-51h-236v-276h280q23 0 36 -11t13 -30v-4.5t-1 -4.5h-387zM475 -147q6 -5 12.5 -11.5t6.5 -15.5q0 -10 -11 -19q-20 -17 -56 -17q-40 0 -61 20.5t-21 58.5q0 39 25 78t58 60l44 -7q-20 -12 -39 -34.5
t-29.5 -46t-10.5 -44.5q0 -45 38 -45q13 0 23.5 5t20.5 18z" />
    <glyph glyph-name="eogonek" unicode="&#x119;" horiz-adv-x="497" 
d="M435 57q0 -15 -26 -33.5t-61 -28.5t-73 -10q-107 0 -163.5 64t-56.5 186q0 75 26.5 129t74.5 82.5t108 28.5q87 0 135 -54.5t48 -147.5q0 -24 -3 -51h-328q2 -92 43 -140.5t118 -48.5q46 0 82 16.5t54 42.5q22 -25 22 -35zM390 265q0 162 -131 162q-64 0 -102 -43
t-40 -119h273zM385 -147q6 -5 12.5 -11.5t6.5 -15.5q0 -10 -11 -19q-20 -17 -56 -17q-40 0 -61 20.5t-21 58.5q0 28 13.5 56t37 52t52.5 40l54 9q-52 -35 -80.5 -74.5t-28.5 -76.5q0 -45 40 -45q23 0 42 23z" />
    <glyph glyph-name="Ecaron" unicode="&#x11a;" horiz-adv-x="493" 
d="M85 0v669h371q1 -2 1 -4.5v-4.5q0 -41 -46 -41h-267v-242h236v-51h-236v-276h280q23 0 36 -11t13 -30v-4.5t-1 -4.5h-387zM272 770l64 58q17 14 34 14q16 0 27 -9l-79 -92q-11 -13 -20.5 -21t-26.5 -8t-27 8.5t-21 21.5l-78 91q11 9 27 9q21 0 34 -13z" />
    <glyph glyph-name="ecaron" unicode="&#x11b;" horiz-adv-x="497" 
d="M435 57q0 -15 -26 -33.5t-61 -28.5t-73 -10q-107 0 -163.5 64t-56.5 186q0 75 26.5 129t74.5 82.5t108 28.5q87 0 135 -54.5t48 -147.5q0 -24 -3 -51h-328q2 -92 43 -140.5t118 -48.5q46 0 82 16.5t54 42.5q22 -25 22 -35zM390 265q0 162 -131 162q-64 0 -102 -43
t-40 -119h273zM326 648q14 18 36 18q16 0 29 -9l-83 -106q-11 -14 -20 -22.5t-26 -8.5t-26 8.5t-20 22.5l-81 103q10 10 28 10q22 0 37 -17l63 -72z" />
    <glyph glyph-name="Gcircumflex" unicode="&#x11c;" horiz-adv-x="650" 
d="M585 87q-17 -28 -47 -49q-36 -28 -80.5 -40.5t-102.5 -12.5q-140 0 -215 92t-75 261q0 164 77 253.5t219 89.5q55 0 102 -18t79 -50q12 -12 12 -23t-20 -34h-11q-29 35 -72 54.5t-93 19.5q-114 0 -172.5 -74.5t-58.5 -217.5q0 -145 60 -224.5t174 -79.5q58 0 100.5 17.5
t66.5 49.5v191h-154v50h211v-255zM359 786l-64 -58q-17 -14 -34 -14q-16 0 -27 9l79 92q11 13 20.5 21t26.5 8t27 -8.5t21 -21.5l78 -91q-11 -9 -27 -9q-21 0 -34 13z" />
    <glyph glyph-name="gcircumflex" unicode="&#x11d;" horiz-adv-x="531" 
d="M451 25q0 -71 -10 -115q-33 -137 -210 -137q-47 0 -87.5 11.5t-61.5 29.5q-15 14 -15 27q0 7 6.5 16.5t16.5 18.5q12 -15 35 -28q41 -27 105 -27q142 0 158 114q6 40 6 96v17q-31 -31 -63 -44t-73 -13q-94 0 -148.5 63t-54.5 176q0 78 26.5 132.5t75 83.5t107.5 29
q32 0 55.5 -7t39 -17t24 -18.5l11.5 -11.5q0 21 13 33.5t32 12.5q7 0 12 -1v-441zM117 237q0 -94 39 -145.5t112 -51.5q34 0 62.5 11.5t46 29t17.5 34.5v254q-49 58 -122 58q-76 0 -115.5 -48.5t-39.5 -141.5zM266 615l-63 -72q-15 -17 -37 -17q-18 0 -28 10l81 103
q11 14 20 22.5t26 8.5t26 -8.5t20 -22.5l83 -106q-16 -9 -29 -9q-19 0 -36 18z" />
    <glyph glyph-name="Gbreve" unicode="&#x11e;" horiz-adv-x="650" 
d="M585 87q-17 -28 -47 -49q-36 -28 -80.5 -40.5t-102.5 -12.5q-140 0 -215 92t-75 261q0 164 77 253.5t219 89.5q55 0 102 -18t79 -50q12 -12 12 -23t-20 -34h-11q-29 35 -72 54.5t-93 19.5q-114 0 -172.5 -74.5t-58.5 -217.5q0 -145 60 -224.5t174 -79.5q58 0 100.5 17.5
t66.5 49.5v191h-154v50h211v-255zM281 812q13 -31 31 -43t49 -12q32 0 50 12.5t30 42.5q7 17 14.5 24t18.5 7q19 0 27 -5q-4 -19 -6.5 -26.5t-7.5 -20.5q-16 -38 -48 -58.5t-78 -20.5q-47 0 -78 18.5t-49 57.5q-7 15 -10 24t-5 26q8 5 30 5q11 0 17.5 -6.5t14.5 -24.5z" />
    <glyph glyph-name="gbreve" unicode="&#x11f;" horiz-adv-x="531" 
d="M451 25q0 -71 -10 -115q-33 -137 -210 -137q-47 0 -87.5 11.5t-61.5 29.5q-15 14 -15 27q0 7 6.5 16.5t16.5 18.5q12 -15 35 -28q41 -27 105 -27q142 0 158 114q6 40 6 96v17q-31 -31 -63 -44t-73 -13q-94 0 -148.5 63t-54.5 176q0 78 26.5 132.5t75 83.5t107.5 29
q32 0 55.5 -7t39 -17t24 -18.5l11.5 -11.5q0 21 13 33.5t32 12.5q7 0 12 -1v-441zM117 237q0 -94 39 -145.5t112 -51.5q34 0 62.5 11.5t46 29t17.5 34.5v254q-49 58 -122 58q-76 0 -115.5 -48.5t-39.5 -141.5zM187 630q10 -35 28.5 -50t51.5 -15t51.5 15t28.5 49q9 31 33 31
q19 0 27 -5q-2 -11 -4 -19t-4 -15.5t-5 -17.5q-31 -83 -127 -83q-49 0 -79 18.5t-48 60.5q-9 21 -15 56q8 5 30 5q13 0 20 -7t12 -23z" />
    <glyph glyph-name="Gdotaccent" unicode="&#x120;" horiz-adv-x="650" 
d="M585 87q-17 -28 -47 -49q-36 -28 -80.5 -40.5t-102.5 -12.5q-140 0 -215 92t-75 261q0 164 77 253.5t219 89.5q55 0 102 -18t79 -50q12 -12 12 -23t-20 -34h-11q-29 35 -72 54.5t-93 19.5q-114 0 -172.5 -74.5t-58.5 -217.5q0 -145 60 -224.5t174 -79.5q58 0 100.5 17.5
t66.5 49.5v191h-154v50h211v-255zM407 774q0 -21 -13.5 -36t-33.5 -15t-33.5 15t-13.5 36t13.5 36t33.5 15t33.5 -15t13.5 -36z" />
    <glyph glyph-name="gdotaccent" unicode="&#x121;" horiz-adv-x="531" 
d="M451 25q0 -71 -10 -115q-33 -137 -210 -137q-47 0 -87.5 11.5t-61.5 29.5q-15 14 -15 27q0 7 6.5 16.5t16.5 18.5q12 -15 35 -28q41 -27 105 -27q142 0 158 114q6 40 6 96v17q-31 -31 -63 -44t-73 -13q-94 0 -148.5 63t-54.5 176q0 78 26.5 132.5t75 83.5t107.5 29
q32 0 55.5 -7t39 -17t24 -18.5l11.5 -11.5q0 21 13 33.5t32 12.5q7 0 12 -1v-441zM117 237q0 -94 39 -145.5t112 -51.5q34 0 62.5 11.5t46 29t17.5 34.5v254q-49 58 -122 58q-76 0 -115.5 -48.5t-39.5 -141.5zM313 590q0 -21 -13.5 -36t-33.5 -15t-33.5 15t-13.5 36t13.5 36
t33.5 15t33.5 -15t13.5 -36z" />
    <glyph glyph-name="uni0122" unicode="&#x122;" horiz-adv-x="650" 
d="M585 87q-17 -28 -47 -49q-36 -28 -80.5 -40.5t-102.5 -12.5q-140 0 -215 92t-75 261q0 164 77 253.5t219 89.5q55 0 102 -18t79 -50q12 -12 12 -23t-20 -34h-11q-29 35 -72 54.5t-93 19.5q-114 0 -172.5 -74.5t-58.5 -217.5q0 -145 60 -224.5t174 -79.5q58 0 100.5 17.5
t66.5 49.5v191h-154v50h211v-255zM329 -176q-15 -25 -40 -25q-12 0 -18 3l43 107q10 24 21 34t28 10q14 0 30 -8z" />
    <glyph glyph-name="uni0123" unicode="&#x123;" horiz-adv-x="531" 
d="M451 25q0 -71 -10 -115q-33 -137 -210 -137q-47 0 -87.5 11.5t-61.5 29.5q-15 14 -15 27q0 7 6.5 16.5t16.5 18.5q12 -15 35 -28q41 -27 105 -27q142 0 158 114q6 40 6 96v17q-31 -31 -63 -44t-73 -13q-94 0 -148.5 63t-54.5 176q0 78 26.5 132.5t75 83.5t107.5 29
q32 0 55.5 -7t39 -17t24 -18.5l11.5 -11.5q0 21 13 33.5t32 12.5q7 0 12 -1v-441zM117 237q0 -94 39 -145.5t112 -51.5q34 0 62.5 11.5t46 29t17.5 34.5v254q-49 58 -122 58q-76 0 -115.5 -48.5t-39.5 -141.5zM300 649q13 25 40 25q12 0 18 -3l-43 -107q-10 -24 -21 -34
t-28 -10q-14 0 -30 8z" />
    <glyph glyph-name="Hcircumflex" unicode="&#x124;" horiz-adv-x="649" 
d="M564 0h-59v325h-361v-325h-59v670q6 1 11 1q22 0 35 -13t13 -38v-245h361v295q6 1 11 1q22 0 35 -13t13 -38v-620zM314 786l-64 -58q-17 -14 -34 -14q-16 0 -27 9l79 92q11 13 20.5 21t26.5 8t27 -8.5t21 -21.5l78 -91q-11 -9 -27 -9q-21 0 -34 13z" />
    <glyph glyph-name="hcircumflex" unicode="&#x125;" horiz-adv-x="542" 
d="M137 411q29 30 72.5 47t95.5 17q61 0 100 -27t49 -75q8 -32 8 -89v-284h-58v284q0 49 -9 75q-19 64 -109 64q-37 0 -72 -12t-56 -29t-21 -32v-350h-57v709q6 1 10 1q22 0 34.5 -12.5t12.5 -37.5v-249zM109 826l-64 -58q-17 -14 -34 -14q-16 0 -27 9l79 92q11 13 20.5 21
t26.5 8t27 -8.5t21 -21.5l78 -91q-11 -9 -27 -9q-21 0 -34 13z" />
    <glyph glyph-name="Hbar" unicode="&#x126;" horiz-adv-x="649" 
d="M505 375v134h-361v-134h361zM144 558h361v112q6 1 11 1q22 0 35 -13t13 -38v-62h61v-49h-61v-509h-59v325h-361v-325h-59v509h-66v49h66v112q6 1 11 1q22 0 35 -13t13 -38v-62z" />
    <glyph glyph-name="hbar" unicode="&#x127;" horiz-adv-x="542" 
d="M137 615h217v-49h-217v-155q29 30 72.5 47t95.5 17q61 0 100 -27t49 -75q8 -32 8 -89v-284h-58v284q0 49 -9 75q-19 64 -109 64q-37 0 -72 -12t-56 -29t-21 -32v-350h-57v566h-64v49h64v94q6 1 10 1q22 0 34.5 -12.5t12.5 -37.5v-45z" />
    <glyph glyph-name="Itilde" unicode="&#x128;" horiz-adv-x="229" 
d="M144 0h-59v670q4 1 6.5 1h6.5q20 0 33 -13.5t13 -37.5v-620zM176 735q-28 1 -49 10t-39 17.5t-37 9.5q-17 0 -33 -10t-34 -33q-8 4 -13 13t-5 19q0 21 29 40t60 19q21 0 37.5 -6t30 -13t26.5 -13t27 -6q17 0 32 11t34 39q8 -3 15 -13t7 -22q0 -20 -27.5 -41t-60.5 -21z
" />
    <glyph glyph-name="itilde" unicode="&#x129;" horiz-adv-x="224" 
d="M148 -5q-23 0 -38 9t-22 29t-7 65v369h3q54 0 54 -52v-320q0 -25 4 -41t14.5 -23.5t32.5 -9.5v-21q-19 -5 -41 -5zM170 540q-28 1 -49 10t-39 17.5t-37 9.5q-17 0 -33 -10t-34 -33q-8 4 -13 13t-5 19q0 21 29 40t60 19q21 0 37.5 -6t30 -13t26.5 -13t27 -6q17 0 32 11
t34 39q8 -3 15 -13t7 -22q0 -20 -27.5 -41t-60.5 -21z" />
    <glyph glyph-name="Imacron" unicode="&#x12a;" horiz-adv-x="229" 
d="M144 0h-59v670q4 1 6.5 1h6.5q20 0 33 -13.5t13 -37.5v-620zM11 742q-23 0 -34 7.5t-11 24.5q0 5 0.5 8.5t1.5 8.5h251q24 0 35 -7.5t11 -24.5q0 -5 -0.5 -9t-1.5 -8h-252z" />
    <glyph glyph-name="imacron" unicode="&#x12b;" horiz-adv-x="224" 
d="M148 -5q-23 0 -38 9t-22 29t-7 65v369h3q54 0 54 -52v-320q0 -25 4 -41t14.5 -23.5t32.5 -9.5v-21q-19 -5 -41 -5zM6 558q-23 0 -34 7.5t-11 24.5q0 5 0.5 8.5t1.5 8.5h251q24 0 35 -7.5t11 -24.5q0 -5 -0.5 -9t-1.5 -8h-252z" />
    <glyph glyph-name="Ibreve" unicode="&#x12c;" horiz-adv-x="229" 
d="M144 0h-59v670q4 1 6.5 1h6.5q20 0 33 -13.5t13 -37.5v-620zM36 812q13 -31 31 -43t49 -12q32 0 50 12.5t30 42.5q7 17 14.5 24t18.5 7q19 0 27 -5q-4 -19 -6.5 -26.5t-7.5 -20.5q-16 -38 -48 -58.5t-78 -20.5q-47 0 -78 18.5t-49 57.5q-7 15 -10 24t-5 26q8 5 30 5
q11 0 17.5 -6.5t14.5 -24.5z" />
    <glyph glyph-name="ibreve" unicode="&#x12d;" horiz-adv-x="224" 
d="M148 -5q-23 0 -38 9t-22 29t-7 65v369h3q54 0 54 -52v-320q0 -25 4 -41t14.5 -23.5t32.5 -9.5v-21q-19 -5 -41 -5zM30 630q10 -35 28.5 -50t51.5 -15t51.5 15t28.5 49q9 31 33 31q19 0 27 -5q-2 -11 -4 -19t-4 -15.5t-5 -17.5q-31 -83 -127 -83q-49 0 -79 18.5t-48 60.5
q-9 21 -15 56q8 5 30 5q13 0 20 -7t12 -23z" />
    <glyph glyph-name="Iogonek" unicode="&#x12e;" horiz-adv-x="229" 
d="M144 0h-59v670q4 1 6.5 1h6.5q20 0 33 -13.5t13 -37.5v-620zM147 -147q6 -5 12.5 -11.5t6.5 -15.5q0 -10 -11 -19q-20 -17 -56 -17q-40 0 -61 20.5t-21 58.5q0 39 25 78t58 60l44 -7q-20 -12 -39 -34.5t-29.5 -46t-10.5 -44.5q0 -45 38 -45q13 0 23.5 5t20.5 18z" />
    <glyph glyph-name="iogonek" unicode="&#x12f;" horiz-adv-x="224" 
d="M148 -5q-23 0 -38 9t-22 29t-7 65v369h3q54 0 54 -52v-320q0 -25 4 -41t14.5 -23.5t32.5 -9.5v-21q-19 -5 -41 -5zM150 590q0 -19 -12.5 -32.5t-30.5 -13.5t-30.5 13.5t-12.5 32.5t12.5 32.5t30.5 13.5t30.5 -13.5t12.5 -32.5zM192 -147q6 -5 12.5 -11.5t6.5 -15.5
q0 -10 -11 -19q-20 -17 -56 -17q-40 0 -61 20.5t-21 58.5q0 39 25 78t58 60l44 -7q-20 -12 -39 -34.5t-29.5 -46t-10.5 -44.5q0 -45 38 -45q13 0 23.5 5t20.5 18z" />
    <glyph glyph-name="Idotaccent" unicode="&#x130;" horiz-adv-x="229" 
d="M144 0h-59v670q4 1 6.5 1h6.5q20 0 33 -13.5t13 -37.5v-620zM162 774q0 -21 -13.5 -36t-33.5 -15t-33.5 15t-13.5 36t13.5 36t33.5 15t33.5 -15t13.5 -36z" />
    <glyph glyph-name="dotlessi" unicode="&#x131;" horiz-adv-x="224" 
d="M148 -5q-23 0 -38 9t-22 29t-7 65v369h3q54 0 54 -52v-320q0 -25 4 -41t14.5 -23.5t32.5 -9.5v-21q-19 -5 -41 -5z" />
    <glyph glyph-name="IJ" unicode="&#x132;" horiz-adv-x="476" 
d="M144 0h-59v670q4 1 6.5 1h6.5q20 0 33 -13.5t13 -37.5v-620zM391 23q0 -11 -0.5 -23t-1.5 -23q-5 -44 -25 -78t-51.5 -51.5t-73.5 -17.5q-23 0 -32.5 7t-9.5 25q0 4 0.5 8.5t1.5 9.5q5 -1 9.5 -1h9.5q45 0 70.5 18.5t37.5 59.5q6 19 6 59v654q6 1 11 1q22 0 35 -13
t13 -38v-597z" />
    <glyph glyph-name="ij" unicode="&#x133;" horiz-adv-x="434" 
d="M148 -5q-23 0 -38 9t-22 29t-7 65v369h3q54 0 54 -52v-320q0 -25 4 -41t14.5 -23.5t32.5 -9.5v-21q-19 -5 -41 -5zM150 590q0 -19 -12.5 -32.5t-30.5 -13.5t-30.5 13.5t-12.5 32.5t12.5 32.5t30.5 13.5t30.5 -13.5t12.5 -32.5zM354 -57q0 -56 -11 -89q-13 -39 -42 -60
t-69 -21q-19 0 -28 9.5t-9 35.5q46 0 69 17t29 55q4 17 4 43v534h3q54 0 54 -52v-472zM366 590q0 -19 -12.5 -32.5t-30.5 -13.5t-30.5 13.5t-12.5 32.5t12.5 32.5t30.5 13.5t30.5 -13.5t12.5 -32.5z" />
    <glyph glyph-name="Jcircumflex" unicode="&#x134;" horiz-adv-x="229" 
d="M144 23q0 -11 -0.5 -23t-1.5 -23q-5 -44 -25 -78t-51.5 -51.5t-73.5 -17.5q-23 0 -32.5 7t-9.5 25q0 4 0.5 8.5t1.5 9.5q5 -1 9.5 -1h9.5q45 0 70.5 18.5t37.5 59.5q6 19 6 59v654q6 1 11 1q22 0 35 -13t13 -38v-597zM114 786l-64 -58q-17 -14 -34 -14q-16 0 -27 9l79 92
q11 13 20.5 21t26.5 8t27 -8.5t21 -21.5l78 -91q-11 -9 -27 -9q-21 0 -34 13z" />
    <glyph glyph-name="jcircumflex" unicode="&#x135;" horiz-adv-x="218" 
d="M138 -57q0 -56 -11 -89q-13 -39 -42 -60t-69 -21q-19 0 -28 9.5t-9 35.5q46 0 69 17t29 55q4 17 4 43v534h3q54 0 54 -52v-472zM109 615l-63 -72q-15 -17 -37 -17q-18 0 -28 10l81 103q11 14 20 22.5t26 8.5t26 -8.5t20 -22.5l83 -106q-16 -9 -29 -9q-19 0 -36 18z" />
    <glyph glyph-name="uni0136" unicode="&#x136;" horiz-adv-x="535" 
d="M429 646q25 25 49 25q11 0 27 -7l10 -6l-279 -295l299 -366q-16 -6 -33 -6q-21 0 -36.5 7.5t-30.5 25.5l-263 322v27zM144 0h-59v670q6 1 11 1q22 0 35 -13t13 -38v-620zM281 -176q-15 -25 -40 -25q-12 0 -18 3l43 107q10 24 21 34t28 10q14 0 30 -8z" />
    <glyph glyph-name="uni0137" unicode="&#x137;" horiz-adv-x="472" 
d="M80 0v709q6 1 10 1q22 0 35 -13t13 -38v-659h-58zM171 246v28l166 164q16 16 28 22.5t25 6.5q11 0 27 -7l11 -7l-197 -191l228 -265q-15 -6 -31 -6q-37 0 -65 34zM236 -185q-15 -25 -40 -25q-12 0 -18 3l43 107q10 24 21 34t28 10q14 0 30 -8z" />
    <glyph glyph-name="kgreenlandic" unicode="&#x138;" horiz-adv-x="463" 
d="M173 227v27l155 178q18 20 29.5 27.5t22.5 7.5q17 0 27 -7l11 -7l-186 -208l218 -248q-15 -6 -32 -6q-19 0 -34 8t-30 26zM80 0v466q6 1 10 1q22 0 35 -13t13 -38v-416h-58z" />
    <glyph glyph-name="Lacute" unicode="&#x139;" horiz-adv-x="472" 
d="M144 50h255q23 0 36 -11t13 -30v-4.5t-1 -4.5h-362v670q6 1 11 1q22 0 35 -13t13 -38v-570zM145 722q-14 -8 -26 -8q-10 0 -20.5 5t-14.5 11l110 87q14 12 23.5 16t18.5 4q10 0 20 -6t25 -22z" />
    <glyph glyph-name="lacute" unicode="&#x13a;" horiz-adv-x="224" 
d="M80 709q6 1 10 1q22 0 35 -13t13 -38v-567q0 -25 4.5 -40t15 -22t31.5 -9v-21q-19 -5 -41 -5q-24 0 -39 9.5t-22 29.5t-7 64v611zM135 762q-14 -8 -26 -8q-10 0 -20.5 5t-14.5 11l110 87q14 12 23.5 16t18.5 4q10 0 20 -6t25 -22z" />
    <glyph glyph-name="uni013B" unicode="&#x13b;" horiz-adv-x="472" 
d="M144 50h255q23 0 36 -11t13 -30v-4.5t-1 -4.5h-362v670q6 1 11 1q22 0 35 -13t13 -38v-570zM240 -176q-15 -25 -40 -25q-12 0 -18 3l43 107q10 24 21 34t28 10q14 0 30 -8z" />
    <glyph glyph-name="uni013C" unicode="&#x13c;" horiz-adv-x="224" 
d="M80 709q6 1 10 1q22 0 35 -13t13 -38v-567q0 -25 4.5 -40t15 -22t31.5 -9v-21q-19 -5 -41 -5q-24 0 -39 9.5t-22 29.5t-7 64v611zM102 -185q-15 -25 -40 -25q-12 0 -18 3l43 107q10 24 21 34t28 10q14 0 30 -8z" />
    <glyph glyph-name="Lcaron" unicode="&#x13d;" horiz-adv-x="472" 
d="M144 50h255q23 0 36 -11t13 -30v-4.5t-1 -4.5h-362v670q6 1 11 1q22 0 35 -13t13 -38v-570zM301 504q-1 -17 -12.5 -26t-30.5 -9h-5v140q0 26 3.5 36.5t11.5 17.5q12 9 29 9q2 0 6 -0.5t9 -1.5z" />
    <glyph glyph-name="lcaron" unicode="&#x13e;" horiz-adv-x="254" 
d="M80 709q6 1 10 1q22 0 35 -13t13 -38v-567q0 -25 4.5 -40t15 -22t31.5 -9v-21q-19 -5 -41 -5q-24 0 -39 9.5t-22 29.5t-7 64v611zM258 542q-1 -17 -12.5 -26t-30.5 -9h-5v140q0 26 3.5 36.5t11.5 17.5q12 9 29 9q2 0 6 -0.5t9 -1.5z" />
    <glyph glyph-name="Ldot" unicode="&#x13f;" horiz-adv-x="472" 
d="M144 50h255q23 0 36 -11t13 -30v-4.5t-1 -4.5h-362v670q6 1 11 1q22 0 35 -13t13 -38v-570zM396 354q0 -21 -13.5 -36t-33.5 -15t-33.5 15t-13.5 36t13.5 36t33.5 15t33.5 -15t13.5 -36z" />
    <glyph glyph-name="ldot" unicode="&#x140;" horiz-adv-x="364" 
d="M80 709q6 1 10 1q22 0 35 -13t13 -38v-567q0 -25 4.5 -40t15 -22t31.5 -9v-21q-19 -5 -41 -5q-24 0 -39 9.5t-22 29.5t-7 64v611zM336 380q0 -21 -13.5 -36t-33.5 -15t-33.5 15t-13.5 36t13.5 36t33.5 15t33.5 -15t13.5 -36z" />
    <glyph glyph-name="Lslash" unicode="&#x141;" horiz-adv-x="472" 
d="M144 358l211 89l17 -39l-228 -98v-260h257q22 0 34.5 -10.5t12.5 -30.5v-9h-363v289l-63 -27l-17 40l80 35v333q6 1 11 1q22 0 35 -13t13 -38v-262z" />
    <glyph glyph-name="lslash" unicode="&#x142;" horiz-adv-x="275" 
d="M110 318l-70 -48l-26 36l96 66v337q6 1 10 1q22 0 35 -13t13 -38v-251l85 62l26 -35l-111 -81v-262q0 -25 4.5 -40t15 -22t31.5 -9v-21q-19 -5 -41 -5q-24 0 -39 9.5t-22 29.5t-7 64v220z" />
    <glyph glyph-name="Nacute" unicode="&#x143;" horiz-adv-x="661" 
d="M576 0h-61l-375 568v-568h-55v667q9 4 28 4q15 0 24 -5.5t19 -20.5l365 -562v587q7 1 13 1q42 0 42 -51v-620zM356 722q-14 -8 -26 -8q-10 0 -20.5 5t-14.5 11l110 87q14 12 23.5 16t18.5 4q10 0 20 -6t25 -22z" />
    <glyph glyph-name="nacute" unicode="&#x144;" horiz-adv-x="543" 
d="M137 412q28 29 72.5 46t96.5 17q61 0 100 -27t49 -75q8 -32 8 -89v-284h-58v284q0 49 -9 75q-19 64 -113 64q-39 0 -78 -15.5t-59 -38.5q-8 -10 -8 -25v-344h-58v467h4q53 0 53 -55zM301 535q-14 -15 -33 -15q-8 0 -17.5 3t-13.5 6l85 110q16 21 24.5 26t19.5 5
q23 0 45 -16z" />
    <glyph glyph-name="uni0145" unicode="&#x145;" horiz-adv-x="661" 
d="M576 0h-61l-375 568v-568h-55v667q9 4 28 4q15 0 24 -5.5t19 -20.5l365 -562v587q7 1 13 1q42 0 42 -51v-620zM299 -176q-15 -25 -40 -25q-12 0 -18 3l43 107q10 24 21 34t28 10q14 0 30 -8z" />
    <glyph glyph-name="uni0146" unicode="&#x146;" horiz-adv-x="543" 
d="M137 412q28 29 72.5 46t96.5 17q61 0 100 -27t49 -75q8 -32 8 -89v-284h-58v284q0 49 -9 75q-19 64 -113 64q-39 0 -78 -15.5t-59 -38.5q-8 -10 -8 -25v-344h-58v467h4q53 0 53 -55zM243 -185q-15 -25 -40 -25q-12 0 -18 3l43 107q10 24 21 34t28 10q14 0 30 -8z" />
    <glyph glyph-name="Ncaron" unicode="&#x147;" horiz-adv-x="661" 
d="M576 0h-61l-375 568v-568h-55v667q9 4 28 4q15 0 24 -5.5t19 -20.5l365 -562v587q7 1 13 1q42 0 42 -51v-620zM331 770l64 58q17 14 34 14q16 0 27 -9l-79 -92q-11 -13 -20.5 -21t-26.5 -8t-27 8.5t-21 21.5l-78 91q11 9 27 9q21 0 34 -13z" />
    <glyph glyph-name="ncaron" unicode="&#x148;" horiz-adv-x="543" 
d="M137 412q28 29 72.5 46t96.5 17q61 0 100 -27t49 -75q8 -32 8 -89v-284h-58v284q0 49 -9 75q-19 64 -113 64q-39 0 -78 -15.5t-59 -38.5q-8 -10 -8 -25v-344h-58v467h4q53 0 53 -55zM332 648q14 18 36 18q16 0 29 -9l-83 -106q-11 -14 -20 -22.5t-26 -8.5t-26 8.5
t-20 22.5l-81 103q10 10 28 10q22 0 37 -17l63 -72z" />
    <glyph glyph-name="napostrophe" unicode="&#x149;" horiz-adv-x="543" 
d="M137 412q28 29 72.5 46t96.5 17q61 0 100 -27t49 -75q8 -32 8 -89v-284h-58v284q0 49 -9 75q-19 64 -113 64q-39 0 -78 -15.5t-59 -38.5q-8 -10 -8 -25v-344h-58v467h4q53 0 53 -55zM172 636q0 -29 -11 -57t-31 -49q-24 -26 -46 -26q-19 0 -28 23q52 26 58 69
q-16 6 -25.5 19.5t-9.5 29.5q0 21 12.5 34.5t32.5 13.5q23 0 35.5 -15t12.5 -42z" />
    <glyph glyph-name="Eng" unicode="&#x14a;" horiz-adv-x="661" 
d="M576 21q0 -22 -3 -46q-5 -44 -24.5 -77t-51 -50.5t-73.5 -17.5q-23 0 -32.5 7t-9.5 25q0 4 0.5 8.5t1.5 9.5q5 -1 9.5 -1h9.5q45 0 70.5 18.5t37.5 59.5q5 16 6 42l-379 572v-571h-53v667q9 4 28 4q15 0 24 -5.5t19 -20.5l367 -565v590q3 1 6 1h5q42 0 42 -51v-599z" />
    <glyph glyph-name="eng" unicode="&#x14b;" horiz-adv-x="543" 
d="M137 412q28 29 72.5 46t96.5 17q61 0 100 -27t49 -75q8 -32 8 -89v-342q0 -55 -11 -88q-13 -39 -42 -60t-69 -21q-19 0 -28 9.5t-9 35.5q46 0 69 17t29 55q3 12 3 40v354q0 49 -9 75q-19 64 -113 64q-39 0 -78 -15.5t-59 -38.5q-8 -10 -8 -25v-344h-58v467h4q53 0 53 -55
z" />
    <glyph glyph-name="Omacron" unicode="&#x14c;" horiz-adv-x="696" 
d="M631 338q0 -109 -34.5 -189.5t-98.5 -122t-153 -41.5q-90 0 -152.5 43t-95 123t-32.5 186q0 105 35.5 183.5t100 119.5t153.5 41q133 0 205 -91t72 -252zM568 337q0 142 -55 217.5t-160 75.5q-110 0 -167 -75t-57 -218q0 -144 56.5 -223t163.5 -79q106 0 162.5 79
t56.5 223zM250 742q-23 0 -34 7.5t-11 24.5q0 5 0.5 8.5t1.5 8.5h251q24 0 35 -7.5t11 -24.5q0 -5 -0.5 -9t-1.5 -8h-252z" />
    <glyph glyph-name="omacron" unicode="&#x14d;" horiz-adv-x="535" 
d="M419 231q0 97 -38 146t-112 49q-73 0 -113 -52.5t-40 -142.5q0 -95 38.5 -146.5t112.5 -51.5q75 0 113.5 50.5t38.5 147.5zM480 231q0 -114 -55.5 -180t-157.5 -66q-101 0 -156.5 65t-55.5 178q0 73 27.5 130t76 87t112.5 30q100 0 154.5 -65t54.5 -179zM167 558
q-23 0 -34 7.5t-11 24.5q0 5 0.5 8.5t1.5 8.5h251q24 0 35 -7.5t11 -24.5q0 -5 -0.5 -9t-1.5 -8h-252z" />
    <glyph glyph-name="Obreve" unicode="&#x14e;" horiz-adv-x="696" 
d="M631 338q0 -109 -34.5 -189.5t-98.5 -122t-153 -41.5q-90 0 -152.5 43t-95 123t-32.5 186q0 105 35.5 183.5t100 119.5t153.5 41q133 0 205 -91t72 -252zM568 337q0 142 -55 217.5t-160 75.5q-110 0 -167 -75t-57 -218q0 -144 56.5 -223t163.5 -79q106 0 162.5 79
t56.5 223zM275 812q13 -31 31 -43t49 -12q32 0 50 12.5t30 42.5q7 17 14.5 24t18.5 7q19 0 27 -5q-4 -19 -6.5 -26.5t-7.5 -20.5q-16 -38 -48 -58.5t-78 -20.5q-47 0 -78 18.5t-49 57.5q-7 15 -10 24t-5 26q8 5 30 5q11 0 17.5 -6.5t14.5 -24.5z" />
    <glyph glyph-name="obreve" unicode="&#x14f;" horiz-adv-x="535" 
d="M419 231q0 97 -38 146t-112 49q-73 0 -113 -52.5t-40 -142.5q0 -95 38.5 -146.5t112.5 -51.5q75 0 113.5 50.5t38.5 147.5zM480 231q0 -114 -55.5 -180t-157.5 -66q-101 0 -156.5 65t-55.5 178q0 73 27.5 130t76 87t112.5 30q100 0 154.5 -65t54.5 -179zM191 630
q10 -35 28.5 -50t51.5 -15t51.5 15t28.5 49q9 31 33 31q19 0 27 -5q-2 -11 -4 -19t-4 -15.5t-5 -17.5q-31 -83 -127 -83q-49 0 -79 18.5t-48 60.5q-9 21 -15 56q8 5 30 5q13 0 20 -7t12 -23z" />
    <glyph glyph-name="Ohungarumlaut" unicode="&#x150;" horiz-adv-x="696" 
d="M631 338q0 -109 -34.5 -189.5t-98.5 -122t-153 -41.5q-90 0 -152.5 43t-95 123t-32.5 186q0 105 35.5 183.5t100 119.5t153.5 41q133 0 205 -91t72 -252zM568 337q0 142 -55 217.5t-160 75.5q-110 0 -167 -75t-57 -218q0 -144 56.5 -223t163.5 -79q106 0 162.5 79
t56.5 223zM451 722q-14 -8 -26 -8q-10 0 -20.5 5t-14.5 11l110 87q14 12 23.5 16t18.5 4q10 0 20 -6t25 -22zM291 722q-14 -8 -26 -8q-10 0 -20.5 5t-14.5 11l110 87q14 12 23.5 16t18.5 4q10 0 20 -6t25 -22z" />
    <glyph glyph-name="ohungarumlaut" unicode="&#x151;" horiz-adv-x="535" 
d="M419 231q0 97 -38 146t-112 49q-73 0 -113 -52.5t-40 -142.5q0 -95 38.5 -146.5t112.5 -51.5q75 0 113.5 50.5t38.5 147.5zM480 231q0 -114 -55.5 -180t-157.5 -66q-101 0 -156.5 65t-55.5 178q0 73 27.5 130t76 87t112.5 30q100 0 154.5 -65t54.5 -179zM375 535
q-13 -15 -33 -15q-16 0 -27 9l85 110q12 18 22 24.5t22 6.5q19 0 41 -16zM230 535q-14 -15 -33 -15q-16 0 -27 9l85 110q12 18 22 24.5t22 6.5q19 0 41 -16z" />
    <glyph glyph-name="OE" unicode="&#x152;" horiz-adv-x="893" 
d="M545 50h290q21 0 29.5 -7t8.5 -27q0 -4 -0.5 -8t-1.5 -8h-508q-94 0 -161 42.5t-102 120.5t-35 179q0 75 22.5 136.5t63.5 104t97 64.5t124 22h487q1 -4 1.5 -8t0.5 -8q0 -20 -9 -27t-30 -7h-277v-242h236v-51h-236v-276zM486 621h-115q-117 0 -180.5 -73.5t-63.5 -205.5
q0 -89 30 -156.5t83.5 -102.5t126.5 -35h119v573z" />
    <glyph glyph-name="oe" unicode="&#x153;" horiz-adv-x="858" 
d="M796 63q0 -15 -26 -33.5t-61 -28.5t-73 -10q-142 0 -189 117q-21 -55 -69.5 -86t-116.5 -31q-98 0 -152 64.5t-54 176.5q0 73 27.5 129t76 85t112.5 29q65 0 112 -31t65 -84q23 54 69.5 84.5t107.5 30.5q87 0 135 -54.5t48 -147.5q0 -24 -3 -51h-328q2 -88 43.5 -135.5
t117.5 -47.5q46 0 82 16.5t54 42.5q22 -25 22 -35zM419 235q0 90 -38.5 140.5t-111.5 50.5q-74 0 -113.5 -51t-39.5 -140q0 -94 38.5 -145t112.5 -51q75 0 113.5 49.5t38.5 146.5zM751 265q0 162 -131 162q-63 0 -101.5 -43.5t-40.5 -118.5h273z" />
    <glyph glyph-name="Racute" unicode="&#x154;" horiz-adv-x="543" 
d="M481 492q0 -77 -42.5 -126t-121.5 -65l195 -304q-15 -6 -30 -6q-19 0 -34 10.5t-30 33.5l-166 258h-108v-293h-59v668q90 8 148 8q130 0 189 -44t59 -140zM419 489q0 73 -43 105.5t-146 32.5q-51 0 -87 -4v-281h86q190 0 190 147zM291 722q-14 -8 -26 -8q-10 0 -20.5 5
t-14.5 11l110 87q14 12 23.5 16t18.5 4q10 0 20 -6t25 -22z" />
    <glyph glyph-name="racute" unicode="&#x155;" horiz-adv-x="329" 
d="M137 413q18 28 47.5 45t62.5 17q30 0 48.5 -9t18.5 -26q0 -9 -5.5 -21t-13.5 -21q-13 13 -27 18t-35 5q-37 0 -66.5 -24t-29.5 -54v-343h-57v467h4q25 0 39 -14t14 -40zM231 535q-14 -15 -33 -15q-8 0 -17.5 3t-13.5 6l85 110q16 21 24.5 26t19.5 5q23 0 45 -16z" />
    <glyph glyph-name="Rcommaaccent" unicode="&#x156;" horiz-adv-x="543" 
d="M481 492q0 -77 -42.5 -126t-121.5 -65l195 -304q-15 -6 -30 -6q-19 0 -34 10.5t-30 33.5l-166 258h-108v-293h-59v668q90 8 148 8q130 0 189 -44t59 -140zM419 489q0 73 -43 105.5t-146 32.5q-51 0 -87 -4v-281h86q190 0 190 147zM267 -176q-15 -25 -40 -25q-12 0 -18 3
l43 107q10 24 21 34t28 10q14 0 30 -8z" />
    <glyph glyph-name="rcommaaccent" unicode="&#x157;" horiz-adv-x="329" 
d="M137 413q18 28 47.5 45t62.5 17q30 0 48.5 -9t18.5 -26q0 -9 -5.5 -21t-13.5 -21q-13 13 -27 18t-35 5q-37 0 -66.5 -24t-29.5 -54v-343h-57v467h4q25 0 39 -14t14 -40zM83 -185q-15 -25 -40 -25q-12 0 -18 3l43 107q10 24 21 34t28 10q14 0 30 -8z" />
    <glyph glyph-name="Rcaron" unicode="&#x158;" horiz-adv-x="543" 
d="M481 492q0 -77 -42.5 -126t-121.5 -65l195 -304q-15 -6 -30 -6q-19 0 -34 10.5t-30 33.5l-166 258h-108v-293h-59v668q90 8 148 8q130 0 189 -44t59 -140zM419 489q0 73 -43 105.5t-146 32.5q-51 0 -87 -4v-281h86q190 0 190 147zM266 770l64 58q17 14 34 14q16 0 27 -9
l-79 -92q-11 -13 -20.5 -21t-26.5 -8t-27 8.5t-21 21.5l-78 91q11 9 27 9q21 0 34 -13z" />
    <glyph glyph-name="rcaron" unicode="&#x159;" horiz-adv-x="329" 
d="M137 413q18 28 47.5 45t62.5 17q30 0 48.5 -9t18.5 -26q0 -9 -5.5 -21t-13.5 -21q-13 13 -27 18t-35 5q-37 0 -66.5 -24t-29.5 -54v-343h-57v467h4q25 0 39 -14t14 -40zM262 648q14 18 36 18q16 0 29 -9l-83 -106q-11 -14 -20 -22.5t-26 -8.5t-26 8.5t-20 22.5l-81 103
q10 10 28 10q22 0 37 -17l63 -72z" />
    <glyph glyph-name="Sacute" unicode="&#x15a;" horiz-adv-x="486" 
d="M53 105q29 -32 74.5 -50.5t97.5 -18.5q75 0 114.5 35.5t39.5 99.5q0 38 -12 65t-41 46t-88 37q-77 24 -116 48.5t-57.5 58.5t-18.5 80q0 81 56 128t149 47q46 -1 79 -10t53 -20.5t28 -17.5q13 -10 13 -25q0 -12 -18 -36h-11q-58 58 -146 58q-69 0 -105.5 -32t-36.5 -88
q0 -33 14 -57t46.5 -43t94.5 -37q63 -19 102 -45t58 -63t19 -85q0 -91 -58.5 -143t-159.5 -52q-59 0 -107.5 16t-71.5 39q-14 10 -14 23q0 16 23 42zM276 722q-14 -8 -26 -8q-10 0 -20.5 5t-14.5 11l110 87q14 12 23.5 16t18.5 4q10 0 20 -6t25 -22z" />
    <glyph glyph-name="sacute" unicode="&#x15b;" horiz-adv-x="396" 
d="M194 427q-44 0 -72.5 -20.5t-28.5 -56.5q0 -19 9.5 -34t31 -27t73.5 -26q26 -8 51.5 -17.5t46 -24t33.5 -38.5t13 -60q0 -63 -45.5 -100.5t-117.5 -37.5q-43 0 -82.5 10t-60.5 24q-15 11 -15 23q0 7 4.5 15t15.5 23q24 -20 61 -34.5t75 -14.5q50 0 79.5 23.5t29.5 65.5
q0 23 -10 41t-32.5 31t-78.5 27q-61 17 -86.5 33.5t-38 40.5t-12.5 57q0 38 20.5 66t56.5 43.5t79 15.5q41 0 75 -11t56 -30q19 -14 19 -29q0 -8 -4.5 -17.5t-10.5 -20.5h-9q-45 60 -125 60zM227 535q-14 -15 -33 -15q-8 0 -17.5 3t-13.5 6l85 110q16 21 24.5 26t19.5 5
q23 0 45 -16z" />
    <glyph glyph-name="Scircumflex" unicode="&#x15c;" horiz-adv-x="486" 
d="M53 105q29 -32 74.5 -50.5t97.5 -18.5q75 0 114.5 35.5t39.5 99.5q0 38 -12 65t-41 46t-88 37q-77 24 -116 48.5t-57.5 58.5t-18.5 80q0 81 56 128t149 47q46 -1 79 -10t53 -20.5t28 -17.5q13 -10 13 -25q0 -12 -18 -36h-11q-58 58 -146 58q-69 0 -105.5 -32t-36.5 -88
q0 -33 14 -57t46.5 -43t94.5 -37q63 -19 102 -45t58 -63t19 -85q0 -91 -58.5 -143t-159.5 -52q-59 0 -107.5 16t-71.5 39q-14 10 -14 23q0 16 23 42zM249 786l-64 -58q-17 -14 -34 -14q-16 0 -27 9l79 92q11 13 20.5 21t26.5 8t27 -8.5t21 -21.5l78 -91q-11 -9 -27 -9
q-21 0 -34 13z" />
    <glyph glyph-name="scircumflex" unicode="&#x15d;" horiz-adv-x="396" 
d="M194 427q-44 0 -72.5 -20.5t-28.5 -56.5q0 -19 9.5 -34t31 -27t73.5 -26q26 -8 51.5 -17.5t46 -24t33.5 -38.5t13 -60q0 -63 -45.5 -100.5t-117.5 -37.5q-43 0 -82.5 10t-60.5 24q-15 11 -15 23q0 7 4.5 15t15.5 23q24 -20 61 -34.5t75 -14.5q50 0 79.5 23.5t29.5 65.5
q0 23 -10 41t-32.5 31t-78.5 27q-61 17 -86.5 33.5t-38 40.5t-12.5 57q0 38 20.5 66t56.5 43.5t79 15.5q41 0 75 -11t56 -30q19 -14 19 -29q0 -8 -4.5 -17.5t-10.5 -20.5h-9q-45 60 -125 60zM194 615l-63 -72q-15 -17 -37 -17q-18 0 -28 10l81 103q11 14 20 22.5t26 8.5
t26 -8.5t20 -22.5l83 -106q-16 -9 -29 -9q-19 0 -36 18z" />
    <glyph glyph-name="Scedilla" unicode="&#x15e;" horiz-adv-x="486" 
d="M53 105q29 -32 74.5 -50.5t97.5 -18.5q75 0 114.5 35.5t39.5 99.5q0 38 -12 65t-41 46t-88 37q-77 24 -116 48.5t-57.5 58.5t-18.5 80q0 81 56 128t149 47q46 -1 79 -10t53 -20.5t28 -17.5q13 -10 13 -25q0 -12 -18 -36h-11q-58 58 -146 58q-69 0 -105.5 -32t-36.5 -88
q0 -33 14 -57t46.5 -43t94.5 -37q63 -19 102 -45t58 -63t19 -85q0 -91 -58.5 -143t-159.5 -52q-59 0 -107.5 16t-71.5 39q-14 10 -14 23q0 16 23 42zM283 -124q0 -36 -25.5 -60t-60.5 -24q-27 0 -27 23q0 5 0.5 11t2.5 11q5 -1 10 -1h10q42 0 42 32q0 12 -6 20t-14.5 15.5
t-14.5 16.5t-6 23q0 16 11 35.5t27 34.5l31 -13q-7 -7 -14.5 -16t-8.5 -20q0 -10 6.5 -18t15 -17t15 -21.5t6.5 -31.5z" />
    <glyph glyph-name="scedilla" unicode="&#x15f;" horiz-adv-x="396" 
d="M194 427q-44 0 -72.5 -20.5t-28.5 -56.5q0 -19 9.5 -34t31 -27t73.5 -26q26 -8 51.5 -17.5t46 -24t33.5 -38.5t13 -60q0 -63 -45.5 -100.5t-117.5 -37.5q-43 0 -82.5 10t-60.5 24q-15 11 -15 23q0 7 4.5 15t15.5 23q24 -20 61 -34.5t75 -14.5q50 0 79.5 23.5t29.5 65.5
q0 23 -10 41t-32.5 31t-78.5 27q-61 17 -86.5 33.5t-38 40.5t-12.5 57q0 38 20.5 66t56.5 43.5t79 15.5q41 0 75 -11t56 -30q19 -14 19 -29q0 -8 -4.5 -17.5t-10.5 -20.5h-9q-45 60 -125 60zM250 -124q0 -36 -25.5 -60t-60.5 -24q-27 0 -27 23q0 5 0.5 11t2.5 11q5 -1 10 -1
h10q42 0 42 32q0 12 -6 20t-14.5 15.5t-14.5 16.5t-6 23q0 27 26 57h43q-7 -7 -14.5 -16t-8.5 -20q0 -10 6.5 -18t15 -17t15 -21.5t6.5 -31.5z" />
    <glyph glyph-name="Scaron" unicode="&#x160;" horiz-adv-x="486" 
d="M53 105q29 -32 74.5 -50.5t97.5 -18.5q75 0 114.5 35.5t39.5 99.5q0 38 -12 65t-41 46t-88 37q-77 24 -116 48.5t-57.5 58.5t-18.5 80q0 81 56 128t149 47q46 -1 79 -10t53 -20.5t28 -17.5q13 -10 13 -25q0 -12 -18 -36h-11q-58 58 -146 58q-69 0 -105.5 -32t-36.5 -88
q0 -33 14 -57t46.5 -43t94.5 -37q63 -19 102 -45t58 -63t19 -85q0 -91 -58.5 -143t-159.5 -52q-59 0 -107.5 16t-71.5 39q-14 10 -14 23q0 16 23 42zM251 770l64 58q17 14 34 14q16 0 27 -9l-79 -92q-11 -13 -20.5 -21t-26.5 -8t-27 8.5t-21 21.5l-78 91q11 9 27 9
q21 0 34 -13z" />
    <glyph glyph-name="scaron" unicode="&#x161;" horiz-adv-x="396" 
d="M194 427q-44 0 -72.5 -20.5t-28.5 -56.5q0 -19 9.5 -34t31 -27t73.5 -26q26 -8 51.5 -17.5t46 -24t33.5 -38.5t13 -60q0 -63 -45.5 -100.5t-117.5 -37.5q-43 0 -82.5 10t-60.5 24q-15 11 -15 23q0 7 4.5 15t15.5 23q24 -20 61 -34.5t75 -14.5q50 0 79.5 23.5t29.5 65.5
q0 23 -10 41t-32.5 31t-78.5 27q-61 17 -86.5 33.5t-38 40.5t-12.5 57q0 38 20.5 66t56.5 43.5t79 15.5q41 0 75 -11t56 -30q19 -14 19 -29q0 -8 -4.5 -17.5t-10.5 -20.5h-9q-45 60 -125 60zM258 648q14 18 36 18q16 0 29 -9l-83 -106q-11 -14 -20 -22.5t-26 -8.5t-26 8.5
t-20 22.5l-81 103q10 10 28 10q22 0 37 -17l63 -72z" />
    <glyph glyph-name="uni0162" unicode="&#x162;" horiz-adv-x="517" 
d="M516 669q1 -6 1 -10q0 -18 -13 -29t-36 -11h-178v-619h-59v619h-230q-1 5 -1 9q0 20 12.5 30.5t35.5 10.5h468zM304 -124q0 -36 -25.5 -60t-60.5 -24q-27 0 -27 23q0 5 0.5 11t2.5 11q5 -1 10 -1h10q42 0 42 32q0 12 -6 20t-14.5 15.5t-14.5 16.5t-6 23q0 16 11 35.5
t27 34.5l31 -13q-7 -7 -14.5 -16t-8.5 -20q0 -10 6.5 -18t15 -17t15 -21.5t6.5 -31.5z" />
    <glyph glyph-name="uni0163" unicode="&#x163;" horiz-adv-x="330" 
d="M288 467v-46h-156v-293q0 -95 73 -95q34 0 64 22q12 9 23 22q23 -23 23 -34q0 -10 -19 -25.5t-44 -24t-52 -8.5q-91 0 -115 70q-10 30 -10 83v472q5 1 9 1q22 0 35 -13t13 -38v-93h156zM242 -124q0 -36 -25.5 -60t-60.5 -24q-27 0 -27 23q0 5 0.5 11t2.5 11q5 -1 10 -1
h10q42 0 42 32q0 12 -6 20t-14.5 15.5t-14.5 16.5t-6 23q0 27 26 57h43q-7 -7 -14.5 -16t-8.5 -20q0 -10 6.5 -18t15 -17t15 -21.5t6.5 -31.5z" />
    <glyph glyph-name="Tcaron" unicode="&#x164;" horiz-adv-x="517" 
d="M516 669q1 -6 1 -10q0 -18 -13 -29t-36 -11h-178v-619h-59v619h-230q-1 5 -1 9q0 20 12.5 30.5t35.5 10.5h468zM262 770l64 58q17 14 34 14q16 0 27 -9l-79 -92q-11 -13 -20.5 -21t-26.5 -8t-27 8.5t-21 21.5l-78 91q11 9 27 9q21 0 34 -13z" />
    <glyph glyph-name="tcaron" unicode="&#x165;" horiz-adv-x="330" 
d="M288 467v-46h-156v-293q0 -95 73 -95q34 0 64 22q12 9 23 22q23 -23 23 -34q0 -10 -19 -25.5t-44 -24t-52 -8.5q-91 0 -115 70q-10 30 -10 83v472q5 1 9 1q22 0 35 -13t13 -38v-93h156zM253 554q-1 -16 -12.5 -24.5t-30.5 -8.5h-5v130q0 26 3.5 35.5t11.5 15.5q13 8 29 8
q2 0 6 -0.5t9 -1.5z" />
    <glyph glyph-name="Tbar" unicode="&#x166;" horiz-adv-x="517" 
d="M516 669q1 -5 1 -10q0 -18 -13 -29t-36 -11h-178v-285h175v-49h-175v-285h-59v285h-170v49h170v285h-230q-1 3 -1 9q0 20 12.5 30.5t35.5 10.5h468z" />
    <glyph glyph-name="tbar" unicode="&#x167;" horiz-adv-x="330" 
d="M288 467v-46h-156v-140h156v-46h-156v-107q0 -95 73 -95q34 0 64 22q12 9 23 22q23 -23 23 -34q0 -10 -19 -25.5t-44 -24t-52 -8.5q-91 0 -115 70q-10 30 -10 83v472q4 1 9 1q22 0 35 -13t13 -38v-93h156z" />
    <glyph glyph-name="Utilde" unicode="&#x168;" horiz-adv-x="638" 
d="M558 263q0 -56 -3 -80q-6 -62 -36 -107t-80.5 -68t-118.5 -23q-107 0 -165 49t-70 149q-5 40 -5 80v407q6 1 11 1q22 0 35 -13t13 -38v-371q0 -70 14 -109q36 -107 169 -107q130 0 164 105q13 37 13 111v421q6 1 11 1q22 0 35 -13t13 -38v-357zM367 735q-28 1 -49 10
t-39 17.5t-37 9.5q-17 0 -33 -10t-34 -33q-8 4 -13 13t-5 19q0 21 29 40t60 19q21 0 37.5 -6t30 -13t26.5 -13t27 -6q17 0 32 11t34 39q8 -3 15 -13t7 -22q0 -20 -27.5 -41t-60.5 -21z" />
    <glyph glyph-name="utilde" unicode="&#x169;" horiz-adv-x="543" 
d="M463 0h-58v54q-29 -30 -73 -46.5t-95 -16.5q-62 0 -101 27.5t-48 74.5q-8 32 -8 89v285h4q53 0 53 -54v-231q0 -46 10 -75q19 -64 113 -64q35 0 69.5 12.5t55.5 29t21 31.5v351h4q53 0 53 -55v-412zM321 540q-28 1 -49 10t-39 17.5t-37 9.5q-17 0 -33 -10t-34 -33
q-8 4 -13 13t-5 19q0 21 29 40t60 19q21 0 37.5 -6t30 -13t26.5 -13t27 -6q17 0 32 11t34 39q8 -3 15 -13t7 -22q0 -20 -27.5 -41t-60.5 -21z" />
    <glyph glyph-name="Umacron" unicode="&#x16a;" horiz-adv-x="638" 
d="M558 263q0 -56 -3 -80q-6 -62 -36 -107t-80.5 -68t-118.5 -23q-107 0 -165 49t-70 149q-5 40 -5 80v407q6 1 11 1q22 0 35 -13t13 -38v-371q0 -70 14 -109q36 -107 169 -107q130 0 164 105q13 37 13 111v421q6 1 11 1q22 0 35 -13t13 -38v-357zM202 742q-23 0 -34 7.5
t-11 24.5q0 5 0.5 8.5t1.5 8.5h251q24 0 35 -7.5t11 -24.5q0 -5 -0.5 -9t-1.5 -8h-252z" />
    <glyph glyph-name="umacron" unicode="&#x16b;" horiz-adv-x="543" 
d="M463 0h-58v54q-29 -30 -73 -46.5t-95 -16.5q-62 0 -101 27.5t-48 74.5q-8 32 -8 89v285h4q53 0 53 -54v-231q0 -46 10 -75q19 -64 113 -64q35 0 69.5 12.5t55.5 29t21 31.5v351h4q53 0 53 -55v-412zM157 558q-23 0 -34 7.5t-11 24.5q0 5 0.5 8.5t1.5 8.5h251
q24 0 35 -7.5t11 -24.5q0 -5 -0.5 -9t-1.5 -8h-252z" />
    <glyph glyph-name="Ubreve" unicode="&#x16c;" horiz-adv-x="638" 
d="M558 263q0 -56 -3 -80q-6 -62 -36 -107t-80.5 -68t-118.5 -23q-107 0 -165 49t-70 149q-5 40 -5 80v407q6 1 11 1q22 0 35 -13t13 -38v-371q0 -70 14 -109q36 -107 169 -107q130 0 164 105q13 37 13 111v421q6 1 11 1q22 0 35 -13t13 -38v-357zM227 812q13 -31 31 -43
t49 -12q32 0 50 12.5t30 42.5q7 17 14.5 24t18.5 7q19 0 27 -5q-4 -19 -6.5 -26.5t-7.5 -20.5q-16 -38 -48 -58.5t-78 -20.5q-47 0 -78 18.5t-49 57.5q-7 15 -10 24t-5 26q8 5 30 5q11 0 17.5 -6.5t14.5 -24.5z" />
    <glyph glyph-name="ubreve" unicode="&#x16d;" horiz-adv-x="543" 
d="M463 0h-58v54q-29 -30 -73 -46.5t-95 -16.5q-62 0 -101 27.5t-48 74.5q-8 32 -8 89v285h4q53 0 53 -54v-231q0 -46 10 -75q19 -64 113 -64q35 0 69.5 12.5t55.5 29t21 31.5v351h4q53 0 53 -55v-412zM181 630q10 -35 28.5 -50t51.5 -15t51.5 15t28.5 49q9 31 33 31
q19 0 27 -5q-2 -11 -4 -19t-4 -15.5t-5 -17.5q-31 -83 -127 -83q-49 0 -79 18.5t-48 60.5q-9 21 -15 56q8 5 30 5q13 0 20 -7t12 -23z" />
    <glyph glyph-name="Uring" unicode="&#x16e;" horiz-adv-x="638" 
d="M558 263q0 -56 -3 -80q-6 -62 -36 -107t-80.5 -68t-118.5 -23q-107 0 -165 49t-70 149q-5 40 -5 80v407q6 1 11 1q22 0 35 -13t13 -38v-371q0 -70 14 -109q36 -107 169 -107q130 0 164 105q13 37 13 111v421q6 1 11 1q22 0 35 -13t13 -38v-357zM408 809
q0 -46 -28.5 -75.5t-73.5 -29.5q-46 0 -74.5 29.5t-28.5 74.5q0 46 28.5 76t74.5 30q45 0 73.5 -29.5t28.5 -75.5zM365 809q0 27 -17 46.5t-42 19.5q-26 0 -43 -19t-17 -47t17 -47.5t43 -19.5t42.5 19.5t16.5 47.5z" />
    <glyph glyph-name="uring" unicode="&#x16f;" horiz-adv-x="543" 
d="M463 0h-58v54q-29 -30 -73 -46.5t-95 -16.5q-62 0 -101 27.5t-48 74.5q-8 32 -8 89v285h4q53 0 53 -54v-231q0 -46 10 -75q19 -64 113 -64q35 0 69.5 12.5t55.5 29t21 31.5v351h4q53 0 53 -55v-412zM362 625q0 -46 -28.5 -75.5t-73.5 -29.5q-46 0 -74.5 29.5t-28.5 74.5
q0 46 28.5 76t74.5 30q45 0 73.5 -29.5t28.5 -75.5zM319 625q0 27 -17 46.5t-42 19.5q-26 0 -43 -19t-17 -47t17 -47.5t43 -19.5t42.5 19t16.5 47v1z" />
    <glyph glyph-name="Uhungarumlaut" unicode="&#x170;" horiz-adv-x="638" 
d="M558 263q0 -56 -3 -80q-6 -62 -36 -107t-80.5 -68t-118.5 -23q-107 0 -165 49t-70 149q-5 40 -5 80v407q6 1 11 1q22 0 35 -13t13 -38v-371q0 -70 14 -109q36 -107 169 -107q130 0 164 105q13 37 13 111v421q6 1 11 1q22 0 35 -13t13 -38v-357zM403 722q-14 -8 -26 -8
q-10 0 -20.5 5t-14.5 11l110 87q14 12 23.5 16t18.5 4q10 0 20 -6t25 -22zM243 722q-14 -8 -26 -8q-10 0 -20.5 5t-14.5 11l110 87q14 12 23.5 16t18.5 4q10 0 20 -6t25 -22z" />
    <glyph glyph-name="uhungarumlaut" unicode="&#x171;" horiz-adv-x="543" 
d="M463 0h-58v54q-29 -30 -73 -46.5t-95 -16.5q-62 0 -101 27.5t-48 74.5q-8 32 -8 89v285h4q53 0 53 -54v-231q0 -46 10 -75q19 -64 113 -64q35 0 69.5 12.5t55.5 29t21 31.5v351h4q53 0 53 -55v-412zM365 535q-13 -15 -33 -15q-16 0 -27 9l85 110q12 18 22 24.5t22 6.5
q19 0 41 -16zM220 535q-14 -15 -33 -15q-16 0 -27 9l85 110q12 18 22 24.5t22 6.5q19 0 41 -16z" />
    <glyph glyph-name="Uogonek" unicode="&#x172;" horiz-adv-x="638" 
d="M558 263q0 -56 -3 -80q-6 -62 -36 -107t-80.5 -68t-118.5 -23q-107 0 -165 49t-70 149q-5 40 -5 80v407q6 1 11 1q22 0 35 -13t13 -38v-371q0 -70 14 -109q36 -107 169 -107q130 0 164 105q13 37 13 111v421q6 1 11 1q22 0 35 -13t13 -38v-357zM437 -147q6 -5 12.5 -11.5
t6.5 -15.5q0 -10 -11 -19q-21 -17 -54 -17q-39 0 -61.5 20.5t-22.5 58.5q0 32 17.5 63t48 58.5t65.5 44.5l39 -3q-68 -49 -95 -85t-27 -73q0 -21 11 -32.5t30 -11.5q12 0 21 5t20 18z" />
    <glyph glyph-name="uogonek" unicode="&#x173;" horiz-adv-x="543" 
d="M463 0h-58v54q-29 -30 -73 -46.5t-95 -16.5q-62 0 -101 27.5t-48 74.5q-8 32 -8 89v285h4q53 0 53 -54v-231q0 -46 10 -75q19 -64 113 -64q35 0 69.5 12.5t55.5 29t21 31.5v351h4q53 0 53 -55v-412zM466 -147q6 -5 12.5 -11.5t6.5 -15.5q0 -10 -11 -19q-20 -17 -56 -17
q-40 0 -61 20.5t-21 58.5q0 39 25 78t58 60l44 -7q-20 -12 -39 -34.5t-29.5 -46t-10.5 -44.5q0 -45 38 -45q13 0 23.5 5t20.5 18z" />
    <glyph glyph-name="Wcircumflex" unicode="&#x174;" horiz-adv-x="863" 
d="M637 -5h-67l-134 435l-136 -435h-68l-222 673q15 3 26 3q19 0 31.5 -11t21.5 -37l179 -576l142 472l-43 150q5 1 10.5 1.5t13.5 0.5q39 0 51 -48l163 -574l172 571q15 51 54 51q6 0 11.5 -0.5t10.5 -1.5zM398 786l-64 -58q-17 -14 -34 -14q-16 0 -27 9l79 92
q11 13 20.5 21t26.5 8t27 -8.5t21 -21.5l78 -91q-11 -9 -27 -9q-21 0 -34 13z" />
    <glyph glyph-name="wcircumflex" unicode="&#x175;" horiz-adv-x="686" 
d="M513 -4h-63l-103 267l-112 -267h-59l-161 466l14 3.5t12 1.5q17 0 29.5 -12.5t23.5 -42.5l116 -360l111 275l-52 136q9 4 23 4q20 0 33 -11.5t23 -39.5l134 -361l114 360q10 29 22 40.5t29 11.5q15 0 24 -4zM319 615l-63 -72q-15 -17 -37 -17q-18 0 -28 10l81 103
q11 14 20 22.5t26 8.5t26 -8.5t20 -22.5l83 -106q-16 -9 -29 -9q-19 0 -36 18z" />
    <glyph glyph-name="Ycircumflex" unicode="&#x176;" horiz-adv-x="499" 
d="M279 288v-288h-59v287l-215 380q12 5 32 5q18 0 29 -7t21 -26l165 -291l160 288q11 19 23.5 27t30.5 8q19 0 28 -3zM253 786l-64 -58q-17 -14 -34 -14q-16 0 -27 9l79 92q11 13 20.5 21t26.5 8t27 -8.5t21 -21.5l78 -91q-11 -9 -27 -9q-21 0 -34 13z" />
    <glyph glyph-name="ycircumflex" unicode="&#x177;" horiz-adv-x="444" 
d="M227 -102q-17 -46 -36.5 -72.5t-46 -39.5t-61.5 -13q-37 0 -60 12q-19 10 -19 24q0 16 18 39q27 -27 64 -27q31 0 50.5 21t41.5 81l29 77h-28l-164 462q13 5 27 5q19 0 31.5 -11t23.5 -44l123 -365l130 370q17 50 54 50q11 0 25 -6zM220 615l-63 -72q-15 -17 -37 -17
q-18 0 -28 10l81 103q11 14 20 22.5t26 8.5t26 -8.5t20 -22.5l83 -106q-16 -9 -29 -9q-19 0 -36 18z" />
    <glyph glyph-name="Ydieresis" unicode="&#x178;" horiz-adv-x="499" 
d="M279 288v-288h-59v287l-215 380q12 5 32 5q18 0 29 -7t21 -26l165 -291l160 288q11 19 23.5 27t30.5 8q19 0 28 -3zM384 789q0 -19 -12 -31.5t-31 -12.5t-31 12.5t-12 31.5t12.5 31.5t30.5 12.5t30.5 -12.5t12.5 -31.5zM210 789q0 -19 -12 -31.5t-31 -12.5t-31 12t-12 32
q0 19 12.5 31.5t30.5 12.5t30.5 -12.5t12.5 -31.5z" />
    <glyph glyph-name="Zacute" unicode="&#x179;" horiz-adv-x="510" 
d="M461 669q29 0 29 -26v-15l-403 -578h354q23 0 36 -11t13 -30v-4.5t-1 -4.5h-474v44l397 575h-390q-1 4 -1 9q0 19 13 30t36 11h391zM282 722q-14 -8 -26 -8q-10 0 -20.5 5t-14.5 11l110 87q14 12 23.5 16t18.5 4q10 0 20 -6t25 -22z" />
    <glyph glyph-name="zacute" unicode="&#x17a;" horiz-adv-x="408" 
d="M28 0v44l277 373h-273q0 26 11 38t35 12h270q28 0 28 -26v-18l-280 -372h247q24 0 34.5 -12t10.5 -39h-360zM234 535q-14 -15 -33 -15q-8 0 -17.5 3t-13.5 6l85 110q16 21 24.5 26t19.5 5q23 0 45 -16z" />
    <glyph glyph-name="Zdotaccent" unicode="&#x17b;" horiz-adv-x="510" 
d="M461 669q29 0 29 -26v-15l-403 -578h354q23 0 36 -11t13 -30v-4.5t-1 -4.5h-474v44l397 575h-390q-1 4 -1 9q0 19 13 30t36 11h391zM303 774q0 -21 -13.5 -36t-33.5 -15t-33.5 15t-13.5 36t13.5 36t33.5 15t33.5 -15t13.5 -36z" />
    <glyph glyph-name="zdotaccent" unicode="&#x17c;" horiz-adv-x="408" 
d="M28 0v44l277 373h-273q0 26 11 38t35 12h270q28 0 28 -26v-18l-280 -372h247q24 0 34.5 -12t10.5 -39h-360zM248 590q0 -21 -13.5 -36t-33.5 -15t-33.5 15t-13.5 36t13.5 36t33.5 15t33.5 -15t13.5 -36z" />
    <glyph glyph-name="Zcaron" unicode="&#x17d;" horiz-adv-x="510" 
d="M461 669q29 0 29 -26v-15l-403 -578h354q23 0 36 -11t13 -30v-4.5t-1 -4.5h-474v44l397 575h-390q-1 4 -1 9q0 19 13 30t36 11h391zM257 770l64 58q17 14 34 14q16 0 27 -9l-79 -92q-11 -13 -20.5 -21t-26.5 -8t-27 8.5t-21 21.5l-78 91q11 9 27 9q21 0 34 -13z" />
    <glyph glyph-name="zcaron" unicode="&#x17e;" horiz-adv-x="408" 
d="M28 0v44l277 373h-273q0 26 11 38t35 12h270q28 0 28 -26v-18l-280 -372h247q24 0 34.5 -12t10.5 -39h-360zM265 648q14 18 36 18q16 0 29 -9l-83 -106q-11 -14 -20 -22.5t-26 -8.5t-26 8.5t-20 22.5l-81 103q10 10 28 10q22 0 37 -17l63 -72z" />
    <glyph glyph-name="longs" unicode="&#x17f;" horiz-adv-x="275" 
d="M350 618q-19 27 -44.5 39.5t-59.5 12.5q-46 0 -72 -20.5t-34 -64.5q-3 -19 -3 -42v-543h-57v526q0 29 3 53q23 138 161 138q71 0 113 -35q18 -14 18 -30q0 -6 -3 -12.5t-13 -21.5h-9z" />
    <glyph glyph-name="florin" unicode="&#x192;" horiz-adv-x="540" 
d="M288 386l-72 -330q-19 -82 -68.5 -123.5t-127.5 -41.5q-24 0 -24 20q0 9 5 26q135 0 164 135l66 314h-107v46h120l19 86q18 82 66 122.5t129 40.5q24 0 24 -20q0 -9 -5 -26q-72 0 -108.5 -28.5t-51.5 -91.5l-20 -83h170v-46h-179z" />
    <glyph glyph-name="uni0218" unicode="&#x218;" horiz-adv-x="486" 
d="M53 105q29 -32 74.5 -50.5t97.5 -18.5q75 0 114.5 35.5t39.5 99.5q0 38 -12 65t-41 46t-88 37q-77 24 -116 48.5t-57.5 58.5t-18.5 80q0 81 56 128t149 47q46 -1 79 -10t53 -20.5t28 -17.5q13 -10 13 -25q0 -12 -18 -36h-11q-58 58 -146 58q-69 0 -105.5 -32t-36.5 -88
q0 -33 14 -57t46.5 -43t94.5 -37q63 -19 102 -45t58 -63t19 -85q0 -91 -58.5 -143t-159.5 -52q-59 0 -107.5 16t-71.5 39q-14 10 -14 23q0 16 23 42zM203 -176q-15 -25 -40 -25q-12 0 -18 3l43 107q10 24 21 34t28 10q14 0 30 -8z" />
    <glyph glyph-name="uni0219" unicode="&#x219;" horiz-adv-x="396" 
d="M194 427q-44 0 -72.5 -20.5t-28.5 -56.5q0 -19 9.5 -34t31 -27t73.5 -26q26 -8 51.5 -17.5t46 -24t33.5 -38.5t13 -60q0 -63 -45.5 -100.5t-117.5 -37.5q-43 0 -82.5 10t-60.5 24q-15 11 -15 23q0 7 4.5 15t15.5 23q24 -20 61 -34.5t75 -14.5q50 0 79.5 23.5t29.5 65.5
q0 23 -10 41t-32.5 31t-78.5 27q-61 17 -86.5 33.5t-38 40.5t-12.5 57q0 38 20.5 66t56.5 43.5t79 15.5q41 0 75 -11t56 -30q19 -14 19 -29q0 -8 -4.5 -17.5t-10.5 -20.5h-9q-45 60 -125 60zM156 -185q-15 -25 -40 -25q-12 0 -18 3l43 107q10 24 21 34t28 10q14 0 30 -8z
" />
    <glyph glyph-name="uni021A" unicode="&#x21a;" horiz-adv-x="517" 
d="M516 669q1 -6 1 -10q0 -18 -13 -29t-36 -11h-178v-619h-59v619h-230q-1 5 -1 9q0 20 12.5 30.5t35.5 10.5h468zM228 -176q-15 -25 -40 -25q-12 0 -18 3l43 107q10 24 21 34t28 10q14 0 30 -8z" />
    <glyph glyph-name="uni021B" unicode="&#x21b;" horiz-adv-x="330" 
d="M288 467v-46h-156v-293q0 -95 73 -95q34 0 64 22q12 9 23 22q23 -23 23 -34q0 -10 -19 -25.5t-44 -24t-52 -8.5q-91 0 -115 70q-10 30 -10 83v472q5 1 9 1q22 0 35 -13t13 -38v-93h156zM161 -185q-15 -25 -40 -25q-12 0 -18 3l43 107q10 24 21 34t28 10q14 0 30 -8z" />
    <glyph glyph-name="uni0237" unicode="&#x237;" horiz-adv-x="218" 
d="M138 -57q0 -56 -11 -89q-13 -39 -42 -60t-69 -21q-19 0 -28 9.5t-9 35.5q46 0 69 17t29 55q4 17 4 43v534h3q54 0 54 -52v-472z" />
    <glyph glyph-name="apostrophe" unicode="&#x2bc;" horiz-adv-x="201" 
d="M143 636q0 -29 -11 -57t-31 -49q-24 -26 -46 -26q-19 0 -28 23q52 26 58 69q-16 6 -25.5 19.5t-9.5 29.5q0 21 12.5 34.5t32.5 13.5q23 0 35.5 -15t12.5 -42z" />
    <glyph glyph-name="circumflex" unicode="&#x2c6;" horiz-adv-x="500" 
d="M250 615l-63 -72q-15 -17 -37 -17q-18 0 -28 10l81 103q11 14 20 22.5t26 8.5t26 -8.5t20 -22.5l83 -106q-16 -9 -29 -9q-19 0 -36 18z" />
    <glyph glyph-name="caron" unicode="&#x2c7;" horiz-adv-x="500" 
d="M313 648q14 18 36 18q16 0 29 -9l-83 -106q-11 -14 -20 -22.5t-26 -8.5t-26 8.5t-20 22.5l-81 103q10 10 28 10q22 0 37 -17l63 -72z" />
    <glyph glyph-name="uni02C9" unicode="&#x2c9;" horiz-adv-x="500" 
d="M146 558q-23 0 -34 7.5t-11 24.5q0 5 0.5 8.5t1.5 8.5h251q24 0 35 -7.5t11 -24.5q0 -5 -0.5 -9t-1.5 -8h-252z" />
    <glyph glyph-name="uni02CB" unicode="&#x2cb;" horiz-adv-x="500" 
d="M163 654q22 16 45 16q12 0 22 -6.5t22 -24.5l85 -110q-5 -4 -13.5 -6.5t-17.5 -2.5q-19 0 -33 15z" />
    <glyph glyph-name="breve" unicode="&#x2d8;" horiz-adv-x="500" 
d="M171 630q10 -35 28.5 -50t51.5 -15t51.5 15t28.5 49q9 31 33 31q19 0 27 -5q-2 -11 -4 -19t-4 -15.5t-5 -17.5q-31 -83 -127 -83q-49 0 -79 18.5t-48 60.5q-9 21 -15 56q8 5 30 5q13 0 20 -7t12 -23z" />
    <glyph glyph-name="dotaccent" unicode="&#x2d9;" horiz-adv-x="500" 
d="M297 590q0 -21 -13.5 -36t-33.5 -15t-33.5 15t-13.5 36t13.5 36t33.5 15t33.5 -15t13.5 -36z" />
    <glyph glyph-name="ring" unicode="&#x2da;" horiz-adv-x="500" 
d="M352 625q0 -46 -28.5 -75.5t-73.5 -29.5q-46 0 -74.5 29.5t-28.5 74.5q0 46 28.5 76t74.5 30q45 0 73.5 -29.5t28.5 -75.5zM309 625q0 27 -17 46.5t-42 19.5q-26 0 -43 -19t-17 -47t17 -47.5t43 -19.5t42.5 19t16.5 47v1z" />
    <glyph glyph-name="ogonek" unicode="&#x2db;" horiz-adv-x="500" 
d="M306 -147q6 -5 12.5 -11.5t6.5 -15.5q0 -10 -11 -19q-20 -17 -56 -17q-40 0 -61 20.5t-21 58.5q0 39 25 78t58 60l44 -7q-20 -12 -39 -34.5t-29.5 -46t-10.5 -44.5q0 -45 38 -45q13 0 23.5 5t20.5 18z" />
    <glyph glyph-name="tilde" unicode="&#x2dc;" horiz-adv-x="500" 
d="M311 540q-28 1 -49 10t-39 17.5t-37 9.5q-17 0 -33 -10t-34 -33q-8 4 -13 13t-5 19q0 21 29 40t60 19q21 0 37.5 -6t30 -13t26.5 -13t27 -6q17 0 32 11t34 39q8 -3 15 -13t7 -22q0 -20 -27.5 -41t-60.5 -21z" />
    <glyph glyph-name="hungarumlaut" unicode="&#x2dd;" horiz-adv-x="500" 
d="M298 535q-13 -15 -33 -15q-16 0 -27 9l85 110q12 18 22 24.5t22 6.5q19 0 41 -16zM153 535q-14 -15 -33 -15q-16 0 -27 9l85 110q12 18 22 24.5t22 6.5q19 0 41 -16z" />
    <glyph glyph-name="gravecomb" unicode="&#x300;" 
d="M-87 654q22 16 45 16q12 0 22 -6.5t22 -24.5l85 -110q-5 -4 -13.5 -6.5t-17.5 -2.5q-19 0 -33 15z" />
    <glyph glyph-name="acutecomb" unicode="&#x301;" 
d="M-23 535q-14 -15 -33 -15q-8 0 -17.5 3t-13.5 6l85 110q16 21 24.5 26t19.5 5q23 0 45 -16z" />
    <glyph glyph-name="uni0302" unicode="&#x302;" 
d="M0 615l-63 -72q-15 -17 -37 -17q-18 0 -28 10l81 103q11 14 20 22.5t26 8.5t26 -8.5t20 -22.5l83 -106q-16 -9 -29 -9q-19 0 -36 18z" />
    <glyph glyph-name="tildecomb" unicode="&#x303;" 
d="M61 540q-28 1 -49 10t-39 17.5t-37 9.5q-17 0 -33 -10t-34 -33q-8 4 -13 13t-5 19q0 21 29 40t60 19q21 0 37.5 -6t30 -13t26.5 -13t27 -6q17 0 32 11t34 39q8 -3 15 -13t7 -22q0 -20 -27.5 -41t-60.5 -21z" />
    <glyph glyph-name="uni0304" unicode="&#x304;" 
d="M-104 558q-23 0 -34 7.5t-11 24.5q0 5 0.5 8.5t1.5 8.5h251q24 0 35 -7.5t11 -24.5q0 -5 -0.5 -9t-1.5 -8h-252z" />
    <glyph glyph-name="uni0306" unicode="&#x306;" 
d="M-79 630q10 -35 28.5 -50t51.5 -15t51.5 15t28.5 49q9 31 33 31q19 0 27 -5q-2 -11 -4 -19t-4 -15.5t-5 -17.5q-31 -83 -127 -83q-49 0 -79 18.5t-48 60.5q-9 21 -15 56q8 5 30 5q13 0 20 -7t12 -23z" />
    <glyph glyph-name="uni0307" unicode="&#x307;" 
d="M47 590q0 -21 -13.5 -36t-33.5 -15t-33.5 15t-13.5 36t13.5 36t33.5 15t33.5 -15t13.5 -36z" />
    <glyph glyph-name="uni0308" unicode="&#x308;" 
d="M130 585q0 -19 -12 -31.5t-31 -12.5t-31 12.5t-12 31.5t12.5 31.5t30.5 12.5t30.5 -12.5t12.5 -31.5zM-44 585q0 -19 -12 -31.5t-31 -12.5t-31 12t-12 32q0 19 12.5 31.5t30.5 12.5t30.5 -12.5t12.5 -31.5z" />
    <glyph glyph-name="uni030A" unicode="&#x30a;" 
d="M102 625q0 -46 -28.5 -75.5t-73.5 -29.5q-46 0 -74.5 29.5t-28.5 74.5q0 46 28.5 76t74.5 30q45 0 73.5 -29.5t28.5 -75.5zM59 625q0 27 -17 46.5t-42 19.5q-26 0 -43 -19t-17 -47t17 -47.5t43 -19.5t42.5 19t16.5 47v1z" />
    <glyph glyph-name="uni030B" unicode="&#x30b;" 
d="M48 535q-13 -15 -33 -15q-16 0 -27 9l85 110q12 18 22 24.5t22 6.5q19 0 41 -16zM-97 535q-14 -15 -33 -15q-16 0 -27 9l85 110q12 18 22 24.5t22 6.5q19 0 41 -16z" />
    <glyph glyph-name="uni030C" unicode="&#x30c;" 
d="M64 648q14 18 36 18q16 0 29 -9l-83 -106q-11 -14 -20 -22.5t-26 -8.5t-26 8.5t-20 22.5l-81 103q10 10 28 10q22 0 37 -17l63 -72z" />
    <glyph glyph-name="uni0312" unicode="&#x312;" 
d="M3 649q13 25 40 25q12 0 18 -3l-43 -107q-10 -24 -21 -34t-28 -10q-14 0 -30 8z" />
    <glyph glyph-name="uni0315" unicode="&#x315;" 
d="M19 542q-1 -17 -12.5 -26t-30.5 -9h-5v140q0 26 3.5 36.5t11.5 17.5q12 9 29 9q2 0 6 -0.5t9 -1.5z" />
    <glyph glyph-name="uni0326" unicode="&#x326;" 
d="M-3 -176q-15 -25 -40 -25q-12 0 -18 3l43 107q10 24 21 34t28 10q14 0 30 -8z" />
    <glyph glyph-name="uni0327" unicode="&#x327;" 
d="M57 -124q0 -36 -25.5 -60t-60.5 -24q-27 0 -27 23q0 5 0.5 11t2.5 11q5 -1 10 -1h10q42 0 42 32q0 12 -6 20t-14.5 15.5t-14.5 16.5t-6 23q0 27 26 57h43q-7 -7 -14.5 -16t-8.5 -20q0 -10 6.5 -18t15 -17t15 -21.5t6.5 -31.5z" />
    <glyph glyph-name="uni0328" unicode="&#x328;" 
d="M56 -147q6 -5 12.5 -11.5t6.5 -15.5q0 -10 -11 -19q-20 -17 -56 -17q-40 0 -61 20.5t-21 58.5q0 39 25 78t58 60l44 -7q-20 -12 -39 -34.5t-29.5 -46t-10.5 -44.5q0 -45 38 -45q13 0 23.5 5t20.5 18z" />
    <glyph glyph-name="uni0344" unicode="&#x344;" 
d="M141 586q0 -18 -11.5 -29.5t-28.5 -11.5q-18 0 -29 11.5t-11 29.5q0 17 11.5 29t28.5 12t28.5 -12t11.5 -29zM-61 586q0 -18 -11.5 -29.5t-28.5 -11.5q-18 0 -29 11t-11 30q0 17 11.5 29t28.5 12t28.5 -12t11.5 -29zM-2 535q-7 -14 -15.5 -20t-21.5 -6q-8 0 -16 2l44 118
q9 23 20.5 32.5t28.5 9.5q12 0 24 -4z" />
    <glyph glyph-name="tonos" unicode="&#x384;" horiz-adv-x="370" 
d="M181 543q-14 -22 -40 -22q-10 0 -19 4l52 111q9 19 21 27.5t30 8.5q15 0 30 -7z" />
    <glyph glyph-name="dieresistonos" unicode="&#x385;" horiz-adv-x="370" 
d="M326 586q0 -18 -11.5 -29.5t-28.5 -11.5q-18 0 -29 11.5t-11 29.5q0 17 11.5 29t28.5 12t28.5 -12t11.5 -29zM124 586q0 -18 -11.5 -29.5t-28.5 -11.5q-18 0 -29 11t-11 30q0 17 11.5 29t28.5 12t28.5 -12t11.5 -29zM183 535q-7 -14 -15.5 -20t-21.5 -6q-8 0 -16 2
l44 118q9 23 20.5 32.5t28.5 9.5q12 0 24 -4z" />
    <glyph glyph-name="Alphatonos" unicode="&#x386;" horiz-adv-x="610" 
d="M522 0l-69 187h-299l-69 -187h-60l252 665q14 6 29 6q13 0 21.5 -7t13.5 -21l244 -643h-63zM303 595l-131 -358h261zM139 533q-13 -26 -40 -26q-7 0 -15 2l44 120q9 23 21 32.5t29 9.5q13 0 25 -4z" />
    <glyph glyph-name="Epsilontonos" unicode="&#x388;" horiz-adv-x="557" 
d="M149 0v669h371q1 -2 1 -4.5v-4.5q0 -41 -46 -41h-267v-242h236v-51h-236v-276h280q23 0 36 -11t13 -30v-4.5t-1 -4.5h-387zM35 533q-13 -26 -40 -26q-7 0 -15 2l44 120q9 23 21 32.5t29 9.5q13 0 25 -4z" />
    <glyph glyph-name="Etatonos" unicode="&#x389;" horiz-adv-x="713" 
d="M628 0h-59v325h-361v-325h-59v670q6 1 11 1q22 0 35 -13t13 -38v-245h361v295q6 1 11 1q22 0 35 -13t13 -38v-620zM35 533q-13 -26 -40 -26q-7 0 -15 2l44 120q9 23 21 32.5t29 9.5q13 0 25 -4z" />
    <glyph glyph-name="Iotatonos" unicode="&#x38a;" horiz-adv-x="293" 
d="M208 0h-59v670q4 1 6.5 1h6.5q20 0 33 -13.5t13 -37.5v-620zM35 533q-13 -26 -40 -26q-7 0 -15 2l44 120q9 23 21 32.5t29 9.5q13 0 25 -4z" />
    <glyph glyph-name="Omicrontonos" unicode="&#x38c;" horiz-adv-x="705" 
d="M640 338q0 -109 -34.5 -189.5t-98.5 -122t-153 -41.5q-90 0 -152.5 43t-95 123t-32.5 186q0 105 35.5 183.5t100 119.5t153.5 41q133 0 205 -91t72 -252zM577 337q0 142 -55 217.5t-160 75.5q-110 0 -167 -75t-57 -218q0 -144 56.5 -223t163.5 -79q106 0 162.5 79
t56.5 223zM35 533q-13 -26 -40 -26q-7 0 -15 2l44 120q9 23 21 32.5t29 9.5q13 0 25 -4z" />
    <glyph glyph-name="Upsilontonos" unicode="&#x38e;" horiz-adv-x="618" 
d="M398 288v-288h-59v287l-215 380q12 5 32 5q18 0 29 -7t21 -26l165 -291l160 288q11 19 23.5 27t30.5 8q19 0 28 -3zM35 533q-13 -26 -40 -26q-7 0 -15 2l44 120q9 23 21 32.5t29 9.5q13 0 25 -4z" />
    <glyph glyph-name="Omegatonos" unicode="&#x38f;" horiz-adv-x="711" 
d="M424 0v53q74 51 115 130t41 174q0 129 -58 201t-162 72t-164 -74t-60 -201q0 -92 41.5 -170t117.5 -132v-53h-184q-22 0 -34 10.5t-12 31.5q0 3 1 9h156q-146 114 -146 305q0 98 36.5 172t100.5 113.5t149 39.5q87 0 150 -40.5t96 -113t33 -166.5q0 -97 -37 -175.5
t-109 -134.5h110q22 0 34 -10.5t12 -31.5q0 -3 -1 -9h-226zM35 533q-13 -26 -40 -26q-7 0 -15 2l44 120q9 23 21 32.5t29 9.5q13 0 25 -4z" />
    <glyph glyph-name="iotadieresistonos" unicode="&#x390;" horiz-adv-x="224" 
d="M159 -5q-42 0 -60 22t-18 77v373h3q54 0 54 -52v-310q0 -32 5 -48t20 -22.5t48 -6.5v-23q-27 -10 -52 -10zM275 586q0 -18 -11.5 -29.5t-28.5 -11.5q-18 0 -29 11.5t-11 29.5q0 17 11.5 29t28.5 12t28.5 -12t11.5 -29zM73 586q0 -18 -11.5 -29.5t-28.5 -11.5
q-18 0 -29 11t-11 30q0 17 11.5 29t28.5 12t28.5 -12t11.5 -29zM132 535q-7 -14 -15.5 -20t-21.5 -6q-8 0 -16 2l44 118q9 23 20.5 32.5t28.5 9.5q12 0 24 -4z" />
    <glyph glyph-name="Alpha" unicode="&#x391;" horiz-adv-x="610" 
d="M522 0l-69 187h-299l-69 -187h-60l252 665q14 6 29 6q13 0 21.5 -7t13.5 -21l244 -643h-63zM303 595l-131 -358h261z" />
    <glyph glyph-name="Beta" unicode="&#x392;" horiz-adv-x="562" 
d="M512 188q0 -98 -62 -143t-205 -45h-160v668q78 8 163 8q122 0 176.5 -37.5t54.5 -124.5q0 -32 -9 -58.5t-25.5 -47.5t-38.5 -36t-42 -21q69 -10 108.5 -52t39.5 -111zM417 513q0 40 -17 65t-54.5 37t-109.5 12q-62 0 -93 -4v-253h115q72 0 115.5 38.5t43.5 104.5z
M450 186q0 135 -190 135h-117v-272h73q96 0 143 13t69 43.5t22 80.5z" />
    <glyph glyph-name="Gamma" unicode="&#x393;" horiz-adv-x="453" 
d="M85 0v669h368q0 -23 -12.5 -36.5t-35.5 -13.5h-261v-619h-59z" />
    <glyph glyph-name="uni0394" unicode="&#x394;" horiz-adv-x="609" 
d="M301 593l-199 -543h400zM584 0h-559l249 665q14 6 29 6q13 0 21.5 -7t13.5 -21z" />
    <glyph glyph-name="Epsilon" unicode="&#x395;" horiz-adv-x="493" 
d="M85 0v669h371q1 -2 1 -4.5v-4.5q0 -41 -46 -41h-267v-242h236v-51h-236v-276h280q23 0 36 -11t13 -30v-4.5t-1 -4.5h-387z" />
    <glyph glyph-name="Zeta" unicode="&#x396;" horiz-adv-x="510" 
d="M461 669q29 0 29 -26v-15l-403 -578h354q23 0 36 -11t13 -30v-4.5t-1 -4.5h-474v44l397 575h-390q-1 4 -1 9q0 19 13 30t36 11h391z" />
    <glyph glyph-name="Eta" unicode="&#x397;" horiz-adv-x="649" 
d="M564 0h-59v325h-361v-325h-59v670q6 1 11 1q22 0 35 -13t13 -38v-245h361v295q6 1 11 1q22 0 35 -13t13 -38v-620z" />
    <glyph glyph-name="Theta" unicode="&#x398;" horiz-adv-x="696" 
d="M205 311v51h288v-51h-288zM631 338q0 -109 -34.5 -189.5t-98.5 -122t-153 -41.5q-90 0 -152.5 43t-95 123t-32.5 186q0 105 35.5 183.5t100 119.5t153.5 41q133 0 205 -91t72 -252zM568 337q0 142 -55 217.5t-160 75.5q-110 0 -167 -75t-57 -218q0 -144 56.5 -223
t163.5 -79q106 0 162.5 79t56.5 223z" />
    <glyph glyph-name="Iota" unicode="&#x399;" horiz-adv-x="229" 
d="M144 0h-59v670q4 1 6.5 1h6.5q20 0 33 -13.5t13 -37.5v-620z" />
    <glyph glyph-name="Kappa" unicode="&#x39a;" horiz-adv-x="535" 
d="M429 646q25 25 49 25q11 0 27 -7l10 -6l-279 -295l299 -366q-16 -6 -33 -6q-21 0 -36.5 7.5t-30.5 25.5l-263 322v27zM144 0h-59v670q6 1 11 1q22 0 35 -13t13 -38v-620z" />
    <glyph glyph-name="Lambda" unicode="&#x39b;" horiz-adv-x="592" 
d="M294 593l-208 -593h-61l243 665q14 6 29 6q13 0 21.5 -7t13.5 -21l235 -643h-64z" />
    <glyph glyph-name="Mu" unicode="&#x39c;" horiz-adv-x="790" 
d="M117 667q9 4 28 4q14 0 22.5 -6t18.5 -24l207 -430l209 428q9 16 19.5 24t26.5 8q20 0 29 -4l48 -667h-55l-40 576l-207 -416h-63l-196 401l-42 -561h-57z" />
    <glyph glyph-name="Nu" unicode="&#x39d;" horiz-adv-x="661" 
d="M576 0h-61l-375 568v-568h-55v667q9 4 28 4q15 0 24 -5.5t19 -20.5l365 -562v587q7 1 13 1q42 0 42 -51v-620z" />
    <glyph glyph-name="Xi" unicode="&#x39e;" horiz-adv-x="465" 
d="M21 619q-1 2 -1 4.5v4.5q0 41 46 41h378q1 -4 1 -9q0 -41 -46 -41h-378zM56 325v50h353v-50h-353zM66 0q-46 0 -46 41v4.5t1 4.5h378q46 0 46 -41q0 -5 -1 -9h-378z" />
    <glyph glyph-name="Omicron" unicode="&#x39f;" horiz-adv-x="696" 
d="M631 338q0 -109 -34.5 -189.5t-98.5 -122t-153 -41.5q-90 0 -152.5 43t-95 123t-32.5 186q0 105 35.5 183.5t100 119.5t153.5 41q133 0 205 -91t72 -252zM568 337q0 142 -55 217.5t-160 75.5q-110 0 -167 -75t-57 -218q0 -144 56.5 -223t163.5 -79q106 0 162.5 79
t56.5 223z" />
    <glyph glyph-name="Pi" unicode="&#x3a0;" horiz-adv-x="639" 
d="M144 619v-619h-59v669h469v-669h-59v619h-351z" />
    <glyph glyph-name="Rho" unicode="&#x3a1;" horiz-adv-x="531" 
d="M491 488q0 -216 -264 -216h-83v-272h-59v668q90 8 148 8q131 0 194.5 -46.5t63.5 -141.5zM429 482q0 73 -46.5 109t-146.5 36q-57 0 -93 -4v-302h94q97 0 144.5 40t47.5 121z" />
    <glyph glyph-name="Sigma" unicode="&#x3a3;" horiz-adv-x="489" 
d="M467 669q1 -6 1 -9q0 -41 -46 -41h-317l217 -266l-239 -303h347q23 0 36 -11t13 -30q0 -5 -1 -9h-462v42l237 308l-230 278v15q0 26 29 26h415z" />
    <glyph glyph-name="Tau" unicode="&#x3a4;" horiz-adv-x="517" 
d="M516 669q1 -6 1 -10q0 -18 -13 -29t-36 -11h-178v-619h-59v619h-230q-1 5 -1 9q0 20 12.5 30.5t35.5 10.5h468z" />
    <glyph glyph-name="Upsilon" unicode="&#x3a5;" horiz-adv-x="499" 
d="M279 288v-288h-59v287l-215 380q12 5 32 5q18 0 29 -7t21 -26l165 -291l160 288q11 19 23.5 27t30.5 8q19 0 28 -3z" />
    <glyph glyph-name="Phi" unicode="&#x3a6;" horiz-adv-x="714" 
d="M388 601q83 -5 144.5 -39t94 -90t32.5 -126q0 -68 -36 -123t-97 -87.5t-138 -38.5v-97h-57v96q-85 4 -147 38.5t-95.5 91t-33.5 127.5q0 68 36.5 123t99 87.5t140.5 37.5v89q6 1 11 1q21 0 33.5 -13t12.5 -38v-39zM117 353q0 -92 56 -147t158 -62v408q-67 -4 -115 -29.5
t-73.5 -69t-25.5 -100.5zM597 344q0 91 -54.5 145.5t-154.5 62.5v-407q97 8 153 62t56 137z" />
    <glyph glyph-name="Chi" unicode="&#x3a7;" horiz-adv-x="542" 
d="M268 291l-174 -291h-65l206 341l-189 324q15 6 29 6q21 0 35 -9t26 -30l136 -244l143 239q14 24 27.5 34t32.5 10q14 0 29 -6l-199 -326l210 -342q-15 -6 -28 -6q-20 0 -34 9t-27 30z" />
    <glyph glyph-name="Psi" unicode="&#x3a8;" horiz-adv-x="703" 
d="M633 450q0 -122 -64.5 -190t-187.5 -74v-186h-59v186q-123 7 -187.5 74t-64.5 190v220q6 1 11 1q22 0 35 -13t13 -38v-184q0 -92 49 -143.5t144 -59.5v437q6 1 11 1q22 0 35 -13t13 -38v-388q193 12 193 204v234q6 1 11 1q22 0 35 -13t13 -38v-170z" />
    <glyph glyph-name="uni03A9" unicode="&#x3a9;" horiz-adv-x="704" 
d="M417 0v53q74 51 115 130t41 174q0 129 -58 201t-162 72t-164 -74t-60 -201q0 -92 41.5 -170t117.5 -132v-53h-184q-22 0 -34 10.5t-12 31.5q0 3 1 9h156q-146 114 -146 305q0 98 36.5 172t100.5 113.5t149 39.5q87 0 150 -40.5t96 -113t33 -166.5q0 -97 -37 -175.5
t-109 -134.5h110q22 0 34 -10.5t12 -31.5q0 -3 -1 -9h-226z" />
    <glyph glyph-name="Iotadieresis" unicode="&#x3aa;" horiz-adv-x="229" 
d="M144 0h-59v670q4 1 6.5 1h6.5q20 0 33 -13.5t13 -37.5v-620zM243 789q0 -19 -12 -31.5t-31 -12.5t-31 12.5t-12 31.5t12.5 31.5t30.5 12.5t30.5 -12.5t12.5 -31.5zM69 789q0 -19 -12 -31.5t-31 -12.5t-31 12t-12 32q0 19 12.5 31.5t30.5 12.5t30.5 -12.5t12.5 -31.5z" />
    <glyph glyph-name="Upsilondieresis" unicode="&#x3ab;" horiz-adv-x="499" 
d="M279 288v-288h-59v287l-215 380q12 5 32 5q18 0 29 -7t21 -26l165 -291l160 288q11 19 23.5 27t30.5 8q19 0 28 -3zM394 789q0 -19 -12 -31.5t-31 -12.5t-31 12.5t-12 31.5t12.5 31.5t30.5 12.5t30.5 -12.5t12.5 -31.5zM220 789q0 -19 -12 -31.5t-31 -12.5t-31 12t-12 32
q0 19 12.5 31.5t30.5 12.5t30.5 -12.5t12.5 -31.5z" />
    <glyph glyph-name="alphatonos" unicode="&#x3ac;" horiz-adv-x="527" 
d="M117 233q0 -95 38 -147t109 -52q35 0 62.5 13.5t44 34t16.5 39.5v240q-51 65 -123 65t-109.5 -49t-37.5 -144zM391 53q-53 -68 -137 -68q-91 0 -145 63.5t-54 176.5q0 79 25.5 134.5t72.5 85.5t103 30q83 0 131 -62v6q0 23 12.5 35.5t32.5 12.5q7 0 12 -1v-361
q0 -32 5 -48t20 -22.5t48 -6.5v-23q-27 -10 -52 -10q-63 0 -74 58zM300 543q-14 -22 -40 -22q-10 0 -19 4l52 111q9 19 21 27.5t30 8.5q15 0 30 -7z" />
    <glyph glyph-name="epsilontonos" unicode="&#x3ad;" horiz-adv-x="445" 
d="M55 120q0 40 22.5 70.5t63.5 46.5q-36 12 -57 40.5t-21 61.5q0 66 48.5 101t140.5 35q45 0 84.5 -13.5t60.5 -34.5q13 -13 13 -26q0 -14 -17 -35h-9q-18 29 -51.5 44.5t-78.5 15.5q-66 0 -98.5 -21t-32.5 -66q0 -36 25.5 -58t66.5 -22h130v-47h-132q-45 0 -71 -24.5
t-26 -66.5q0 -43 34.5 -65.5t100.5 -22.5q43 0 82 13.5t62 36.5q20 -18 20 -31q0 -15 -22 -30q-24 -17 -64 -27t-84 -10q-89 0 -139.5 35t-50.5 100zM290 543q-14 -22 -40 -22q-10 0 -19 4l52 111q9 19 21 27.5t30 8.5q15 0 30 -7z" />
    <glyph glyph-name="etatonos" unicode="&#x3ae;" horiz-adv-x="543" 
d="M137 412q28 29 72.5 46t96.5 17q61 0 100 -27t49 -75q8 -32 8 -89v-502h-58v502q0 49 -9 75q-19 64 -113 64q-39 0 -78 -15.5t-59 -38.5q-8 -10 -8 -25v-344h-58v467h4q53 0 53 -55zM318 543q-14 -22 -40 -22q-10 0 -19 4l52 111q9 19 21 27.5t30 8.5q15 0 30 -7z" />
    <glyph glyph-name="iotatonos" unicode="&#x3af;" horiz-adv-x="224" 
d="M159 -5q-42 0 -60 22t-18 77v373h3q54 0 54 -52v-310q0 -32 5 -48t20 -22.5t48 -6.5v-23q-27 -10 -52 -10zM149 543q-14 -22 -40 -22q-10 0 -19 4l52 111q9 19 21 27.5t30 8.5q15 0 30 -7z" />
    <glyph glyph-name="upsilondieresistonos" unicode="&#x3b0;" horiz-adv-x="543" 
d="M463 201q0 -216 -192 -216q-191 0 -191 213v269h4q53 0 53 -54v-212q0 -85 33 -126.5t101 -41.5q69 0 102 39t33 126v269h4q53 0 53 -54v-212zM430 586q0 -18 -11.5 -29.5t-28.5 -11.5q-18 0 -29 11.5t-11 29.5q0 17 11.5 29t28.5 12t28.5 -12t11.5 -29zM228 586
q0 -18 -11.5 -29.5t-28.5 -11.5q-18 0 -29 11t-11 30q0 17 11.5 29t28.5 12t28.5 -12t11.5 -29zM287 535q-7 -14 -15.5 -20t-21.5 -6q-8 0 -16 2l44 118q9 23 20.5 32.5t28.5 9.5q12 0 24 -4z" />
    <glyph glyph-name="alpha" unicode="&#x3b1;" horiz-adv-x="527" 
d="M117 233q0 -95 38 -147t109 -52q35 0 62.5 13.5t44 34t16.5 39.5v240q-51 65 -123 65t-109.5 -49t-37.5 -144zM391 53q-53 -68 -137 -68q-91 0 -145 63.5t-54 176.5q0 79 25.5 134.5t72.5 85.5t103 30q83 0 131 -62v6q0 23 12.5 35.5t32.5 12.5q7 0 12 -1v-361
q0 -32 5 -48t20 -22.5t48 -6.5v-23q-27 -10 -52 -10q-63 0 -74 58z" />
    <glyph glyph-name="beta" unicode="&#x3b2;" horiz-adv-x="528" 
d="M137 -218h-57v754q0 86 49.5 133.5t138.5 47.5q78 0 123.5 -45t45.5 -120q0 -58 -30 -101t-81 -59q77 -18 117 -69.5t40 -133.5q0 -99 -52 -151.5t-143 -52.5q-46 0 -86.5 15.5t-64.5 39.5v-258zM137 94q20 -25 61 -43t84 -18q72 0 107 37.5t35 116.5q0 172 -177 172h-27
v47h25q37 0 69 19t48.5 51t16.5 75q0 55 -29 86.5t-82 31.5q-131 0 -131 -133v-442z" />
    <glyph glyph-name="gamma" unicode="&#x3b3;" horiz-adv-x="452" 
d="M251 -218h-57v212l-179 468q15 5 27 5q20 0 32.5 -11t22.5 -41l127 -362l135 366q10 27 22.5 37.5t30.5 10.5q11 0 25 -6l-186 -469v-210z" />
    <glyph glyph-name="delta" unicode="&#x3b4;" horiz-adv-x="531" 
d="M291 670q-107 0 -107 -83q0 -25 12 -43.5t32.5 -33.5t47.5 -29.5t56 -31.5q78 -46 111 -101t33 -133q0 -70 -26 -122.5t-73 -80t-112 -27.5q-66 0 -113 28t-72 80t-25 119q0 88 45.5 148.5t132.5 89.5q-37 22 -54 36t-28 29t-16 33t-5 39q0 61 43.5 95.5t115.5 34.5
q37 0 69 -9.5t51 -25.5q18 -14 18 -30q0 -6 -3 -12.5t-13 -21.5h-9q-37 52 -111 52zM116 215q0 -84 38.5 -133t110.5 -49q73 0 111.5 48t38.5 134q0 73 -24.5 115.5t-88.5 77.5l-25 14q-75 -13 -118 -68t-43 -139z" />
    <glyph glyph-name="epsilon" unicode="&#x3b5;" horiz-adv-x="445" 
d="M55 120q0 40 22.5 70.5t63.5 46.5q-36 12 -57 40.5t-21 61.5q0 66 48.5 101t140.5 35q45 0 84.5 -13.5t60.5 -34.5q13 -13 13 -26q0 -14 -17 -35h-9q-18 29 -51.5 44.5t-78.5 15.5q-66 0 -98.5 -21t-32.5 -66q0 -36 25.5 -58t66.5 -22h130v-47h-132q-45 0 -71 -24.5
t-26 -66.5q0 -43 34.5 -65.5t100.5 -22.5q43 0 82 13.5t62 36.5q20 -18 20 -31q0 -15 -22 -30q-24 -17 -64 -27t-84 -10q-89 0 -139.5 35t-50.5 100z" />
    <glyph glyph-name="zeta" unicode="&#x3b6;" horiz-adv-x="421" 
d="M77 656q0 25 10.5 36.5t35.5 11.5h270q28 0 28 -26v-18q-167 -160 -236.5 -266.5t-69.5 -194.5q0 -46 14.5 -73.5t41.5 -43t63.5 -26.5t81.5 -23q42 -12 68.5 -28t38.5 -38t12 -57q0 -34 -25.5 -61.5t-70.5 -40.5l-13 22q55 29 55 76q0 31 -20 49.5t-69 31.5
q-51 13 -94 26.5t-75 35t-50 56t-18 89.5q0 93 75 209.5t222 252.5h-275z" />
    <glyph glyph-name="eta" unicode="&#x3b7;" horiz-adv-x="543" 
d="M137 412q28 29 72.5 46t96.5 17q61 0 100 -27t49 -75q8 -32 8 -89v-502h-58v502q0 49 -9 75q-19 64 -113 64q-39 0 -78 -15.5t-59 -38.5q-8 -10 -8 -25v-344h-58v467h4q53 0 53 -55z" />
    <glyph glyph-name="theta" unicode="&#x3b8;" horiz-adv-x="539" 
d="M489 349q0 -364 -220 -364q-110 0 -164.5 90t-54.5 274q0 181 56.5 274.5t166.5 93.5q216 0 216 -368zM270 33q78 0 117.5 74.5t41.5 225.5h-319q2 -152 41 -226t119 -74zM270 668q-78 0 -117.5 -71.5t-42.5 -216.5h318q-3 146 -42 217t-116 71z" />
    <glyph glyph-name="iota" unicode="&#x3b9;" horiz-adv-x="224" 
d="M159 -5q-42 0 -60 22t-18 77v373h3q54 0 54 -52v-310q0 -32 5 -48t20 -22.5t48 -6.5v-23q-27 -10 -52 -10z" />
    <glyph glyph-name="kappa" unicode="&#x3ba;" horiz-adv-x="463" 
d="M173 227v27l155 178q18 20 29.5 27.5t22.5 7.5q17 0 27 -7l11 -7l-186 -208l218 -248q-15 -6 -32 -6q-19 0 -34 8t-30 26zM80 0v466q6 1 10 1q22 0 35 -13t13 -38v-416h-58z" />
    <glyph glyph-name="lambda" unicode="&#x3bb;" horiz-adv-x="493" 
d="M242 426l-158 -426h-59l180 467h24l-47 133q-14 40 -27.5 55.5t-35.5 15.5q-17 0 -28.5 -4.5t-25.5 -15.5q-6 6 -10 12.5t-4 16.5q0 14 18 24q24 13 58 13q39 0 64.5 -22.5t42.5 -72.5l180 -538q7 -22 13.5 -32t16 -14.5t24.5 -4.5q11 0 28 5l7 -21q-30 -22 -62 -22
q-33 0 -51.5 16t-31.5 57z" />
    <glyph glyph-name="uni03BC" unicode="&#x3bc;" horiz-adv-x="546" 
d="M405 54q-28 -29 -69.5 -46t-85.5 -17q-80 0 -113 40v-249h-57v685h4q53 0 53 -54v-231q0 -75 31 -107t100 -32q32 0 65 12.5t53 29t20 31.5v351h4q53 0 53 -55v-307q0 -32 5 -48t20 -22.5t48 -6.5v-23q-27 -10 -52 -10q-65 0 -79 59z" />
    <glyph glyph-name="nu" unicode="&#x3bd;" horiz-adv-x="444" 
d="M249 -4h-60l-174 466q15 5 27 5q20 0 32.5 -11t22.5 -41l123 -362l131 366q10 27 22.5 37.5t30.5 10.5q11 0 25 -6z" />
    <glyph glyph-name="xi" unicode="&#x3be;" horiz-adv-x="440" 
d="M376 -94q0 32 -21 51t-68 31q-99 24 -144.5 50t-66.5 65t-21 95q0 67 32.5 113.5t93.5 68.5q-48 21 -73 60.5t-25 93.5q0 57 25.5 97.5t70.5 63t96 22.5q42 0 77.5 -10.5t57.5 -28.5q18 -14 18 -29q0 -8 -5 -17t-11 -19h-9q-21 29 -51.5 42.5t-74.5 13.5
q-66 0 -102 -35.5t-36 -99.5t34 -97t99 -33h111v-48h-112q-77 0 -116.5 -40t-39.5 -115q0 -43 13.5 -70.5t39.5 -44.5t62 -28.5t81 -23.5q64 -17 91.5 -44t27.5 -80q0 -34 -25.5 -61.5t-70.5 -40.5l-13 22q55 29 55 76z" />
    <glyph glyph-name="omicron" unicode="&#x3bf;" horiz-adv-x="531" 
d="M415 231q0 195 -148 195q-73 0 -112 -52t-39 -143q0 -96 38 -147t111 -51q150 0 150 198zM476 231q0 -115 -55 -180.5t-156 -65.5t-155.5 64.5t-54.5 178.5q0 74 27 131t75 86.5t112 29.5q100 0 153.5 -64.5t53.5 -179.5z" />
    <glyph glyph-name="pi" unicode="&#x3c0;" horiz-adv-x="541" 
d="M380 420h-219v-420h-57v420h-89v47h511v-47h-89v-315q0 -32 5.5 -48t21.5 -22.5t51 -6.5v-23q-27 -10 -57 -10q-42 0 -60 22t-18 77v326z" />
    <glyph glyph-name="rho" unicode="&#x3c1;" horiz-adv-x="530" 
d="M75 247q0 107 53.5 167.5t146.5 60.5q95 0 147.5 -62t52.5 -177q0 -81 -25 -137t-72 -85t-109 -29q-43 1 -72 12t-45 23.5t-20 17.5v-256h-57v465zM132 92q22 -26 56 -42.5t72 -16.5q76 0 115 49.5t39 146.5q0 96 -35.5 146t-103.5 50q-70 0 -106.5 -46.5t-36.5 -133.5
v-153z" />
    <glyph glyph-name="sigma1" unicode="&#x3c2;" horiz-adv-x="449" 
d="M413 -90q0 -34 -25.5 -61.5t-70.5 -40.5l-13 22q55 29 55 76q0 31 -20.5 50t-66.5 31q-45 11 -84.5 25t-69 38.5t-46.5 68t-17 114.5q0 77 27.5 130.5t78 82.5t107.5 29q79 0 131 -43q18 -14 18 -30q0 -11 -16 -37h-9q-23 32 -52.5 46.5t-69.5 14.5q-74 0 -114 -50
t-40 -141q0 -49 5.5 -78t21 -50t48 -37.5t100.5 -35.5q65 -18 93.5 -45.5t28.5 -78.5z" />
    <glyph glyph-name="sigma" unicode="&#x3c3;" horiz-adv-x="529" 
d="M464 221q0 -109 -53.5 -172.5t-151.5 -63.5t-151 64.5t-53 178.5q0 113 62.5 176t177.5 63h212v-47h-132q42 -35 65.5 -87t23.5 -112zM116 231q0 -98 36.5 -148t106.5 -50q71 0 107.5 47.5t36.5 140.5q0 69 -22.5 120t-65.5 79h-22q-88 0 -132.5 -48t-44.5 -141z" />
    <glyph glyph-name="tau" unicode="&#x3c4;" horiz-adv-x="406" 
d="M5 467h381v-47h-179v-296q0 -47 16.5 -69.5t51.5 -22.5q31 0 55 16q7 4 12 9t11 10q12 -15 16 -21.5t3 -12.5q-1 -11 -16.5 -23t-38 -18.5t-49.5 -6.5q-61 0 -89.5 34t-28.5 110v291h-145v47z" />
    <glyph glyph-name="upsilon" unicode="&#x3c5;" horiz-adv-x="543" 
d="M463 201q0 -216 -192 -216q-191 0 -191 213v269h4q53 0 53 -54v-212q0 -85 33 -126.5t101 -41.5q69 0 102 39t33 126v269h4q53 0 53 -54v-212z" />
    <glyph glyph-name="phi" unicode="&#x3c6;" horiz-adv-x="653" 
d="M298 -218v203q-114 2 -178.5 67t-64.5 176q0 108 66 175.5t177 71.5v134q6 1 10 1q22 0 34.5 -13t12.5 -38v-84q114 -2 178.5 -67t64.5 -177t-64.5 -177.5t-178.5 -68.5v-203h-57zM537 231q0 91 -47.5 143.5t-134.5 54.5v-398q86 3 134 56t48 144zM116 231q0 -89 48 -143
t134 -57v398q-57 -2 -98 -28t-62.5 -70.5t-21.5 -99.5z" />
    <glyph glyph-name="chi" unicode="&#x3c7;" horiz-adv-x="454" 
d="M26 462q12 5 27 5q21 0 31 -5.5t21 -25.5l130 -250l125 237q13 23 19 30.5t13.5 10.5t18.5 3t25 -6l-171 -324l138 -276q23 -45 61 -45q11 0 28 5l7 -21q-28 -22 -64 -22q-30 0 -47.5 13.5t-36.5 51.5l-120 245l-152 -306h-59l181 357z" />
    <glyph glyph-name="psi" unicode="&#x3c8;" horiz-adv-x="678" 
d="M310 -218v203q-71 1 -123 29.5t-79.5 78.5t-27.5 115v259h4q53 0 53 -54v-202q0 -53 22 -93.5t61 -62t90 -22.5v576q6 1 10 1q22 0 34.5 -13t12.5 -38v-526q81 1 127.5 48.5t46.5 126.5v259h4q53 0 53 -54v-202q0 -68 -29 -119t-81 -78.5t-121 -28.5v-203h-57z" />
    <glyph glyph-name="omega" unicode="&#x3c9;" horiz-adv-x="750" 
d="M375 80q-48 -95 -141 -95q-88 0 -133.5 58.5t-45.5 169.5q0 55 19 105t51 88t67 55q12 6 22 6q26 0 33 -29q-61 -28 -96.5 -88t-35.5 -136q0 -89 30 -135t87 -46q54 0 84 37t30 102v159h5q53 0 53 -54v-105q0 -65 30 -102t84 -37q57 0 87 46t30 135q0 75 -35 135t-97 88
q7 30 33 30q11 0 23 -6q56 -28 96 -98t40 -150q0 -111 -45.5 -169.5t-133.5 -58.5q-93 0 -141 95z" />
    <glyph glyph-name="iotadieresis" unicode="&#x3ca;" horiz-adv-x="224" 
d="M159 -5q-42 0 -60 22t-18 77v373h3q54 0 54 -52v-310q0 -32 5 -48t20 -22.5t48 -6.5v-23q-27 -10 -52 -10zM239 585q0 -19 -12 -31.5t-31 -12.5t-31 12.5t-12 31.5t12.5 31.5t30.5 12.5t30.5 -12.5t12.5 -31.5zM65 585q0 -19 -12 -31.5t-31 -12.5t-31 12t-12 32
q0 19 12.5 31.5t30.5 12.5t30.5 -12.5t12.5 -31.5z" />
    <glyph glyph-name="upsilondieresis" unicode="&#x3cb;" horiz-adv-x="543" 
d="M463 201q0 -216 -192 -216q-191 0 -191 213v269h4q53 0 53 -54v-212q0 -85 33 -126.5t101 -41.5q69 0 102 39t33 126v269h4q53 0 53 -54v-212zM394 585q0 -19 -12 -31.5t-31 -12.5t-31 12.5t-12 31.5t12.5 31.5t30.5 12.5t30.5 -12.5t12.5 -31.5zM220 585
q0 -19 -12 -31.5t-31 -12.5t-31 12t-12 32q0 19 12.5 31.5t30.5 12.5t30.5 -12.5t12.5 -31.5z" />
    <glyph glyph-name="omicrontonos" unicode="&#x3cc;" horiz-adv-x="531" 
d="M415 231q0 195 -148 195q-73 0 -112 -52t-39 -143q0 -96 38 -147t111 -51q150 0 150 198zM476 231q0 -115 -55 -180.5t-156 -65.5t-155.5 64.5t-54.5 178.5q0 74 27 131t75 86.5t112 29.5q100 0 153.5 -64.5t53.5 -179.5zM308 543q-14 -22 -40 -22q-10 0 -19 4l52 111
q9 19 21 27.5t30 8.5q15 0 30 -7z" />
    <glyph glyph-name="upsilontonos" unicode="&#x3cd;" horiz-adv-x="543" 
d="M463 201q0 -216 -192 -216q-191 0 -191 213v269h4q53 0 53 -54v-212q0 -85 33 -126.5t101 -41.5q69 0 102 39t33 126v269h4q53 0 53 -54v-212zM304 543q-14 -22 -40 -22q-10 0 -19 4l52 111q9 19 21 27.5t30 8.5q15 0 30 -7z" />
    <glyph glyph-name="omegatonos" unicode="&#x3ce;" horiz-adv-x="750" 
d="M375 80q-48 -95 -141 -95q-88 0 -133.5 58.5t-45.5 169.5q0 55 19 105t51 88t67 55q12 6 22 6q26 0 33 -29q-61 -28 -96.5 -88t-35.5 -136q0 -89 30 -135t87 -46q54 0 84 37t30 102v159h5q53 0 53 -54v-105q0 -65 30 -102t84 -37q57 0 87 46t30 135q0 75 -35 135t-97 88
q7 30 33 30q11 0 23 -6q56 -28 96 -98t40 -150q0 -111 -45.5 -169.5t-133.5 -58.5q-93 0 -141 95zM414 543q-14 -22 -40 -22q-10 0 -19 4l52 111q9 19 21 27.5t30 8.5q15 0 30 -7z" />
    <glyph glyph-name="uni0400" unicode="&#x400;" horiz-adv-x="493" 
d="M85 0v669h371q1 -2 1 -4.5v-4.5q0 -41 -46 -41h-267v-242h236v-51h-236v-276h280q23 0 36 -11t13 -30v-4.5t-1 -4.5h-387zM109 809q15 16 25 22t20 6q9 0 18.5 -4t23.5 -16l110 -87q-4 -6 -14.5 -11t-20.5 -5q-12 0 -26 8z" />
    <glyph glyph-name="uni0401" unicode="&#x401;" horiz-adv-x="493" 
d="M85 0v669h371q1 -2 1 -4.5v-4.5q0 -41 -46 -41h-267v-242h236v-51h-236v-276h280q23 0 36 -11t13 -30v-4.5t-1 -4.5h-387zM401 789q0 -19 -12 -31.5t-31 -12.5t-31 12.5t-12 31.5t12.5 31.5t30.5 12.5t30.5 -12.5t12.5 -31.5zM227 789q0 -19 -12 -31.5t-31 -12.5t-31 12
t-12 32q0 19 12.5 31.5t30.5 12.5t30.5 -12.5t12.5 -31.5z" />
    <glyph glyph-name="uni0402" unicode="&#x402;" horiz-adv-x="658" 
d="M385 45q161 0 161 158q0 69 -45.5 106t-126.5 37q-61 0 -104 -5v-341h-59v619h-210q-1 5 -1 9q0 20 12.5 30.5t35.5 10.5h488q1 -6 1 -10q0 -18 -13 -29t-36 -11h-218v-229q60 5 101 5q113 0 175 -49.5t62 -138.5q0 -67 -25.5 -113.5t-74.5 -71t-114 -24.5q-43 0 -43 31
q0 7 2 17q13 -1 32 -1z" />
    <glyph glyph-name="uni0403" unicode="&#x403;" horiz-adv-x="453" 
d="M85 0v669h368q0 -23 -12.5 -36.5t-35.5 -13.5h-261v-619h-59zM295 722q-14 -8 -26 -8q-10 0 -20.5 5t-14.5 11l110 87q14 12 23.5 16t18.5 4q10 0 20 -6t25 -22z" />
    <glyph glyph-name="uni0404" unicode="&#x404;" horiz-adv-x="596" 
d="M528 113q28 -26 28 -37q0 -9 -10 -20q-16 -18 -47.5 -35.5t-67.5 -26.5t-76 -9q-140 0 -215 90.5t-75 256.5q0 165 77 257t219 92q55 0 102 -18t79 -50q12 -12 12 -23t-20 -34h-11q-29 35 -72 54.5t-93 19.5q-106 0 -165.5 -68.5t-66.5 -196.5h338v-51h-339
q5 -135 65.5 -207.5t170.5 -72.5q65 0 122 39q27 19 45 40z" />
    <glyph glyph-name="uni0405" unicode="&#x405;" horiz-adv-x="486" 
d="M53 105q29 -32 74.5 -50.5t97.5 -18.5q75 0 114.5 35.5t39.5 99.5q0 38 -12 65t-41 46t-88 37q-77 24 -116 48.5t-57.5 58.5t-18.5 80q0 81 56 128t149 47q46 -1 79 -10t53 -20.5t28 -17.5q13 -10 13 -25q0 -12 -18 -36h-11q-58 58 -146 58q-69 0 -105.5 -32t-36.5 -88
q0 -33 14 -57t46.5 -43t94.5 -37q63 -19 102 -45t58 -63t19 -85q0 -91 -58.5 -143t-159.5 -52q-59 0 -107.5 16t-71.5 39q-14 10 -14 23q0 16 23 42z" />
    <glyph glyph-name="uni0406" unicode="&#x406;" horiz-adv-x="229" 
d="M144 0h-59v670q4 1 6.5 1h6.5q20 0 33 -13.5t13 -37.5v-620z" />
    <glyph glyph-name="uni0407" unicode="&#x407;" horiz-adv-x="229" 
d="M144 0h-59v670q4 1 6.5 1h6.5q20 0 33 -13.5t13 -37.5v-620zM244 789q0 -19 -12 -31.5t-31 -12.5t-31 12.5t-12 31.5t12.5 31.5t30.5 12.5t30.5 -12.5t12.5 -31.5zM70 789q0 -19 -12 -31.5t-31 -12.5t-31 12t-12 32q0 19 12.5 31.5t30.5 12.5t30.5 -12.5t12.5 -31.5z" />
    <glyph glyph-name="uni0408" unicode="&#x408;" horiz-adv-x="229" 
d="M144 23q0 -11 -0.5 -23t-1.5 -23q-5 -44 -25 -78t-51.5 -51.5t-73.5 -17.5q-23 0 -32.5 7t-9.5 25q0 4 0.5 8.5t1.5 9.5q5 -1 9.5 -1h9.5q45 0 70.5 18.5t37.5 59.5q6 19 6 59v654q6 1 11 1q22 0 35 -13t13 -38v-597z" />
    <glyph glyph-name="uni0409" unicode="&#x409;" horiz-adv-x="954" 
d="M842 209q0 72 -45.5 109t-133.5 37q-57 0 -100 -5v-301h88q97 0 144 39.5t47 120.5zM563 669v-270q18 2 42.5 3.5t54.5 1.5q120 0 182 -48.5t62 -142.5q0 -107 -64.5 -160t-198.5 -53h-137v619h-215l-17 -195q-18 -210 -76 -324.5t-152 -114.5q-34 0 -34 47h9
q42 1 73 25.5t53 66.5t36 93t22.5 104t13 100.5t7.5 82.5l15 165h324z" />
    <glyph glyph-name="uni040A" unicode="&#x40a;" horiz-adv-x="910" 
d="M466 333h-322v-333h-59v670q6 1 11 1q22 0 35 -13t13 -38v-237h322v287q6 1 11 1q22 0 35 -13t13 -38v-235q18 2 41 3.5t53 1.5q119 0 180 -46.5t61 -137.5q0 -104 -63.5 -155t-196.5 -51h-134v333zM798 202q0 69 -44.5 104t-131.5 35q-54 0 -97 -5v-287h85
q95 0 141.5 38t46.5 115z" />
    <glyph glyph-name="uni040B" unicode="&#x40b;" horiz-adv-x="701" 
d="M270 341q40 34 90.5 54.5t96.5 20.5q88 0 133.5 -48.5t45.5 -143.5v-224h-59v209q0 84 -30.5 119.5t-99.5 35.5q-25 0 -58 -9t-60 -24q-32 -18 -45.5 -34t-13.5 -34v-263h-59v619h-210q-1 5 -1 9q0 20 12.5 30.5t35.5 10.5h488q1 -6 1 -10q0 -18 -13 -29t-36 -11h-218
v-278z" />
    <glyph glyph-name="uni040C" unicode="&#x40c;" horiz-adv-x="534" 
d="M381 607q21 31 47 47.5t53 16.5q23 0 32.5 -9.5t9.5 -33.5q-34 0 -55 -12t-43 -43l-93 -131q-24 -34 -46.5 -52t-49.5 -27q41 -14 74 -59l224 -307q-16 -6 -33 -6q-23 0 -37.5 7.5t-27.5 25.5l-176 244q-27 38 -47 53t-44 19v39q63 10 121 96zM144 0h-59v670q6 1 11 1
q22 0 35 -13t13 -38v-620zM320 722q-14 -8 -26 -8q-10 0 -20.5 5t-14.5 11l110 87q14 12 23.5 16t18.5 4q10 0 20 -6t25 -22z" />
    <glyph glyph-name="uni040D" unicode="&#x40d;" horiz-adv-x="649" 
d="M140 87l357 558q10 15 18.5 20.5t22.5 5.5q17 0 26 -4v-667h-55v566l-364 -566h-60v670q7 1 13 1q42 0 42 -51v-533zM162 809q15 16 25 22t20 6q9 0 18.5 -4t23.5 -16l110 -87q-4 -6 -14.5 -11t-20.5 -5q-12 0 -26 8z" />
    <glyph glyph-name="uni040E" unicode="&#x40e;" horiz-adv-x="507" 
d="M108 34q33 0 55.5 23.5t49.5 89.5l32 73l-240 447q13 5 26 5q22 0 35.5 -9t27.5 -38l179 -346l148 345q12 26 25.5 36.5t31.5 10.5q8 0 13.5 -2t10.5 -4l-240 -541q-22 -49 -37 -72t-32.5 -37.5t-39 -22t-47.5 -7.5q-35 0 -59 13q-19 10 -19 24q0 15 16 36q4 -3 12 -8.5
t21 -10.5t31 -5zM162 830q9 -32 32 -48.5t57 -16.5t57 16.5t32 47.5t33 31q19 0 27 -5q-2 -11 -4 -19t-4 -15.5t-5 -17.5q-14 -39 -50.5 -61t-85.5 -22q-101 0 -136 79q-9 21 -15 56q8 5 30 5q13 0 20 -7t12 -23z" />
    <glyph glyph-name="uni040F" unicode="&#x40f;" horiz-adv-x="636" 
d="M347 0v-144h-58v144h-204v670q6 1 11 1q22 0 35 -13t13 -38v-570h348v620q6 1 11 1q22 0 35 -13t13 -38v-620h-204z" />
    <glyph glyph-name="uni0410" unicode="&#x410;" horiz-adv-x="610" 
d="M522 0l-69 187h-299l-69 -187h-60l252 665q14 6 29 6q13 0 21.5 -7t13.5 -21l244 -643h-63zM303 595l-131 -358h261z" />
    <glyph glyph-name="uni0411" unicode="&#x411;" horiz-adv-x="541" 
d="M459 669q1 -6 1 -10q0 -18 -13 -29t-36 -11h-267v-220q18 2 43.5 3.5t55.5 1.5q122 0 185 -47.5t63 -141.5q0 -108 -65.5 -161.5t-198.5 -53.5h-142v669h374zM429 209q0 72 -46.5 109t-136.5 37q-59 0 -102 -5v-301h93q97 0 144.5 39.5t47.5 120.5z" />
    <glyph glyph-name="uni0412" unicode="&#x412;" horiz-adv-x="562" 
d="M512 188q0 -98 -62 -143t-205 -45h-160v668q78 8 163 8q122 0 176.5 -37.5t54.5 -124.5q0 -32 -9 -58.5t-25.5 -47.5t-38.5 -36t-42 -21q69 -10 108.5 -52t39.5 -111zM417 513q0 40 -17 65t-54.5 37t-109.5 12q-62 0 -93 -4v-253h115q72 0 115.5 38.5t43.5 104.5z
M450 186q0 135 -190 135h-117v-272h73q96 0 143 13t69 43.5t22 80.5z" />
    <glyph glyph-name="uni0413" unicode="&#x413;" horiz-adv-x="453" 
d="M85 0v669h368q0 -23 -12.5 -36.5t-35.5 -13.5h-261v-619h-59z" />
    <glyph glyph-name="uni0414" unicode="&#x414;" horiz-adv-x="635" 
d="M66 50q28 21 48 57t34 82t22.5 96t14 99.5t8.5 92.5t6 75l11 117h340v-619h58v-194h-58v144h-480v-144h-58v194h54zM247 473q-4 -53 -10 -111t-17 -115.5t-30 -108.5t-48 -88h349v569h-231z" />
    <glyph glyph-name="uni0415" unicode="&#x415;" horiz-adv-x="493" 
d="M85 0v669h371q1 -2 1 -4.5v-4.5q0 -41 -46 -41h-267v-242h236v-51h-236v-276h280q23 0 36 -11t13 -30v-4.5t-1 -4.5h-387z" />
    <glyph glyph-name="uni0416" unicode="&#x416;" horiz-adv-x="802" 
d="M652 607q41 64 96 64q23 0 32.5 -9.5t9.5 -33.5q-22 0 -37.5 -4.5t-28.5 -16t-28 -34.5l-86 -131q-25 -38 -44.5 -54.5t-44.5 -24.5q18 -6 32 -17t35 -42l214 -307q-16 -6 -33 -6q-23 0 -37 7.5t-26 25.5l-168 244q-30 43 -46 55.5t-38 16.5v39q30 5 57.5 27.5t56.5 68.5
zM429 0h-59v670q6 1 11 1q22 0 35 -13t13 -38v-620zM233 475q30 -47 56 -69t56 -27v-39q-24 -4 -43.5 -19t-45.5 -53l-167 -244q-13 -19 -25 -26t-34 -7q-13 0 -30 6l213 306q9 14 18 25t20 19.5t27 14.5q-24 8 -42.5 23.5t-45.5 56.5l-87 131q-22 33 -41 44t-52 11
q0 24 9.5 33.5t32.5 9.5q27 0 52 -16.5t45 -47.5z" />
    <glyph glyph-name="uni0417" unicode="&#x417;" horiz-adv-x="501" 
d="M451 185q0 -92 -59.5 -146t-166.5 -54q-57 0 -105 16t-77 43q-13 11 -13 24q0 7 6.5 19t17.5 24q17 -21 45 -39t60 -27t67 -9q75 0 119 39t44 111q0 46 -20 77.5t-58 48t-83 16.5h-108v50h108q42 0 76 16.5t51.5 46t17.5 71.5q0 55 -37.5 86.5t-101.5 31.5q-37 0 -65 -9
t-47.5 -22t-32 -25t-18.5 -18h-11q-19 21 -19 34q0 11 11 22q5 5 18.5 16t36 23t55 21t74.5 9q91 0 144.5 -45.5t53.5 -118.5q0 -58 -32 -99t-88 -61q39 -8 71.5 -32t49 -59.5t16.5 -80.5z" />
    <glyph glyph-name="uni0418" unicode="&#x418;" horiz-adv-x="649" 
d="M140 87l357 558q10 15 18.5 20.5t22.5 5.5q17 0 26 -4v-667h-55v566l-364 -566h-60v670q7 1 13 1q42 0 42 -51v-533z" />
    <glyph glyph-name="uni0419" unicode="&#x419;" horiz-adv-x="649" 
d="M140 87l357 558q10 15 18.5 20.5t22.5 5.5q17 0 26 -4v-667h-55v566l-364 -566h-60v670q7 1 13 1q42 0 42 -51v-533zM236 830q9 -32 32 -48.5t57 -16.5t57 16.5t32 47.5t33 31q19 0 27 -5q-2 -11 -4 -19t-4 -15.5t-5 -17.5q-14 -39 -50.5 -61t-85.5 -22q-101 0 -136 79
q-9 21 -15 56q8 5 30 5q13 0 20 -7t12 -23z" />
    <glyph glyph-name="uni041A" unicode="&#x41a;" horiz-adv-x="534" 
d="M381 607q21 31 47 47.5t53 16.5q23 0 32.5 -9.5t9.5 -33.5q-34 0 -55 -12t-43 -43l-93 -131q-24 -34 -46.5 -52t-49.5 -27q41 -14 74 -59l224 -307q-16 -6 -33 -6q-23 0 -37.5 7.5t-27.5 25.5l-176 244q-27 38 -47 53t-44 19v39q63 10 121 96zM144 0h-59v670q6 1 11 1
q22 0 35 -13t13 -38v-620z" />
    <glyph glyph-name="uni041B" unicode="&#x41b;" horiz-adv-x="678" 
d="M19 32q42 1 73 25.5t53 66.5t36 93t22.5 104t13 100.5t7.5 82.5l15 165h354v-669h-59v619h-245l-17 -195q-18 -210 -76 -324.5t-152 -114.5q-34 0 -34 47h9z" />
    <glyph glyph-name="uni041C" unicode="&#x41c;" horiz-adv-x="790" 
d="M117 667q9 4 28 4q14 0 22.5 -6t18.5 -24l207 -430l209 428q9 16 19.5 24t26.5 8q20 0 29 -4l48 -667h-55l-40 576l-207 -416h-63l-196 401l-42 -561h-57z" />
    <glyph glyph-name="uni041D" unicode="&#x41d;" horiz-adv-x="649" 
d="M564 0h-59v325h-361v-325h-59v670q6 1 11 1q22 0 35 -13t13 -38v-245h361v295q6 1 11 1q22 0 35 -13t13 -38v-620z" />
    <glyph glyph-name="uni041E" unicode="&#x41e;" horiz-adv-x="696" 
d="M631 338q0 -109 -34.5 -189.5t-98.5 -122t-153 -41.5q-90 0 -152.5 43t-95 123t-32.5 186q0 105 35.5 183.5t100 119.5t153.5 41q133 0 205 -91t72 -252zM568 337q0 142 -55 217.5t-160 75.5q-110 0 -167 -75t-57 -218q0 -144 56.5 -223t163.5 -79q106 0 162.5 79
t56.5 223z" />
    <glyph glyph-name="uni041F" unicode="&#x41f;" horiz-adv-x="639" 
d="M144 619v-619h-59v669h469v-669h-59v619h-351z" />
    <glyph glyph-name="uni0420" unicode="&#x420;" horiz-adv-x="531" 
d="M491 488q0 -216 -264 -216h-83v-272h-59v668q90 8 148 8q131 0 194.5 -46.5t63.5 -141.5zM429 482q0 73 -46.5 109t-146.5 36q-57 0 -93 -4v-302h94q97 0 144.5 40t47.5 121z" />
    <glyph glyph-name="uni0421" unicode="&#x421;" horiz-adv-x="596" 
d="M528 113q28 -26 28 -37q0 -9 -10 -20q-16 -18 -47.5 -35.5t-67.5 -26.5t-76 -9q-140 0 -215 90.5t-75 256.5q0 165 77 257t219 92q55 0 102 -18t79 -50q12 -12 12 -23t-20 -34h-11q-29 35 -72 54.5t-93 19.5q-113 0 -172 -77.5t-59 -220.5q0 -142 60 -220t174 -78
q65 0 122 39q27 19 45 40z" />
    <glyph glyph-name="uni0422" unicode="&#x422;" horiz-adv-x="517" 
d="M516 669q1 -6 1 -10q0 -18 -13 -29t-36 -11h-178v-619h-59v619h-230q-1 5 -1 9q0 20 12.5 30.5t35.5 10.5h468z" />
    <glyph glyph-name="uni0423" unicode="&#x423;" horiz-adv-x="507" 
d="M108 34q33 0 55.5 23.5t49.5 89.5l32 73l-240 447q13 5 26 5q22 0 35.5 -9t27.5 -38l179 -346l148 345q12 26 25.5 36.5t31.5 10.5q8 0 13.5 -2t10.5 -4l-240 -541q-22 -49 -37 -72t-32.5 -37.5t-39 -22t-47.5 -7.5q-35 0 -59 13q-19 10 -19 24q0 15 16 36q4 -3 12 -8.5
t21 -10.5t31 -5z" />
    <glyph glyph-name="uni0424" unicode="&#x424;" horiz-adv-x="714" 
d="M388 601q83 -5 144.5 -39t94 -90t32.5 -126q0 -68 -36 -123t-97 -87.5t-138 -38.5v-97h-57v96q-85 4 -147 38.5t-95.5 91t-33.5 127.5q0 68 36.5 123t99 87.5t140.5 37.5v89q6 1 11 1q21 0 33.5 -13t12.5 -38v-39zM117 353q0 -92 56 -147t158 -62v408q-67 -4 -115 -29.5
t-73.5 -69t-25.5 -100.5zM597 344q0 91 -54.5 145.5t-154.5 62.5v-407q97 8 153 62t56 137z" />
    <glyph glyph-name="uni0425" unicode="&#x425;" horiz-adv-x="542" 
d="M268 291l-174 -291h-65l206 341l-189 324q15 6 29 6q21 0 35 -9t26 -30l136 -244l143 239q14 24 27.5 34t32.5 10q14 0 29 -6l-199 -326l210 -342q-15 -6 -28 -6q-20 0 -34 9t-27 30z" />
    <glyph glyph-name="uni0426" unicode="&#x426;" horiz-adv-x="636" 
d="M551 50h58v-194h-58v144h-466v670q6 1 11 1q22 0 35 -13t13 -38v-570h348v620q6 1 11 1q22 0 35 -13t13 -38v-570z" />
    <glyph glyph-name="uni0427" unicode="&#x427;" horiz-adv-x="610" 
d="M60 670q6 1 11 1q22 0 35 -13t13 -38v-163q0 -83 35.5 -119t114.5 -36q77 0 137 33q32 18 46 34t14 34v267q6 1 11 1q22 0 35 -13t13 -38v-620h-59v325q-89 -75 -207 -75q-98 0 -148.5 49t-50.5 143v228z" />
    <glyph glyph-name="uni0428" unicode="&#x428;" horiz-adv-x="935" 
d="M791 50v620q6 1 11 1q22 0 35 -13t13 -38v-620h-765v670q6 1 11 1q22 0 35 -13t13 -38v-570h294v620q6 1 11 1q22 0 35 -13t13 -38v-570h294z" />
    <glyph glyph-name="uni0429" unicode="&#x429;" horiz-adv-x="935" 
d="M791 50v620q6 1 11 1q22 0 35 -13t13 -38v-570h58v-194h-58v144h-765v670q6 1 11 1q22 0 35 -13t13 -38v-570h294v620q6 1 11 1q22 0 35 -13t13 -38v-570h294z" />
    <glyph glyph-name="uni042A" unicode="&#x42a;" horiz-adv-x="639" 
d="M527 209q0 72 -46 109t-133 37q-57 0 -100 -5v-301h88q97 0 144 39.5t47 120.5zM248 399q18 2 42.5 3.5t54.5 1.5q119 0 181.5 -48.5t62.5 -142.5q0 -107 -64.5 -160t-198.5 -53h-137v619h-188q-1 5 -1 9q0 20 12.5 30.5t35.5 10.5h200v-270z" />
    <glyph glyph-name="uni042B" unicode="&#x42b;" horiz-adv-x="728" 
d="M423 209q0 72 -46 109t-133 37q-57 0 -100 -5v-301h88q97 0 144 39.5t47 120.5zM85 670q6 1 11 1q22 0 35 -13t13 -38v-221q18 2 42.5 3.5t54.5 1.5q119 0 181.5 -48.5t62.5 -142.5q0 -107 -64.5 -160t-198.5 -53h-137v670zM643 0h-59v670q6 1 11 1q22 0 35 -13t13 -38
v-620z" />
    <glyph glyph-name="uni042C" unicode="&#x42c;" horiz-adv-x="541" 
d="M144 399q18 2 43.5 3.5t55.5 1.5q122 0 185 -47.5t63 -141.5q0 -108 -65.5 -161.5t-198.5 -53.5h-142v670q6 1 11 1q22 0 35 -13t13 -38v-221zM429 209q0 72 -46.5 109t-136.5 37q-59 0 -102 -5v-301h93q97 0 144.5 39.5t47.5 120.5z" />
    <glyph glyph-name="uni042D" unicode="&#x42d;" horiz-adv-x="596" 
d="M69 114q21 -24 45 -41q57 -39 121 -39q108 0 168 70t66 202h-337v51h337q-5 130 -61.5 201.5t-156.5 71.5q-57 0 -104 -20.5t-74 -53.5h-11q-19 22 -19 33t12 23q33 33 82.5 51t110.5 18q135 0 209 -92t74 -256q0 -165 -75.5 -256.5t-214.5 -91.5q-42 0 -79 9.5t-67.5 27
t-45.5 34.5q-10 11 -10 20q0 11 30 38z" />
    <glyph glyph-name="uni042E" unicode="&#x42e;" horiz-adv-x="982" 
d="M917 338q0 -82 -20 -149t-56.5 -112.5t-88 -68.5t-115.5 -23q-84 0 -143.5 40t-92.5 115.5t-36 175.5h-221v-316h-59v670q6 1 11 1q22 0 35 -13t13 -38v-254h221q8 146 82 230.5t199 84.5q86 0 147 -41.5t92.5 -119.5t31.5 -182zM854 337q0 140 -53.5 216.5t-155.5 76.5
q-106 0 -162 -75.5t-56 -217.5q0 -143 55.5 -222.5t158.5 -79.5q102 0 157.5 79.5t55.5 222.5z" />
    <glyph glyph-name="uni042F" unicode="&#x42f;" horiz-adv-x="546" 
d="M65 488q0 96 61.5 142t186.5 46q58 0 148 -8v-668h-59v293h-70q-48 0 -79.5 -22.5t-62.5 -85.5l-74 -150q-11 -23 -25 -33.5t-34 -10.5q-11 0 -26 6l105 210q21 41 41.5 62.5t47.5 33.5q-160 32 -160 185zM127 489q0 -147 190 -147h86v281q-36 4 -87 4q-102 0 -145.5 -33
t-43.5 -105z" />
    <glyph glyph-name="uni0430" unicode="&#x430;" horiz-adv-x="486" 
d="M461 0q-20 -5 -36 -5q-34 0 -54 16.5t-22 46.5q-67 -67 -162 -67q-68 0 -107.5 35.5t-39.5 101.5q0 54 32.5 91t94 56.5t136.5 19.5q12 0 23 -0.5t22 -1.5v25q0 61 -28.5 87.5t-87.5 26.5q-40 0 -76 -11t-62 -31h-9q-14 20 -14 33t26 27q25 14 64 22.5t76 8.5
q89 0 129 -39.5t40 -132.5v-204q0 -28 4 -45.5t14 -26.5t37 -11v-22zM349 252q-6 1 -12.5 1h-13.5q-109 0 -166 -31t-57 -92q0 -44 25 -68t72 -24q38 0 72.5 14t57 34t22.5 33v133z" />
    <glyph glyph-name="uni0431" unicode="&#x431;" horiz-adv-x="526" 
d="M55 269q0 163 53.5 259t159.5 121l65 15q51 11 76 43q21 -13 21 -30q0 -41 -82 -60l-67 -15q-66 -14 -104.5 -65t-52.5 -142q29 26 68 41t75 15q96 0 150 -58.5t54 -163.5q0 -116 -56.5 -180t-155.5 -64q-101 0 -152.5 71.5t-51.5 212.5zM114 253q0 -108 38 -164t110 -56
q71 0 109.5 51t38.5 145q0 83 -37.5 128t-106.5 45q-72 0 -131 -48q-9 -8 -12.5 -14.5t-5.5 -19.5q-3 -28 -3 -67z" />
    <glyph glyph-name="uni0432" unicode="&#x432;" horiz-adv-x="484" 
d="M283 473q73 0 114 -32t41 -88q0 -39 -21.5 -66.5t-63.5 -41.5q47 -12 71.5 -41t24.5 -72q0 -61 -42.5 -96.5t-118.5 -35.5h-208v473h203zM138 219v-173h148q51 0 78.5 22.5t27.5 63.5q0 45 -26.5 66t-79.5 21h-148zM138 265h133q111 0 111 87q0 36 -26 55.5t-73 19.5
h-145v-162z" />
    <glyph glyph-name="uni0433" unicode="&#x433;" horiz-adv-x="393" 
d="M138 426v-426h-58v473h296q1 -5 1 -9q0 -38 -46 -38h-193z" />
    <glyph glyph-name="uni0434" unicode="&#x434;" horiz-adv-x="523" 
d="M443 473v-426h56v-172h-55v125h-375v-125h-55v172h51q26 21 43.5 57t29 97t19.5 160l9 112h277zM203 306q-8 -100 -23.5 -157.5t-47.5 -101.5h253v379h-172z" />
    <glyph glyph-name="uni0435" unicode="&#x435;" horiz-adv-x="497" 
d="M435 57q0 -15 -26 -33.5t-61 -28.5t-73 -10q-106 0 -163 65t-57 188q0 77 26.5 131t74 83t108.5 29q87 0 135 -55t48 -150q0 -24 -3 -51h-328q2 -93 43.5 -142.5t117.5 -49.5q46 0 82 16.5t54 42.5q22 -25 22 -35zM390 268q0 165 -131 165q-64 0 -102 -43.5t-40 -121.5
h273z" />
    <glyph glyph-name="uni0436" unicode="&#x436;" horiz-adv-x="682" 
d="M317 476q52 0 52 -52v-424h-56v476h4zM541 424q32 52 83 52q19 0 27.5 -8.5t8.5 -29.5q-28 0 -44.5 -9t-32.5 -34l-58 -94q-26 -42 -68 -51q37 -11 64 -49l149 -204q-15 -6 -30 -6q-35 0 -58 33l-106 145q-19 28 -37 40.5t-43 16.5v37q26 4 45.5 17.5t35.5 38.5zM206 319
q17 -26 35.5 -39t44.5 -17v-37q-26 -5 -45.5 -18t-37.5 -39l-106 -145q-23 -33 -55 -33q-15 0 -30 6l150 203q28 39 63 49q-38 5 -67 52l-58 94q-16 24 -33 33.5t-45 9.5q0 21 8.5 29.5t27.5 8.5q52 0 84 -52z" />
    <glyph glyph-name="uni0437" unicode="&#x437;" horiz-adv-x="437" 
d="M387 123q0 -67 -50.5 -102.5t-137.5 -35.5q-44 0 -83.5 10t-63.5 27q-22 15 -22 30q0 14 20 32q23 -23 62 -37t81 -14q133 0 133 92q0 42 -26 66t-71 24h-125v47h123q41 0 66.5 22.5t25.5 58.5q0 48 -30.5 69t-93.5 21q-46 0 -81 -15.5t-53 -44.5h-9q-17 21 -17 34t13 26
q20 20 61.5 34t87.5 14q88 0 135 -35t47 -103q0 -34 -20.5 -61t-57.5 -41q42 -18 64 -48t22 -70z" />
    <glyph glyph-name="uni0438" unicode="&#x438;" horiz-adv-x="535" 
d="M383 452q10 15 19 20t24 5q20 0 29 -4v-473h-58v392l-261 -392h-56v476h4q54 0 54 -52v-340z" />
    <glyph glyph-name="uni0439" unicode="&#x439;" horiz-adv-x="535" 
d="M383 452q10 15 19 20t24 5q20 0 29 -4v-473h-58v392l-261 -392h-56v476h4q54 0 54 -52v-340zM179 630q9 -32 32 -48.5t57 -16.5t57 16.5t32 47.5t33 31q19 0 27 -5q-2 -11 -4 -19t-4 -15.5t-5 -17.5q-14 -39 -50.5 -61t-85.5 -22q-101 0 -136 79q-9 21 -15 56q8 5 30 5
q13 0 20 -7t12 -23z" />
    <glyph glyph-name="uni043A" unicode="&#x43a;" horiz-adv-x="468" 
d="M84 476q54 0 54 -52v-424h-58v476h4zM325 424q37 52 85 52q19 0 27.5 -8.5t8.5 -29.5q-27 0 -44.5 -9.5t-34.5 -33.5l-70 -97q-12 -17 -30.5 -29.5t-40.5 -18.5q41 -10 74 -52l156 -201q-15 -6 -31 -6q-18 0 -32 7.5t-29 26.5l-114 144q-21 27 -40.5 40t-44.5 17v37
q26 4 46.5 17.5t39.5 38.5z" />
    <glyph glyph-name="uni043B" unicode="&#x43b;" horiz-adv-x="531" 
d="M451 473v-473h-58v426h-180l-12 -124q-15 -158 -55.5 -235.5t-110.5 -77.5q-30 0 -30 42q44 0 72.5 30t47 99.5t30.5 196.5l11 116h285z" />
    <glyph glyph-name="uni043C" unicode="&#x43c;" horiz-adv-x="599" 
d="M97 472q8 4 28 4q24 0 36 -25l135 -285l138 284q13 26 41 26q21 0 29 -4l34 -472h-54l-27 395l-140 -282h-43l-132 269l-27 -382h-54z" />
    <glyph glyph-name="uni043D" unicode="&#x43d;" horiz-adv-x="536" 
d="M402 476q54 0 54 -52v-424h-58v223h-260v-223h-58v476h4q54 0 54 -52v-154h260v206h4z" />
    <glyph glyph-name="uni043E" unicode="&#x43e;" horiz-adv-x="535" 
d="M419 234q0 198 -150 198q-74 0 -113.5 -53t-39.5 -145q0 -97 38.5 -149t112.5 -52q75 0 113.5 51t38.5 150zM480 234q0 -116 -55.5 -182.5t-157.5 -66.5q-101 0 -156.5 65.5t-55.5 180.5q0 75 27.5 132.5t76 87.5t112.5 30q101 0 155 -66t54 -181z" />
    <glyph glyph-name="uni043F" unicode="&#x43f;" horiz-adv-x="531" 
d="M451 473v-473h-58v426h-255v-426h-58v473h371z" />
    <glyph glyph-name="uni0440" unicode="&#x440;" horiz-adv-x="530" 
d="M80 -218v691h4q53 0 53 -50q26 26 64 42t79 16q93 0 144 -62t51 -180q0 -82 -24.5 -138.5t-71 -86t-107.5 -29.5q-43 1 -71.5 12t-44 23.5t-19.5 17.5v-256h-57zM414 232q0 199 -145 199q-41 0 -74 -14t-50 -37q-8 -11 -8 -22v-267q22 -26 55.5 -42t70.5 -16
q74 0 112.5 50.5t38.5 148.5z" />
    <glyph glyph-name="uni0441" unicode="&#x441;" horiz-adv-x="455" 
d="M401 91q23 -20 23 -33q0 -10 -18 -27q-25 -22 -60.5 -34t-75.5 -12q-103 0 -159 63.5t-56 185.5q0 79 27.5 133.5t78.5 84t111 29.5q83 0 135 -43q18 -14 18 -30q0 -11 -16 -37h-9q-45 61 -126 61q-77 0 -117.5 -51.5t-40.5 -146.5q0 -96 41 -148.5t119 -52.5q53 0 94 29
q16 11 31 29z" />
    <glyph glyph-name="uni0442" unicode="&#x442;" horiz-adv-x="424" 
d="M405 473q1 -5 1 -9q0 -38 -46 -38h-119v-426h-58v426h-164q-1 5 -1 9q0 38 46 38h341z" />
    <glyph glyph-name="uni0443" unicode="&#x443;" horiz-adv-x="444" 
d="M227 -102q-17 -46 -36.5 -72.5t-46 -39.5t-61.5 -13q-37 0 -60 12q-19 10 -19 24q0 16 18 39q27 -27 64 -27q31 0 50.5 21t41.5 81l29 77h-28l-164 471q13 5 27 5q19 0 31.5 -11t23.5 -44l123 -374l130 379q17 50 54 50q11 0 25 -6z" />
    <glyph glyph-name="uni0444" unicode="&#x444;" horiz-adv-x="653" 
d="M298 -218v203q-114 2 -178.5 67t-64.5 176q0 108 66 175.5t177 71.5v199q6 1 10 1q22 0 34.5 -13t12.5 -38v-149q114 -2 178.5 -67t64.5 -177t-64.5 -177.5t-178.5 -68.5v-203h-57zM537 231q0 91 -47.5 143.5t-134.5 54.5v-398q86 3 134 56t48 144zM116 231
q0 -89 48 -143t134 -57v398q-57 -2 -98 -28t-62.5 -70.5t-21.5 -99.5z" />
    <glyph glyph-name="uni0445" unicode="&#x445;" horiz-adv-x="418" 
d="M209 278l117 170q10 16 21.5 22t28.5 6q13 0 27 -6l-163 -236l158 -237q-14 -6 -26 -6q-18 0 -31 7.5t-24 23.5l-111 167l-108 -165q-13 -20 -24.5 -26.5t-30.5 -6.5q-16 0 -28 5l160 239l-155 236q12 5 28 5q20 0 30 -5.5t23 -25.5z" />
    <glyph glyph-name="uni0446" unicode="&#x446;" horiz-adv-x="518" 
d="M384 476q54 0 54 -52v-377h56v-182h-55v135h-359v476h4q54 0 54 -52v-377h242v429h4z" />
    <glyph glyph-name="uni0447" unicode="&#x447;" horiz-adv-x="496" 
d="M358 0v222q-27 -25 -66 -38.5t-85 -13.5q-79 0 -115.5 42t-36.5 133v131h4q54 0 54 -52v-80q0 -72 25 -99.5t84 -27.5q48 0 92 20t44 44v195h4q54 0 54 -52v-424h-58z" />
    <glyph glyph-name="uni0448" unicode="&#x448;" horiz-adv-x="754" 
d="M674 0h-594v476h4q54 0 54 -52v-377h210v429h4q54 0 54 -52v-377h210v427h4q54 0 54 -52v-422z" />
    <glyph glyph-name="uni0449" unicode="&#x449;" horiz-adv-x="754" 
d="M674 47h56v-182h-55v135h-595v476h4q54 0 54 -52v-377h210v429h4q54 0 54 -52v-377h210v427h4q54 0 54 -52v-375z" />
    <glyph glyph-name="uni044A" unicode="&#x44a;" horiz-adv-x="536" 
d="M204 278q59 6 102 6q190 0 190 -143q0 -62 -43.5 -101.5t-117.5 -39.5h-189v426h-129q-1 5 -1 9q0 38 46 38h142v-195zM204 47h129q49 0 77.5 25.5t28.5 68.5q0 96 -131 96q-48 0 -104 -6v-184z" />
    <glyph glyph-name="uni044B" unicode="&#x44b;" horiz-adv-x="637" 
d="M138 278q59 6 98 6q179 0 179 -143q0 -62 -43.5 -101.5t-117.5 -39.5h-174v476h4q54 0 54 -52v-146zM499 0v476h4q54 0 54 -52v-424h-58zM138 47h114q49 0 77.5 25.5t28.5 68.5q0 48 -29.5 72t-90.5 24q-44 0 -100 -6v-184z" />
    <glyph glyph-name="uni044C" unicode="&#x44c;" horiz-adv-x="480" 
d="M84 476q54 0 54 -52v-146q59 6 105 6q197 0 197 -143q0 -62 -43.5 -101.5t-117.5 -39.5h-199v476h4zM383 141q0 96 -138 96q-51 0 -107 -6v-184h139q49 0 77.5 25.5t28.5 68.5z" />
    <glyph glyph-name="uni044D" unicode="&#x44d;" horiz-adv-x="455" 
d="M54 91q15 -18 31 -29q41 -29 94 -29q75 0 116 46.5t44 135.5h-230v47h230q-6 82 -45 126t-108 44q-87 0 -131 -60h-9q-6 10 -11 18.5t-5 16.5q0 17 18 31q57 43 140 43q63 0 112.5 -29.5t74.5 -83.5t25 -131q0 -82 -25.5 -138t-75 -85t-114.5 -29q-41 0 -77 12t-60 33
q-18 17 -18 27q0 13 24 34z" />
    <glyph glyph-name="uni044E" unicode="&#x44e;" horiz-adv-x="733" 
d="M678 234q0 -76 -25.5 -133t-71.5 -86.5t-110 -29.5q-94 0 -147.5 62.5t-56.5 171.5h-129v-219h-58v476h4q54 0 54 -52v-158h130q10 98 65.5 156.5t141.5 58.5q65 0 110 -30.5t69 -86.5t24 -130zM617 234q0 96 -36.5 147t-107.5 51q-47 0 -79.5 -24.5t-50 -70
t-17.5 -103.5q0 -94 37.5 -147.5t107.5 -53.5q72 0 109 52t37 149z" />
    <glyph glyph-name="uni044F" unicode="&#x44f;" horiz-adv-x="480" 
d="M342 0v197h-101q-33 0 -55 -16t-36 -50l-48 -107q-8 -17 -18.5 -25t-27.5 -8q-13 0 -28 6l63 135q21 42 32.5 54.5t30.5 21.5q-48 11 -74 44.5t-26 83.5q0 41 20 72.5t56 48t85 16.5h185v-473h-58zM342 242v184h-125q-50 0 -78 -24t-28 -66q0 -46 28 -70t83 -24h120z" />
    <glyph glyph-name="uni0450" unicode="&#x450;" horiz-adv-x="497" 
d="M435 57q0 -15 -26 -33.5t-61 -28.5t-73 -10q-106 0 -163 65t-57 188q0 77 26.5 131t74 83t108.5 29q87 0 135 -55t48 -150q0 -24 -3 -51h-328q2 -93 43.5 -142.5t117.5 -49.5q46 0 82 16.5t54 42.5q22 -25 22 -35zM390 268q0 165 -131 165q-64 0 -102 -43.5t-40 -121.5
h273zM119 654q22 16 45 16q12 0 22 -6.5t22 -24.5l85 -110q-5 -4 -13.5 -6.5t-17.5 -2.5q-19 0 -33 15z" />
    <glyph glyph-name="uni0451" unicode="&#x451;" horiz-adv-x="497" 
d="M435 57q0 -15 -26 -33.5t-61 -28.5t-73 -10q-106 0 -163 65t-57 188q0 77 26.5 131t74 83t108.5 29q87 0 135 -55t48 -150q0 -24 -3 -51h-328q2 -93 43.5 -142.5t117.5 -49.5q46 0 82 16.5t54 42.5q22 -25 22 -35zM390 268q0 165 -131 165q-64 0 -102 -43.5t-40 -121.5
h273zM392 585q0 -19 -12 -31.5t-31 -12.5t-31 12.5t-12 31.5t12.5 31.5t30.5 12.5t30.5 -12.5t12.5 -31.5zM218 585q0 -19 -12 -31.5t-31 -12.5t-31 12t-12 32q0 19 12.5 31.5t30.5 12.5t30.5 -12.5t12.5 -31.5z" />
    <glyph glyph-name="uni0452" unicode="&#x452;" horiz-adv-x="520" 
d="M404 274q0 49 -9 75q-19 64 -109 64q-37 0 -72 -12t-56 -29t-21 -32v-340h-57v568h-64v47h64v94q6 1 10 1q22 0 34.5 -12.5t12.5 -37.5v-45h197v-47h-197v-167q29 30 72.5 47t95.5 17q61 0 100 -27t49 -75q8 -32 8 -89v-332q0 -55 -11 -88q-13 -39 -42 -60t-69 -21
q-19 0 -28 9.5t-9 35.5q45 0 67.5 16.5t30.5 55.5q3 18 3 40v344z" />
    <glyph glyph-name="uni0453" unicode="&#x453;" horiz-adv-x="393" 
d="M138 426v-426h-58v473h296q1 -5 1 -9q0 -38 -46 -38h-193zM261 535q-14 -15 -33 -15q-8 0 -17.5 3t-13.5 6l85 110q16 21 24.5 26t19.5 5q23 0 45 -16z" />
    <glyph glyph-name="uni0454" unicode="&#x454;" horiz-adv-x="455" 
d="M401 91q23 -20 23 -33q0 -10 -18 -27q-25 -22 -60.5 -34t-75.5 -12q-103 0 -159 63.5t-56 185.5q0 79 27.5 133.5t78.5 84t111 29.5q83 0 135 -43q18 -14 18 -30q0 -11 -16 -37h-9q-45 61 -126 61q-70 0 -110.5 -43.5t-47.5 -124.5h230v-47h-231q4 -89 45 -136.5
t116 -47.5q53 0 94 29q16 11 31 29z" />
    <glyph glyph-name="uni0455" unicode="&#x455;" horiz-adv-x="396" 
d="M194 433q-44 0 -72.5 -21.5t-28.5 -57.5q0 -19 9.5 -34t31 -27t73.5 -27q62 -18 89.5 -36t41 -44t13.5 -61q0 -63 -45.5 -101.5t-117.5 -38.5q-43 0 -82.5 10t-60.5 24q-15 11 -15 23q0 7 4.5 15t15.5 23q24 -20 61 -34.5t75 -14.5q49 0 79 24t30 67q0 17 -5.5 31t-17 26
t-31.5 21t-67 22q-57 15 -84 32t-40 41.5t-13 58.5q0 56 45 91.5t111 35.5q41 0 75 -11t56 -30q19 -14 19 -29q0 -8 -4.5 -17.5t-10.5 -20.5h-9q-45 60 -125 60z" />
    <glyph glyph-name="uni0456" unicode="&#x456;" horiz-adv-x="224" 
d="M148 -5q-23 0 -38 9t-22 29t-7 65v377h3q54 0 54 -52v-328q0 -25 4 -41t14.5 -23.5t32.5 -9.5v-21q-19 -5 -41 -5zM150 596q0 -19 -12.5 -32.5t-30.5 -13.5t-30.5 13.5t-12.5 32.5t12.5 32.5t30.5 13.5t30.5 -13.5t12.5 -32.5z" />
    <glyph glyph-name="uni0457" unicode="&#x457;" horiz-adv-x="224" 
d="M148 -5q-23 0 -38 9t-22 29t-7 65v377h3q54 0 54 -52v-328q0 -25 4 -41t14.5 -23.5t32.5 -9.5v-21q-19 -5 -41 -5zM239 585q0 -19 -12 -31.5t-31 -12.5t-31 12.5t-12 31.5t12.5 31.5t30.5 12.5t30.5 -12.5t12.5 -31.5zM65 585q0 -19 -12 -31.5t-31 -12.5t-31 12t-12 32
q0 19 12.5 31.5t30.5 12.5t30.5 -12.5t12.5 -31.5z" />
    <glyph glyph-name="uni0458" unicode="&#x458;" horiz-adv-x="218" 
d="M150 596q0 -19 -12.5 -32.5t-30.5 -13.5t-30.5 13.5t-12.5 32.5t12.5 32.5t30.5 13.5t30.5 -13.5t12.5 -32.5zM138 -57q0 -56 -11 -89q-13 -39 -42 -60t-69 -21q-19 0 -28 9.5t-9 35.5q46 0 69 17t29 55q4 17 4 43v542h3q54 0 54 -52v-480z" />
    <glyph glyph-name="uni0459" unicode="&#x459;" horiz-adv-x="732" 
d="M421 47h108q49 0 77.5 25t28.5 68q0 48 -30 72.5t-87 24.5q-41 0 -97 -6v-184zM421 278q59 6 95 6q176 0 176 -144q0 -62 -43.5 -101t-117.5 -39h-168v426h-150l-12 -124q-15 -158 -55.5 -235.5t-110.5 -77.5q-30 0 -30 42q44 0 72.5 30t47 99.5t30.5 196.5l11 116h255
v-195z" />
    <glyph glyph-name="uni045A" unicode="&#x45a;" horiz-adv-x="723" 
d="M412 274q59 6 95 6q176 0 176 -142q0 -41 -20 -72.5t-56 -48.5t-85 -17h-168v228h-216v-228h-58v476h4q54 0 54 -52v-149h216v201h4q54 0 54 -52v-150zM412 47h108q50 0 78 24.5t28 66.5q0 95 -117 95q-41 0 -97 -6v-180z" />
    <glyph glyph-name="uni045B" unicode="&#x45b;" horiz-adv-x="542" 
d="M137 615h197v-47h-197v-167q29 30 72.5 47t95.5 17q61 0 100 -27t49 -75q8 -32 8 -89v-274h-58v274q0 49 -9 75q-19 64 -109 64q-37 0 -72 -12t-56 -29t-21 -32v-340h-57v568h-64v47h64v94q6 1 10 1q22 0 34.5 -12.5t12.5 -37.5v-45z" />
    <glyph glyph-name="uni045C" unicode="&#x45c;" horiz-adv-x="468" 
d="M84 476q54 0 54 -52v-424h-58v476h4zM325 424q37 52 85 52q19 0 27.5 -8.5t8.5 -29.5q-27 0 -44.5 -9.5t-34.5 -33.5l-70 -97q-12 -17 -30.5 -29.5t-40.5 -18.5q41 -10 74 -52l156 -201q-15 -6 -31 -6q-18 0 -32 7.5t-29 26.5l-114 144q-21 27 -40.5 40t-44.5 17v37
q26 4 46.5 17.5t39.5 38.5zM290 535q-14 -15 -33 -15q-8 0 -17.5 3t-13.5 6l85 110q16 21 24.5 26t19.5 5q23 0 45 -16z" />
    <glyph glyph-name="uni045D" unicode="&#x45d;" horiz-adv-x="535" 
d="M383 452q10 15 19 20t24 5q20 0 29 -4v-473h-58v392l-261 -392h-56v476h4q54 0 54 -52v-340zM124 654q22 16 45 16q12 0 22 -6.5t22 -24.5l85 -110q-5 -4 -13.5 -6.5t-17.5 -2.5q-19 0 -33 15z" />
    <glyph glyph-name="uni045E" unicode="&#x45e;" horiz-adv-x="444" 
d="M227 -102q-17 -46 -36.5 -72.5t-46 -39.5t-61.5 -13q-37 0 -60 12q-19 10 -19 24q0 16 18 39q27 -27 64 -27q31 0 50.5 21t41.5 81l29 77h-28l-164 471q13 5 27 5q19 0 31.5 -11t23.5 -44l123 -374l130 379q17 50 54 50q11 0 25 -6zM132 630q9 -32 32 -48.5t57 -16.5
t57 16.5t32 47.5t33 31q19 0 27 -5q-2 -11 -4 -19t-4 -15.5t-5 -17.5q-14 -39 -50.5 -61t-85.5 -22q-101 0 -136 79q-9 21 -15 56q8 5 30 5q13 0 20 -7t12 -23z" />
    <glyph glyph-name="uni045F" unicode="&#x45f;" horiz-adv-x="523" 
d="M389 476q54 0 54 -52v-424h-154v-138h-55v138h-154v476h4q54 0 54 -52v-377h247v429h4z" />
    <glyph glyph-name="uni0462" unicode="&#x462;" horiz-adv-x="637" 
d="M240 532v-141q18 2 43.5 3.5t55.5 1.5q120 0 184 -48t64 -139q0 -209 -264 -209h-142v532h-180q-1 5 -1 9q0 20 12.5 30.5t35.5 10.5h133v108q6 1 11 1q22 0 35 -13t13 -38v-58h240q1 -6 1 -10q0 -18 -13 -29t-36 -11h-192zM525 205q0 69 -47.5 105.5t-135.5 36.5
q-59 0 -102 -5v-293h93q192 0 192 156z" />
    <glyph glyph-name="uni0463" unicode="&#x463;" horiz-adv-x="546" 
d="M146 473v236q6 1 10 1q23 0 35.5 -13t12.5 -37v-187h239q1 -5 1 -9q0 -38 -46 -38h-194v-148q59 6 105 6q197 0 197 -143q0 -62 -43.5 -101.5t-117.5 -39.5h-199v426h-129q-1 5 -1 9q0 38 46 38h84zM449 141q0 96 -138 96q-51 0 -107 -6v-184h139q49 0 77.5 25.5
t28.5 68.5z" />
    <glyph glyph-name="uni0472" unicode="&#x472;" horiz-adv-x="696" 
d="M631 338q0 -109 -34.5 -189.5t-98.5 -122t-153 -41.5q-90 0 -152.5 43t-95 123t-32.5 186q0 105 35.5 183.5t100 119.5t153.5 41q133 0 205 -91t72 -252zM349 35q101 0 157 71.5t61 204.5h-438q4 -89 30.5 -151t74.5 -93.5t115 -31.5zM353 630q-105 0 -162 -68t-62 -200
h438q-3 86 -28.5 146.5t-72.5 91t-113 30.5z" />
    <glyph glyph-name="uni0473" unicode="&#x473;" horiz-adv-x="535" 
d="M480 234q0 -116 -55.5 -182.5t-157.5 -66.5q-101 0 -156.5 65.5t-55.5 180.5q0 75 27.5 132.5t76 87.5t112.5 30q101 0 155 -66t54 -181zM267 33q72 0 110 46t42 134h-304q5 -87 43.5 -133.5t108.5 -46.5zM269 432q-68 0 -107.5 -45t-45.5 -127h303q-10 172 -150 172z
" />
    <glyph glyph-name="uni0474" unicode="&#x474;" horiz-adv-x="648" 
d="M312 -5h-61l-241 673q5 1 11.5 2t14.5 1q41 0 56 -47l191 -570l163 510q6 20 13.5 39.5t20.5 35.5t34 25.5t54 9.5q18 0 37 -6t30 -16q13 -10 13 -22q0 -9 -7 -19l-11 -15h-9q-21 28 -50 28q-27 0 -40.5 -13.5t-28.5 -57.5z" />
    <glyph glyph-name="uni0475" unicode="&#x475;" horiz-adv-x="512" 
d="M323 375q19 61 45 83.5t66 22.5q41 0 63 -21q10 -9 10 -20q0 -7 -7 -18l-9 -13h-8q-10 14 -20.5 20t-23.5 6q-20 0 -32 -12.5t-27 -53.5l-131 -373h-60l-174 475q15 5 27 5q20 0 32.5 -11t22.5 -41l123 -371z" />
    <glyph glyph-name="uni048A" unicode="&#x48a;" horiz-adv-x="649" 
d="M509 0v566l-364 -566h-60v670q7 1 13 1q42 0 42 -51v-533l357 558q10 15 18.5 20.5t22.5 5.5q17 0 26 -4v-617h58q-6 -50 -35 -105t-69 -93l-42 34q23 23 43.5 55.5t29.5 58.5h-40zM236 830q9 -32 32 -48.5t57 -16.5t57 16.5t32 47.5t33 31q19 0 27 -5q-2 -11 -4 -19
t-4 -15.5t-5 -17.5q-14 -39 -50.5 -61t-85.5 -22q-101 0 -136 79q-9 21 -15 56q8 5 30 5q13 0 20 -7t12 -23z" />
    <glyph glyph-name="uni048B" unicode="&#x48b;" horiz-adv-x="535" 
d="M507 50q-6 -48 -33.5 -100t-64.5 -87l-40 32q23 23 42 52.5t27 52.5h-41v392l-261 -392h-56v476h4q54 0 54 -52v-340l245 368q10 15 19 20t24 5q20 0 29 -4v-423h52zM179 630q9 -32 32 -48.5t57 -16.5t57 16.5t32 47.5t33 31q19 0 27 -5q-2 -11 -4 -19t-4 -15.5t-5 -17.5
q-14 -39 -50.5 -61t-85.5 -22q-101 0 -136 79q-9 21 -15 56q8 5 30 5q13 0 20 -7t12 -23z" />
    <glyph glyph-name="uni048C" unicode="&#x48c;" horiz-adv-x="571" 
d="M180 567h143v-50h-143v-118q18 2 42.5 3.5t54.5 1.5q119 0 181.5 -48.5t62.5 -142.5q0 -107 -64.5 -160t-198.5 -53h-137v517h-102v50h102v103q6 1 11 1q22 0 35 -13t13 -38v-53zM459 209q0 72 -46 109t-133 37q-57 0 -100 -5v-301h88q97 0 144 39.5t47 120.5z" />
    <glyph glyph-name="uni048D" unicode="&#x48d;" horiz-adv-x="480" 
d="M80 404v72h4q54 0 54 -52v-20h145v-47h-145v-79q59 6 105 6q197 0 197 -143q0 -62 -43.5 -101.5t-117.5 -39.5h-199v357h-64v47h64zM383 141q0 96 -138 96q-51 0 -107 -6v-184h139q49 0 77.5 25.5t28.5 68.5z" />
    <glyph glyph-name="uni048E" unicode="&#x48e;" horiz-adv-x="531" 
d="M491 488q0 -147 -120 -194l56 -96l-43 -26l-63 108q-39 -8 -94 -8h-83v-272h-59v668q90 8 148 8q131 0 194.5 -46.5t63.5 -141.5zM345 339q84 36 84 143q0 73 -46.5 109t-146.5 36q-57 0 -93 -4v-302h94q34 0 58 4l-47 83l43 24z" />
    <glyph glyph-name="uni048F" unicode="&#x48f;" horiz-adv-x="530" 
d="M80 -218v691h4q53 0 53 -50q26 26 64 42t79 16q93 0 144 -62t51 -180q0 -83 -26 -141t-75 -87l45 -85l-42 -23l-47 90q-25 -8 -58 -8q-43 1 -71.5 12t-44 23.5t-19.5 17.5v-256h-57zM349 58q65 46 65 174q0 199 -145 199q-41 0 -74 -14t-50 -37q-8 -11 -8 -22v-267
q22 -26 55.5 -42t70.5 -16q27 0 43 5l-47 90l42 22z" />
    <glyph glyph-name="uni0490" unicode="&#x490;" horiz-adv-x="453" 
d="M448 619h-304v-619h-59v669h310v119q6 1 11 1q19 0 30.5 -13.5t11.5 -37.5v-119z" />
    <glyph glyph-name="uni0491" unicode="&#x491;" horiz-adv-x="398" 
d="M374 426h-236v-426h-58v473h240v109h4q50 0 50 -52v-104z" />
    <glyph glyph-name="uni0492" unicode="&#x492;" horiz-adv-x="453" 
d="M19 357h66v312h368q0 -23 -12.5 -36.5t-35.5 -13.5h-261v-262h183v-50h-183v-307h-59v307h-66v50z" />
    <glyph glyph-name="uni0493" unicode="&#x493;" horiz-adv-x="401" 
d="M146 213v-213h-58v213h-64v47h64v213h296q1 -5 1 -9q0 -38 -46 -38h-193v-166h137v-47h-137z" />
    <glyph glyph-name="uni0494" unicode="&#x494;" horiz-adv-x="545" 
d="M261 -155q172 0 172 260q0 118 -46.5 179.5t-136.5 61.5q-63 0 -106 -5v-341h-59v669h325q1 -6 1 -10q0 -18 -13 -29t-36 -11h-218v-229q60 5 103 5q122 0 185 -73t63 -211q0 -151 -58 -232t-167 -81q-43 0 -43 31q0 7 2 17q13 -1 32 -1z" />
    <glyph glyph-name="uni0495" unicode="&#x495;" horiz-adv-x="488" 
d="M138 0h-58v473h296q1 -5 1 -9q0 -38 -46 -38h-193v-137q42 4 90 4q108 0 164 -60.5t56 -174.5q0 -122 -52.5 -191t-147.5 -69q-38 0 -38 30q0 8 2 17q11 -1 28 -1q75 0 111 50.5t36 158.5q0 97 -39 144.5t-118 47.5q-46 0 -92 -4v-241z" />
    <glyph glyph-name="uni0496" unicode="&#x496;" horiz-adv-x="845" 
d="M652 607q41 64 96 64q23 0 32.5 -9.5t9.5 -33.5q-22 0 -37.5 -4.5t-28.5 -16t-28 -34.5l-86 -131q-25 -38 -44.5 -54.5t-44.5 -24.5q18 -6 32 -17t35 -42l177 -254h53v-194h-58v135q-19 2 -31 9.5t-23 23.5l-168 244q-30 43 -46 55.5t-38 16.5v39q30 5 57.5 27.5
t56.5 68.5zM233 475q30 -47 56 -69t56 -27v-39q-24 -4 -43.5 -19t-45.5 -53l-167 -244q-13 -19 -25 -26t-34 -7q-13 0 -30 6l213 306q9 14 18 25t20 19.5t27 14.5q-24 8 -42.5 23.5t-45.5 56.5l-87 131q-22 33 -41 44t-52 11q0 24 9.5 33.5t32.5 9.5q27 0 52 -16.5t45 -47.5
zM429 0h-59v670q6 1 11 1q22 0 35 -13t13 -38v-620z" />
    <glyph glyph-name="uni0497" unicode="&#x497;" horiz-adv-x="711" 
d="M541 423q32 52 83 52q19 0 27.5 -8.5t8.5 -29.5q-28 0 -44.5 -9t-32.5 -34l-58 -93q-26 -42 -68 -51q37 -11 64 -49l112 -154h54v-182h-55v127q-29 3 -50 32l-106 145q-19 28 -37 40.5t-43 16.5v37q26 4 45.5 17.5t35.5 38.5zM206 319q17 -26 35.5 -39t44.5 -17v-37
q-26 -5 -45.5 -18t-37.5 -39l-106 -145q-23 -33 -55 -33q-15 0 -30 6l150 203q28 39 63 49q-38 5 -67 52l-58 93q-16 24 -33 33.5t-45 9.5q0 21 8.5 29.5t27.5 8.5q52 0 84 -52zM317 476q52 0 52 -52v-424h-56v476h4z" />
    <glyph glyph-name="uni0498" unicode="&#x498;" horiz-adv-x="501" 
d="M451 185q0 -92 -59.5 -146t-166.5 -54q-57 0 -105 16t-77 43q-13 11 -13 24q0 7 6.5 19t17.5 24q17 -21 45 -39t60 -27t67 -9q75 0 119 39t44 111q0 46 -20 77.5t-58 48t-83 16.5h-108v50h108q42 0 76 16.5t51.5 46t17.5 71.5q0 55 -37.5 86.5t-101.5 31.5q-37 0 -65 -9
t-47.5 -22t-32 -25t-18.5 -18h-11q-19 21 -19 34q0 11 11 22q5 5 18.5 16t36 23t55 21t74.5 9q91 0 144.5 -45.5t53.5 -118.5q0 -58 -32 -99t-88 -61q39 -8 71.5 -32t49 -59.5t16.5 -80.5zM302 -124q0 -36 -25.5 -60t-60.5 -24q-27 0 -27 23q0 5 0.5 11t2.5 11q5 -1 10 -1
h10q42 0 42 32q0 12 -6 20t-14.5 15.5t-14.5 16.5t-6 23q0 16 11 35.5t27 34.5l31 -13q-7 -7 -14.5 -16t-8.5 -20q0 -10 6.5 -18t15 -17t15 -21.5t6.5 -31.5z" />
    <glyph glyph-name="uni0499" unicode="&#x499;" horiz-adv-x="437" 
d="M387 123q0 -67 -50.5 -102.5t-137.5 -35.5q-44 0 -83.5 10t-63.5 27q-22 15 -22 30q0 14 20 32q23 -23 62 -37t81 -14q133 0 133 92q0 42 -26 66t-71 24h-125v47h123q41 0 66.5 22.5t25.5 58.5q0 48 -30.5 69t-93.5 21q-46 0 -81 -15.5t-53 -44.5h-9q-17 21 -17 34t13 26
q20 20 61.5 34t87.5 14q88 0 135 -35t47 -103q0 -34 -20.5 -61t-57.5 -41q42 -18 64 -48t22 -70zM262 -124q0 -36 -25.5 -60t-60.5 -24q-27 0 -27 23q0 5 0.5 11t2.5 11q5 -1 10 -1h10q42 0 42 32q0 12 -6 20t-14.5 15.5t-14.5 16.5t-6 23q0 27 26 57h43q-7 -7 -14.5 -16
t-8.5 -20q0 -10 6.5 -18t15 -17t15 -21.5t6.5 -31.5z" />
    <glyph glyph-name="uni049A" unicode="&#x49a;" horiz-adv-x="577" 
d="M381 607q21 31 47 47.5t53 16.5q23 0 32.5 -9.5t9.5 -33.5q-34 0 -55 -12t-43 -43l-93 -131q-24 -34 -46.5 -52t-49.5 -27q41 -14 74 -59l185 -254h55v-194h-58v135q-19 2 -31.5 9.5t-24.5 23.5l-176 244q-27 38 -47 53t-44 19v39q63 10 121 96zM144 0h-59v670q6 1 11 1
q22 0 35 -13t13 -38v-620z" />
    <glyph glyph-name="uni049B" unicode="&#x49b;" horiz-adv-x="495" 
d="M325 424q37 52 85 52q19 0 27.5 -8.5t8.5 -29.5q-27 0 -44.5 -9.5t-34.5 -33.5l-70 -97q-12 -17 -30.5 -29.5t-40.5 -18.5q41 -10 74 -52l117 -151h54v-182h-55v127q-15 1 -27 8.5t-25 24.5l-114 144q-21 27 -40.5 40t-44.5 17v37q26 4 46.5 17.5t39.5 38.5zM84 476
q54 0 54 -52v-424h-58v476h4z" />
    <glyph glyph-name="uni049C" unicode="&#x49c;" horiz-adv-x="574" 
d="M267 524v-120q42 25 71 71l83 132q19 30 45.5 47t54.5 17q23 0 32.5 -9.5t9.5 -33.5q-35 0 -56.5 -12t-41.5 -43l-85 -131q-19 -29 -44.5 -48.5t-61.5 -30.5q30 -10 49.5 -24t34.5 -35l216 -307q-16 -6 -33 -6q-24 0 -38.5 7.5t-26.5 25.5l-168 244q-20 30 -41 46v-119
h-47v140q-28 4 -51 4v41q21 0 51 6v138h47zM144 0h-59v670q6 1 11 1q22 0 35 -13t13 -38v-620z" />
    <glyph glyph-name="uni049D" unicode="&#x49d;" horiz-adv-x="481" 
d="M243 289q16 10 28 30l67 104q38 52 85 52q19 0 27.5 -8.5t8.5 -29.5q-26 0 -43 -9t-36 -34l-63 -96q-23 -36 -68 -48q23 -6 39 -17.5t32 -34.5l149 -201q-15 -6 -31 -6q-18 0 -32 7.5t-29 26.5l-107 144q-12 15 -27 28v-100h-45v122q-11 3 -33 7v37q18 2 33 6v107h45v-87
zM84 476q54 0 54 -52v-424h-58v476h4z" />
    <glyph glyph-name="uni049E" unicode="&#x49e;" horiz-adv-x="534" 
d="M381 607q21 31 47 47.5t53 16.5q23 0 32.5 -9.5t9.5 -33.5q-34 0 -55 -12t-43 -43l-93 -131q-24 -34 -46.5 -52t-49.5 -27q41 -14 74 -59l224 -307q-16 -6 -33 -6q-23 0 -37.5 7.5t-27.5 25.5l-176 244q-27 38 -47 53t-44 19v39q63 10 121 96zM144 512v-512h-59v512h-66
v48h66v110q6 1 11 1q22 0 35 -13t13 -38v-60h93v-48h-93z" />
    <glyph glyph-name="uni049F" unicode="&#x49f;" horiz-adv-x="468" 
d="M325 424q37 52 85 52q19 0 27.5 -8.5t8.5 -29.5q-27 0 -44.5 -9.5t-34.5 -33.5l-70 -97q-12 -17 -30.5 -29.5t-40.5 -18.5q41 -10 74 -52l156 -201q-15 -6 -31 -6q-18 0 -32 7.5t-29 26.5l-114 144q-21 27 -40.5 40t-44.5 17v37q26 4 46.5 17.5t39.5 38.5zM84 476
q54 0 54 -52v-23h70v-44h-70v-357h-58v357h-64v44h64v75h4z" />
    <glyph glyph-name="uni04A0" unicode="&#x4a0;" horiz-adv-x="650" 
d="M497 607q21 31 47 47.5t53 16.5q23 0 32.5 -9.5t9.5 -33.5q-34 0 -55 -12t-43 -43l-93 -131q-24 -34 -46.5 -52t-49.5 -27q41 -14 74 -59l224 -307q-16 -6 -33 -6q-23 0 -37.5 7.5t-27.5 25.5l-176 244q-27 38 -47 53t-44 19v39q63 10 121 96zM260 669v-669h-59v619h-200
q-1 5 -1 9q0 20 12.5 30.5t35.5 10.5h212z" />
    <glyph glyph-name="uni04A1" unicode="&#x4a1;" horiz-adv-x="534" 
d="M204 0h-58v426h-129q-1 5 -1 9q0 38 46 38h142v-473zM391 424q37 52 85 52q19 0 27.5 -8.5t8.5 -29.5q-27 0 -44.5 -9.5t-34.5 -33.5l-70 -97q-12 -17 -30.5 -29.5t-40.5 -18.5q41 -10 74 -52l156 -201q-15 -6 -31 -6q-18 0 -32 7.5t-29 26.5l-114 144q-21 27 -40.5 40
t-44.5 17v37q26 4 46.5 17.5t39.5 38.5z" />
    <glyph glyph-name="uni04A2" unicode="&#x4a2;" horiz-adv-x="649" 
d="M564 50h58v-194h-58v144h-59v325h-361v-325h-59v670q6 1 11 1q22 0 35 -13t13 -38v-245h361v295q6 1 11 1q22 0 35 -13t13 -38v-570z" />
    <glyph glyph-name="uni04A3" unicode="&#x4a3;" horiz-adv-x="536" 
d="M402 476q54 0 54 -52v-377h56v-182h-55v135h-59v223h-260v-223h-58v476h4q54 0 54 -52v-154h260v206h4z" />
    <glyph glyph-name="uni04A4" unicode="&#x4a4;" horiz-adv-x="765" 
d="M764 669q1 -5 1 -9q0 -20 -12.5 -30.5t-35.5 -10.5h-153v-619h-59v325h-361v-325h-59v670q6 1 11 1q22 0 35 -13t13 -38v-245h361v294h259z" />
    <glyph glyph-name="uni04A5" unicode="&#x4a5;" horiz-adv-x="602" 
d="M585 473q1 -5 1 -9q0 -38 -46 -38h-84v-426h-58v223h-260v-223h-58v476h4q54 0 54 -52v-154h260v203h187z" />
    <glyph glyph-name="uni04A6" unicode="&#x4a6;" horiz-adv-x="922" 
d="M521 0h-59v619h-318v-619h-59v669h436v-279q60 5 103 5q122 0 185 -73t63 -211q0 -151 -58 -232t-167 -81q-43 0 -43 31q0 7 2 17q13 -1 32 -1q172 0 172 260q0 118 -46.5 179.5t-136.5 61.5q-63 0 -106 -5v-341z" />
    <glyph glyph-name="uni04A7" unicode="&#x4a7;" horiz-adv-x="796" 
d="M446 0h-58v426h-250v-426h-58v473h366v-184q42 4 90 4q108 0 164 -60.5t56 -174.5q0 -122 -52.5 -191t-147.5 -69q-38 0 -38 30q0 8 2 17q11 -1 28 -1q75 0 111 50.5t36 158.5q0 97 -39 144.5t-118 47.5q-46 0 -92 -4v-241z" />
    <glyph glyph-name="uni04A8" unicode="&#x4a8;" horiz-adv-x="676" 
d="M669 -25q0 -9 -5 -15t-17 -11q-14 -6 -39.5 -9.5t-46.5 -3.5q-99 0 -167 56q-28 -7 -60 -7q-128 0 -198.5 92t-70.5 255q0 165 77 257t219 92q54 0 101.5 -17t76.5 -44q16 -14 16 -26q0 -7 -4 -13.5t-16 -19.5h-11q-30 33 -72.5 51t-93.5 18q-113 0 -172 -77.5
t-59 -220.5q0 -94 25.5 -162.5t73 -103.5t114.5 -35h17q-33 44 -50.5 105.5t-17.5 130.5q0 72 19 122t56 75.5t87 25.5q79 0 120 -55.5t40 -163.5q-1 -60 -20.5 -110.5t-55 -88.5t-82.5 -60q47 -26 116 -26q23 0 47.5 5.5t41.5 13.5q11 -22 11 -30zM348 269q0 -158 65 -226
q65 23 101.5 84t36.5 146q0 56 -10 93t-31 55t-59 18q-103 0 -103 -170z" />
    <glyph glyph-name="uni04A9" unicode="&#x4a9;" horiz-adv-x="501" 
d="M491 -21q0 -17 -29 -26q-24 -7 -66 -7q-62 0 -107 43q-24 -4 -38 -4q-60 0 -105 29.5t-68 84.5t-23 135q0 79 27.5 133.5t78 84t108.5 29.5q43 0 78.5 -10.5t58.5 -29.5q18 -14 18 -30q0 -8 -5 -16t-11 -18h-9q-41 56 -128 56q-74 0 -115 -53t-41 -146q0 -99 35 -151.5
t102 -52.5h5q-18 30 -27.5 66t-9.5 73q0 76 31.5 118t86.5 42q49 0 78.5 -38t29.5 -104q0 -58 -29 -107t-77 -74q23 -14 55 -16q34 0 53 4t33 12q10 -18 10 -27zM274 169q0 -78 34 -129q39 15 60.5 52.5t21.5 91.5q0 100 -53 100q-63 0 -63 -115z" />
    <glyph glyph-name="uni04AA" unicode="&#x4aa;" horiz-adv-x="596" 
d="M528 113q28 -26 28 -37q0 -9 -10 -20q-16 -18 -47.5 -35.5t-67.5 -26.5t-76 -9q-140 0 -215 90.5t-75 256.5q0 165 77 257t219 92q55 0 102 -18t79 -50q12 -12 12 -23t-20 -34h-11q-29 35 -72 54.5t-93 19.5q-113 0 -172 -77.5t-59 -220.5q0 -142 60 -220t174 -78
q65 0 122 39q27 19 45 40zM400 -124q0 -36 -25.5 -60t-60.5 -24q-27 0 -27 23q0 5 0.5 11t2.5 11q5 -1 10 -1h10q42 0 42 32q0 12 -6 20t-14.5 15.5t-14.5 16.5t-6 23q0 16 11 35.5t27 34.5l31 -13q-7 -7 -14.5 -16t-8.5 -20q0 -10 6.5 -18t15 -17t15 -21.5t6.5 -31.5z" />
    <glyph glyph-name="uni04AB" unicode="&#x4ab;" horiz-adv-x="455" 
d="M401 91q23 -20 23 -33q0 -10 -18 -27q-25 -22 -60.5 -34t-75.5 -12q-66 0 -115.5 29t-74.5 83.5t-25 133.5q0 78 28 132t79.5 83t109.5 29q83 0 135 -43q18 -14 18 -30q0 -11 -16 -37h-9q-45 61 -126 61q-76 0 -117 -51.5t-41 -143.5q0 -93 41.5 -145.5t118.5 -52.5
q53 0 94 29q16 11 31 29zM316 -124q0 -36 -25.5 -60t-60.5 -24q-27 0 -27 23q0 5 0.5 11t2.5 11q5 -1 10 -1h10q42 0 42 32q0 12 -6 20t-14.5 15.5t-14.5 16.5t-6 23q0 27 26 57h43q-7 -7 -14.5 -16t-8.5 -20q0 -10 6.5 -18t15 -17t15 -21.5t6.5 -31.5z" />
    <glyph glyph-name="uni04AC" unicode="&#x4ac;" horiz-adv-x="517" 
d="M516 669q1 -6 1 -10q0 -18 -13 -29t-36 -11h-178v-569h58v-194h-58v144h-59v619h-230q-1 5 -1 9q0 20 12.5 30.5t35.5 10.5h468z" />
    <glyph glyph-name="uni04AD" unicode="&#x4ad;" horiz-adv-x="424" 
d="M183 0v426h-164q-1 5 -1 9q0 38 46 38h341q1 -5 1 -9q0 -38 -46 -38h-119v-379h56v-182h-55v135h-59z" />
    <glyph glyph-name="uni04AE" unicode="&#x4ae;" horiz-adv-x="499" 
d="M279 288v-288h-59v287l-215 380q12 5 32 5q18 0 29 -7t21 -26l165 -291l160 288q11 19 23.5 27t30.5 8q19 0 28 -3z" />
    <glyph glyph-name="uni04AF" unicode="&#x4af;" horiz-adv-x="452" 
d="M251 -218h-57v212l-179 477q15 5 27 5q20 0 32.5 -11t22.5 -41l127 -371l135 375q10 27 22.5 37.5t30.5 10.5q11 0 25 -6l-186 -478v-210z" />
    <glyph glyph-name="uni04B0" unicode="&#x4b0;" horiz-adv-x="499" 
d="M220 257v30l-215 380q12 5 32 5q18 0 29 -7t21 -26l165 -291l160 288q11 19 23.5 27t30.5 8q19 0 28 -3l-215 -380v-31h156v-50h-156v-207h-59v207h-156v50h156z" />
    <glyph glyph-name="uni04B1" unicode="&#x4b1;" horiz-adv-x="452" 
d="M251 0v-218h-57v218h-117v46h107l-169 425q15 5 27 5q20 0 32.5 -11t22.5 -41l127 -340l135 344q10 27 22.5 37.5t30.5 10.5q11 0 25 -6l-175 -424h114v-46h-125z" />
    <glyph glyph-name="uni04B2" unicode="&#x4b2;" horiz-adv-x="558" 
d="M268 291l-174 -291h-65l206 341l-189 324q15 6 29 6q21 0 35 -9t26 -30l136 -244l143 239q14 24 27.5 34t32.5 10q14 0 29 -6l-199 -326l177 -289h49v-194h-58v136q-27 5 -47 38z" />
    <glyph glyph-name="uni04B3" unicode="&#x4b3;" horiz-adv-x="442" 
d="M209 278l117 170q10 16 21.5 22t28.5 6q13 0 27 -6l-163 -236l124 -187h54v-182h-55v127q-29 3 -46 30l-111 167l-108 -165q-13 -20 -24.5 -26.5t-30.5 -6.5q-16 0 -28 5l160 239l-155 236q12 5 28 5q20 0 30 -5.5t23 -25.5z" />
    <glyph glyph-name="uni04B4" unicode="&#x4b4;" horiz-adv-x="748" 
d="M663 50h58v-194h-58v144h-462v619h-200q-1 5 -1 9q0 20 12.5 30.5t35.5 10.5h412q1 -5 1 -9q0 -20 -12.5 -30.5t-35.5 -10.5h-153v-569h344v620q6 1 11 1q22 0 35 -13t13 -38v-570z" />
    <glyph glyph-name="uni04B5" unicode="&#x4b5;" horiz-adv-x="584" 
d="M333 473q1 -5 1 -9q0 -38 -46 -38h-84v-379h242v429h4q54 0 54 -52v-377h56v-182h-55v135h-359v426h-129q-1 5 -1 9q0 38 46 38h271z" />
    <glyph glyph-name="uni04B6" unicode="&#x4b6;" horiz-adv-x="610" 
d="M60 670q6 1 11 1q22 0 35 -13t13 -38v-163q0 -83 35.5 -119t114.5 -36q77 0 137 33q32 18 46 34t14 34v267q6 1 11 1q22 0 35 -13t13 -38v-570h58v-194h-58v144h-59v325q-89 -75 -207 -75q-98 0 -148.5 49t-50.5 143v228z" />
    <glyph glyph-name="uni04B7" unicode="&#x4b7;" horiz-adv-x="496" 
d="M472 47v-182h-55v135h-59v222q-27 -25 -66 -38.5t-85 -13.5q-79 0 -115.5 42t-36.5 133v131h4q54 0 54 -52v-80q0 -72 25 -99.5t84 -27.5q48 0 92 20t44 44v195h4q54 0 54 -52v-377h56z" />
    <glyph glyph-name="uni04B8" unicode="&#x4b8;" horiz-adv-x="614" 
d="M309 437v-133q57 7 101 31q32 18 46 34t14 34v267q6 1 11 1q22 0 35 -13t13 -38v-620h-59v325q-68 -59 -161 -72v-125h-50v122q-98 0 -148.5 49t-50.5 143v228q6 1 11 1q22 0 35 -13t13 -38v-163q0 -81 33.5 -117t106.5 -38v135h50z" />
    <glyph glyph-name="uni04B9" unicode="&#x4b9;" horiz-adv-x="500" 
d="M253 219q44 6 76.5 24t32.5 38v195h4q54 0 54 -52v-424h-58v222q-43 -39 -109 -49v-101h-46v98q-79 0 -115.5 42.5t-36.5 132.5v131h4q54 0 54 -52v-80q0 -66 22 -94.5t72 -32.5v119h46v-117z" />
    <glyph glyph-name="uni04BA" unicode="&#x4ba;" horiz-adv-x="610" 
d="M144 354q89 75 207 75q98 0 148.5 -49t50.5 -143v-237h-59v222q0 83 -35.5 119t-114.5 36q-76 0 -137 -33q-32 -18 -46 -34t-14 -34v-276h-59v670q6 1 11 1q22 0 35 -13t13 -38v-266z" />
    <glyph glyph-name="uni04BB" unicode="&#x4bb;" horiz-adv-x="542" 
d="M137 417q29 30 72.5 47t95.5 17q61 0 99.5 -27t49.5 -75q8 -37 8 -89v-290h-58v290q0 49 -9 75q-19 64 -109 64q-37 0 -72 -12t-56 -29t-21 -32v-356h-57v709q6 1 10 1q22 0 34.5 -12.5t12.5 -37.5v-243z" />
    <glyph glyph-name="uni04BC" unicode="&#x4bc;" horiz-adv-x="761" 
d="M167 369q6 97 42 168t95.5 107.5t138.5 36.5q82 0 142 -37t90.5 -106.5t30.5 -168.5q0 -24 -3 -50h-475q3 -136 61 -210.5t164 -74.5q56 0 103 21t78 58q28 -26 28 -37q0 -9 -10 -20q-15 -17 -47.5 -35t-69.5 -27t-77 -9q-94 0 -158.5 39t-98 114t-35.5 181h-12
q-135 0 -135 110q0 10 3.5 23t10.5 24t17.5 14.5t23.5 -5.5l13 -9q-9 -12 -12 -22t-3 -27q1 -58 87 -58h8zM443 630q-96 0 -151 -69t-63 -192h416q0 84 -24.5 142.5t-70.5 88.5t-107 30z" />
    <glyph glyph-name="uni04BD" unicode="&#x4bd;" horiz-adv-x="592" 
d="M151 265q5 67 33 114t73.5 71.5t101.5 24.5q87 0 135 -54.5t48 -147.5q0 -24 -3 -51h-328q2 -92 43 -140.5t118 -48.5q46 0 82 16.5t54 42.5q22 -25 22 -35q0 -15 -26 -33.5t-61 -28.5t-73 -10q-104 0 -160.5 60.5t-59.5 176.5h-13q-60 0 -88.5 23t-28.5 70q0 21 9 38
t23 17q6 0 13 -4l14 -9q-12 -18 -12 -35q0 -32 17 -44.5t58 -12.5h9zM485 265q0 162 -131 162q-64 0 -102 -43t-40 -119h273z" />
    <glyph glyph-name="uni04BE" unicode="&#x4be;" horiz-adv-x="833" 
d="M167 369q6 97 42 168t95.5 107.5t138.5 36.5q82 0 142 -37t90.5 -106.5t30.5 -168.5q0 -24 -3 -50h-475q3 -136 61 -210.5t164 -74.5q56 0 103 21t78 58q28 -26 28 -37q0 -9 -10 -20q-21 -24 -69 -45t-102 -25v-130h-59v131q-82 7 -138.5 48t-86 113t-31.5 171h-12
q-135 0 -135 110q0 10 3.5 23t10.5 24t17.5 14.5t23.5 -5.5l13 -9q-9 -12 -12 -22t-3 -27q1 -58 87 -58h8zM443 630q-96 0 -151 -69t-63 -192h416q0 84 -24.5 142.5t-70.5 88.5t-107 30z" />
    <glyph glyph-name="uni04BF" unicode="&#x4bf;" horiz-adv-x="592" 
d="M151 265q5 67 33 114t73.5 71.5t101.5 24.5q87 0 135 -54.5t48 -147.5q0 -24 -3 -51h-328q2 -92 43 -140.5t118 -48.5q46 0 82 16.5t54 42.5q22 -25 22 -35q0 -13 -22 -30t-53 -28t-65 -13v-121h-55v122q-88 10 -135.5 69.5t-49.5 165.5h-13q-60 0 -88.5 23t-28.5 70
q0 21 9 38t23 17q6 0 13 -4l14 -9q-12 -18 -12 -35q0 -32 17 -44.5t58 -12.5h9zM485 265q0 162 -131 162q-64 0 -102 -43t-40 -119h273z" />
    <glyph glyph-name="uni04C0" unicode="&#x4c0;" horiz-adv-x="229" 
d="M144 0h-59v670q4 1 6.5 1h6.5q20 0 33 -13.5t13 -37.5v-620z" />
    <glyph glyph-name="uni04C1" unicode="&#x4c1;" horiz-adv-x="802" 
d="M652 607q41 64 96 64q23 0 32.5 -9.5t9.5 -33.5q-22 0 -37.5 -4.5t-28.5 -16t-28 -34.5l-86 -131q-25 -38 -44.5 -54.5t-44.5 -24.5q18 -6 32 -17t35 -42l214 -307q-16 -6 -33 -6q-23 0 -37 7.5t-26 25.5l-168 244q-30 43 -46 55.5t-38 16.5v39q30 5 57.5 27.5t56.5 68.5
zM429 0h-59v670q6 1 11 1q22 0 35 -13t13 -38v-620zM233 475q30 -47 56 -69t56 -27v-39q-24 -4 -43.5 -19t-45.5 -53l-167 -244q-13 -19 -25 -26t-34 -7q-13 0 -30 6l213 306q9 14 18 25t20 19.5t27 14.5q-24 8 -42.5 23.5t-45.5 56.5l-87 131q-22 33 -41 44t-52 11
q0 24 9.5 33.5t32.5 9.5q27 0 52 -16.5t45 -47.5zM312 830q9 -32 32 -48.5t57 -16.5t57 16.5t32 47.5t33 31q19 0 27 -5q-2 -11 -4 -19t-4 -15.5t-5 -17.5q-14 -39 -50.5 -61t-85.5 -22q-101 0 -136 79q-9 21 -15 56q8 5 30 5q13 0 20 -7t12 -23z" />
    <glyph glyph-name="uni04C2" unicode="&#x4c2;" horiz-adv-x="682" 
d="M317 476q52 0 52 -52v-424h-56v476h4zM541 424q32 52 83 52q19 0 27.5 -8.5t8.5 -29.5q-28 0 -44.5 -9t-32.5 -34l-58 -94q-26 -42 -68 -51q37 -11 64 -49l149 -204q-15 -6 -30 -6q-35 0 -58 33l-106 145q-19 28 -37 40.5t-43 16.5v37q26 4 45.5 17.5t35.5 38.5zM206 319
q17 -26 35.5 -39t44.5 -17v-37q-26 -5 -45.5 -18t-37.5 -39l-106 -145q-23 -33 -55 -33q-15 0 -30 6l150 203q28 39 63 49q-38 5 -67 52l-58 94q-16 24 -33 33.5t-45 9.5q0 21 8.5 29.5t27.5 8.5q52 0 84 -52zM253 630q9 -32 32 -48.5t57 -16.5t57 16.5t32 47.5t33 31
q19 0 27 -5q-2 -11 -4 -19t-4 -15.5t-5 -17.5q-14 -39 -50.5 -61t-85.5 -22q-101 0 -136 79q-9 21 -15 56q8 5 30 5q13 0 20 -7t12 -23z" />
    <glyph glyph-name="uni04C3" unicode="&#x4c3;" horiz-adv-x="550" 
d="M172 368q24 7 43 24.5t34.5 40t30.5 46.5l83 128q40 64 92 64q23 0 32.5 -9.5t9.5 -33.5q-34 0 -52 -11t-39 -44l-80 -120q-27 -41 -39.5 -54.5t-29.5 -23.5q117 0 180.5 -70.5t63.5 -202.5q0 -149 -57 -226.5t-168 -77.5q-43 0 -43 31q0 7 2 17q13 -1 32 -1
q88 0 130 61.5t42 189.5q0 111 -49 171t-140 60q-39 0 -78 -3v44zM144 0h-59v670q6 1 11 1q22 0 35 -13t13 -38v-620z" />
    <glyph glyph-name="uni04C4" unicode="&#x4c4;" horiz-adv-x="488" 
d="M299 301q-17 -25 -48 -39q89 0 143 -59.5t54 -158.5q0 -114 -53.5 -180t-146.5 -66q-38 0 -38 30q0 8 2 17q11 -1 28 -1q74 0 110.5 48.5t36.5 146.5q0 88 -41 134.5t-119 46.5q-15 0 -30.5 -0.5t-31.5 -1.5v45q26 4 46.5 17.5t39.5 38.5l74 105q37 52 85 52
q19 0 27.5 -8.5t8.5 -29.5q-26 0 -43.5 -9t-35.5 -34zM84 476q54 0 54 -52v-424h-58v476h4z" />
    <glyph glyph-name="uni04C5" unicode="&#x4c5;" horiz-adv-x="678" 
d="M651 50q-6 -50 -35 -105t-69 -93l-42 34q23 23 43.5 55.5t29.5 58.5h-44v619h-245l-17 -195q-18 -210 -76 -324.5t-152 -114.5q-34 0 -34 47h9q42 1 73 25.5t53 66.5t36 93t22.5 104t13 100.5t7.5 82.5l15 165h354v-619h58z" />
    <glyph glyph-name="uni04C6" unicode="&#x4c6;" horiz-adv-x="531" 
d="M393 426h-180l-12 -124q-15 -158 -55.5 -235.5t-110.5 -77.5q-30 0 -30 42q44 0 72.5 30t47 99.5t30.5 196.5l11 116h285v-423h52q-6 -48 -33.5 -100t-64.5 -87l-40 32q23 23 42 52.5t27 52.5h-41v426z" />
    <glyph glyph-name="uni04C7" unicode="&#x4c7;" horiz-adv-x="649" 
d="M564 23q0 -11 -0.5 -23t-1.5 -23q-5 -44 -25 -78t-51.5 -51.5t-73.5 -17.5q-23 0 -32.5 7t-9.5 25q0 4 0.5 8.5t1.5 9.5q5 -1 9.5 -1h9.5q45 0 70.5 18.5t37.5 59.5q6 19 6 59v309h-361v-325h-59v670q6 1 11 1q22 0 35 -13t13 -38v-245h361v295q6 1 11 1q22 0 35 -13
t13 -38v-597z" />
    <glyph glyph-name="uni04C8" unicode="&#x4c8;" horiz-adv-x="536" 
d="M398 223h-260v-223h-58v476h4q54 0 54 -52v-154h260v206h4q54 0 54 -52v-482q0 -55 -11 -88q-13 -39 -42 -60t-69 -21q-19 0 -28 9.5t-9 35.5q45 0 67.5 16.5t30.5 55.5q3 18 3 40v293z" />
    <glyph glyph-name="uni04C9" unicode="&#x4c9;" horiz-adv-x="649" 
d="M505 325h-361v-325h-59v670q6 1 11 1q22 0 35 -13t13 -38v-245h361v295q6 1 11 1q22 0 35 -13t13 -38v-570h58q-6 -50 -35 -105t-69 -93l-42 34q23 23 43.5 55.5t29.5 58.5h-44v325z" />
    <glyph glyph-name="uni04CA" unicode="&#x4ca;" horiz-adv-x="536" 
d="M398 223h-260v-223h-58v476h4q54 0 54 -52v-154h260v206h4q54 0 54 -52v-374h52q-6 -48 -33.5 -100t-64.5 -87l-40 32q23 23 42 52.5t27 52.5h-41v223z" />
    </font>
</defs>
</svg>
