<svg xmlns="http://www.w3.org/2000/svg" width="184.578" height="63.805" viewBox="0 0 184.578 63.805">
  <g id="logo-knowcrunch-seminars-admin-panel" transform="translate(9949.136 16512.863)">
    <path id="Path_31723" data-name="Path 31723" d="M21.741,90.178a34.241,34.241,0,0,1-16.467-3.9l-.008-1.216.243.132a34.35,34.35,0,0,0,16.229,3.883,42.068,42.068,0,0,0,12.7-2C47.914,82.8,57.751,72.644,59.5,61.2l.042-.273,1.092.167-.042.272C58.78,73.225,48.646,83.729,34.772,88.122a43.134,43.134,0,0,1-13.031,2.056" transform="translate(-9953.179 -16559.631)" fill="#345ca8"/>
    <path id="Path_31724" data-name="Path 31724" d="M26.964,26.121a23.05,23.05,0,0,1-10.779-2.551l-.243-.129.518-.975.243.129a21.951,21.951,0,0,0,10.261,2.421,27.154,27.154,0,0,0,8.183-1.292C43.748,21,50.036,14.568,51.169,7.342l.042-.275,1.092.32-.04.127c-1.2,7.636-7.787,14.413-16.784,17.265a28.245,28.245,0,0,1-8.516,1.343" transform="translate(-9961.373 -16518.289)" fill="#345ca8"/>
    <path id="Path_31725" data-name="Path 31725" d="M58.964,158.32a32.149,32.149,0,0,1-15.917-4.057l-.241-.138-.637-1.787,1.425.965a31.052,31.052,0,0,0,15.37,3.912,36.574,36.574,0,0,0,11.054-1.739c12.238-3.875,21.076-13.4,22.519-24.261l.169-1.034.965.9-.037.275c-1.5,11.286-10.639,21.166-23.283,25.17a37.725,37.725,0,0,1-11.387,1.789" transform="translate(-9981.507 -16612.795)" fill="#345ca8"/>
    <path id="Path_31726" data-name="Path 31726" d="M30.763,63.942a30.657,30.657,0,0,1-19.9-7.385A31.122,31.122,0,0,1,5.915,14.7,30.4,30.4,0,0,1,25.994,2.41,30.538,30.538,0,0,1,50.6,9.433,31,31,0,0,1,35.467,63.58a30.918,30.918,0,0,1-4.7.362M30.7,3.153a29.712,29.712,0,0,0-4.536.352A29.3,29.3,0,0,0,6.808,15.346,29.729,29.729,0,1,0,60,28.461,29.96,29.96,0,0,0,30.7,3.153" transform="translate(-9949.136 -16514.436)" fill="#345ca8"/>
    <path id="Path_31727" data-name="Path 31727" d="M188.522,257.66c-.531-1.208-.65-1.525-.774-1.861-.153-.4-.325-.859-1.285-3.042l.5-.222c.967,2.2,1.142,2.662,1.295,3.071.124.328.24.637.767,1.832Z" transform="translate(-10092.271 -16706.719)" fill="#345ca8"/>
    <path id="Path_31728" data-name="Path 31728" d="M78.123,5.746c-1.3-2.958-1.554-3.592-1.76-4.1-.129-.323-.238-.59-.584-1.38l.5-.225c.354.8.46,1.073.592,1.4.2.507.457,1.139,1.752,4.089Z" transform="translate(-10007.306 -16512.893)" fill="#345ca8"/>
    <path id="Path_31729" data-name="Path 31729" d="M70.994,42.227A19.366,19.366,0,0,1,82.251,64.054c-2.3,11.172-14.151,16.509-24.2,12.3-.275-.116-1.041.986-.833,1.073,9.084,3.809,19.361-.135,24.148-8.865,5.442-9.92.415-22.53-9.581-26.814-.272-.116-1,.389-.8.478" transform="translate(-9993.035 -16544.898)" fill="#ff9f1c"/>
    <path id="Path_31730" data-name="Path 31730" d="M58.7,121c-1.374-10.583,5.783-20.392,16.316-21.074,9.209-.595,17.146,6.6,18.956,15.639.063.315.159.605.206.925.029.193.952-.109.906-.407a19.134,19.134,0,0,0-22.76-16.226c-9.682,2.027-15.882,11.823-14.46,21.784Z" transform="translate(-9993.399 -16589.205)" fill="#c8d151"/>
    <path id="Path_31731" data-name="Path 31731" d="M118.593,69.876c-.272.233-.55.457-.83.669-.066.05-.077-.106-.143-.056A17.787,17.787,0,0,1,91.98,65.666,19.288,19.288,0,0,1,95.617,41c.476-.415-.288-.486-.592-.219-.1.085-.243.119-.341.2a19.934,19.934,0,0,0-2.426,26.725c6.174,8.247,17.548,9.114,25.445,3.624q.793-.551,1.533-1.181c.478-.412-.336-.531-.642-.272" transform="translate(-10016.859 -16544.045)" fill="#65afff"/>
    <path id="Path_31732" data-name="Path 31732" d="M39.515,78.615c-7.557,0-16.813-4.052-18.134-15.457C11.969,59,9.222,48.817,10.663,41.075,12,33.915,17.395,25.806,28.581,25.668a14.175,14.175,0,0,1,6.674,1.411A19.161,19.161,0,0,1,46.6,22.922a19.945,19.945,0,0,1,16.305,9.14,18.749,18.749,0,0,1,1.7,17.97,16.373,16.373,0,0,1-3.024,4.358,25.578,25.578,0,0,1-2.841,2.9c.005.045.069.626.074.672A17.575,17.575,0,0,1,55,72.008a20.612,20.612,0,0,1-15.481,6.608m-16.8-13.424C24.885,74.185,32.836,77.46,39.441,77.46c6.114,0,11.823-2.5,15.272-6.69a15.658,15.658,0,0,0,3.032-13.4l-.085-.359.275-.2C64.165,52.5,66.375,45.4,64.064,38c-2.2-7.044-8.986-14.175-17.7-14.175a18.131,18.131,0,0,0-11.014,4l-.1.079s-1.483-.9-5.18-1.086a19.105,19.105,0,0,0-8.508,1.462c-6.8,2.691-9.872,9.277-10.208,15.1-.431,7.4,2.815,16.522,10.977,18.639,0,0,.2,2.411.381,3.172" transform="translate(-9957.045 -16530.459)" fill="#345ca8"/>
    <path id="Path_31733" data-name="Path 31733" d="M129.369,129.181a1,1,0,1,1-1.136-.793.979.979,0,0,1,1.136.793" transform="translate(-10046.914 -16611.408)" fill="#345ca8" fill-rule="evenodd"/>
    <path id="Path_31734" data-name="Path 31734" d="M14.57,66.9a1.908,1.908,0,1,0-1.6,2.117,1.88,1.88,0,0,0,1.6-2.117" transform="translate(-9957.41 -16563.021)" fill="#345ca8" fill-rule="evenodd"/>
    <path id="Path_31735" data-name="Path 31735" d="M143.751,257.23a1.908,1.908,0,1,0-1.6,2.12,1.874,1.874,0,0,0,1.6-2.12" transform="translate(-10056.573 -16709.127)" fill="#345ca8" fill-rule="evenodd"/>
    <path id="Path_31736" data-name="Path 31736" d="M233.729,51.547a1.909,1.909,0,1,0-1.6,2.12,1.88,1.88,0,0,0,1.6-2.12" transform="translate(-10125.643 -16551.236)" fill="#345ca8" fill-rule="evenodd"/>
    <path id="Path_31737" data-name="Path 31737" d="M324.433,13.629h-3.241v9.719h-3.069V1.392h3.069v9.88h3.145l5.857-9.88h3.365l-6.544,10.882h-.032l7.7,11.075h-3.523Z" transform="translate(-10193.339 -16513.932)" fill="#345ca8"/>
    <path id="Path_31738" data-name="Path 31738" d="M400.132,1.392H403.2v.016l.016-.016L414.191,18.44V1.392h3.069V23.349h-3.069L403.2,6.269v17.08h-3.069Z" transform="translate(-10256.291 -16513.932)" fill="#345ca8"/>
    <path id="Path_31739" data-name="Path 31739" d="M488.821,11.3a15.07,15.07,0,0,1,.682-4.689,10.613,10.613,0,0,1,1.9-3.56,8.261,8.261,0,0,1,2.926-2.26,9.278,9.278,0,0,1,7.507,0,8.323,8.323,0,0,1,2.944,2.26,10.681,10.681,0,0,1,1.919,3.56,14.989,14.989,0,0,1,.687,4.689,15.075,15.075,0,0,1-.687,4.707,10.694,10.694,0,0,1-1.919,3.558,8.244,8.244,0,0,1-2.944,2.252,9.366,9.366,0,0,1-7.507,0,8.182,8.182,0,0,1-2.926-2.252,10.626,10.626,0,0,1-1.9-3.558,15.155,15.155,0,0,1-.682-4.707m3.069,0a15.047,15.047,0,0,0,.455,3.922,8.308,8.308,0,0,0,1.277,2.794,5.317,5.317,0,0,0,1.964,1.67,5.619,5.619,0,0,0,2.506.558,5.7,5.7,0,0,0,2.527-.558,5.308,5.308,0,0,0,1.974-1.67,8.306,8.306,0,0,0,1.274-2.794,15.037,15.037,0,0,0,.455-3.922,15.037,15.037,0,0,0-.455-3.922,8.3,8.3,0,0,0-1.274-2.794,5.307,5.307,0,0,0-1.974-1.67,5.7,5.7,0,0,0-2.527-.558,5.619,5.619,0,0,0-2.506.558,5.315,5.315,0,0,0-1.964,1.67,8.305,8.305,0,0,0-1.277,2.794,15.047,15.047,0,0,0-.455,3.922" transform="translate(-10324.372 -16512.863)" fill="#345ca8"/>
    <path id="Path_31740" data-name="Path 31740" d="M596.887,1.2h3.084L595.2,23.152h-3.272L587.038,6.265l-4.993,16.887h-3.224L574.013,1.2h3.164l3.412,18,5-18h2.847L593.4,19.261Z" transform="translate(-10389.769 -16513.781)" fill="#345ca8"/>
    <path id="Path_31741" data-name="Path 31741" d="M316.766,126.1a14.832,14.832,0,0,1,.682-4.633,10.332,10.332,0,0,1,1.948-3.56,8.536,8.536,0,0,1,3.077-2.276,9.977,9.977,0,0,1,4.078-.8,10.924,10.924,0,0,1,1.448.09,9.216,9.216,0,0,1,1.189.235,7.138,7.138,0,0,1,.994.338c.3.129.589.264.862.4l-.862,2.1a8.078,8.078,0,0,0-3.632-.809,7,7,0,0,0-2.738.518,5.38,5.38,0,0,0-2.122,1.6,7.768,7.768,0,0,0-1.369,2.77,14.553,14.553,0,0,0-.486,4.02,14.073,14.073,0,0,0,.51,4.036,7.733,7.733,0,0,0,1.433,2.794,5.6,5.6,0,0,0,2.223,1.62,7.627,7.627,0,0,0,2.894.526,7.91,7.91,0,0,0,1.245-.09,8.009,8.009,0,0,0,1.057-.233c.325-.1.621-.2.893-.314s.521-.225.751-.33l.658,2.064a8.015,8.015,0,0,1-2.011.9,10.107,10.107,0,0,1-2.936.365,9.807,9.807,0,0,1-4.078-.817,8.658,8.658,0,0,1-3.077-2.3,10.405,10.405,0,0,1-1.948-3.576,14.906,14.906,0,0,1-.682-4.641" transform="translate(-10192.296 -16601.01)" fill="#345ca8"/>
    <path id="Path_31742" data-name="Path 31742" d="M395.051,116.22h6.888a10.893,10.893,0,0,1,3.2.428,6.774,6.774,0,0,1,2.355,1.226,5.188,5.188,0,0,1,1.464,1.953,6.548,6.548,0,0,1,.5,2.625,5.289,5.289,0,0,1-.28,1.726,7.053,7.053,0,0,1-.751,1.551,7.65,7.65,0,0,1-1.1,1.332,8.157,8.157,0,0,1-1.316,1.041l4.509,10.073H407.31l-4.165-9.428H398.12v9.428h-3.069Zm3.069,2.358v7.813h6.372c.23-.193.457-.4.682-.629a4.033,4.033,0,0,0,.6-.8,4.633,4.633,0,0,0,.436-1.073,5.29,5.29,0,0,0,.175-1.438,4.49,4.49,0,0,0-.323-1.8,2.943,2.943,0,0,0-.93-1.195,3.993,3.993,0,0,0-1.5-.671,8.885,8.885,0,0,0-2.011-.209Z" transform="translate(-10252.391 -16602.078)" fill="#345ca8"/>
    <path id="Path_31743" data-name="Path 31743" d="M485.313,116.222h3.069v15.306a6.958,6.958,0,0,1-.6,2.971,6.142,6.142,0,0,1-1.7,2.186,7.493,7.493,0,0,1-2.63,1.356,11.791,11.791,0,0,1-3.4.46,11.586,11.586,0,0,1-3.367-.46,7.446,7.446,0,0,1-2.606-1.356,6.241,6.241,0,0,1-1.692-2.186,6.959,6.959,0,0,1-.6-2.971V116.222h3.066v15.306a4.816,4.816,0,0,0,.386,1.977,3.91,3.91,0,0,0,1.071,1.443,4.757,4.757,0,0,0,1.644.888,6.793,6.793,0,0,0,2.1.306,7.025,7.025,0,0,0,2.144-.306,4.736,4.736,0,0,0,1.66-.888,3.945,3.945,0,0,0,1.073-1.443,4.817,4.817,0,0,0,.383-1.977Z" transform="translate(-10311.297 -16602.08)" fill="#345ca8"/>
    <path id="Path_31744" data-name="Path 31744" d="M558.235,116.222H561.3v.016l.016-.016,10.974,17.048V116.222h3.069v21.956h-3.069L561.3,121.1v17.08h-3.069Z" transform="translate(-10377.656 -16602.08)" fill="#345ca8"/>
    <path id="Path_31745" data-name="Path 31745" d="M645.912,126.4a14.913,14.913,0,0,1,.679-4.633,10.382,10.382,0,0,1,1.951-3.56,8.537,8.537,0,0,1,3.077-2.276,9.976,9.976,0,0,1,4.078-.8,10.949,10.949,0,0,1,1.448.09,9.218,9.218,0,0,1,1.189.235,7.137,7.137,0,0,1,.994.338c.3.129.589.264.862.4l-.862,2.1a8.078,8.078,0,0,0-3.632-.809,7.017,7.017,0,0,0-2.741.518,5.39,5.39,0,0,0-2.12,1.6,7.77,7.77,0,0,0-1.369,2.77,14.553,14.553,0,0,0-.486,4.02,14.085,14.085,0,0,0,.51,4.036,7.74,7.74,0,0,0,1.43,2.794,5.659,5.659,0,0,0,2.226,1.623,7.669,7.669,0,0,0,2.894.523,7.9,7.9,0,0,0,1.245-.09,8,8,0,0,0,1.057-.233,9.462,9.462,0,0,0,.893-.314c.27-.114.521-.225.751-.33l.658,2.064a8.058,8.058,0,0,1-2.011.9,10.108,10.108,0,0,1-2.937.365,9.807,9.807,0,0,1-4.078-.817,8.658,8.658,0,0,1-3.077-2.3,10.456,10.456,0,0,1-1.951-3.576,14.988,14.988,0,0,1-.679-4.641" transform="translate(-10444.96 -16601.238)" fill="#345ca8"/>
    <path id="Path_31746" data-name="Path 31746" d="M723.536,116.222h3.069v9.817h10.316v-9.817h3.069v21.956h-3.069v-9.785H726.605v9.785h-3.069Z" transform="translate(-10504.548 -16602.08)" fill="#345ca8"/>
    <path id="Path_31747" data-name="Path 31747" d="M687.961,242.665h.656v-1.232l.9-.1v1.327h1.353v.69h-1.353v2.527a1.788,1.788,0,0,0,.037.4.668.668,0,0,0,.116.267.446.446,0,0,0,.206.145.928.928,0,0,0,.3.045c.074,0,.148,0,.227-.008l.227-.024.211-.032c.066-.01.122-.021.169-.032l.027.645c-.058.019-.124.037-.2.056s-.153.032-.238.042-.169.024-.259.032-.174.013-.257.013a2.568,2.568,0,0,1-.616-.069,1.009,1.009,0,0,1-.46-.238,1.069,1.069,0,0,1-.291-.473,2.426,2.426,0,0,1-.1-.774v-2.527h-.767Z" transform="translate(-10477.153 -16698.123)" fill="#345ca8"/>
    <path id="Path_31748" data-name="Path 31748" d="M706.24,238.9h.9v2.323a2.766,2.766,0,0,1,.706-.389,2.394,2.394,0,0,1,.82-.137,2.2,2.2,0,0,1,.624.085,1.112,1.112,0,0,1,.476.288,1.329,1.329,0,0,1,.307.534,2.786,2.786,0,0,1,.106.835v3.084h-.9v-3.084a1.3,1.3,0,0,0-.193-.806.748.748,0,0,0-.629-.243,1.714,1.714,0,0,0-.714.145,2.709,2.709,0,0,0-.6.383v3.605h-.9Z" transform="translate(-10491.271 -16696.252)" fill="#345ca8"/>
    <path id="Path_31749" data-name="Path 31749" d="M730.038,246.734h.793l.074.663a1.766,1.766,0,0,1,.587-.587,1.379,1.379,0,0,1,.671-.172c.061,0,.127,0,.2.005s.132.008.193.013l-.082.806a1.856,1.856,0,0,0-.238-.032c-.079-.005-.169-.008-.267-.008a.914.914,0,0,0-.56.19,2.352,2.352,0,0,0-.468.486v3.365h-.9Z" transform="translate(-10509.538 -16702.191)" fill="#345ca8"/>
    <path id="Path_31750" data-name="Path 31750" d="M745.307,238.86h.986v.833h-.986Zm.045,1.9h.9v4.731h-.9Z" transform="translate(-10521.26 -16696.221)" fill="#345ca8"/>
    <path id="Path_31751" data-name="Path 31751" d="M754.03,247.048h.928l.856,2.622.359,1.248.38-1.258.843-2.611h.914l-1.731,4.731h-.806Z" transform="translate(-10527.955 -16702.506)" fill="#345ca8"/>
    <path id="Path_31752" data-name="Path 31752" d="M776.4,249.218a1.888,1.888,0,0,0,.389,1.221,1.314,1.314,0,0,0,1.065.434,3.1,3.1,0,0,0,.431-.026,2.935,2.935,0,0,0,.354-.063,2.546,2.546,0,0,0,.288-.085c.087-.032.164-.061.235-.09l.217.605a2.442,2.442,0,0,1-.679.257,3.609,3.609,0,0,1-.846.092,2.848,2.848,0,0,1-1-.161,1.972,1.972,0,0,1-.74-.473,2.013,2.013,0,0,1-.457-.759,3.034,3.034,0,0,1-.158-1.028,3.345,3.345,0,0,1,.153-1.057,2.2,2.2,0,0,1,.436-.787,1.883,1.883,0,0,1,.682-.486,2.29,2.29,0,0,1,.893-.167,2.243,2.243,0,0,1,.759.127,1.783,1.783,0,0,1,.613.37,1.694,1.694,0,0,1,.412.589,1.958,1.958,0,0,1,.153.8v.692Zm1.266-1.884a1.708,1.708,0,0,0-.452.056.935.935,0,0,0-.362.2,1.067,1.067,0,0,0-.264.37,1.985,1.985,0,0,0-.151.568h2.268a1.534,1.534,0,0,0-.09-.552,1.03,1.03,0,0,0-.23-.37.893.893,0,0,0-.33-.206,1.2,1.2,0,0,0-.389-.063" transform="translate(-10544.438 -16702.195)" fill="#345ca8"/>
    <path id="Path_31753" data-name="Path 31753" d="M455.982,242.914h.656v-1.229l.9-.1v1.324h1.353v.69h-1.353v2.527a1.783,1.783,0,0,0,.037.4.669.669,0,0,0,.116.267.446.446,0,0,0,.206.145.858.858,0,0,0,.3.045c.074,0,.148,0,.228-.008l.227-.024.211-.032c.066-.01.122-.021.169-.032l.026.645a3.149,3.149,0,0,1-.439.1c-.085.013-.169.024-.259.032s-.174.013-.257.013a2.572,2.572,0,0,1-.616-.069,1.009,1.009,0,0,1-.46-.238,1.068,1.068,0,0,1-.291-.473,2.426,2.426,0,0,1-.1-.774V243.6h-.767Z" transform="translate(-10299.078 -16698.316)" fill="#345ca8"/>
    <path id="Path_31754" data-name="Path 31754" d="M474.266,246.975h.793l.074.663a1.718,1.718,0,0,1,.587-.587,1.38,1.38,0,0,1,.671-.172c.061,0,.124,0,.193.005s.135.008.2.016l-.082.8a1.835,1.835,0,0,0-.24-.032c-.077-.005-.167-.008-.264-.008a.914.914,0,0,0-.56.19,2.292,2.292,0,0,0-.468.486v3.365h-.9Z" transform="translate(-10313.199 -16702.377)" fill="#345ca8"/>
    <path id="Path_31755" data-name="Path 31755" d="M490.854,248.878v-.114a2.3,2.3,0,0,0-.058-.553.8.8,0,0,0-.18-.349.638.638,0,0,0-.312-.182,1.773,1.773,0,0,0-.46-.053,3,3,0,0,0-.37.024,3.2,3.2,0,0,0-.367.066c-.116.029-.23.061-.336.1a2.18,2.18,0,0,0-.272.108l-.2-.642a1.933,1.933,0,0,1,.349-.164,3.17,3.17,0,0,1,.407-.127,3.916,3.916,0,0,1,.436-.079,3.5,3.5,0,0,1,.434-.029,3.191,3.191,0,0,1,.756.085,1.284,1.284,0,0,1,.941.878,2.752,2.752,0,0,1,.13.922v2.942h-.692l-.124-.51a2.717,2.717,0,0,1-.243.182,2.56,2.56,0,0,1-.351.193,2.688,2.688,0,0,1-.447.156,2.162,2.162,0,0,1-.537.063,1.613,1.613,0,0,1-.632-.114,1.25,1.25,0,0,1-.727-.756,1.606,1.606,0,0,1-.093-.539,1.209,1.209,0,0,1,.148-.576,1.572,1.572,0,0,1,.4-.478,2.1,2.1,0,0,1,.616-.328,2.359,2.359,0,0,1,.777-.122ZM489.6,251.1a1.733,1.733,0,0,0,.449-.056,2.437,2.437,0,0,0,.367-.135,1.787,1.787,0,0,0,.272-.161c.077-.053.132-.092.169-.122v-1.166h-.891a1.387,1.387,0,0,0-.579.116,1.062,1.062,0,0,0-.354.259.961.961,0,0,0-.225.573.691.691,0,0,0,.061.293.619.619,0,0,0,.164.219.711.711,0,0,0,.251.132,1.079,1.079,0,0,0,.315.045" transform="translate(-10323.67 -16702.377)" fill="#345ca8"/>
    <path id="Path_31756" data-name="Path 31756" d="M511.134,246.975h.793l.074.449a2.786,2.786,0,0,1,.719-.4,2.491,2.491,0,0,1,1.461-.066,1.068,1.068,0,0,1,.476.27,1.231,1.231,0,0,1,.307.518,2.706,2.706,0,0,1,.106.827v3.132h-.9v-3.132a1.994,1.994,0,0,0-.048-.471.755.755,0,0,0-.148-.309.572.572,0,0,0-.254-.172,1.182,1.182,0,0,0-.373-.053,1.678,1.678,0,0,0-.714.153,2.989,2.989,0,0,0-.6.378v3.605h-.9Z" transform="translate(-10341.5 -16702.377)" fill="#345ca8"/>
    <path id="Path_31757" data-name="Path 31757" d="M537.08,250.387a1.34,1.34,0,0,1-.122.581,1.245,1.245,0,0,1-.349.444,1.581,1.581,0,0,1-.552.286,2.523,2.523,0,0,1-.735.1c-.161,0-.323-.01-.486-.027s-.317-.042-.465-.074a3.535,3.535,0,0,1-.418-.116,2.034,2.034,0,0,1-.341-.153l.169-.663c.122.047.238.092.352.132a3.539,3.539,0,0,0,.346.111,2.686,2.686,0,0,0,.381.071,3.359,3.359,0,0,0,.455.026.99.99,0,0,0,.663-.182.649.649,0,0,0,.2-.507.481.481,0,0,0-.074-.264.784.784,0,0,0-.209-.209,1.512,1.512,0,0,0-.328-.172,4.118,4.118,0,0,0-.431-.14,3.777,3.777,0,0,1-.589-.214,2.066,2.066,0,0,1-.468-.3,1.358,1.358,0,0,1-.309-.389,1.033,1.033,0,0,1-.111-.481,1.323,1.323,0,0,1,.122-.579,1.151,1.151,0,0,1,.351-.431,1.7,1.7,0,0,1,.563-.272,2.782,2.782,0,0,1,.743-.092,3.861,3.861,0,0,1,.885.1,3.167,3.167,0,0,1,.611.209l-.164.648c-.111-.034-.214-.066-.309-.1s-.19-.058-.291-.082-.206-.042-.319-.058a3.462,3.462,0,0,0-.394-.021,1.1,1.1,0,0,0-.68.172.552.552,0,0,0-.219.463.654.654,0,0,0,.048.256.561.561,0,0,0,.156.206,1.1,1.1,0,0,0,.285.174,3.449,3.449,0,0,0,.436.148,4.826,4.826,0,0,1,.711.246,2.041,2.041,0,0,1,.494.309,1.131,1.131,0,0,1,.294.378,1.113,1.113,0,0,1,.1.468" transform="translate(-10358.755 -16702.373)" fill="#345ca8"/>
    <path id="Path_31758" data-name="Path 31758" d="M552.356,240.723h.568v-.293a2.53,2.53,0,0,1,.114-.827,1.2,1.2,0,0,1,.322-.518,1.153,1.153,0,0,1,.513-.27,2.634,2.634,0,0,1,.671-.079c.08,0,.161.005.243.013s.164.016.243.029.156.029.227.045.135.037.19.055l-.026.642-.164-.029c-.063-.013-.13-.021-.2-.032s-.137-.019-.211-.024-.145-.008-.211-.008a1.177,1.177,0,0,0-.37.05.544.544,0,0,0-.251.172.787.787,0,0,0-.145.314,1.949,1.949,0,0,0-.048.465v.293h1.356v.69h-1.356v4.041h-.9v-4.041h-.655Z" transform="translate(-10373.076 -16696.125)" fill="#345ca8"/>
    <path id="Path_31759" data-name="Path 31759" d="M568.128,249.342a3.042,3.042,0,0,1,.161-1.028,2.25,2.25,0,0,1,.449-.772,1.958,1.958,0,0,1,.7-.492,2.528,2.528,0,0,1,1.819,0,1.951,1.951,0,0,1,.706.492,2.263,2.263,0,0,1,.457.772,3.367,3.367,0,0,1,0,2.059,2.228,2.228,0,0,1-.457.774,1.91,1.91,0,0,1-.706.486,2.529,2.529,0,0,1-1.819,0,1.916,1.916,0,0,1-.7-.486,2.216,2.216,0,0,1-.449-.774,3.035,3.035,0,0,1-.161-1.031m.9,0a2.969,2.969,0,0,0,.1.8,1.582,1.582,0,0,0,.272.55,1.058,1.058,0,0,0,.417.317,1.362,1.362,0,0,0,.536.1,1.384,1.384,0,0,0,.539-.1,1.074,1.074,0,0,0,.423-.317,1.581,1.581,0,0,0,.275-.55,3.323,3.323,0,0,0,0-1.6,1.581,1.581,0,0,0-.275-.55,1.1,1.1,0,0,0-.423-.317,1.383,1.383,0,0,0-.539-.1,1.361,1.361,0,0,0-.536.1,1.082,1.082,0,0,0-.417.317,1.582,1.582,0,0,0-.272.55,2.97,2.97,0,0,0-.1.8" transform="translate(-10385.251 -16702.377)" fill="#345ca8"/>
    <path id="Path_31760" data-name="Path 31760" d="M592.85,246.975h.793l.074.663a1.766,1.766,0,0,1,.587-.587,1.38,1.38,0,0,1,.671-.172c.061,0,.127,0,.2.005s.132.008.193.016l-.082.8a1.851,1.851,0,0,0-.238-.032c-.079-.005-.169-.008-.267-.008a.914.914,0,0,0-.56.19,2.354,2.354,0,0,0-.468.486v3.365h-.9Z" transform="translate(-10404.229 -16702.377)" fill="#345ca8"/>
    <path id="Path_31761" data-name="Path 31761" d="M607.9,246.975h.793l.053.391a2.862,2.862,0,0,1,.727-.357,2.676,2.676,0,0,1,.851-.129,2.437,2.437,0,0,1,.775.111,1.013,1.013,0,0,1,.523.4,2.838,2.838,0,0,1,.724-.375,2.632,2.632,0,0,1,.864-.135,2.2,2.2,0,0,1,.623.082,1.112,1.112,0,0,1,.478.27,1.279,1.279,0,0,1,.309.507,2.49,2.49,0,0,1,.106.788v3.18h-.9v-3.18a1.089,1.089,0,0,0-.2-.732.8.8,0,0,0-.626-.225,1.743,1.743,0,0,0-.64.116,2.353,2.353,0,0,0-.547.312,1.109,1.109,0,0,1,.016.14c0,.048.005.1.005.153v3.415h-.9v-3.415a.678.678,0,0,0-.2-.558.97.97,0,0,0-.626-.164,1.715,1.715,0,0,0-.714.148,2.616,2.616,0,0,0-.6.383v3.605h-.9Z" transform="translate(-10415.779 -16702.377)" fill="#345ca8"/>
    <rect id="Rectangle_3186" data-name="Rectangle 3186" width="0.899" height="6.624" transform="translate(-9875.278 -16457.313)" fill="#345ca8"/>
    <path id="Path_31762" data-name="Path 31762" d="M328.683,249.382a1.888,1.888,0,0,0,.386,1.221,1.323,1.323,0,0,0,1.068.434,3.106,3.106,0,0,0,.431-.026,2.932,2.932,0,0,0,.354-.063,2.181,2.181,0,0,0,.288-.085c.087-.032.164-.061.235-.09l.217.605a2.51,2.51,0,0,1-.682.259,3.708,3.708,0,0,1-.843.092,2.871,2.871,0,0,1-1-.164,1.981,1.981,0,0,1-.738-.473,2.052,2.052,0,0,1-.46-.759,3.1,3.1,0,0,1-.156-1.028,3.345,3.345,0,0,1,.153-1.057,2.131,2.131,0,0,1,.436-.785,1.871,1.871,0,0,1,.679-.489,2.312,2.312,0,0,1,.9-.167,2.214,2.214,0,0,1,.756.127,1.768,1.768,0,0,1,.616.37,1.718,1.718,0,0,1,.412.589,2.007,2.007,0,0,1,.153.8v.692Zm1.266-1.884a1.619,1.619,0,0,0-.452.058.9.9,0,0,0-.362.2,1.1,1.1,0,0,0-.264.37,1.906,1.906,0,0,0-.151.568h2.265a1.538,1.538,0,0,0-.087-.552,1.029,1.029,0,0,0-.23-.37.893.893,0,0,0-.33-.206,1.2,1.2,0,0,0-.389-.063" transform="translate(-10200.754 -16702.322)" fill="#345ca8"/>
    <path id="Path_31763" data-name="Path 31763" d="M352.486,248.8v-.114a2.169,2.169,0,0,0-.058-.553.768.768,0,0,0-.18-.349.638.638,0,0,0-.312-.182,1.771,1.771,0,0,0-.46-.053,3,3,0,0,0-.37.024,3.211,3.211,0,0,0-.367.066c-.116.029-.23.061-.336.1a2.179,2.179,0,0,0-.272.108l-.2-.642a2.021,2.021,0,0,1,.349-.164,3.182,3.182,0,0,1,.407-.127,3.92,3.92,0,0,1,.436-.079,3.5,3.5,0,0,1,.434-.029,3.175,3.175,0,0,1,.756.085,1.272,1.272,0,0,1,.941.878,2.752,2.752,0,0,1,.13.923v2.942h-.692l-.124-.51a2.721,2.721,0,0,1-.243.182,2.279,2.279,0,0,1-.351.193,2.684,2.684,0,0,1-.447.156,2.162,2.162,0,0,1-.537.063,1.622,1.622,0,0,1-.632-.114,1.267,1.267,0,0,1-.455-.307,1.318,1.318,0,0,1-.272-.449,1.6,1.6,0,0,1-.093-.539,1.209,1.209,0,0,1,.148-.576,1.6,1.6,0,0,1,.4-.478,2.128,2.128,0,0,1,.616-.328,2.37,2.37,0,0,1,.777-.122Zm-1.258,2.223a1.629,1.629,0,0,0,.449-.058,1.985,1.985,0,0,0,.367-.135,1.5,1.5,0,0,0,.272-.159c.077-.053.132-.092.169-.122v-1.166H351.6a1.387,1.387,0,0,0-.579.116,1.063,1.063,0,0,0-.354.259.871.871,0,0,0-.175.309.964.964,0,0,0-.05.264.692.692,0,0,0,.061.293.62.62,0,0,0,.164.219.736.736,0,0,0,.251.132,1.078,1.078,0,0,0,.315.045" transform="translate(-10217.454 -16702.318)" fill="#345ca8"/>
    <path id="Path_31764" data-name="Path 31764" d="M372.763,246.9h.793l.074.663a1.765,1.765,0,0,1,.587-.587,1.387,1.387,0,0,1,.671-.172c.061,0,.127,0,.2.005s.132.008.193.013l-.082.806a1.857,1.857,0,0,0-.238-.032c-.079-.005-.169-.008-.267-.008a.914.914,0,0,0-.56.19,2.356,2.356,0,0,0-.468.486v3.365h-.9Z" transform="translate(-10235.281 -16702.318)" fill="#345ca8"/>
    <path id="Path_31765" data-name="Path 31765" d="M387.811,246.9h.793l.074.449a2.835,2.835,0,0,1,.719-.4,2.314,2.314,0,0,1,.838-.145,2.285,2.285,0,0,1,.624.079,1.054,1.054,0,0,1,.476.27,1.23,1.23,0,0,1,.306.518,2.7,2.7,0,0,1,.109.827v3.132h-.9V248.5a1.992,1.992,0,0,0-.048-.471.753.753,0,0,0-.148-.309.525.525,0,0,0-.254-.172,1.183,1.183,0,0,0-.373-.053,1.678,1.678,0,0,0-.714.153,2.989,2.989,0,0,0-.6.378v3.605h-.9Z" transform="translate(-10246.833 -16702.318)" fill="#345ca8"/>
    <path id="Path_31766" data-name="Path 31766" d="M427.136,251.882a1.3,1.3,0,1,1-1.443-1.078,1.278,1.278,0,0,1,1.443,1.078" transform="translate(-10275.028 -16705.381)" fill="#345ca8" fill-rule="evenodd"/>
    <path id="Path_31767" data-name="Path 31767" d="M659.648,251.442a1.3,1.3,0,1,1-1.443-1.078,1.278,1.278,0,0,1,1.443,1.078" transform="translate(-10453.512 -16705.043)" fill="#345ca8" fill-rule="evenodd"/>
  </g>
</svg>
