<svg xmlns="http://www.w3.org/2000/svg" viewBox="0 0 682 682" width="682" height="682">
	<style>
		tspan { white-space:pre }
		.shp0 { fill: #fff } 
	</style>
	<g id="Capa 1">
		<g id="&lt;Group&gt;">
			<g id="&lt;Group&gt;">
				<path id="&lt;Compound Path&gt;" fill-rule="evenodd" class="shp0" d="M681.6 341.2C681.6 529.2 528.8 682 340.8 682C152.8 682 0 529.2 0 341.2C0 153.2 152.8 0.4 340.8 0.4C528.8 0.4 681.6 153.2 681.6 341.2ZM647.2 341.2C647.2 172.4 509.6 34.8 340.8 34.8C172 34.8 34.4 172.4 34.4 341.2C34.4 510 172 647.6 340.8 647.6C509.6 647.6 647.2 510 647.2 341.2Z" />
			</g>
		</g>
		<g id="&lt;Group&gt;">
			<g id="&lt;Group&gt;">
				<path id="&lt;Path&gt;" class="shp0" d="M364.8 339.6L464.8 239.6C471.2 233.2 471.2 222 464.8 215.6C458.4 209.2 447.2 209.2 440.8 215.6L340.8 315.6L240.8 215.6C234.4 209.2 223.2 209.2 216.8 215.6C210.4 222 210.4 233.2 216.8 239.6L316.8 339.6L216.8 438.8C210.4 445.2 210.4 456.4 216.8 462.8C220 466 224.8 467.6 228.8 467.6C232.8 467.6 237.6 466 240.8 462.8L340.8 362.8L440.8 462.8C444 466 448.8 467.6 452.8 467.6C456.8 467.6 461.6 466 464.8 462.8C471.2 456.4 471.2 445.2 464.8 438.8L364.8 339.6Z" />
			</g>
		</g>
	</g>
</svg>