<?xml version="1.0" encoding="UTF-8"?><svg version="1.1" viewBox="0 0 24 24" xmlns="http://www.w3.org/2000/svg" xmlns:xlink="http://www.w3.org/1999/xlink"><!--Generated by IJSVG (https://github.com/iconjar/IJSVG)--><g stroke-linecap="round" stroke-width="1.5" stroke="#fff" fill="none" stroke-linejoin="round"><path d="M10.258,7.65901c0.87868,0.87868 0.87868,2.3033 0,3.18198c-0.87868,0.87868 -2.3033,0.87868 -3.18198,0c-0.87868,-0.87868 -0.87868,-2.3033 0,-3.18198c0.87868,-0.87868 2.3033,-0.87868 3.18198,0"></path><path d="M2,18.959v-13.918c0,-1.127 0.914,-2.041 2.041,-2.041h15.919c1.126,0 2.04,0.914 2.04,2.041v13.919c0,1.126 -0.914,2.04 -2.041,2.04h-15.918c-1.127,0 -2.041,-0.914 -2.041,-2.041Z"></path><path d="M15,9h4"></path><path d="M17.4,12h-2.4"></path><path d="M4.667,18v-1c0,-1.657 1.343,-3 3,-3h2c1.657,0 3,1.343 3,3v1"></path></g></svg>