<svg xmlns="http://www.w3.org/2000/svg" width="891.059" height="243.5" viewBox="0 0 891.059 243.5">
  <g id="sepa-black" transform="translate(0.27 -0.022)">
    <path id="Path_31941" data-name="Path 31941" d="M197.7,77.694H136.73q0-15.005-3.52-20.137-5.44-7.583-30.029-7.587-23.875,0-31.615,4.369-7.722,4.39-7.726,19.079,0,13.294,6.854,17.5,4.918,2.977,13,3.5l12.294.867q39.534,2.616,49.373,3.682,31.263,3.151,45.324,16.621,11.061,10.511,13.176,27.469a191.2,191.2,0,0,1,1.229,22.929q0,29.412-5.612,43.056-10.177,25.043-45.765,31.671-14.915,2.8-45.607,2.806-51.221,0-71.374-6.117Q12,229.9,4.111,207-.289,194.25-.27,164.529H60.7V169.6q0,15.861,9.108,20.4a35.743,35.743,0,0,0,15.239,3.316h22.418q17.155,0,21.885-1.762,8.41-3.3,11.042-10.657a40.749,40.749,0,0,0,1.4-11.724q0-16.076-11.724-19.58-4.4-1.384-40.784-3.845-29.231-2.087-40.6-4.03-29.941-5.6-39.9-23.072Q.02,103.787.03,73.7q0-22.894,4.73-36.712T20.006,16Q35.435,4.984,59.445,3.064,79.438,1.322,103.8,1.307q38.379,0,54.7,4.392,39.8,10.692,39.8,59.9,0,4.035-.594,12.1m268.1,165.823V.022h122.1q25.12,0,38.307,4.1,30.122,9.433,40.454,38.641,5.343,15.332,5.347,46.154,0,37.05-5.89,53.254-11.748,32.051-48.294,36.87-4.292.723-36.545,1.252l-10.875.362H531.341v62.867Zm65.539-119.35H572.2q19.43-.7,23.666-3.019c3.872-2.129,6.474-6.4,7.768-12.791q1.245-6.379,1.243-18.991,0-15.45-2.477-22.919-3.534-10.483-16.941-12.786-2.657-.348-12.712-.357h-41.4Zm280.56,77.268H724.282l-11.775,42.082h-67.8L717.873.022H816.73l74.059,243.5h-66.38Zm-13.013-47.434L768.182,48.453l-29.8,105.553Z"/>
    <path id="Path_31942" data-name="Path 31942" d="M375.353,34.281a86.153,86.153,0,0,1,67.01,31.954l14.126-30.289A123.816,123.816,0,0,0,371.161,2.179c-51.64,0-95.814,31.193-113.938,75.344H229.675l-16.269,34.87h35.436q-.422,4.875-.441,9.772a117.711,117.711,0,0,0,.6,11.822l-17.8.027-16.264,34.88h43.13c18.643,43.033,62.265,73.243,113.094,73.243a124.152,124.152,0,0,0,69.076-20.791V178.6A86.218,86.218,0,0,1,303.1,168.894H393.41l16.262-34.88H289.816a87.869,87.869,0,0,1-.51-21.625H419.759l16.26-34.866H300.576a86.367,86.367,0,0,1,74.778-43.246"/>
    <path id="Path_31943" data-name="Path 31943" d="M375.353,35.325a85.022,85.022,0,0,1,66.2,31.573l1.053,1.3.714-1.517,14.124-30.29.315-.691-.543-.519A125.936,125.936,0,0,0,301.044,22.437a121.519,121.519,0,0,0-44.786,54.692l.965-.649H229l-.278.6L212.46,111.957l-.7,1.489h37.084L247.8,112.31q-.422,4.919-.441,9.86c0,3.914.2,7.944.6,11.956l1.043-1.15H230.537l-.278.6-16.274,34.877-.691,1.489h44.772l-.96-.631c19.441,44.874,64.213,73.873,114.054,73.873a125.107,125.107,0,0,0,69.648-20.958l.459-.306V175.827l-1.827,2.087a85.181,85.181,0,0,1-135.471-9.591l-.872,1.623h90.982l.278-.6,16.264-34.885.7-1.484H289.811l1.039.9a86.818,86.818,0,0,1-.506-21.374l-1.043.941H420.427l.278-.6,16.26-34.875.7-1.489H300.575l.9,1.572a85.721,85.721,0,0,1,73.878-42.727M300.575,78.571H436.014l-.951-1.489-16.255,34.875.946-.6h-131.4l-.1.946a90.247,90.247,0,0,0,.519,21.876l.139.9h120.76l-.946-1.493-16.26,34.875.941-.6H301.155l1.067,1.614a87.289,87.289,0,0,0,138.8,9.832l-1.837-.691v42.745l.464-.863A123.084,123.084,0,0,1,371.165,241.1c-49.011,0-93.022-28.508-112.13-72.617l-.278-.626H214.936l.955,1.5,16.253-34.9-.951.612h18.971l-.12-1.159c-.394-3.942-.6-7.9-.6-11.743,0-2.954.148-6.126.441-9.683l.093-1.132H213.41l.941,1.489,16.265-34.875-.941.6h28.243l.264-.649a119.518,119.518,0,0,1,44.03-53.751A123.856,123.856,0,0,1,455.77,36.7l-.232-1.206-14.117,30.3,1.762-.223A87.318,87.318,0,0,0,299.666,77l-.909,1.572Z"/>
  </g>
</svg>
