<svg xmlns="http://www.w3.org/2000/svg" xmlns:cc="http://creativecommons.org/ns#" xmlns:dc="http://purl.org/dc/elements/1.1/" xmlns:rdf="http://www.w3.org/1999/02/22-rdf-syntax-ns#" width="103.17" height="104.31" enable-background="new 0 0 190 50" version="1.1" viewBox="0 0 103.17322 104.31332" xml:space="preserve">
<path d="m64.567 22.116v20.404l7.1305 4.4899c0.18806 0.05485 0.59552 0.05877 0.78357 0l30.689-20.69c0-2.4487-2.2841-4.2039-3.5731-4.2039h-35.03z" fill="#FFF"/>
<path d="m64.567 50.133 6.5076 4.4703c0.91678 0.67387 2.0216 0 2.0216 0-1.1009 0.67387 30.077-20.036 30.077-20.036v37.502c0 4.0824-2.6132 5.7945-5.5516 5.7945h-33.059v-27.731z" fill="#FFF"/>
<g transform="matrix(3.9179 0 0 3.9179 -13.481 -41.384)" fill="#FFF">
	<path d="m11.321 20.958c-0.566 0-1.017 0.266-1.35 0.797s-0.5 1.234-0.5 2.109c0 0.888 0.167 1.59 0.5 2.106 0.333 0.517 0.77 0.774 1.31 0.774 0.557 0 0.999-0.251 1.325-0.753s0.49-1.199 0.49-2.09c0-0.929-0.158-1.652-0.475-2.169-0.317-0.516-0.75-0.774-1.3-0.774z"/>
	<path d="m3.441 13.563v20.375l15.5 3.25v-26.625l-15.5 3zm10.372 13.632c-0.655 0.862-1.509 1.294-2.563 1.294-1.027 0-1.863-0.418-2.51-1.253-0.646-0.836-0.97-1.924-0.97-3.266 0-1.417 0.328-2.563 0.985-3.438s1.527-1.313 2.61-1.313c1.023 0 1.851 0.418 2.482 1.256 0.632 0.838 0.948 1.942 0.948 3.313 1e-3 1.409-0.327 2.545-0.982 3.407z"/>
</g>
</svg>