<svg xmlns="http://www.w3.org/2000/svg" width="22" height="22" viewBox="0 0 22 22">
    <g fill="#3F6FB6" fill-rule="nonzero">
        <path d="M5 13.575c.007.945.382 1.85 1.042 2.514a3.442 3.442 0 0 0 2.47 1.022 3.48 3.48 0 0 0 2.47-1.061 3.569 3.569 0 0 0 1.004-2.514.39.39 0 0 0-.386-.393.39.39 0 0 0-.386.393c.01.733-.269 1.44-.772 1.964a2.597 2.597 0 0 1-1.968.825 2.687 2.687 0 0 1-1.93-.786 2.664 2.664 0 0 1-.81-1.964c-.01-.733.268-1.44.771-1.964a2.572 2.572 0 0 1 1.93-.825.39.39 0 0 0 .386-.393.39.39 0 0 0-.386-.393 3.48 3.48 0 0 0-2.47 1.06A3.708 3.708 0 0 0 5 13.576z"/>
        <path d="M15.95 14.743l-1.003-.432c-.04-.04-.078-.04-.155-.04a.37.37 0 0 0-.347.236.341.341 0 0 0 0 .275.47.47 0 0 0 .193.197l1.003.432a.32.32 0 0 1 .193.196.254.254 0 0 1 0 .236l-.463 1.1a.305.305 0 0 1-.309.196.14.14 0 0 1-.115-.039l-1.004-.432c-.039 0-.077-.04-.154-.04a.473.473 0 0 0-.31.158 5.986 5.986 0 0 1-1.697 1.728.434.434 0 0 0-.155.472l.425 1.021a.254.254 0 0 1 0 .236c-.039.078-.077.157-.155.157l-1.08.471c-.039 0-.078.04-.116.04a.14.14 0 0 1-.116-.04c-.077-.039-.154-.078-.154-.157l-.425-1.021a.37.37 0 0 0-.347-.236h-.077a6.132 6.132 0 0 1-2.393 0H7.11a.37.37 0 0 0-.347.236l-.425 1.021a.305.305 0 0 1-.308.197.14.14 0 0 1-.116-.04l-1.08-.471a.395.395 0 0 1-.194-.432l.425-1.022a.397.397 0 0 0-.155-.471 6.52 6.52 0 0 1-1.698-1.729.349.349 0 0 0-.309-.157.228.228 0 0 0-.154.04l-1.003.432c-.04 0-.078.039-.116.039a.14.14 0 0 1-.116-.04c-.077-.039-.154-.078-.154-.156l-.464-1.1a.254.254 0 0 1 0-.236c.039-.079.078-.157.155-.157l1.003-.432a.397.397 0 0 0 .232-.433 6.462 6.462 0 0 1 0-2.435.357.357 0 0 0-.232-.432l-1.003-.433a.47.47 0 0 1-.193-.196.254.254 0 0 1 0-.236l.463-1.1a.305.305 0 0 1 .309-.196.14.14 0 0 1 .116.04l1.003.431c.039.04.077.04.154.04a.473.473 0 0 0 .31-.158A5.986 5.986 0 0 1 4.91 8.143a.434.434 0 0 0 .155-.472L4.64 6.65a.254.254 0 0 1 0-.236c.039-.078.077-.157.155-.157l1.08-.471c.039 0 .078-.04.116-.04a.14.14 0 0 1 .116.04c.077.039.154.078.154.157l.425 1.021a.37.37 0 0 0 .347.236.228.228 0 0 0 .155-.04.47.47 0 0 0 .193-.196.341.341 0 0 0 0-.275l-.425-1.021a1.074 1.074 0 0 0-.579-.59A1.368 1.368 0 0 0 5.954 5a1.616 1.616 0 0 0-.425.079l-1.08.471c-.263.11-.472.322-.58.59a1.023 1.023 0 0 0 0 .824l.31.747A7.61 7.61 0 0 0 2.71 9.204l-.733-.315a1.368 1.368 0 0 0-.424-.078 1.616 1.616 0 0 0-.425.078c-.262.11-.47.322-.579.59l-.463 1.1a1.023 1.023 0 0 0 0 .825c.108.267.316.479.579.589l.733.314a6.521 6.521 0 0 0 0 2.122l-.733.314c-.263.11-.471.322-.58.59a1.023 1.023 0 0 0 0 .824l.464 1.1c.108.267.317.48.579.59.137.048.28.074.425.078.144-.007.287-.033.424-.079l.733-.314a7.61 7.61 0 0 0 1.467 1.493l-.309.746a1.09 1.09 0 0 0 .58 1.415l1.08.471c.137.049.28.075.425.079a1.15 1.15 0 0 0 1.003-.668l.309-.747a6.95 6.95 0 0 0 2.084 0l.309.747c.108.267.316.48.579.59.136.048.28.074.424.078.145-.007.287-.034.425-.079l1.08-.471c.263-.11.471-.322.58-.59a1.023 1.023 0 0 0 0-.825l-.31-.746a7.61 7.61 0 0 0 1.467-1.493l.734.314c.136.049.28.075.424.079.145-.007.287-.033.425-.079.262-.11.47-.322.579-.589l.463-1.1a1.023 1.023 0 0 0 0-.825 1.216 1.216 0 0 0-.579-.59zM15.547 4C14.14 4 13 5.16 13 6.593c0 1.432 1.14 2.593 2.547 2.593 1.407 0 2.548-1.161 2.548-2.593 0-.688-.268-1.348-.746-1.834A2.523 2.523 0 0 0 15.547 4zm0 4.4c-.98 0-1.775-.81-1.775-1.807 0-.998.795-1.807 1.775-1.807.98 0 1.776.809 1.776 1.807.008.482-.177.946-.511 1.287a1.73 1.73 0 0 1-1.265.52z"/>
        <path d="M20.772 5.107h-.463a4.821 4.821 0 0 0-.54-1.296l.347-.354a.935.935 0 0 0 .27-.628.788.788 0 0 0-.27-.629l-.618-.628a.903.903 0 0 0-.617-.275.762.762 0 0 0-.618.275l-.347.353a4.647 4.647 0 0 0-1.274-.55V.904a.897.897 0 0 0-.255-.644.866.866 0 0 0-.632-.26h-.85a.866.866 0 0 0-.632.26.897.897 0 0 0-.255.644v.471a4.647 4.647 0 0 0-1.274.55l-.347-.353a.903.903 0 0 0-.618-.275.762.762 0 0 0-.617.275l-.618.628a.935.935 0 0 0-.27.629c-.01.24.09.472.27.628l.347.354a4.82 4.82 0 0 0-.54 1.296h-.463a.866.866 0 0 0-.632.26.897.897 0 0 0-.256.644v.864a.897.897 0 0 0 .256.643c.167.17.395.265.632.26h.463c.116.458.298.895.54 1.297l-.347.354a.935.935 0 0 0-.27.628c-.01.241.09.473.27.629l.618.628a.903.903 0 0 0 .617.275.762.762 0 0 0 .618-.275l.347-.353c.395.246.825.432 1.274.55v.471a.897.897 0 0 0 .255.644c.168.17.396.264.632.26h.85a.866.866 0 0 0 .632-.26.897.897 0 0 0 .255-.644v-.471a4.647 4.647 0 0 0 1.274-.55l.347.353a.903.903 0 0 0 .618.275.762.762 0 0 0 .617-.275l.618-.628a.935.935 0 0 0 .27-.629.788.788 0 0 0-.27-.628l-.347-.354a4.82 4.82 0 0 0 .54-1.296h.463a.866.866 0 0 0 .632-.26.897.897 0 0 0 .256-.644v-.864a.935.935 0 0 0-.888-.904zm-.039 1.886h-.771a.377.377 0 0 0-.386.314 4.559 4.559 0 0 1-.657 1.611.362.362 0 0 0 .039.471l.54.55c.039.04.039.04.039.079 0 .04 0 .079-.039.079l-.617.628c-.039.04-.039.04-.077.04-.039 0-.078 0-.078-.04l-.54-.55a.348.348 0 0 0-.27-.118.292.292 0 0 0-.193.079 4.393 4.393 0 0 1-1.583.668.381.381 0 0 0-.308.393v.785a.124.124 0 0 1-.116.118h-.85a.124.124 0 0 1-.115-.118v-.785a.381.381 0 0 0-.309-.393 4.393 4.393 0 0 1-1.582-.668.645.645 0 0 0-.193-.079.348.348 0 0 0-.27.118l-.54.55c-.04.04-.04.04-.078.04-.039 0-.077 0-.077-.04l-.618-.628c-.038-.04-.038-.04-.038-.079 0-.04 0-.079.038-.079l.54-.55a.362.362 0 0 0 .04-.471 4.559 4.559 0 0 1-.657-1.61.377.377 0 0 0-.386-.315H9.85a.124.124 0 0 1-.116-.118v-.864a.124.124 0 0 1 .116-.118h.772a.377.377 0 0 0 .386-.314 4.559 4.559 0 0 1 .656-1.611.362.362 0 0 0-.038-.471l-.54-.55c-.04-.04-.04-.04-.04-.079 0-.04 0-.079.04-.079l.617-.628c.038-.04.038-.04.077-.04s.077 0 .077.04l.54.55c.07.078.168.12.27.118a.292.292 0 0 0 .194-.079 4.393 4.393 0 0 1 1.582-.668.381.381 0 0 0 .309-.393V.904a.124.124 0 0 1 .116-.118h.849a.124.124 0 0 1 .116.118v.785a.381.381 0 0 0 .308.393 4.393 4.393 0 0 1 1.583.668c.077.04.116.079.193.079a.348.348 0 0 0 .27-.118l.54-.55c.039-.04.039-.04.078-.04.038 0 .077 0 .077.04l.617.628c.039.04.039.04.039.079 0 .04 0 .079-.039.079l-.54.55a.362.362 0 0 0-.039.471c.32.488.543 1.035.657 1.61a.377.377 0 0 0 .386.315h.771a.124.124 0 0 1 .116.118v.903c0 .04-.038.079-.116.079z"/>
    </g>
</svg>
