<svg xmlns="http://www.w3.org/2000/svg" viewBox="6302.5 5077 13.2 14.3">
  <defs>
    <style>
      .cls-1 {
        fill: #3f6fb6;
      }
    </style>
  </defs>
  <path id="Path_1461" data-name="Path 1461" class="cls-1" d="M27.4,2.5a.908.908,0,0,0-.7-.3h-1V1.4a1.222,1.222,0,0,0-.4-.9,1.268,1.268,0,0,0-.9-.4h-.5a1.222,1.222,0,0,0-.9.4,1.268,1.268,0,0,0-.4.9v.8h-3V1.4a1.222,1.222,0,0,0-.4-.9,1.268,1.268,0,0,0-.9-.4h-.5a1.222,1.222,0,0,0-.9.4,1.268,1.268,0,0,0-.4.9v.8h-1a.908.908,0,0,0-.7.3.908.908,0,0,0-.3.7V13.4a1.025,1.025,0,0,0,1,1H26.7a1.025,1.025,0,0,0,1-1V3.2a1.08,1.08,0,0,0-.3-.7ZM23.7,1.4c0-.1,0-.1.1-.2a.349.349,0,0,1,.2-.1h.5c.1,0,.1,0,.2.1a.349.349,0,0,1,.1.2V3.7c0,.1,0,.1-.1.2a.349.349,0,0,1-.2.1H24c-.1,0-.1,0-.2-.1a.349.349,0,0,1-.1-.2Zm-6.1,0c0-.1,0-.1.1-.2a.349.349,0,0,1,.2-.1h.5c.1,0,.1,0,.2.1a.349.349,0,0,1,.1.2V3.7c0,.1,0,.1-.1.2a.349.349,0,0,1-.2.1h-.5c-.1,0-.1,0-.2-.1a.349.349,0,0,1-.1-.2Zm9.1,12H15.6V5.3H26.8v8.1Zm0,0" transform="translate(6288 5076.9)"/>
</svg>
