<svg xmlns="http://www.w3.org/2000/svg" width="22" height="19" viewBox="0 0 22 19">
    <g fill="#FFF" fill-rule="nonzero">
        <path d="M.814 1.629h2.333L6.47 13.653c.095.353.42.597.787.597h10.214c.326 0 .61-.19.746-.489l3.717-8.55a.824.824 0 0 0-.068-.773.808.808 0 0 0-.678-.367H9.902a.816.816 0 0 0-.814.815c0 .448.367.814.814.814H19.94l-3.011 6.921H7.867L4.544.597A.814.814 0 0 0 3.757 0H.814A.816.816 0 0 0 0 .814c0 .448.366.815.814.815zM8.556 19c1.123 0 2.037-.71 2.037-1.583 0-.874-.914-1.584-2.037-1.584-1.124 0-2.037.71-2.037 1.584 0 .873.913 1.583 2.037 1.583zM16.697 19h.15c.54-.035 1.035-.22 1.395-.547.36-.314.525-.72.495-1.15-.075-.861-1.05-1.524-2.175-1.466-1.125.058-1.966.826-1.89 1.686.074.826.96 1.477 2.025 1.477z"/>
    </g>
</svg>
