<svg xmlns="http://www.w3.org/2000/svg" viewBox="6430.8 5077 15 15">
  <defs>
    <style>
      .cls-1 {
        fill: #3f6fb6;
      }
    </style>
  </defs>
  <g id="Group_772" data-name="Group 772" transform="translate(6399 5076.9)">
    <g id="Group_770" data-name="Group 770">
      <path id="Path_1462" data-name="Path 1462" class="cls-1" d="M40,7.8h0a.6.6,0,0,0-.3-.6V3.8a.4.4,0,0,0-.8,0V7.1a.55.55,0,0,0-.3.5.684.684,0,0,0,.7.7h.1l3,3a.424.424,0,1,0,.6-.6Z"/>
    </g>
    <g id="Group_771" data-name="Group 771">
      <path id="Path_1463" data-name="Path 1463" class="cls-1" d="M39.3,15.1a7.555,7.555,0,0,1-7.5-7.5,7.5,7.5,0,0,1,15,0A7.555,7.555,0,0,1,39.3,15.1Zm0-13.6a6.061,6.061,0,0,0-6.1,6.1,6.1,6.1,0,1,0,12.2,0A6.124,6.124,0,0,0,39.3,1.5Z"/>
    </g>
  </g>
</svg>
