<svg xmlns="http://www.w3.org/2000/svg" viewBox="6185 16107.457 40.381 26.543">
  <defs>
    <style>
      .cls-1 {
        fill: #3f6fb6;
      }
    </style>
  </defs>
  <path id="Path_605" data-name="Path 605" class="cls-1" d="M39.3,0H1.068A1.074,1.074,0,0,0,0,1.078V22.167a4.364,4.364,0,0,0,4.337,4.376H36.043a4.364,4.364,0,0,0,4.337-4.376V1.078A1.088,1.088,0,0,0,39.3,0ZM20.867,17.763l11.944-9.5a1.082,1.082,0,0,0-.681-1.914,1.03,1.03,0,0,0-.672.242L20.186,15.533,4,2.155H38.235V22.167a2.207,2.207,0,0,1-2.192,2.211H4.337a2.207,2.207,0,0,1-2.192-2.211V3.41L19.514,17.754A1.073,1.073,0,0,0,20.2,18,1.007,1.007,0,0,0,20.867,17.763Z" transform="translate(6185 16107.457)"/>
</svg>
