<svg id="Group_889" data-name="Group 889" xmlns="http://www.w3.org/2000/svg" viewBox="8258.303 16879.441 39.033 24.855">
  <defs>
    <style>
      .cls-1 {
        fill: #c3daf4;
      }
    </style>
  </defs>
  <path id="Path_1613" data-name="Path 1613" class="cls-1" d="M335.385,21.771a12.381,12.381,0,0,0,8.36,11.726c4.624,1.554,10.283.407,13.353-3.551,2.256-2.774,2.737-6.473,2.515-9.913C355.656,20,351.7,20,347.74,20v4.217c2.367.074,4.735.037,7.1.074a6.867,6.867,0,0,1-4.032,4.7,7.838,7.838,0,1,1-5.253-14.759c2.552-.888,5.142.111,7.324,1.443,1.11-1.036,2.145-2.145,3.144-3.255a12.524,12.524,0,0,0-8.914-3.07,12.4,12.4,0,0,0-11.726,12.428Zm0,0" transform="translate(7922.926 16870.133)"/>
  <path id="Path_1614" data-name="Path 1614" class="cls-1" d="M415.588,28.6c0,1.184-.037,2.367-.037,3.551-1.184,0-2.367,0-3.551.037V35.7c1.184,0,2.367,0,3.551.037,0,1.184,0,2.367.037,3.551H419.1c0-1.184,0-2.367.037-3.551h3.551V32.225c-1.184,0-2.367,0-3.551-.037,0-1.184,0-2.367-.037-3.551-1.147-.037-2.33-.037-3.514-.037Zm0,0" transform="translate(7874.646 16857.979)"/>
</svg>
