<svg xmlns="http://www.w3.org/2000/svg" viewBox="0 0 90.48 90.48"><defs><style>.cls-1{fill:#c3daf4;}</style></defs><g id="Layer_2" data-name="Layer 2"><g id="Layer_1-2" data-name="Layer 1"><path class="cls-1" d="M65.51,0H25A25,25,0,0,0,0,25V65.51a25,25,0,0,0,25,25H65.51a25,25,0,0,0,25-25V25A25,25,0,0,0,65.51,0ZM45.24,68.55A23.31,23.31,0,1,1,68.55,45.24,23.34,23.34,0,0,1,45.24,68.55ZM73.69,25.17A5.89,5.89,0,1,1,75.42,21,5.94,5.94,0,0,1,73.69,25.17Z"/><path class="cls-1" d="M45.24,30A15.29,15.29,0,1,0,60.53,45.24,15.3,15.3,0,0,0,45.24,30Z"/></g></g></svg>
