<svg xmlns="http://www.w3.org/2000/svg" viewBox="8205.305 16876 27.336 27.373">
  <defs>
    <style>
      .cls-1 {
        fill: #c3daf4;
      }
    </style>
  </defs>
  <path id="Path_1609" data-name="Path 1609" class="cls-1" d="M218.977,27.372h-5.659V9.1h5.659Zm-2.848-20.64a3.366,3.366,0,0,1,0-6.732,3.347,3.347,0,0,1,3.329,3.366A3.347,3.347,0,0,1,216.129,6.732Zm24.006,20.64h-5.622v-9.58c0-2.626-1-4.106-3.07-4.106-2.256,0-3.44,1.517-3.44,4.106v9.58h-5.4V9.1H228v2.441a6.366,6.366,0,0,1,5.511-3.033c3.884,0,6.621,2.367,6.621,7.25Z" transform="translate(7992.505 16876)"/>
</svg>
