<svg xmlns="http://www.w3.org/2000/svg" viewBox="4117 5152 254 87.85">
  <defs>
    <style>
      .cls-1 {
        fill: #fff;
      }
    </style>
  </defs>
  <g id="Group_847" data-name="Group 847" transform="translate(3960 -10234)">
    <path id="Path_1556" data-name="Path 1556" class="cls-1" d="M23.91,54.616A47.741,47.741,0,0,1,1.3,49.3h0V47.67l.272.136A47.034,47.034,0,0,0,23.91,53.118a58.953,58.953,0,0,0,17.434-2.724C59.867,44.4,73.487,30.508,75.8,14.709V14.3l1.5.272v.409C74.849,31.325,60.82,45.763,41.752,51.756A57.51,57.51,0,0,1,23.91,54.616Z" transform="translate(157.453 15391.177)"/>
    <path id="Path_1557" data-name="Path 1557" class="cls-1" d="M18.918,27.923A31.446,31.446,0,0,1,4.072,24.382L3.8,24.246l.681-1.362.272.136a30.162,30.162,0,0,0,14.165,3.269,36.26,36.26,0,0,0,11.3-1.771c11.85-3.814,20.43-12.667,22.065-22.61V1.5l1.5.681v.136C52.152,12.8,43.026,22.2,30.632,26.016A35.73,35.73,0,0,1,18.918,27.923Z" transform="translate(158.358 15386.543)"/>
    <path id="Path_1558" data-name="Path 1558" class="cls-1" d="M33.054,69.245a44.116,44.116,0,0,1-21.929-5.584l-.272-.136L9.9,61.073l1.907,1.362a42.361,42.361,0,0,0,21.111,5.448,49.6,49.6,0,0,0,15.255-2.452c16.889-5.312,29.011-18.387,31.054-33.37L79.5,30.7l1.362,1.226v.409c-2.043,15.527-14.71,29.147-32.008,34.6A58.369,58.369,0,0,1,33.054,69.245Z" transform="translate(160.567 15397.114)"/>
    <path id="Path_1559" data-name="Path 1559" class="cls-1" d="M42.354,85.663A42.342,42.342,0,0,1,14.978,75.447,42.022,42.022,0,0,1,.54,49.569a42.17,42.17,0,0,1,7.627-31.6A41.869,41.869,0,0,1,35.817.945,52.9,52.9,0,0,1,42.354.4a42.712,42.712,0,0,1,6.538,84.854A52.658,52.658,0,0,1,42.354,85.663ZM42.218,2.034a32.462,32.462,0,0,0-6.265.545,40.628,40.628,0,0,0-26.7,16.344A41.3,41.3,0,0,0,1.9,49.433C5.035,69.318,22.333,84.3,42.218,84.3a32.462,32.462,0,0,0,6.265-.545c22.2-3.405,37.456-24.516,34.051-46.854A41.192,41.192,0,0,0,42.218,2.034Z" transform="translate(156.987 15386.145)"/>
    <path id="Path_1560" data-name="Path 1560" class="cls-1" d="M46.66,66.383c-.681-1.634-.953-2.043-1.09-2.588-.272-.545-.409-1.226-1.771-4.222l.681-.272a30.684,30.684,0,0,1,1.771,4.222,22.177,22.177,0,0,0,1.09,2.588Z" transform="translate(172.839 15407.468)"/>
    <path id="Path_1561" data-name="Path 1561" class="cls-1" d="M21.069,7.9C19.3,3.814,18.89,3,18.617,2.315A12.311,12.311,0,0,0,17.8.409L18.481,0A12.311,12.311,0,0,1,19.3,1.907c.272.681.681,1.634,2.452,5.584Z" transform="translate(163.427 15386)"/>
    <path id="Path_1562" data-name="Path 1562" class="cls-1" d="M32.456,10.486a26.706,26.706,0,0,1,15.527,30.1C44.714,55.977,28.506,63.2,14.614,57.476c-.409-.136-1.5,1.362-1.09,1.5,12.531,5.176,26.7-.136,33.233-12.258C54.248,33.1,47.3,15.661,33.546,9.8c-.409-.136-1.362.545-1.09.681" transform="translate(161.846 15389.542)"/>
    <path id="Path_1563" data-name="Path 1563" class="cls-1" d="M14.969,53c-1.907-14.574,7.9-28.058,22.473-29.011,12.667-.817,23.563,9.126,26.151,21.52a3.977,3.977,0,0,1,.272,1.226c0,.272,1.362-.136,1.226-.545C62.776,30.8,48.475,20.719,33.765,23.852,20.417,26.712,11.837,40.2,13.88,53.816L14.969,53" transform="translate(161.899 15394.429)"/>
    <path id="Path_1564" data-name="Path 1564" class="cls-1" d="M14.5,45.4" transform="translate(162.232 15402.436)"/>
    <path id="Path_1565" data-name="Path 1565" class="cls-1" d="M62.446,49.807a7.785,7.785,0,0,0-1.09.953c-.136.136-.136-.136-.136-.136A24.416,24.416,0,0,1,25.944,43.95c-7.083-10.9-4.495-25.742,5.039-33.914.681-.545-.409-.681-.817-.272-.136.136-.272.136-.409.272A27.594,27.594,0,0,0,26.353,46.81c8.445,11.3,24.108,12.531,35,5.039L63.4,50.215c.545-.545-.545-.817-.953-.409" transform="translate(164.544 15389.448)"/>
    <path id="Path_1566" data-name="Path 1566" class="cls-1" d="M42.573,82.082c-10.351,0-23.154-5.584-24.925-21.248C4.708,54.978.895,41.085,2.938,30.325,4.708,20.518,12.2,9.35,27.59,9.214a20.676,20.676,0,0,1,9.126,1.907A26.365,26.365,0,0,1,52.379,5.4c8.717,0,17.3,4.767,22.473,12.531a25.619,25.619,0,0,1,2.315,24.789,23.736,23.736,0,0,1-4.222,5.993A35.9,35.9,0,0,1,69,52.662s.136.817.136.953c.953,7.355-.817,14.3-5.312,19.341C59.053,78.677,51.017,82.082,42.573,82.082ZM19.554,63.558c3,12.394,13.893,16.889,23.018,16.889,8.445,0,16.208-3.405,20.975-9.262,4.086-5.039,5.584-11.441,4.222-18.387l-.136-.545.409-.272C76.623,45.988,79.62,36.318,76.487,26.1c-3-9.67-12.394-19.477-24.38-19.477a25.424,25.424,0,0,0-15.118,5.448l-.136.136s-2.043-1.226-7.083-1.5a28.035,28.035,0,0,0-4.495.136,24.99,24.99,0,0,0-7.219,1.907c-9.4,3.677-13.62,12.8-14.029,20.839C3.21,43.673,7.7,56.34,19.01,59.2,19.01,59.2,19.282,62.469,19.554,63.558Z" transform="translate(157.859 15387.954)"/>
    <path id="Path_1567" data-name="Path 1567" class="cls-1" d="M61.1,32.035C60.013,21.684,55.655,13.92,48.3,9.562L49.117,8.2c7.627,4.631,12.531,12.939,13.62,23.563Z" transform="translate(174.468 15388.968)"/>
    <path id="Path_1568" data-name="Path 1568" class="cls-1" d="M32.666,31.3a1.353,1.353,0,0,1-1.226,1.5,1.413,1.413,0,0,1-1.634-1.09,1.353,1.353,0,0,1,1.226-1.5,1.318,1.318,0,0,1,1.634,1.09" transform="translate(167.765 15396.927)"/>
    <path id="Path_1569" data-name="Path 1569" class="cls-1" d="M7.788,17.483a2.729,2.729,0,0,0-3-2.179,2.469,2.469,0,0,0-2.179,2.86,2.53,2.53,0,0,0,3,2.043,2.385,2.385,0,0,0,2.179-2.724" transform="translate(157.912 15391.536)"/>
    <path id="Path_1570" data-name="Path 1570" class="cls-1" d="M38.088,62.183a2.729,2.729,0,0,0-3-2.179,2.469,2.469,0,0,0-2.179,2.86,2.729,2.729,0,0,0,3,2.179,2.493,2.493,0,0,0,2.179-2.86" transform="translate(168.881 15407.719)"/>
    <path id="Path_1571" data-name="Path 1571" class="cls-1" d="M59.188,13.883a2.729,2.729,0,0,0-3-2.179,2.469,2.469,0,0,0-2.179,2.86,2.729,2.729,0,0,0,3,2.179,2.406,2.406,0,0,0,2.179-2.86" transform="translate(176.52 15390.232)"/>
    <path id="Path_1572" data-name="Path 1572" class="cls-1" d="M161.809,58.471h.953V56.836l1.226-.136v1.771h1.907v.953h-1.907V63.51c0,.136.136.272.136.409.136.136.136.136.272.136h1.5v.953c-.136,0-.136,0-.272.136h-1.09a1.727,1.727,0,0,1-.817-.136c-.272,0-.409-.136-.681-.272s-.272-.409-.409-.681a2.655,2.655,0,0,1-.136-1.09V59.424H161.4Z" transform="translate(215.413 15406.526)"/>
    <path id="Path_1573" data-name="Path 1573" class="cls-1" d="M165.9,56.1h1.226v3.133a3.414,3.414,0,0,1,.953-.545,3,3,0,0,1,1.09-.136,1.728,1.728,0,0,1,.817.136c.272.136.409.272.681.409a2.977,2.977,0,0,1,.409.681,2.655,2.655,0,0,1,.136,1.09v4.222h-1.226V60.867a1.76,1.76,0,0,0-.272-1.09c-.136-.272-.409-.272-.817-.272a2.019,2.019,0,0,0-.953.136,2.85,2.85,0,0,0-.817.545v4.9H165.9V56.1Z" transform="translate(217.042 15406.31)"/>
    <path id="Path_1574" data-name="Path 1574" class="cls-1" d="M171.4,58.036h1.09l.136.953a2.312,2.312,0,0,1,.817-.817,1.968,1.968,0,0,1,.953-.272h.545l-.136,1.09h-.681a1.936,1.936,0,0,0-.817.272c-.272.136-.409.409-.681.681v4.631H171.4V58.036Z" transform="translate(219.033 15406.961)"/>
    <path id="Path_1575" data-name="Path 1575" class="cls-1" d="M175,56.1h1.362v1.09H175Zm.136,2.588h1.226v6.538h-1.226Z" transform="translate(220.337 15406.31)"/>
    <path id="Path_1576" data-name="Path 1576" class="cls-1" d="M177.1,58h1.226l1.226,3.677.545,1.771.545-1.771,1.226-3.541h1.226l-2.315,6.538h-1.09Z" transform="translate(221.097 15406.997)"/>
    <path id="Path_1577" data-name="Path 1577" class="cls-1" d="M183.362,61.514a2.171,2.171,0,0,0,.545,1.634,1.7,1.7,0,0,0,1.5.545h.545a.819.819,0,0,0,.545-.136c.136,0,.272-.136.409-.136a.476.476,0,0,0,.272-.136l.272.817a6.641,6.641,0,0,1-.953.409,3.771,3.771,0,0,1-1.226.136,4.03,4.03,0,0,1-1.362-.272,2.443,2.443,0,0,1-.953-.681,2.966,2.966,0,0,1-.681-1.09A4.03,4.03,0,0,1,182,61.241a4.9,4.9,0,0,1,.272-1.5,2.738,2.738,0,0,1,.545-1.09,2.443,2.443,0,0,1,.953-.681A3.977,3.977,0,0,1,185,57.7a3,3,0,0,1,1.09.136,2.5,2.5,0,0,1,1.362,1.362,2.566,2.566,0,0,1,.272,1.09v.953l-4.358.272Zm1.771-2.588a1.228,1.228,0,0,0-.681.136,1.033,1.033,0,0,0-.545.272,1.88,1.88,0,0,0-.409.545,5.672,5.672,0,0,0-.272.817h3.133a1.727,1.727,0,0,0-.136-.817c-.136-.272-.136-.409-.272-.545s-.272-.272-.409-.272C185.541,58.926,185.269,58.926,185.133,58.926Z" transform="translate(222.871 15406.889)"/>
    <path id="Path_1578" data-name="Path 1578" class="cls-1" d="M107.309,58.571h.953V56.936l1.226-.136v1.771h1.907v.953h-1.907V63.61c0,.136.136.272.136.409.136.136.136.136.272.136h1.5v.953c-.136,0-.136,0-.272.136h-1.09a1.728,1.728,0,0,1-.817-.136c-.272,0-.409-.136-.681-.272a2.978,2.978,0,0,1-.409-.681,2.655,2.655,0,0,1-.136-1.09V59.524H106.9Z" transform="translate(195.683 15406.563)"/>
    <path id="Path_1579" data-name="Path 1579" class="cls-1" d="M111.4,58.136h1.09l.136.953a2.312,2.312,0,0,1,.817-.817A1.969,1.969,0,0,1,114.4,58h.545l-.136,1.09h-.681a1.936,1.936,0,0,0-.817.272c-.272.136-.409.409-.681.681v4.631H111.4V58.136Z" transform="translate(197.312 15406.997)"/>
    <path id="Path_1580" data-name="Path 1580" class="cls-1" d="M118.758,60.8V60.66a1.727,1.727,0,0,0-.136-.817c-.136-.272-.136-.409-.272-.545s-.272-.136-.409-.272a5.9,5.9,0,0,0-.681-.136h-.545c-.272,0-.409,0-.545.136-.136,0-.272.136-.409.136s-.272.136-.409.136l-.272-.953c.136-.136.272-.136.409-.272.136,0,.409-.136.545-.136s.409-.136.545-.136h.545a3,3,0,0,1,1.09.136l.817.409a1.251,1.251,0,0,1,.545.817,3.382,3.382,0,0,1,.136,1.226v4.086h-.953l-.136-.681-.272.272c-.136.136-.272.136-.545.272-.136.136-.409.136-.681.272a1.228,1.228,0,0,1-.681.136c-.272,0-.681,0-.817-.136-.272-.136-.409-.272-.681-.409a2.977,2.977,0,0,1-.409-.681,1.481,1.481,0,0,1-.136-.681c0-.272.136-.545.136-.817a2.391,2.391,0,0,1,.545-.681l.817-.409a2.655,2.655,0,0,1,1.09-.136Zm-1.771,3a1.228,1.228,0,0,0,.681-.136c.136,0,.409-.136.545-.136.136-.136.272-.136.409-.272s.136-.136.272-.136V61.477h-1.226a1.727,1.727,0,0,0-.817.136,1.881,1.881,0,0,0-.545.409c-.136.136-.136.272-.272.409s0,.272,0,.409a.5.5,0,0,0,.136.409c.136.136.136.272.272.272a.5.5,0,0,0,.409.136C116.715,63.793,116.852,63.793,116.988,63.793Z" transform="translate(198.398 15406.925)"/>
    <path id="Path_1581" data-name="Path 1581" class="cls-1" d="M120,58.1h1.09l.136.681a3.414,3.414,0,0,1,.953-.545,3,3,0,0,1,1.09-.136,1.728,1.728,0,0,1,.817.136,1.814,1.814,0,0,1,.681.409,2.977,2.977,0,0,1,.409.681,2.655,2.655,0,0,1,.136,1.09v4.358h-1.226V59.734c0-.136-.136-.272-.136-.409-.136-.136-.272-.136-.409-.272s-.272-.136-.545-.136a1.968,1.968,0,0,0-.953.272,2.849,2.849,0,0,0-.817.545v4.9H120V58.1Z" transform="translate(200.425 15407.033)"/>
    <path id="Path_1582" data-name="Path 1582" class="cls-1" d="M130.067,62.8a1.728,1.728,0,0,1-.136.817,2.392,2.392,0,0,1-.545.681,4.534,4.534,0,0,1-.817.409,2.318,2.318,0,0,1-.953.136h-.681a1.228,1.228,0,0,1-.681-.136,1.03,1.03,0,0,0-.545-.136c-.136,0-.272-.136-.409-.272l.272-.953c.136,0,.272.136.545.136s.272.136.545.136c.136,0,.272.136.545.136h.681a1.969,1.969,0,0,0,.953-.272,1.04,1.04,0,0,0,.272-.681.5.5,0,0,0-.136-.409l-.272-.272c-.136-.136-.272-.136-.409-.272a.819.819,0,0,0-.545-.136c-.272-.136-.545-.136-.817-.272s-.409-.272-.681-.409a1.88,1.88,0,0,1-.409-.545,1.021,1.021,0,0,1-.136-.681,1.728,1.728,0,0,1,.136-.817,1.063,1.063,0,0,1,.545-.545,4.535,4.535,0,0,1,.817-.409,2.655,2.655,0,0,1,1.09-.136,3.771,3.771,0,0,1,1.226.136c.409.136.681.136.817.272l-.272.953c-.136,0-.272-.136-.409-.136s-.272-.136-.409-.136a.5.5,0,0,1-.409-.136H128.3a1.968,1.968,0,0,0-.953.272,1.04,1.04,0,0,0-.272.681v.409c0,.136.136.136.272.272s.272.136.409.272.409.136.545.272a3.465,3.465,0,0,0,.953.272,2.978,2.978,0,0,1,.681.409,1.881,1.881,0,0,1,.409.545A.544.544,0,0,0,130.067,62.8Z" transform="translate(202.344 15406.961)"/>
    <path id="Path_1583" data-name="Path 1583" class="cls-1" d="M129.872,58.824h.817v-.409a2.655,2.655,0,0,1,.136-1.09,1.637,1.637,0,0,1,1.09-1.09,2.02,2.02,0,0,1,.953-.136h.817c.136,0,.136,0,.272.136v.953h-1.09a.819.819,0,0,0-.545.136c-.136,0-.272.136-.409.272a.5.5,0,0,0-.136.409V59.1h1.907v.953h-1.907v5.584h-1.226V60.05H129.6Z" transform="translate(203.901 15406.31)"/>
    <path id="Path_1584" data-name="Path 1584" class="cls-1" d="M133.4,61.405a4.03,4.03,0,0,1,.272-1.362,2.966,2.966,0,0,1,.681-1.09,2.443,2.443,0,0,1,.953-.681,2.894,2.894,0,0,1,2.452,0,2.443,2.443,0,0,1,.953.681,2.966,2.966,0,0,1,.681,1.09,4.838,4.838,0,0,1,.272,1.362,4.03,4.03,0,0,1-.272,1.362,2.965,2.965,0,0,1-.681,1.09,2.443,2.443,0,0,1-.953.681,2.894,2.894,0,0,1-2.452,0,2.443,2.443,0,0,1-.953-.681,7.6,7.6,0,0,1-.681-1.09A4.03,4.03,0,0,1,133.4,61.405Zm1.226,0a2.655,2.655,0,0,0,.136,1.09l.409.817c.136.136.409.409.545.409a1.228,1.228,0,0,0,.681.136,1.021,1.021,0,0,0,.681-.136,1.88,1.88,0,0,0,.545-.409,2.218,2.218,0,0,0,.409-.817,4.427,4.427,0,0,0,0-2.179l-.409-.817a.73.73,0,0,0-.545-.409,1.228,1.228,0,0,0-.681-.136,1.021,1.021,0,0,0-.681.136,1.88,1.88,0,0,0-.545.409,2.218,2.218,0,0,0-.409.817C134.762,60.588,134.626,61,134.626,61.405Z" transform="translate(205.277 15406.997)"/>
    <path id="Path_1585" data-name="Path 1585" class="cls-1" d="M139.2,58.136h1.09l.136.953a2.312,2.312,0,0,1,.817-.817A1.969,1.969,0,0,1,142.2,58h.545l-.136,1.09h-.681a1.936,1.936,0,0,0-.817.272c-.272.136-.409.409-.681.681v4.631H139.2V58.136Z" transform="translate(207.376 15406.997)"/>
    <path id="Path_1586" data-name="Path 1586" class="cls-1" d="M142.8,58.136h1.09l.136.545a3.415,3.415,0,0,1,.953-.545A3.023,3.023,0,0,1,146.205,58a2.655,2.655,0,0,1,1.09.136,1.36,1.36,0,0,1,.681.545A2.874,2.874,0,0,1,150.155,58a1.728,1.728,0,0,1,.817.136c.272.136.545.136.681.409s.272.409.409.681a2.655,2.655,0,0,1,.136,1.09v4.358h-1.226V60.315a1.587,1.587,0,0,0-.272-.953,1.151,1.151,0,0,0-.817-.272,1.728,1.728,0,0,0-.817.136l-.817.409V64.81h-1.226V60.043a.963.963,0,0,0-1.09-1.09,2.02,2.02,0,0,0-.953.136,2.849,2.849,0,0,0-.817.545v4.9h-1.226l-.136-6.4Z" transform="translate(208.68 15406.997)"/>
    <path id="Path_1587" data-name="Path 1587" class="cls-1" d="M83.417,17.189H78.922V30.537H74.7V.3h4.222V13.92h4.358L91.317.3h4.631L86.958,15.282h0L97.582,30.537h-4.9Z" transform="translate(184.026 15386.108)"/>
    <path id="Path_1588" data-name="Path 1588" class="cls-1" d="M94,.3h4.222l15.118,23.427V.3h4.222V30.537h-4.222L98.222,7.11V30.673H94Z" transform="translate(191.013 15386.108)"/>
    <path id="Path_1589" data-name="Path 1589" class="cls-1" d="M114.8,15.527a18.617,18.617,0,0,1,.953-6.4,16.733,16.733,0,0,1,2.588-4.9,10.3,10.3,0,0,1,4.086-3.133,12.837,12.837,0,0,1,10.351,0,11.345,11.345,0,0,1,4.086,3.133,12.117,12.117,0,0,1,2.588,4.9,19.143,19.143,0,0,1,.953,6.4,19.968,19.968,0,0,1-.953,6.538,16.733,16.733,0,0,1-2.588,4.9,11.709,11.709,0,0,1-4.086,3.133,12.837,12.837,0,0,1-10.351,0,11.345,11.345,0,0,1-4.086-3.133,14.044,14.044,0,0,1-2.588-4.9A19.429,19.429,0,0,1,114.8,15.527Zm4.222,0a22.064,22.064,0,0,0,.681,5.448,9.032,9.032,0,0,0,1.771,3.814A7.307,7.307,0,0,0,124.2,27.1a7.384,7.384,0,0,0,3.405.817,7.947,7.947,0,0,0,3.541-.817,7.307,7.307,0,0,0,2.724-2.315,10.947,10.947,0,0,0,1.771-3.814,21.237,21.237,0,0,0,.681-5.448,22.064,22.064,0,0,0-.681-5.448,9.032,9.032,0,0,0-1.771-3.814,7.307,7.307,0,0,0-2.724-2.315,7.541,7.541,0,0,0-3.541-.817,6.994,6.994,0,0,0-3.405.817,8.536,8.536,0,0,0-2.724,2.315,10.947,10.947,0,0,0-1.771,3.814A22.064,22.064,0,0,0,119.022,15.527Z" transform="translate(198.543 15386)"/>
    <path id="Path_1590" data-name="Path 1590" class="cls-1" d="M166.263.3h4.222l-6.538,30.237h-4.495L152.779,7.246l-6.81,23.291h-4.495L134.8.3h4.358l4.631,24.789L150.6.3h3.95l6.81,24.925Z" transform="translate(205.783 15386.108)"/>
    <path id="Path_1591" data-name="Path 1591" class="cls-1" d="M74.4,42.527a19.142,19.142,0,0,1,.953-6.4,14.284,14.284,0,0,1,2.724-4.9A11.8,11.8,0,0,1,82.3,28.09,14.574,14.574,0,0,1,87.884,27a10.309,10.309,0,0,1,2.043.136c.545.136,1.09.136,1.634.272s.953.272,1.362.409.817.409,1.226.545l-1.226,3c-.681-.272-1.5-.545-2.315-.817a16.767,16.767,0,0,0-2.724-.272,11.817,11.817,0,0,0-3.814.681,6.457,6.457,0,0,0-2.86,2.179A10.035,10.035,0,0,0,79.3,36.943a21.557,21.557,0,0,0-.681,5.584,22.364,22.364,0,0,0,.681,5.584,10.035,10.035,0,0,0,1.907,3.814,7.726,7.726,0,0,0,3,2.179,9.667,9.667,0,0,0,3.95.681,7.2,7.2,0,0,0,1.771-.136c.545-.136.953-.136,1.5-.272l1.226-.409c.409-.136.681-.272,1.09-.409l.953,2.86a8.316,8.316,0,0,1-2.724,1.226,16.487,16.487,0,0,1-4.086.545A14.574,14.574,0,0,1,82.3,57.1a10.735,10.735,0,0,1-4.222-3.133,14.284,14.284,0,0,1-2.724-4.9A21.109,21.109,0,0,1,74.4,42.527Z" transform="translate(183.917 15395.774)"/>
    <path id="Path_1592" data-name="Path 1592" class="cls-1" d="M92.8,27.3h9.534a14.133,14.133,0,0,1,4.358.545,12.243,12.243,0,0,1,3.269,1.634A8.422,8.422,0,0,1,112,32.2a8.067,8.067,0,0,1,.681,3.677,6.362,6.362,0,0,1-.409,2.315,8.156,8.156,0,0,1-1.09,2.179,9.379,9.379,0,0,1-1.5,1.771,17.251,17.251,0,0,1-1.771,1.5l6.265,13.893h-4.358L103.969,44.6H97.022V57.537H92.8V27.3Zm4.222,3.269v10.76h8.717c.272-.272.681-.545.953-.817a7.555,7.555,0,0,0,.817-1.09,4.879,4.879,0,0,0,.545-1.5,8.244,8.244,0,0,0,.272-2.043,6.6,6.6,0,0,0-.409-2.452,3.718,3.718,0,0,0-1.226-1.634,7.118,7.118,0,0,0-2.043-.953,8.823,8.823,0,0,0-2.724-.272Z" transform="translate(190.578 15395.883)"/>
    <path id="Path_1593" data-name="Path 1593" class="cls-1" d="M129.424,27.3h4.222V48.411a9.952,9.952,0,0,1-.817,4.086,8.446,8.446,0,0,1-2.315,3,9.412,9.412,0,0,1-3.677,1.907,17.3,17.3,0,0,1-4.631.681,16.517,16.517,0,0,1-4.631-.681,9.837,9.837,0,0,1-3.541-1.907,8.445,8.445,0,0,1-2.315-3,9.952,9.952,0,0,1-.817-4.086V27.3h4.222V48.411a6.149,6.149,0,0,0,2.043,4.767,6.276,6.276,0,0,0,2.315,1.226,9.055,9.055,0,0,0,2.86.409,10.622,10.622,0,0,0,3-.409,6.276,6.276,0,0,0,2.315-1.226,6.149,6.149,0,0,0,2.043-4.767C129.424,48.411,129.424,27.3,129.424,27.3Z" transform="translate(197.131 15395.883)"/>
    <path id="Path_1594" data-name="Path 1594" class="cls-1" d="M131.1,27.3h4.222l15.118,23.427V27.3h4.222V57.537h-4.222L135.322,33.974V57.537H131.1Z" transform="translate(204.444 15395.883)"/>
    <path id="Path_1595" data-name="Path 1595" class="cls-1" d="M151.7,42.527a19.143,19.143,0,0,1,.953-6.4,14.284,14.284,0,0,1,2.724-4.9A11.8,11.8,0,0,1,159.6,28.09,14.574,14.574,0,0,1,165.184,27a10.309,10.309,0,0,1,2.043.136c.545.136,1.09.136,1.634.272s.953.272,1.362.409.817.409,1.226.545l-1.226,2.86c-.681-.272-1.5-.545-2.315-.817a16.768,16.768,0,0,0-2.724-.272,11.816,11.816,0,0,0-3.814.681,6.457,6.457,0,0,0-2.86,2.179,10.035,10.035,0,0,0-1.907,3.814,21.559,21.559,0,0,0-.681,5.584,22.366,22.366,0,0,0,.681,5.584,10.036,10.036,0,0,0,1.907,3.814,7.726,7.726,0,0,0,3,2.179,9.667,9.667,0,0,0,3.95.681,7.2,7.2,0,0,0,1.771-.136c.545-.136.953-.136,1.5-.272l1.226-.409c.409-.136.681-.272,1.09-.409l.953,2.86a8.315,8.315,0,0,1-2.724,1.226,16.487,16.487,0,0,1-4.086.545,14.574,14.574,0,0,1-5.584-1.09,10.735,10.735,0,0,1-4.222-3.133,14.284,14.284,0,0,1-2.724-4.9A19.144,19.144,0,0,1,151.7,42.527Z" transform="translate(211.902 15395.774)"/>
    <path id="Path_1596" data-name="Path 1596" class="cls-1" d="M169.9,27.3h4.222V40.784h14.165V27.3h4.222V57.537h-4.222V44.053H174.122V57.537H169.9Z" transform="translate(218.49 15395.883)"/>
    <path id="Path_1597" data-name="Path 1597" class="cls-1" d="M74.6,56.1h1.226v9.126H74.6Z" transform="translate(183.99 15406.31)"/>
    <path id="Path_1598" data-name="Path 1598" class="cls-1" d="M78.262,61.614a2.171,2.171,0,0,0,.545,1.634,1.7,1.7,0,0,0,1.5.545h.545a.819.819,0,0,0,.545-.136c.136,0,.272-.136.409-.136a.476.476,0,0,0,.272-.136l.272.817a6.639,6.639,0,0,1-.953.409,3.771,3.771,0,0,1-1.226.136,4.029,4.029,0,0,1-1.362-.272,2.443,2.443,0,0,1-.953-.681,2.966,2.966,0,0,1-.681-1.09,4.03,4.03,0,0,1-.272-1.362,4.9,4.9,0,0,1,.272-1.5,2.738,2.738,0,0,1,.545-1.09,2.443,2.443,0,0,1,.953-.681A3.977,3.977,0,0,1,79.9,57.8a3,3,0,0,1,1.09.136A2.5,2.5,0,0,1,82.348,59.3a2.566,2.566,0,0,1,.272,1.09v.953l-4.358.272Zm1.771-2.588a1.228,1.228,0,0,0-.681.136,1.033,1.033,0,0,0-.545.272,1.88,1.88,0,0,0-.409.545,5.678,5.678,0,0,0-.272.817h3.133a1.728,1.728,0,0,0-.136-.817c-.136-.272-.136-.409-.272-.545s-.272-.272-.409-.272S80.169,59.026,80.033,59.026Z" transform="translate(184.822 15406.925)"/>
    <path id="Path_1599" data-name="Path 1599" class="cls-1" d="M86.258,60.76v-.136a1.728,1.728,0,0,0-.136-.817c-.136-.272-.136-.409-.272-.409-.136-.136-.272-.136-.409-.272a5.9,5.9,0,0,0-.681-.136h-.545a.819.819,0,0,0-.545.136c-.136,0-.272.136-.409.136s-.272.136-.409.136l-.272-.953c.136-.136.272-.136.409-.272a.819.819,0,0,1,.545-.136c.136,0,.409-.136.545-.136h.545a3,3,0,0,1,1.09.136l.817.409a1.251,1.251,0,0,1,.545.817,3.382,3.382,0,0,1,.136,1.226v4.086h-.953l-.136-.681-.272.272c-.136.136-.272.136-.545.272-.136.136-.409.136-.681.272a1.228,1.228,0,0,1-.681.136c-.272,0-.681,0-.817-.136-.272-.136-.409-.272-.681-.409a2.978,2.978,0,0,1-.409-.681,1.481,1.481,0,0,1-.136-.681,1.727,1.727,0,0,1,.136-.817,2.391,2.391,0,0,1,.545-.681l.817-.409a2.655,2.655,0,0,1,1.09-.136l1.771-.136Zm-1.771,3a1.228,1.228,0,0,0,.681-.136c.136,0,.409-.136.545-.136.136-.136.272-.136.409-.272s.136-.136.272-.136V61.441H85.169a1.727,1.727,0,0,0-.817.136,1.88,1.88,0,0,0-.545.409c-.136.136-.136.272-.272.409V62.8a.5.5,0,0,0,.136.409c.136.136.136.272.272.272a.5.5,0,0,0,.409.136C84.215,63.757,84.352,63.757,84.488,63.757Z" transform="translate(186.632 15406.961)"/>
    <path id="Path_1600" data-name="Path 1600" class="cls-1" d="M87.5,58.136h1.09l.136.953a2.313,2.313,0,0,1,.817-.817A1.968,1.968,0,0,1,90.5,58h.545l-.136,1.09h-.681a1.936,1.936,0,0,0-.817.272c-.272.136-.409.409-.681.681v4.631H87.5Z" transform="translate(188.66 15406.997)"/>
    <path id="Path_1601" data-name="Path 1601" class="cls-1" d="M91.1,58.1h1.09l.136.681a3.414,3.414,0,0,1,.953-.545,3,3,0,0,1,1.09-.136,1.728,1.728,0,0,1,.817.136,1.814,1.814,0,0,1,.681.409,2.977,2.977,0,0,1,.409.681,2.655,2.655,0,0,1,.136,1.09v4.358H95.186V59.734c0-.136-.136-.272-.136-.409-.136-.136-.272-.136-.409-.272s-.272-.136-.545-.136a1.968,1.968,0,0,0-.953.272c-.272.136-.545.136-.817.409v4.9H91.1V58.1Z" transform="translate(189.963 15407.033)"/>
    <path id="Dots_3_" class="cls-1" d="M103.282,60.4a1.709,1.709,0,0,1-1.634,1.907,1.826,1.826,0,0,1-2.043-1.5,1.709,1.709,0,0,1,1.634-1.907,1.752,1.752,0,0,1,2.043,1.5" transform="translate(193.036 15407.318)"/>
    <path id="Dots_2_" class="cls-1" d="M157.882,60.3a1.709,1.709,0,0,1-1.634,1.907,1.752,1.752,0,0,1-2.043-1.5,1.709,1.709,0,0,1,1.634-1.907,1.752,1.752,0,0,1,2.043,1.5" transform="translate(212.802 15407.282)"/>
  </g>
</svg>
