<svg xmlns="http://www.w3.org/2000/svg" viewBox="6186 1386 186.487 64.5">
  <defs>
    <style>
      .cls-1 {
        fill: #fff;
      }

      .cls-2 {
        fill: #7bb752;
      }

      .cls-3 {
        fill: #f3ec54;
      }

      .cls-4 {
        fill: #79c5f2;
      }

      .cls-5 {
        fill: #85a2bc;
      }

      .cls-6 {
        fill: #fdfdfc;
      }
    </style>
  </defs>
  <g id="Group_249" data-name="Group 249" transform="translate(6185.987 1386)">
    <g id="EARTH_2_">
      <g id="new_earth_lines_2_">
        <g id="Group_230" data-name="Group 230">
          <g id="Group_229" data-name="Group 229">
            <path id="Path_415" data-name="Path 415" class="cls-1" d="M17.9,43.9A35.052,35.052,0,0,1,1.3,40h0V38.8l.2.1a34.532,34.532,0,0,0,16.4,3.9,43.283,43.283,0,0,0,12.8-2C44.3,36.4,54.3,26.2,56,14.6v-.3l1.1.2v.3C55.3,26.8,45,37.4,31,41.8A42.224,42.224,0,0,1,17.9,43.9Z"/>
          </g>
        </g>
        <g id="Group_232" data-name="Group 232">
          <g id="Group_231" data-name="Group 231">
            <path id="Path_416" data-name="Path 416" class="cls-1" d="M14.9,20.9A23.088,23.088,0,0,1,4,18.3l-.2-.1.5-1,.2.1a22.145,22.145,0,0,0,10.4,2.4,26.622,26.622,0,0,0,8.3-1.3c8.7-2.8,15-9.3,16.2-16.6V1.5l1.1.5v.1c-1.2,7.7-7.9,14.6-17,17.4A26.233,26.233,0,0,1,14.9,20.9Z"/>
          </g>
        </g>
        <g id="Group_234" data-name="Group 234">
          <g id="Group_233" data-name="Group 233">
            <path id="Path_417" data-name="Path 417" class="cls-1" d="M26.9,59a32.39,32.39,0,0,1-16.1-4.1l-.2-.1L9.9,53l1.4,1a31.1,31.1,0,0,0,15.5,4A36.42,36.42,0,0,0,38,56.2c12.4-3.9,21.3-13.5,22.8-24.5l.2-1,1,.9v.3C60.5,43.3,51.2,53.3,38.5,57.3A42.855,42.855,0,0,1,26.9,59Z"/>
          </g>
        </g>
      </g>
      <g id="Group_235" data-name="Group 235">
        <path id="Path_418" data-name="Path 418" class="cls-1" d="M31.1,63A31.087,31.087,0,0,1,11,55.5,30.853,30.853,0,0,1,.4,36.5,30.961,30.961,0,0,1,6,13.3,30.741,30.741,0,0,1,26.3.8,38.838,38.838,0,0,1,31.1.4a31.359,31.359,0,0,1,4.8,62.3A38.662,38.662,0,0,1,31.1,63ZM31,1.6a23.834,23.834,0,0,0-4.6.4A29.829,29.829,0,0,0,6.8,14,30.247,30.247,0,0,0,31,62a23.834,23.834,0,0,0,4.6-.4A30.2,30.2,0,0,0,31,1.6Z"/>
      </g>
      <g id="Group_237" data-name="Group 237">
        <g id="Group_236" data-name="Group 236">
          <path id="Path_419" data-name="Path 419" class="cls-1" d="M45.9,64.5c-.5-1.2-.7-1.5-.8-1.9-.2-.4-.3-.9-1.3-3.1l.5-.2a22.527,22.527,0,0,1,1.3,3.1,16.282,16.282,0,0,0,.8,1.9Z"/>
        </g>
      </g>
      <g id="Group_239" data-name="Group 239">
        <g id="Group_238" data-name="Group 238">
          <path id="Path_420" data-name="Path 420" class="cls-1" d="M20.2,5.8c-1.3-3-1.6-3.6-1.8-4.1A9.039,9.039,0,0,0,17.8.3l.5-.3a9.039,9.039,0,0,1,.6,1.4c.2.5.5,1.2,1.8,4.1Z"/>
        </g>
      </g>
    </g>
    <g id="INTERNAL_SHAPE_2_">
      <g id="Group_240" data-name="Group 240">
        <path id="Path_421" data-name="Path 421" class="cls-2" d="M27.4,10.3A19.608,19.608,0,0,1,38.8,32.4C36.4,43.7,24.5,49,14.3,44.8c-.3-.1-1.1,1-.8,1.1a19.3,19.3,0,0,0,24.4-9c5.5-10,.4-22.8-9.7-27.1-.3-.1-1,.4-.8.5"/>
      </g>
      <g id="Group_241" data-name="Group 241">
        <path id="Path_422" data-name="Path 422" class="cls-3" d="M14.6,45.1c-1.4-10.7,5.8-20.6,16.5-21.3,9.3-.6,17.3,6.7,19.2,15.8a2.92,2.92,0,0,1,.2.9c0,.2,1-.1.9-.4a19.327,19.327,0,0,0-23-16.4c-9.8,2.1-16.1,12-14.6,22l.8-.6"/>
        <path id="Path_423" data-name="Path 423" class="cls-3" d="M14.5,45.4"/>
      </g>
      <g id="Group_242" data-name="Group 242">
        <path id="Path_424" data-name="Path 424" class="cls-4" d="M51.4,39.1a5.716,5.716,0,0,0-.8.7c-.1.1-.1-.1-.1-.1a17.926,17.926,0,0,1-25.9-4.9A19.405,19.405,0,0,1,28.3,9.9c.5-.4-.3-.5-.6-.2-.1.1-.2.1-.3.2a20.26,20.26,0,0,0-2.5,27c6.2,8.3,17.7,9.2,25.7,3.7l1.5-1.2c.4-.4-.4-.6-.7-.3"/>
      </g>
    </g>
    <g id="EXTERNAL_SHAPE_2_">
      <g id="Group_243" data-name="Group 243">
        <path id="Path_425" data-name="Path 425" class="cls-5" d="M31.9,61.7c-7.6,0-17-4.1-18.3-15.6C4.1,41.8,1.3,31.6,2.8,23.7,4.1,16.5,9.6,8.3,20.9,8.2a15.18,15.18,0,0,1,6.7,1.4A19.357,19.357,0,0,1,39.1,5.4a20.215,20.215,0,0,1,16.5,9.2,18.81,18.81,0,0,1,1.7,18.2,17.427,17.427,0,0,1-3.1,4.4,26.36,26.36,0,0,1-2.9,2.9s.1.6.1.7c.7,5.4-.6,10.5-3.9,14.2C44,59.2,38.1,61.7,31.9,61.7ZM15,48.1c2.2,9.1,10.2,12.4,16.9,12.4a19.726,19.726,0,0,0,15.4-6.8,15.965,15.965,0,0,0,3.1-13.5l-.1-.4.3-.2c6.3-4.4,8.5-11.5,6.2-19C54.6,13.5,47.7,6.3,38.9,6.3a18.666,18.666,0,0,0-11.1,4l-.1.1s-1.5-.9-5.2-1.1a20.583,20.583,0,0,0-3.3.1,18.348,18.348,0,0,0-5.3,1.4C7,13.5,3.9,20.2,3.6,26.1c-.6,7.4,2.7,16.7,11,18.8C14.6,44.9,14.8,47.3,15,48.1Z"/>
      </g>
      <g id="Group_244" data-name="Group 244">
        <path id="Path_426" data-name="Path 426" class="cls-5" d="M57.7,25.7c-.8-7.6-4-13.3-9.4-16.5l.6-1c5.6,3.4,9.2,9.5,10,17.3Z"/>
      </g>
    </g>
    <g id="BALLS_2_">
      <g id="Group_245" data-name="Group 245">
        <path id="Path_427" data-name="Path 427" class="cls-1" d="M31.9,31a.993.993,0,0,1-.9,1.1,1.037,1.037,0,0,1-1.2-.8.993.993,0,0,1,.9-1.1.968.968,0,0,1,1.2.8"/>
      </g>
      <g id="Group_246" data-name="Group 246">
        <path id="Path_428" data-name="Path 428" class="cls-1" d="M6.4,16.9a2,2,0,0,0-2.2-1.6,1.812,1.812,0,0,0-1.6,2.1,1.858,1.858,0,0,0,2.2,1.5,1.751,1.751,0,0,0,1.6-2"/>
      </g>
      <g id="Group_247" data-name="Group 247">
        <path id="Path_429" data-name="Path 429" class="cls-1" d="M36.7,61.6A2,2,0,0,0,34.5,60a1.812,1.812,0,0,0-1.6,2.1,2,2,0,0,0,2.2,1.6,1.83,1.83,0,0,0,1.6-2.1"/>
      </g>
      <g id="Group_248" data-name="Group 248">
        <path id="Path_430" data-name="Path 430" class="cls-1" d="M57.8,13.3a2,2,0,0,0-2.2-1.6A1.812,1.812,0,0,0,54,13.8a2,2,0,0,0,2.2,1.6,1.767,1.767,0,0,0,1.6-2.1"/>
      </g>
    </g>
    <g id="THRIVE_2_">
      <path id="Path_431" data-name="Path 431" class="cls-1" d="M161.7,58h.7V56.8l.9-.1V58h1.4v.7h-1.4v3c0,.1.1.2.1.3.1.1.1.1.2.1h1.1v.7c-.1,0-.1,0-.2.1h-.8a1.268,1.268,0,0,1-.6-.1c-.2,0-.3-.1-.5-.2s-.2-.3-.3-.5a1.949,1.949,0,0,1-.1-.8V58.7h-.8Z"/>
      <path id="Path_432" data-name="Path 432" class="cls-1" d="M165.9,56.1h.9v2.3a2.507,2.507,0,0,1,.7-.4,2.2,2.2,0,0,1,.8-.1,1.268,1.268,0,0,1,.6.1c.2.1.3.2.5.3a2.186,2.186,0,0,1,.3.5,1.949,1.949,0,0,1,.1.8v3.1h-.9V59.6a1.292,1.292,0,0,0-.2-.8c-.1-.2-.3-.2-.6-.2a1.483,1.483,0,0,0-.7.1,2.092,2.092,0,0,0-.6.4v3.6h-.9V56.1Z"/>
      <path id="Path_433" data-name="Path 433" class="cls-1" d="M171.4,58h.8l.1.7a1.7,1.7,0,0,1,.6-.6,1.445,1.445,0,0,1,.7-.2h.4l-.1.8h-.5a1.421,1.421,0,0,0-.6.2c-.2.1-.3.3-.5.5v3.4h-.9V58Z"/>
      <path id="Path_434" data-name="Path 434" class="cls-1" d="M175,56.1h1v.8h-1Zm.1,1.9h.9v4.8h-.9Z"/>
      <path id="Path_435" data-name="Path 435" class="cls-1" d="M177.1,58h.9l.9,2.7.4,1.3.4-1.3.9-2.6h.9l-1.7,4.8H179Z"/>
      <path id="Path_436" data-name="Path 436" class="cls-1" d="M183,60.5a1.594,1.594,0,0,0,.4,1.2,1.246,1.246,0,0,0,1.1.4h.4a.6.6,0,0,0,.4-.1c.1,0,.2-.1.3-.1a.349.349,0,0,0,.2-.1l.2.6a4.875,4.875,0,0,1-.7.3,2.769,2.769,0,0,1-.9.1,2.958,2.958,0,0,1-1-.2,1.794,1.794,0,0,1-.7-.5,2.178,2.178,0,0,1-.5-.8,2.958,2.958,0,0,1-.2-1,3.6,3.6,0,0,1,.2-1.1,2.01,2.01,0,0,1,.4-.8,1.794,1.794,0,0,1,.7-.5,2.92,2.92,0,0,1,.9-.2,2.2,2.2,0,0,1,.8.1,1.838,1.838,0,0,1,1,1,1.884,1.884,0,0,1,.2.8v.7l-3.2.2Zm1.3-1.9a.9.9,0,0,0-.5.1.758.758,0,0,0-.4.2,1.38,1.38,0,0,0-.3.4,4.167,4.167,0,0,0-.2.6h2.3a1.268,1.268,0,0,0-.1-.6c-.1-.2-.1-.3-.2-.4s-.2-.2-.3-.2C184.6,58.6,184.4,58.6,184.3,58.6Z"/>
    </g>
    <g id="TRANSFORM_2_">
      <path id="Path_437" data-name="Path 437" class="cls-1" d="M107.2,58.1h.7V56.9l.9-.1v1.3h1.4v.7h-1.4v3c0,.1.1.2.1.3.1.1.1.1.2.1h1.1v.7c-.1,0-.1,0-.2.1h-.8a1.268,1.268,0,0,1-.6-.1c-.2,0-.3-.1-.5-.2a2.186,2.186,0,0,1-.3-.5,1.949,1.949,0,0,1-.1-.8V58.8h-.8Z"/>
      <path id="Path_438" data-name="Path 438" class="cls-1" d="M111.4,58.1h.8l.1.7a1.7,1.7,0,0,1,.6-.6,1.445,1.445,0,0,1,.7-.2h.4l-.1.8h-.5a1.421,1.421,0,0,0-.6.2c-.2.1-.3.3-.5.5v3.4h-.9V58.1Z"/>
      <path id="Path_439" data-name="Path 439" class="cls-1" d="M117.6,60v-.1a1.268,1.268,0,0,0-.1-.6c-.1-.2-.1-.3-.2-.4s-.2-.1-.3-.2a4.331,4.331,0,0,0-.5-.1h-.4c-.2,0-.3,0-.4.1-.1,0-.2.1-.3.1s-.2.1-.3.1l-.2-.7c.1-.1.2-.1.3-.2.1,0,.3-.1.4-.1s.3-.1.4-.1h.4a2.2,2.2,0,0,1,.8.1l.6.3a.918.918,0,0,1,.4.6,2.483,2.483,0,0,1,.1.9v3h-.7l-.1-.5-.2.2c-.1.1-.2.1-.4.2-.1.1-.3.1-.5.2a.9.9,0,0,1-.5.1c-.2,0-.5,0-.6-.1-.2-.1-.3-.2-.5-.3a2.186,2.186,0,0,1-.3-.5,1.087,1.087,0,0,1-.1-.5c0-.2.1-.4.1-.6a1.756,1.756,0,0,1,.4-.5l.6-.3a1.949,1.949,0,0,1,.8-.1Zm-1.3,2.2a.9.9,0,0,0,.5-.1c.1,0,.3-.1.4-.1.1-.1.2-.1.3-.2s.1-.1.2-.1V60.5h-.9a1.268,1.268,0,0,0-.6.1,1.38,1.38,0,0,0-.4.3c-.1.1-.1.2-.2.3s0,.2,0,.3a.367.367,0,0,0,.1.3c.1.1.1.2.2.2a.367.367,0,0,0,.3.1C116.1,62.2,116.2,62.2,116.3,62.2Z"/>
      <path id="Path_440" data-name="Path 440" class="cls-1" d="M120,58.1h.8l.1.5a2.507,2.507,0,0,1,.7-.4,2.2,2.2,0,0,1,.8-.1,1.268,1.268,0,0,1,.6.1,1.332,1.332,0,0,1,.5.3,2.186,2.186,0,0,1,.3.5,1.949,1.949,0,0,1,.1.8V63H123V59.3c0-.1-.1-.2-.1-.3-.1-.1-.2-.1-.3-.2s-.2-.1-.4-.1a1.445,1.445,0,0,0-.7.2,2.092,2.092,0,0,0-.6.4v3.6H120V58.1Z"/>
      <path id="Path_441" data-name="Path 441" class="cls-1" d="M128.8,61.5a1.268,1.268,0,0,1-.1.6,1.756,1.756,0,0,1-.4.5,3.329,3.329,0,0,1-.6.3,1.7,1.7,0,0,1-.7.1h-.5a.9.9,0,0,1-.5-.1.756.756,0,0,0-.4-.1c-.1,0-.2-.1-.3-.2l.2-.7c.1,0,.2.1.4.1s.2.1.4.1c.1,0,.2.1.4.1h.5a1.445,1.445,0,0,0,.7-.2.764.764,0,0,0,.2-.5.367.367,0,0,0-.1-.3l-.2-.2c-.1-.1-.2-.1-.3-.2a.6.6,0,0,0-.4-.1c-.2-.1-.4-.1-.6-.2s-.3-.2-.5-.3a1.381,1.381,0,0,1-.3-.4.749.749,0,0,1-.1-.5,1.268,1.268,0,0,1,.1-.6.781.781,0,0,1,.4-.4,3.329,3.329,0,0,1,.6-.3,1.949,1.949,0,0,1,.8-.1,2.769,2.769,0,0,1,.9.1c.3.1.5.1.6.2l-.2.7c-.1,0-.2-.1-.3-.1s-.2-.1-.3-.1a.367.367,0,0,1-.3-.1h-.4a1.445,1.445,0,0,0-.7.2.764.764,0,0,0-.2.5v.3c0,.1.1.1.2.2s.2.1.3.2.3.1.4.2a2.544,2.544,0,0,0,.7.2,2.186,2.186,0,0,1,.5.3,1.38,1.38,0,0,1,.3.4A.4.4,0,0,0,128.8,61.5Z"/>
      <path id="Path_442" data-name="Path 442" class="cls-1" d="M129.8,58.1h.6v-.3a1.949,1.949,0,0,1,.1-.8,1.2,1.2,0,0,1,.8-.8,1.483,1.483,0,0,1,.7-.1h.6c.1,0,.1,0,.2.1v.7H132a.6.6,0,0,0-.4.1c-.1,0-.2.1-.3.2a.367.367,0,0,0-.1.3v.8h1.4V59h-1.4v4.1h-.9V59h-.7Z"/>
      <path id="Path_443" data-name="Path 443" class="cls-1" d="M133.4,60.5a2.959,2.959,0,0,1,.2-1,2.177,2.177,0,0,1,.5-.8,1.794,1.794,0,0,1,.7-.5,2.125,2.125,0,0,1,1.8,0,1.794,1.794,0,0,1,.7.5,2.178,2.178,0,0,1,.5.8,3.553,3.553,0,0,1,.2,1,2.959,2.959,0,0,1-.2,1,2.177,2.177,0,0,1-.5.8,1.794,1.794,0,0,1-.7.5,2.125,2.125,0,0,1-1.8,0,1.794,1.794,0,0,1-.7-.5,5.582,5.582,0,0,1-.5-.8A2.959,2.959,0,0,1,133.4,60.5Zm.9,0a1.949,1.949,0,0,0,.1.8l.3.6c.1.1.3.3.4.3a.9.9,0,0,0,.5.1.749.749,0,0,0,.5-.1,1.38,1.38,0,0,0,.4-.3,1.628,1.628,0,0,0,.3-.6,3.25,3.25,0,0,0,0-1.6l-.3-.6a.536.536,0,0,0-.4-.3.9.9,0,0,0-.5-.1.749.749,0,0,0-.5.1,1.38,1.38,0,0,0-.4.3,1.628,1.628,0,0,0-.3.6C134.4,59.9,134.3,60.2,134.3,60.5Z"/>
      <path id="Path_444" data-name="Path 444" class="cls-1" d="M139.2,58.1h.8l.1.7a1.7,1.7,0,0,1,.6-.6,1.445,1.445,0,0,1,.7-.2h.4l-.1.8h-.5a1.421,1.421,0,0,0-.6.2c-.2.1-.3.3-.5.5v3.4h-.9V58.1Z"/>
      <path id="Path_445" data-name="Path 445" class="cls-1" d="M142.8,58.1h.8l.1.4a2.507,2.507,0,0,1,.7-.4,2.22,2.22,0,0,1,.9-.1,1.949,1.949,0,0,1,.8.1,1,1,0,0,1,.5.4,2.11,2.11,0,0,1,1.6-.5,1.268,1.268,0,0,1,.6.1c.2.1.4.1.5.3s.2.3.3.5a1.949,1.949,0,0,1,.1.8v3.2h-.9V59.7a1.166,1.166,0,0,0-.2-.7.845.845,0,0,0-.6-.2,1.268,1.268,0,0,0-.6.1l-.6.3V63h-.9V59.5a.707.707,0,0,0-.8-.8,1.483,1.483,0,0,0-.7.1,2.092,2.092,0,0,0-.6.4v3.6h-.9l-.1-4.7Z"/>
    </g>
    <g id="KNOW_2_">
      <path id="Path_446" data-name="Path 446" class="cls-6" d="M81.1,12.7H77.8v9.8H74.7V.3h3.1v10H81L86.9.3h3.4l-6.6,11h0l7.8,11.2H87.9Z"/>
      <path id="Path_447" data-name="Path 447" class="cls-6" d="M94,.3h3.1l11.1,17.2V.3h3.1V22.5h-3.1L97.1,5.3V22.6H94Z"/>
      <path id="Path_448" data-name="Path 448" class="cls-6" d="M114.8,11.4a13.668,13.668,0,0,1,.7-4.7,12.285,12.285,0,0,1,1.9-3.6,7.561,7.561,0,0,1,3-2.3,9.425,9.425,0,0,1,7.6,0,8.329,8.329,0,0,1,3,2.3,8.9,8.9,0,0,1,1.9,3.6,14.055,14.055,0,0,1,.7,4.7,14.661,14.661,0,0,1-.7,4.8,12.286,12.286,0,0,1-1.9,3.6,8.6,8.6,0,0,1-3,2.3,9.425,9.425,0,0,1-7.6,0,8.329,8.329,0,0,1-3-2.3,10.312,10.312,0,0,1-1.9-3.6A14.265,14.265,0,0,1,114.8,11.4Zm3.1,0a16.2,16.2,0,0,0,.5,4,6.632,6.632,0,0,0,1.3,2.8,5.365,5.365,0,0,0,2,1.7,5.421,5.421,0,0,0,2.5.6,5.834,5.834,0,0,0,2.6-.6,5.365,5.365,0,0,0,2-1.7,8.038,8.038,0,0,0,1.3-2.8,15.592,15.592,0,0,0,.5-4,16.2,16.2,0,0,0-.5-4,6.632,6.632,0,0,0-1.3-2.8,5.365,5.365,0,0,0-2-1.7,5.536,5.536,0,0,0-2.6-.6,5.135,5.135,0,0,0-2.5.6,6.268,6.268,0,0,0-2,1.7,8.038,8.038,0,0,0-1.3,2.8A16.2,16.2,0,0,0,117.9,11.4Z"/>
      <path id="Path_449" data-name="Path 449" class="cls-6" d="M157.9.3H161l-4.8,22.2h-3.3L148,5.4l-5,17.1h-3.3L134.8.3H138l3.4,18.2,5-18.2h2.9l5,18.3Z"/>
    </g>
    <g id="CRUNCH_2_">
      <path id="Path_450" data-name="Path 450" class="cls-6" d="M74.4,38.4a14.055,14.055,0,0,1,.7-4.7,10.487,10.487,0,0,1,2-3.6,8.667,8.667,0,0,1,3.1-2.3,10.7,10.7,0,0,1,4.1-.8,7.569,7.569,0,0,1,1.5.1c.4.1.8.1,1.2.2s.7.2,1,.3.6.3.9.4L88,30.2c-.5-.2-1.1-.4-1.7-.6a12.31,12.31,0,0,0-2-.2,8.676,8.676,0,0,0-2.8.5,4.741,4.741,0,0,0-2.1,1.6A7.368,7.368,0,0,0,78,34.3a15.828,15.828,0,0,0-.5,4.1,16.42,16.42,0,0,0,.5,4.1,7.368,7.368,0,0,0,1.4,2.8,5.672,5.672,0,0,0,2.2,1.6,7.1,7.1,0,0,0,2.9.5,5.283,5.283,0,0,0,1.3-.1c.4-.1.7-.1,1.1-.2l.9-.3c.3-.1.5-.2.8-.3l.7,2.1a6.105,6.105,0,0,1-2,.9,12.1,12.1,0,0,1-3,.4,10.7,10.7,0,0,1-4.1-.8,7.882,7.882,0,0,1-3.1-2.3,10.487,10.487,0,0,1-2-3.6A15.5,15.5,0,0,1,74.4,38.4Z"/>
      <path id="Path_451" data-name="Path 451" class="cls-6" d="M92.8,27.3h7a10.377,10.377,0,0,1,3.2.4,8.989,8.989,0,0,1,2.4,1.2,6.183,6.183,0,0,1,1.5,2,5.923,5.923,0,0,1,.5,2.7,4.671,4.671,0,0,1-.3,1.7,5.988,5.988,0,0,1-.8,1.6,6.885,6.885,0,0,1-1.1,1.3,12.667,12.667,0,0,1-1.3,1.1l4.6,10.2h-3.2L101,40H95.9v9.5H92.8V27.3Zm3.1,2.4v7.9h6.4c.2-.2.5-.4.7-.6a5.547,5.547,0,0,0,.6-.8,3.582,3.582,0,0,0,.4-1.1,6.053,6.053,0,0,0,.2-1.5,4.844,4.844,0,0,0-.3-1.8,2.73,2.73,0,0,0-.9-1.2,5.226,5.226,0,0,0-1.5-.7,6.478,6.478,0,0,0-2-.2Z"/>
      <path id="Path_452" data-name="Path 452" class="cls-6" d="M124.5,27.3h3.1V42.8a7.306,7.306,0,0,1-.6,3,6.2,6.2,0,0,1-1.7,2.2,6.91,6.91,0,0,1-2.7,1.4,12.7,12.7,0,0,1-3.4.5,12.127,12.127,0,0,1-3.4-.5,7.222,7.222,0,0,1-2.6-1.4,6.2,6.2,0,0,1-1.7-2.2,7.306,7.306,0,0,1-.6-3V27.3H114V42.8a4.515,4.515,0,0,0,1.5,3.5,4.608,4.608,0,0,0,1.7.9,6.648,6.648,0,0,0,2.1.3,7.8,7.8,0,0,0,2.2-.3,4.608,4.608,0,0,0,1.7-.9,4.515,4.515,0,0,0,1.5-3.5C124.5,42.8,124.5,27.3,124.5,27.3Z"/>
      <path id="Path_453" data-name="Path 453" class="cls-6" d="M131.1,27.3h3.1l11.1,17.2V27.3h3.1V49.5h-3.1L134.2,32.2V49.5h-3.1Z"/>
      <path id="Path_454" data-name="Path 454" class="cls-6" d="M151.7,38.4a14.055,14.055,0,0,1,.7-4.7,10.488,10.488,0,0,1,2-3.6,8.666,8.666,0,0,1,3.1-2.3,10.7,10.7,0,0,1,4.1-.8,7.569,7.569,0,0,1,1.5.1c.4.1.8.1,1.2.2s.7.2,1,.3.6.3.9.4l-.9,2.1c-.5-.2-1.1-.4-1.7-.6a12.31,12.31,0,0,0-2-.2,8.676,8.676,0,0,0-2.8.5,4.741,4.741,0,0,0-2.1,1.6,7.368,7.368,0,0,0-1.4,2.8,15.828,15.828,0,0,0-.5,4.1,16.42,16.42,0,0,0,.5,4.1,7.368,7.368,0,0,0,1.4,2.8,5.672,5.672,0,0,0,2.2,1.6,7.1,7.1,0,0,0,2.9.5,5.283,5.283,0,0,0,1.3-.1c.4-.1.7-.1,1.1-.2l.9-.3c.3-.1.5-.2.8-.3l.7,2.1a6.105,6.105,0,0,1-2,.9,12.1,12.1,0,0,1-3,.4,10.7,10.7,0,0,1-4.1-.8,7.882,7.882,0,0,1-3.1-2.3,10.488,10.488,0,0,1-2-3.6A14.055,14.055,0,0,1,151.7,38.4Z"/>
      <path id="Path_455" data-name="Path 455" class="cls-6" d="M169.9,27.3H173v9.9h10.4V27.3h3.1V49.5h-3.1V39.6H173v9.9h-3.1Z"/>
    </g>
    <g id="LEARN_2_">
      <path id="Path_456" data-name="Path 456" class="cls-1" d="M74.6,56.1h.9v6.7h-.9Z"/>
      <path id="Path_457" data-name="Path 457" class="cls-1" d="M77.9,60.6a1.594,1.594,0,0,0,.4,1.2,1.246,1.246,0,0,0,1.1.4h.4a.6.6,0,0,0,.4-.1c.1,0,.2-.1.3-.1a.349.349,0,0,0,.2-.1l.2.6a4.875,4.875,0,0,1-.7.3,2.769,2.769,0,0,1-.9.1,2.958,2.958,0,0,1-1-.2,1.794,1.794,0,0,1-.7-.5,2.177,2.177,0,0,1-.5-.8,2.959,2.959,0,0,1-.2-1,3.6,3.6,0,0,1,.2-1.1,2.01,2.01,0,0,1,.4-.8,1.794,1.794,0,0,1,.7-.5,2.92,2.92,0,0,1,.9-.2,2.2,2.2,0,0,1,.8.1,1.839,1.839,0,0,1,1,1,1.884,1.884,0,0,1,.2.8v.7l-3.2.2Zm1.3-1.9a.9.9,0,0,0-.5.1.758.758,0,0,0-.4.2,1.381,1.381,0,0,0-.3.4,4.169,4.169,0,0,0-.2.6h2.3a1.268,1.268,0,0,0-.1-.6c-.1-.2-.1-.3-.2-.4s-.2-.2-.3-.2S79.3,58.7,79.2,58.7Z"/>
      <path id="Path_458" data-name="Path 458" class="cls-1" d="M85.1,60v-.1a1.268,1.268,0,0,0-.1-.6c-.1-.2-.1-.3-.2-.3-.1-.1-.2-.1-.3-.2a4.331,4.331,0,0,0-.5-.1h-.4a.6.6,0,0,0-.4.1c-.1,0-.2.1-.3.1s-.2.1-.3.1l-.2-.7c.1-.1.2-.1.3-.2a.6.6,0,0,1,.4-.1c.1,0,.3-.1.4-.1h.4a2.2,2.2,0,0,1,.8.1l.6.3a.918.918,0,0,1,.4.6,2.483,2.483,0,0,1,.1.9v3h-.7l-.1-.5-.2.2c-.1.1-.2.1-.4.2-.1.1-.3.1-.5.2a.9.9,0,0,1-.5.1c-.2,0-.5,0-.6-.1-.2-.1-.3-.2-.5-.3a2.186,2.186,0,0,1-.3-.5,1.087,1.087,0,0,1-.1-.5A1.268,1.268,0,0,1,82,61a1.756,1.756,0,0,1,.4-.5l.6-.3a1.949,1.949,0,0,1,.8-.1l1.3-.1Zm-1.3,2.2a.9.9,0,0,0,.5-.1c.1,0,.3-.1.4-.1.1-.1.2-.1.3-.2s.1-.1.2-.1V60.5h-.9a1.268,1.268,0,0,0-.6.1,1.38,1.38,0,0,0-.4.3c-.1.1-.1.2-.2.3v.3a.367.367,0,0,0,.1.3c.1.1.1.2.2.2a.367.367,0,0,0,.3.1C83.6,62.2,83.7,62.2,83.8,62.2Z"/>
      <path id="Path_459" data-name="Path 459" class="cls-1" d="M87.5,58.1h.8l.1.7a1.7,1.7,0,0,1,.6-.6,1.445,1.445,0,0,1,.7-.2h.4l-.1.8h-.5a1.421,1.421,0,0,0-.6.2c-.2.1-.3.3-.5.5v3.4h-.9Z"/>
      <path id="Path_460" data-name="Path 460" class="cls-1" d="M91.1,58.1h.8l.1.5a2.507,2.507,0,0,1,.7-.4,2.2,2.2,0,0,1,.8-.1,1.268,1.268,0,0,1,.6.1,1.332,1.332,0,0,1,.5.3,2.186,2.186,0,0,1,.3.5,1.949,1.949,0,0,1,.1.8V63h-.9V59.3c0-.1-.1-.2-.1-.3-.1-.1-.2-.1-.3-.2s-.2-.1-.4-.1a1.445,1.445,0,0,0-.7.2c-.2.1-.4.1-.6.3v3.6h-.9V58.1Z"/>
    </g>
    <path id="Dots_4_" class="cls-1" d="M102.3,60a1.255,1.255,0,0,1-1.2,1.4,1.341,1.341,0,0,1-1.5-1.1,1.255,1.255,0,0,1,1.2-1.4,1.287,1.287,0,0,1,1.5,1.1"/>
    <path id="Dots_1_" class="cls-1" d="M156.9,59.9a1.255,1.255,0,0,1-1.2,1.4,1.287,1.287,0,0,1-1.5-1.1,1.255,1.255,0,0,1,1.2-1.4,1.287,1.287,0,0,1,1.5,1.1"/>
  </g>
</svg>
