<svg xmlns="http://www.w3.org/2000/svg" viewBox="6238.625 14052.346 40.756 40.756">
  <defs>
    <style>
      .cls-1 {
        fill: #3f6fb6;
      }
    </style>
  </defs>
  <path id="Path_580" data-name="Path 580" class="cls-1" d="M28.193,25.6a5.129,5.129,0,0,1-2.677,2.245,8.724,8.724,0,0,1-3.67.95,7.754,7.754,0,0,1-.95-.086c-.345-.043-.6-.086-.863-.13a8.362,8.362,0,0,1-.95-.259,7.214,7.214,0,0,1-.82-.3c-.173-.086-.475-.173-.95-.345-.432-.173-.734-.259-.863-.3a25.265,25.265,0,0,1-9.023-6.088,25.594,25.594,0,0,1-6-8.98c-.043-.13-.13-.389-.3-.863-.173-.432-.3-.777-.345-.907C.734,10.362.6,10.1.518,9.714a6.49,6.49,0,0,1-.259-.95C.216,8.549.173,8.246.13,7.9A3.85,3.85,0,0,1,0,6.951a8.724,8.724,0,0,1,.95-3.67A5.311,5.311,0,0,1,3.195.6,7.863,7.863,0,0,1,6.044,0a1.083,1.083,0,0,1,.432.043,1.9,1.9,0,0,1,.475.518c.216.3.432.691.691,1.123.3.475.518.907.777,1.338s.475.863.691,1.3.345.691.432.82c.043.086.173.259.345.518a7.964,7.964,0,0,1,.432.691,1.524,1.524,0,0,1,.13.6,1.65,1.65,0,0,1-.561,1.036A15.472,15.472,0,0,1,8.635,9.11a10.239,10.239,0,0,0-1.252,1.079,1.5,1.5,0,0,0-.561.95,2.228,2.228,0,0,0,.086.475c.086.173.13.345.173.432a2.763,2.763,0,0,0,.259.475,2.754,2.754,0,0,0,.259.389,21.564,21.564,0,0,0,3.54,4.792,20.3,20.3,0,0,0,4.792,3.54,2.753,2.753,0,0,0,.389.259,2.763,2.763,0,0,0,.475.259,4.48,4.48,0,0,0,.432.173,1.012,1.012,0,0,0,.475.086c.3,0,.691-.3,1.252-.95.518-.6,1.079-1.252,1.6-1.857.561-.6.993-.907,1.338-.907a1.7,1.7,0,0,1,.6.13,2.537,2.537,0,0,1,.691.432c.259.173.432.3.518.345l1.511.82c.993.518,1.813.993,2.5,1.382a3.4,3.4,0,0,1,1.079.82,1.2,1.2,0,0,1,.043.432,8.008,8.008,0,0,1-.648,2.936Zm0,0" transform="translate(6258.987 14052.346) rotate(45)"/>
</svg>
