<svg xmlns="http://www.w3.org/2000/svg" viewBox="0 0 89.76 89.76"><defs><style>.cls-1{fill:#c3daf4;}</style></defs><title>Asset 3</title><g id="Layer_2" data-name="Layer 2"><g id="Layer_1-2" data-name="Layer 1"><path class="cls-1" d="M44.88,0A44.88,44.88,0,1,0,89.76,44.88,44.88,44.88,0,0,0,44.88,0ZM48.5,60.1c-3.39-.27-4.82-1.94-7.48-3.56-1.46,7.67-3.25,15-8.55,18.87-1.63-11.6,2.4-20.31,4.27-29.55-3.19-5.38.38-16.2,7.12-13.53,8.29,3.28-7.18,20,3.21,22.07,10.84,2.18,15.27-18.81,8.54-25.64-9.72-9.86-28.28-.22-26,13.89.56,3.45,4.12,4.5,1.42,9.26-6.22-1.38-8.07-6.28-7.83-12.82.39-10.7,9.61-18.19,18.87-19.23,11.71-1.31,22.7,4.3,24.21,15.31C68,47.6,61,61.06,48.5,60.1Z"/></g></g></svg>