<svg xmlns="http://www.w3.org/2000/svg" viewBox="7769.133 1406 23.003 23.667">
  <defs>
    <style>
      .cls-1 {
        fill: #fff;
      }
    </style>
  </defs>
  <g id="Symbol_4_4" data-name="Symbol 4 – 4" transform="translate(6104 1352.667)">
    <path id="Path_105" data-name="Path 105" class="cls-1" d="M10.589,21.152A10.576,10.576,0,1,1,21.179,10.589,10.579,10.579,0,0,1,10.589,21.152Zm0-17.7a7.139,7.139,0,1,0,7.139,7.139A7.158,7.158,0,0,0,10.589,3.45Z" transform="translate(1665.133 53.333)"/>
    <path id="Path_106" data-name="Path 106" class="cls-1" d="M64.232,69.174l-3.609-3.609a1.746,1.746,0,0,1,0-2.442h0a1.746,1.746,0,0,1,2.442,0l3.609,3.609a1.746,1.746,0,0,1,0,2.442h0A1.746,1.746,0,0,1,64.232,69.174Z" transform="translate(1620.965 7.329)"/>
  </g>
</svg>
