<svg xmlns="http://www.w3.org/2000/svg" viewBox="8153.161 16881.918 26.817 21.787">
  <defs>
    <style>
      .cls-1 {
        fill: #c3daf4;
      }
    </style>
  </defs>
  <path id="Path_1611" data-name="Path 1611" class="cls-1" d="M112.08,21.437A15.646,15.646,0,0,1,88,35.309a10.917,10.917,0,0,0,8.138-2.293A5.5,5.5,0,0,1,91,29.205a5.082,5.082,0,0,0,2.478-.111,5.5,5.5,0,0,1-4.4-5.474,5.656,5.656,0,0,0,2.478.7A5.494,5.494,0,0,1,89.849,17a15.561,15.561,0,0,0,11.356,5.733,5.513,5.513,0,0,1,9.4-4.994,10.955,10.955,0,0,0,3.477-1.332,5.48,5.48,0,0,1-2.4,3.033,12.73,12.73,0,0,0,3.144-.851A11.139,11.139,0,0,1,112.08,21.437Z" transform="translate(8065.161 16865.918)"/>
</svg>
