<svg xmlns="http://www.w3.org/2000/svg" viewBox="8321.446 16879.107 33.771 25.67">
  <defs>
    <style>
      .cls-1 {
        fill: #c3daf4;
      }
    </style>
  </defs>
  <path id="Path_1615" data-name="Path 1615" class="cls-1" d="M526.3,13.948a8.432,8.432,0,0,0-1.332-3.625A4.6,4.6,0,0,0,521.6,8.807c-4.735-.333-11.837-.407-11.837-.407s-7.1.074-11.837.407a4.706,4.706,0,0,0-3.366,1.517,7.939,7.939,0,0,0-1.332,3.625s-.333,2.959-.333,5.955v2.737c0,2.959.333,5.881.333,5.881a8.43,8.43,0,0,0,1.332,3.625,5.765,5.765,0,0,0,3.736,1.591c2.7.3,11.5.333,11.5.333s7.1,0,11.837-.407a4.705,4.705,0,0,0,3.366-1.517,8.43,8.43,0,0,0,1.332-3.625s.333-2.959.333-5.881V19.9A54.907,54.907,0,0,0,526.3,13.948ZM505.661,28V15.354l11.1,6.473Z" transform="translate(7828.546 16870.707)"/>
</svg>
