<svg xmlns="http://www.w3.org/2000/svg" width="19.5" height="19.5" viewBox="0 0 19.5 19.5">
  <g id="Linkedin" transform="translate(-2.25 -2.25)">
    <path id="Path_6378" data-name="Path 6378" d="M7.5,3h9A4.5,4.5,0,0,1,21,7.5v9A4.5,4.5,0,0,1,16.5,21h-9A4.5,4.5,0,0,1,3,16.5v-9A4.5,4.5,0,0,1,7.5,3Z" fill="none" stroke="#fff" stroke-linecap="round" stroke-linejoin="round" stroke-width="1.5" fill-rule="evenodd"/>
    <path id="Path_6379" data-name="Path 6379" d="M8.12,11.1v5.4" fill="none" stroke="#fff" stroke-linecap="round" stroke-linejoin="round" stroke-width="1.5"/>
    <g id="Group_1896" data-name="Group 1896">
      <path id="Path_6380" data-name="Path 6380" d="M11.719,16.5V13.35a2.25,2.25,0,0,1,2.25-2.25h0a2.25,2.25,0,0,1,2.25,2.25V16.5" fill="none" stroke="#fff" stroke-linecap="round" stroke-linejoin="round" stroke-width="1.5"/>
      <path id="Path_6381" data-name="Path 6381" d="M8.118,7.838a.224.224,0,1,0,.16.065.225.225,0,0,0-.16-.065" fill="none" stroke="#fff" stroke-linecap="round" stroke-linejoin="round" stroke-width="1.5"/>
    </g>
  </g>
</svg>
