<svg xmlns="http://www.w3.org/2000/svg" width="21.5" height="21.5" viewBox="0 0 21.5 21.5">
  <g id="Twitter" transform="translate(-1.25 -1.25)">
    <path id="Path_6382" data-name="Path 6382" d="M19.071,4.929a10,10,0,1,1-14.142,0,10,10,0,0,1,14.142,0" fill="none" stroke="#fff" stroke-linecap="round" stroke-linejoin="round" stroke-width="1.5"/>
    <path id="Path_6383" data-name="Path 6383" d="M17.3,10.733c0,4.2-2.4,7.2-6.6,7.2a4.68,4.68,0,0,1-4.2-2.4m0,0c.019,0,1.8-.6,1.8-.6a5.554,5.554,0,0,1-.6-7.2,6.067,6.067,0,0,0,3.6,3,2.921,2.921,0,0,1,3-3,2.612,2.612,0,0,1,2.4,1.2h1.8l-1.2,1.8" fill="none" stroke="#fff" stroke-linecap="round" stroke-linejoin="round" stroke-width="1.5"/>
  </g>
</svg>
