<svg xmlns="http://www.w3.org/2000/svg" width="473.8" height="477.11" viewBox="0 0 473.8 477.11"><defs><style>.cls-1{opacity:0.3;}.cls-2{fill:none;stroke:#4fa0ca;stroke-width:1.86px;}</style></defs><title>background-element</title><g id="Layer_2" data-name="Layer 2"><g id="Layer_1-2" data-name="Layer 1"><g class="cls-1"><path class="cls-2" d="M232.09.93C271.53.42,279.74,103.1,300.3,113.82c23.42,12.2,119-33.12,142.49,8.85,20.72,37.08-67,92.7-67.15,116.11-.13,24.38,86.12,82.81,65.55,118.55-20.7,36-114.48-9.58-137.41,3.25-22.06,12.32-30.5,116-70.44,115.61-39.08-.36-44.92-103.92-65.14-114.93C145.74,349,50.64,395.05,28,354.44,6.31,315.71,94.5,258.79,95.18,234.38c.63-22.65-85.94-78.23-67.26-111.74,20.73-37.17,115.53,6.23,139.07-6.93C188.07,103.92,193.86,1.42,232.09.93Z"/><path class="cls-2" d="M245.64,4.45c39.05,1.85,41.23,103.63,61,115.61,22.12,13.41,118.79-26.1,139.5,15.7C464.6,173,375,223.15,373.68,246.2c-1.48,24.17,80.3,86.67,57.5,121s-112.38-15.91-135.48-4.58c-22.12,10.88-35.81,112.76-75,110.23C181.79,470.3,181.5,367.49,162,355.21,140.8,341.86,44.8,382.26,24.58,341.92,5.29,303.1,95,251.58,96.88,227.62,98.69,204.87,17,145,38.07,112.45c22.77-35.19,113,12.9,136.52,1.31C196,103.22,207.68,2.6,245.64,4.45Z"/><path class="cls-2" d="M259.18,8C297.85,12.18,294,113,313,126.31c20.83,14.57,118.53-19.06,136.51,22.54,16.19,37.45-75.16,82.09-77.77,104.78-2.75,24,74.41,90.47,49.47,123.38-24.79,32.71-110.3-22.24-133.55-12.41C265.43,374,246.5,474.11,208,469.45c-38.68-4.68-33.41-106.71-52.2-120.3-19.93-14.42-117,20.37-134.59-19.77-17.06-38.83,74.27-85,77.37-108.54,3-22.85-73.84-87-50.35-118.57C73,69,158.63,121.86,182.2,111.81,204,102.53,221.51,3.78,259.18,8Z"/><path class="cls-2" d="M272.74,11.5C311,18.06,301.15,118,319.29,132.55c19.54,15.71,118.25-12,133.52,29.39,13.9,37.67-79.24,76.79-83.07,99.12-4.08,23.76,68.57,94.3,41.42,125.78-26.82,31.09-108.21-28.62-131.62-20.25-22.27,8-46.45,106.24-84.21,99.49-38.5-6.88-27.67-108-45.74-123C130.91,327.66,33,356.75,17.84,316.87,3.08,278,96,237.16,100.29,214.09S32.4,122.64,58.4,92.09C85,60.8,166.25,118.38,189.81,109.86,211.93,101.86,235.33,5,272.74,11.5Z"/><path class="cls-2" d="M286.28,15c37.89,8.92,22,107.85,39.34,123.78C343.9,155.6,443.57,133.86,456.16,175c11.6,37.89-83.33,71.48-88.38,93.45-5.41,23.55,62.75,98.14,33.38,128.19-28.82,29.49-106.13-35-129.7-28.08-22.34,6.53-51.79,102.93-88.8,94.12-38.3-9.12-21.93-109.34-39.26-125.65S27.11,344,14.47,304.34C2,265.35,96.59,230,102,207.32c5.5-23.06-62-95.9-33.43-125.41s105.32,33,128.86,26C219.91,101.2,249.15,6.14,286.28,15Z"/><path class="cls-2" d="M299.83,18.53c37.5,11.27,15.64,109.21,32.12,126.51,17,17.88,117.62,2.16,127.56,43.07,9.26,38.13-87.44,66.18-93.7,87.79-6.76,23.34,56.95,102,25.35,130.6-30.82,27.89-104-41.29-127.77-35.91-22.4,5.08-57.1,99.59-93.39,88.75C131.88,448,153.76,348.73,137.2,331c-16.26-17.39-115.93.15-126.1-39.2C1,252.74,97.18,222.75,103.69,200.56c6.79-23.16-56.16-100.41-25-128.82C109,44.17,181.51,111.5,205,106,227.89,100.57,263,7.32,299.83,18.53Z"/><path class="cls-2" d="M313.37,22.05c37.12,13.63,9.29,110.54,24.9,129.23,15.82,18.94,117.26,9.25,124.57,49.92,6.9,38.38-91.55,60.88-99,82.13-8.11,23.13,51.16,105.86,17.31,133-32.81,26.31-101.94-47.61-125.85-43.74-22.46,3.65-62.41,96.2-98,83.38C119.42,442.31,146.76,344.11,131,325c-15.1-18.34-115.56-6.61-123.27-45.68s90.08-63.72,97.67-85.49c8.11-23.25-50.36-105-16.52-132.24,32-25.77,100.28,46.55,123.76,42.46C235.88,100,276.8,8.5,313.37,22.05Z"/><path class="cls-2" d="M326.93,25.58c36.72,16,3,111.86,17.67,132s116.86,16.34,121.59,56.76c4.51,38.62-95.67,55.56-104.31,76.47-9.48,22.92,45.36,109.74,9.26,135.42-34.77,24.74-99.84-53.89-123.91-51.56-22.52,2.25-67.7,92.8-102.57,78-37.68-16-4.93-113.1-19.86-133.7-14-19.26-115.15-13.37-120.44-52.16C-1,227.5,98.45,208.38,107.1,187,116.55,163.71,62.5,77.43,99,51.37c33.69-24,97.76,53.35,121.21,50.69C243.88,99.38,290.63,9.68,326.93,25.58Z"/><path class="cls-2" d="M340.47,29.09c36.34,18.35-3.32,113.17,10.45,134.68,13.47,21,116.44,23.42,118.6,63.6,2.09,38.86-99.83,50.23-109.63,70.8C349,320.86,399.52,411.88,361.13,436c-36.72,23.24-97.75-60.22-122-59.4-22.58.81-73,89.39-107.15,72.64-37.44-18.35.67-114.33-13.39-136.39C105.75,292.69,3.87,292.74,1,254.24c-2.94-39.35,98.12-53,107.81-74C119.62,156.88,69.95,66,109.2,41.2c35.39-22.35,95.24,60.17,118.66,58.92C251.87,98.82,304.45,10.86,340.47,29.09Z"/><path class="cls-2" d="M110.51,173.5c12.2-23.43-33.12-119,8.85-142.49,37.08-20.72,92.7,67,116.11,67.15C259.85,98.29,318.27,12,354,32.62c36,20.7-9.58,114.48,3.24,137.41,12.32,22.06,116,30.5,115.61,70.44-.36,39.09-103.92,44.92-114.93,65.14-12.23,22.46,33.8,117.56-6.82,140.25-38.72,21.65-95.66-66.55-120.06-67.23-22.65-.63-78.23,85.95-111.74,67.26-37.16-20.73,6.23-115.53-6.92-139.07C100.61,285.73,99.79,194.06,110.51,173.5Z"/></g></g></g></svg>