<svg xmlns="http://www.w3.org/2000/svg" width="146.92" height="50.79" viewBox="0 0 146.92 50.79"><defs><style>.cls-1,.cls-5{fill:#fff;}.cls-2{fill:#ff9f1c;}.cls-3{fill:#c8d151;}.cls-4{fill:#65afff;}.cls-5{fill-rule:evenodd;}</style></defs><title>knowcrunch-logo</title><g id="Layer_2" data-name="Layer 2"><g id="Layer_1-2" data-name="Layer 1"><path class="cls-1" d="M14.09,34.55A27.26,27.26,0,0,1,1,31.45v-1l.19.11a27.34,27.34,0,0,0,12.92,3.09,33.49,33.49,0,0,0,10.11-1.59c10.73-3.4,18.56-11.48,19.95-20.59l0-.22.87.13,0,.22c-1.44,9.44-9.51,17.8-20.55,21.3a34.34,34.34,0,0,1-10.37,1.64"/><path class="cls-1" d="M11.72,16.47a18.35,18.35,0,0,1-8.58-2l-.19-.1.41-.78.19.1a17.47,17.47,0,0,0,8.17,1.93,21.61,21.61,0,0,0,6.51-1C25.08,12.4,30.09,7.28,31,1.53l0-.22.87.25,0,.1c-1,6.08-6.2,11.47-13.36,13.74a22.48,22.48,0,0,1-6.78,1.07"/><path class="cls-1" d="M21.17,46.48A25.59,25.59,0,0,1,8.5,43.25l-.19-.11L7.8,41.71l1.13.77A24.71,24.71,0,0,0,21.17,45.6,29.11,29.11,0,0,0,30,44.21c9.74-3.08,16.78-10.66,17.92-19.31l.13-.82.77.72,0,.22c-1.19,9-8.47,16.85-18.53,20a30,30,0,0,1-9.06,1.42"/><path class="cls-1" d="M24.49,49.64A24.4,24.4,0,0,1,8.65,43.77,24.77,24.77,0,0,1,4.71,10.45a24.2,24.2,0,0,1,16-9.78A24.31,24.31,0,0,1,40.27,6.26a24.67,24.67,0,0,1-12,43.1,24.61,24.61,0,0,1-3.74.29M24.44,1.26a23.65,23.65,0,0,0-3.61.28A23.33,23.33,0,0,0,5.42,11,23.66,23.66,0,1,0,47.75,21.4,23.85,23.85,0,0,0,24.44,1.26"/><path class="cls-1" d="M36.13,50.79c-.42-1-.52-1.21-.62-1.48s-.26-.68-1-2.42l.4-.18c.77,1.75.91,2.12,1,2.44s.19.51.61,1.46Z"/><path class="cls-1" d="M15.88,4.55c-1-2.35-1.24-2.86-1.4-3.27C14.38,1,14.29.81,14,.19l.4-.18c.28.64.37.85.47,1.11s.36.91,1.39,3.25Z"/><path class="cls-2" d="M21.57,8.11a15.41,15.41,0,0,1,9,17.37c-1.83,8.89-11.26,13.14-19.26,9.79-.22-.09-.83.78-.66.85a15.23,15.23,0,0,0,19.22-7.06c4.33-7.9.33-17.93-7.63-21.34-.22-.09-.8.31-.63.38"/><path class="cls-3" d="M11.49,35.55c-1.09-8.42,4.6-16.23,13-16.77C31.81,18.3,38.13,24,39.57,31.22c.05.25.13.48.16.74s.76-.09.72-.32A15.23,15.23,0,0,0,22.34,18.72c-7.71,1.61-12.64,9.41-11.51,17.34l.66-.51"/><path class="cls-4" d="M40.49,30.8c-.22.19-.44.36-.66.53-.05,0-.06-.08-.11,0a14.16,14.16,0,0,1-20.41-3.84A15.35,15.35,0,0,1,22.2,7.81c.38-.33-.23-.39-.47-.17-.08.07-.19.09-.27.16a15.87,15.87,0,0,0-1.93,21.27c4.91,6.56,14,7.25,20.25,2.88q.63-.44,1.22-.94c.38-.33-.27-.42-.51-.22"/><path class="cls-1" d="M25.16,48.57c-6,0-13.38-3.23-14.43-12.3C3.23,33,1,24.85,2.19,18.69,3.25,13,7.55,6.53,16.45,6.43a11.28,11.28,0,0,1,5.31,1.12,15.25,15.25,0,0,1,9-3.31,15.88,15.88,0,0,1,13,7.28,14.92,14.92,0,0,1,1.35,14.3,13,13,0,0,1-2.41,3.47,20.36,20.36,0,0,1-2.26,2.31l.06.53a14,14,0,0,1-3,11.18,16.41,16.41,0,0,1-12.32,5.26M11.78,37.88c1.73,7.16,8.06,9.77,13.32,9.77a15.75,15.75,0,0,0,12.16-5.32,12.46,12.46,0,0,0,2.41-10.66l-.07-.29.22-.16c5-3.44,6.72-9.09,4.88-15C42.95,10.64,37.55,5,30.61,5a14.43,14.43,0,0,0-8.77,3.19l-.08.06a9.64,9.64,0,0,0-4.12-.86A16,16,0,0,0,15,7.41a16,16,0,0,0-4.18,1.09c-5.41,2.14-7.86,7.38-8.13,12C2.4,26.41,5,33.67,11.48,35.36c0,0,.16,1.92.3,2.52"/><path class="cls-5" d="M25.15,24.38a.8.8,0,1,1-.9-.63.78.78,0,0,1,.9.63"/><path class="cls-5" d="M4.45,13a1.5,1.5,0,0,0-1.73-1.22,1.47,1.47,0,1,0,.45,2.91A1.5,1.5,0,0,0,4.45,13"/><path class="cls-5" d="M28.9,48.53a1.52,1.52,0,1,0-1.27,1.69,1.49,1.49,0,0,0,1.27-1.69"/><path class="cls-5" d="M46.34,11.5a1.52,1.52,0,1,0-1.27,1.69,1.5,1.5,0,0,0,1.27-1.69"/><polygon class="cls-1" points="63.86 10 61.28 10 61.28 17.73 58.84 17.73 58.84 0.26 61.28 0.26 61.28 8.12 63.78 8.12 68.45 0.26 71.13 0.26 65.92 8.92 65.89 8.92 72.02 17.73 69.22 17.73 63.86 10"/><polygon class="cls-1" points="74.01 0.26 76.45 0.26 76.45 0.27 76.46 0.26 85.2 13.83 85.2 0.26 87.64 0.26 87.64 17.73 85.2 17.73 76.45 4.14 76.45 17.73 74.01 17.73 74.01 0.26"/><path class="cls-1" d="M90.41,9A12,12,0,0,1,91,5.26a8.44,8.44,0,0,1,1.51-2.83A6.58,6.58,0,0,1,94.8.63a7.39,7.39,0,0,1,6,0,6.63,6.63,0,0,1,2.34,1.8,8.5,8.5,0,0,1,1.53,2.83A11.93,11.93,0,0,1,105.19,9a12,12,0,0,1-.55,3.75,8.51,8.51,0,0,1-1.53,2.83,6.56,6.56,0,0,1-2.34,1.79,7.45,7.45,0,0,1-6,0,6.51,6.51,0,0,1-2.33-1.79A8.45,8.45,0,0,1,91,12.74,12.06,12.06,0,0,1,90.41,9m2.44,0a12,12,0,0,0,.36,3.12,6.61,6.61,0,0,0,1,2.22,4.23,4.23,0,0,0,1.56,1.33,4.47,4.47,0,0,0,2,.44,4.54,4.54,0,0,0,2-.44,4.23,4.23,0,0,0,1.57-1.33,6.61,6.61,0,0,0,1-2.22A12,12,0,0,0,102.75,9a12,12,0,0,0-.36-3.12,6.61,6.61,0,0,0-1-2.22A4.23,4.23,0,0,0,99.8,2.32a4.54,4.54,0,0,0-2-.44,4.47,4.47,0,0,0-2,.44,4.23,4.23,0,0,0-1.56,1.33,6.61,6.61,0,0,0-1,2.22A12,12,0,0,0,92.85,9"/><polygon class="cls-1" points="124.37 0.22 126.83 0.22 123.03 17.7 120.42 17.7 116.53 4.26 112.56 17.7 109.99 17.7 106.17 0.22 108.69 0.22 111.4 14.55 115.38 0.22 117.64 0.22 121.59 14.6 124.37 0.22"/><path class="cls-1" d="M58.59,30.21a11.81,11.81,0,0,1,.54-3.69,8.23,8.23,0,0,1,1.55-2.83,6.79,6.79,0,0,1,2.45-1.81,7.94,7.94,0,0,1,3.25-.64,8.68,8.68,0,0,1,1.15.07,7.32,7.32,0,0,1,.95.19,5.71,5.71,0,0,1,.79.27c.24.1.47.21.69.32l-.69,1.67a6.43,6.43,0,0,0-2.89-.64,5.57,5.57,0,0,0-2.18.41,4.28,4.28,0,0,0-1.69,1.28A6.18,6.18,0,0,0,61.42,27a11.58,11.58,0,0,0-.39,3.2,11.21,11.21,0,0,0,.41,3.21,6.16,6.16,0,0,0,1.14,2.22,4.46,4.46,0,0,0,1.77,1.29,6.07,6.07,0,0,0,2.3.42,6.3,6.3,0,0,0,1-.07,6.39,6.39,0,0,0,.84-.19c.26-.08.49-.16.71-.25l.6-.26.52,1.64a6.38,6.38,0,0,1-1.6.71,8,8,0,0,1-2.34.29,7.81,7.81,0,0,1-3.25-.65,6.89,6.89,0,0,1-2.45-1.83,8.29,8.29,0,0,1-1.55-2.85,11.87,11.87,0,0,1-.54-3.69"/><path class="cls-1" d="M73.07,21.5h5.48a8.67,8.67,0,0,1,2.54.34,5.39,5.39,0,0,1,1.87,1,4.13,4.13,0,0,1,1.17,1.55,5.21,5.21,0,0,1,.4,2.09,4.21,4.21,0,0,1-.22,1.37,5.63,5.63,0,0,1-.6,1.23,6.1,6.1,0,0,1-.87,1.06,6.49,6.49,0,0,1-1,.83l3.59,8H82.82l-3.32-7.5h-4V39H73.07Zm2.44,1.88v6.22h5.07c.18-.15.36-.32.54-.5a3.2,3.2,0,0,0,.48-.64A3.69,3.69,0,0,0,82,27.6a4.21,4.21,0,0,0,.14-1.14A3.57,3.57,0,0,0,81.83,25a2.34,2.34,0,0,0-.74-1,3.18,3.18,0,0,0-1.19-.53,7.08,7.08,0,0,0-1.6-.17Z"/><path class="cls-1" d="M98,21.5h2.44V33.68A5.54,5.54,0,0,1,100,36a4.89,4.89,0,0,1-1.35,1.74,6,6,0,0,1-2.09,1.08,9.39,9.39,0,0,1-2.7.37,9.23,9.23,0,0,1-2.68-.37,5.93,5.93,0,0,1-2.07-1.08A5,5,0,0,1,87.74,36a5.54,5.54,0,0,1-.48-2.36V21.5H89.7V33.68A3.83,3.83,0,0,0,90,35.25a3.11,3.11,0,0,0,.85,1.15,3.79,3.79,0,0,0,1.31.71,5.4,5.4,0,0,0,1.67.24,5.59,5.59,0,0,0,1.71-.24,3.77,3.77,0,0,0,1.32-.71,3.14,3.14,0,0,0,.85-1.15A3.83,3.83,0,0,0,98,33.68Z"/><polygon class="cls-1" points="103.25 21.5 105.69 21.5 105.69 21.51 105.7 21.5 114.44 35.07 114.44 21.5 116.88 21.5 116.88 38.97 114.44 38.97 105.69 25.38 105.69 38.97 103.25 38.97 103.25 21.5"/><path class="cls-1" d="M119.46,30.26a11.87,11.87,0,0,1,.54-3.69,8.26,8.26,0,0,1,1.55-2.83A6.79,6.79,0,0,1,124,21.93a7.94,7.94,0,0,1,3.25-.64,8.71,8.71,0,0,1,1.15.07,7.32,7.32,0,0,1,.95.19,5.71,5.71,0,0,1,.79.27c.24.1.47.21.69.32l-.69,1.67a6.43,6.43,0,0,0-2.89-.64,5.58,5.58,0,0,0-2.18.41,4.29,4.29,0,0,0-1.69,1.28,6.18,6.18,0,0,0-1.09,2.2,11.58,11.58,0,0,0-.39,3.2,11.21,11.21,0,0,0,.41,3.21,6.16,6.16,0,0,0,1.14,2.22A4.5,4.5,0,0,0,125.22,37a6.1,6.1,0,0,0,2.3.42,6.3,6.3,0,0,0,1-.07,6.39,6.39,0,0,0,.84-.19,7.52,7.52,0,0,0,.71-.25l.6-.26.52,1.64a6.41,6.41,0,0,1-1.6.71,8,8,0,0,1-2.34.29,7.81,7.81,0,0,1-3.25-.65,6.89,6.89,0,0,1-2.45-1.83A8.32,8.32,0,0,1,120,34a11.93,11.93,0,0,1-.54-3.69"/><polygon class="cls-1" points="133.82 21.5 136.26 21.5 136.26 29.31 144.48 29.31 144.48 21.5 146.92 21.5 146.92 38.97 144.48 38.97 144.48 31.18 136.26 31.18 136.26 38.97 133.82 38.97 133.82 21.5"/><path class="cls-1" d="M127.31,45.69h.52v-1l.72-.08v1.06h1.08v.55h-1.08v2a1.42,1.42,0,0,0,0,.32.53.53,0,0,0,.09.21.36.36,0,0,0,.16.12.74.74,0,0,0,.24,0h.18l.18,0,.17,0,.13,0,0,.51-.16,0-.19,0-.21,0H129a2,2,0,0,1-.49-.05.8.8,0,0,1-.37-.19.85.85,0,0,1-.23-.38,1.93,1.93,0,0,1-.08-.62v-2h-.61Z"/><path class="cls-1" d="M130.62,44.19h.72V46a2.2,2.2,0,0,1,.56-.31,1.9,1.9,0,0,1,.65-.11,1.75,1.75,0,0,1,.5.07.88.88,0,0,1,.38.23,1.06,1.06,0,0,1,.24.42,2.21,2.21,0,0,1,.08.66v2.46H133V47a1,1,0,0,0-.15-.64.6.6,0,0,0-.5-.19,1.36,1.36,0,0,0-.57.12,2.15,2.15,0,0,0-.48.31v2.87h-.72Z"/><path class="cls-1" d="M135,45.69h.63l.06.53a1.4,1.4,0,0,1,.47-.47,1.1,1.1,0,0,1,.53-.14H137l-.07.64-.19,0h-.21a.73.73,0,0,0-.45.15,1.87,1.87,0,0,0-.37.39v2.68H135Z"/><path class="cls-1" d="M137.85,44.18h.78v.66h-.78Zm0,1.51h.72v3.77h-.72Z"/><polygon class="cls-1" points="139.46 45.69 140.2 45.69 140.88 47.78 141.17 48.77 141.47 47.77 142.14 45.69 142.87 45.69 141.49 49.46 140.85 49.46 139.46 45.69"/><path class="cls-1" d="M144.15,47.67a1.5,1.5,0,0,0,.31,1,1,1,0,0,0,.85.35l.34,0,.28-.05.23-.07.19-.07.17.48a1.94,1.94,0,0,1-.54.2,2.87,2.87,0,0,1-.67.07,2.26,2.26,0,0,1-.79-.13,1.57,1.57,0,0,1-.59-.38,1.6,1.6,0,0,1-.36-.6,2.41,2.41,0,0,1-.13-.82,2.66,2.66,0,0,1,.12-.84,1.76,1.76,0,0,1,.35-.63,1.5,1.5,0,0,1,.54-.39,1.82,1.82,0,0,1,.71-.13,1.78,1.78,0,0,1,.6.1,1.42,1.42,0,0,1,.49.29,1.35,1.35,0,0,1,.33.47,1.56,1.56,0,0,1,.12.63v.55Zm1-1.5a1.36,1.36,0,0,0-.36,0,.74.74,0,0,0-.29.16.85.85,0,0,0-.21.29,1.58,1.58,0,0,0-.12.45H146a1.23,1.23,0,0,0-.07-.44.82.82,0,0,0-.18-.29.71.71,0,0,0-.26-.16,1,1,0,0,0-.31-.05"/><path class="cls-1" d="M84.4,45.74h.52v-1l.72-.08v1.05h1.08v.55H85.64v2a1.42,1.42,0,0,0,0,.32.53.53,0,0,0,.09.21.36.36,0,0,0,.16.12.69.69,0,0,0,.24,0h.18l.18,0,.17,0,.13,0,0,.51-.16,0-.19,0-.21,0h-.2a2,2,0,0,1-.49-.05.8.8,0,0,1-.37-.19.85.85,0,0,1-.23-.38,1.93,1.93,0,0,1-.08-.62v-2h-.61Z"/><path class="cls-1" d="M87.72,45.74h.63l.06.53a1.37,1.37,0,0,1,.47-.47,1.1,1.1,0,0,1,.53-.14h.31l-.07.64-.19,0h-.21a.73.73,0,0,0-.45.15,1.82,1.82,0,0,0-.37.39V49.5h-.72Z"/><path class="cls-1" d="M92.59,47.25v-.09a1.83,1.83,0,0,0,0-.44.63.63,0,0,0-.14-.28.51.51,0,0,0-.25-.15,1.41,1.41,0,0,0-.37,0l-.29,0-.29.05-.27.08-.22.09L90.55,46a1.55,1.55,0,0,1,.28-.13l.32-.1.35-.06.35,0a2.53,2.53,0,0,1,.6.07,1,1,0,0,1,.75.7,2.19,2.19,0,0,1,.1.73V49.5h-.55l-.1-.41-.19.15-.28.15a2.13,2.13,0,0,1-.36.12,1.72,1.72,0,0,1-.43.05,1.28,1.28,0,0,1-.5-.09,1,1,0,0,1-.58-.6,1.28,1.28,0,0,1-.07-.43,1,1,0,0,1,.12-.46,1.25,1.25,0,0,1,.32-.38,1.67,1.67,0,0,1,.49-.26,1.88,1.88,0,0,1,.62-.1Zm-1,1.77a1.38,1.38,0,0,0,.36,0l.29-.11.22-.13.13-.1v-.93h-.71a1.1,1.1,0,0,0-.46.09.84.84,0,0,0-.28.21.77.77,0,0,0-.18.46.55.55,0,0,0,0,.23.49.49,0,0,0,.13.17.57.57,0,0,0,.2.11.86.86,0,0,0,.25,0"/><path class="cls-1" d="M94.54,45.74h.63l.06.36a2.22,2.22,0,0,1,.57-.32A2,2,0,0,1,97,45.72a.85.85,0,0,1,.38.21,1,1,0,0,1,.24.41,2.15,2.15,0,0,1,.08.66V49.5H97V47a1.58,1.58,0,0,0,0-.37.6.6,0,0,0-.12-.25.45.45,0,0,0-.2-.14.94.94,0,0,0-.3,0,1.34,1.34,0,0,0-.57.12,2.38,2.38,0,0,0-.48.3V49.5h-.72Z"/><path class="cls-1" d="M101.45,48.46a1.07,1.07,0,0,1-.1.46,1,1,0,0,1-.28.35,1.26,1.26,0,0,1-.44.23,2,2,0,0,1-.58.08l-.39,0-.37-.06L99,49.41a1.64,1.64,0,0,1-.27-.12l.13-.53.28.11.28.09.3.06.36,0a.79.79,0,0,0,.53-.15.52.52,0,0,0,.16-.4.38.38,0,0,0-.06-.21.62.62,0,0,0-.17-.17,1.21,1.21,0,0,0-.26-.14l-.34-.11a3,3,0,0,1-.47-.17,1.64,1.64,0,0,1-.37-.24,1.08,1.08,0,0,1-.25-.31.82.82,0,0,1-.09-.38,1.06,1.06,0,0,1,.1-.46.92.92,0,0,1,.28-.34,1.35,1.35,0,0,1,.45-.22,2.22,2.22,0,0,1,.59-.07,3.07,3.07,0,0,1,.7.08,2.51,2.51,0,0,1,.49.17l-.13.52-.25-.08-.23-.07-.25,0-.31,0a.87.87,0,0,0-.54.14.44.44,0,0,0-.17.37.53.53,0,0,0,0,.2.45.45,0,0,0,.12.16.88.88,0,0,0,.23.14l.35.12a3.82,3.82,0,0,1,.57.2,1.62,1.62,0,0,1,.39.25.9.9,0,0,1,.23.3.89.89,0,0,1,.08.37"/><path class="cls-1" d="M102.21,45.74h.45V45.5a2,2,0,0,1,.09-.66,1,1,0,0,1,.26-.41.92.92,0,0,1,.41-.21,2.09,2.09,0,0,1,.53-.06h.19l.19,0,.18,0,.15,0,0,.51-.13,0-.16,0-.17,0H104a.93.93,0,0,0-.29,0,.43.43,0,0,0-.2.14.63.63,0,0,0-.12.25,1.55,1.55,0,0,0,0,.37v.23h1.08v.55h-1.08V49.5h-.72V46.29h-.52Z"/><path class="cls-1" d="M105.08,47.62a2.42,2.42,0,0,1,.13-.82,1.79,1.79,0,0,1,.36-.61,1.56,1.56,0,0,1,.56-.39,2,2,0,0,1,1.45,0,1.56,1.56,0,0,1,.56.39,1.8,1.8,0,0,1,.36.61,2.68,2.68,0,0,1,0,1.64,1.77,1.77,0,0,1-.36.62,1.52,1.52,0,0,1-.56.39,2,2,0,0,1-1.45,0,1.52,1.52,0,0,1-.56-.39,1.76,1.76,0,0,1-.36-.62,2.42,2.42,0,0,1-.13-.82m.72,0a2.36,2.36,0,0,0,.08.64,1.25,1.25,0,0,0,.22.44.84.84,0,0,0,.33.25,1.08,1.08,0,0,0,.43.08,1.1,1.1,0,0,0,.43-.08.85.85,0,0,0,.34-.25,1.25,1.25,0,0,0,.22-.44,2.65,2.65,0,0,0,0-1.27,1.25,1.25,0,0,0-.22-.44.87.87,0,0,0-.34-.25,1.1,1.1,0,0,0-.43-.08,1.08,1.08,0,0,0-.43.08.86.86,0,0,0-.33.25,1.25,1.25,0,0,0-.22.44,2.36,2.36,0,0,0-.08.64"/><path class="cls-1" d="M109.65,45.74h.63l.06.53a1.4,1.4,0,0,1,.47-.47,1.1,1.1,0,0,1,.53-.14h.31l-.07.64-.19,0h-.21a.73.73,0,0,0-.45.15,1.87,1.87,0,0,0-.37.39V49.5h-.72Z"/><path class="cls-1" d="M112.43,45.74h.63l0,.31a2.28,2.28,0,0,1,.58-.28,2.13,2.13,0,0,1,.68-.1,1.94,1.94,0,0,1,.62.09.8.8,0,0,1,.42.32,2.27,2.27,0,0,1,.58-.3,2.1,2.1,0,0,1,.69-.11,1.75,1.75,0,0,1,.5.07.89.89,0,0,1,.38.21,1,1,0,0,1,.25.4,2,2,0,0,1,.08.63V49.5h-.72V47a.87.87,0,0,0-.16-.58.64.64,0,0,0-.5-.18,1.39,1.39,0,0,0-.51.09,1.86,1.86,0,0,0-.44.25.86.86,0,0,1,0,.11s0,.08,0,.12V49.5h-.72V46.79a.54.54,0,0,0-.16-.44.77.77,0,0,0-.5-.13,1.37,1.37,0,0,0-.57.12,2.08,2.08,0,0,0-.48.31V49.5h-.72Z"/><rect class="cls-1" x="58.79" y="44.22" width="0.72" height="5.27"/><path class="cls-1" d="M61.34,47.7a1.5,1.5,0,0,0,.31,1,1.05,1.05,0,0,0,.85.35l.34,0,.28-.05.23-.07.19-.07.17.48a2,2,0,0,1-.54.21,3,3,0,0,1-.67.07,2.28,2.28,0,0,1-.8-.13,1.58,1.58,0,0,1-.59-.38,1.63,1.63,0,0,1-.37-.6,2.47,2.47,0,0,1-.12-.82,2.66,2.66,0,0,1,.12-.84,1.7,1.7,0,0,1,.35-.62,1.49,1.49,0,0,1,.54-.39,1.84,1.84,0,0,1,.71-.13,1.76,1.76,0,0,1,.6.1,1.41,1.41,0,0,1,.49.29,1.37,1.37,0,0,1,.33.47,1.6,1.6,0,0,1,.12.63v.55Zm1-1.5a1.28,1.28,0,0,0-.36,0,.71.71,0,0,0-.29.16.87.87,0,0,0-.21.29,1.51,1.51,0,0,0-.12.45h1.8a1.23,1.23,0,0,0-.07-.44.82.82,0,0,0-.18-.29.71.71,0,0,0-.26-.16,1,1,0,0,0-.31-.05"/><path class="cls-1" d="M67,47.24v-.09a1.73,1.73,0,0,0,0-.44.61.61,0,0,0-.14-.28.51.51,0,0,0-.25-.15,1.41,1.41,0,0,0-.37,0l-.29,0-.29.05-.27.08-.22.09L65,46a1.62,1.62,0,0,1,.28-.13l.32-.1.35-.06.35,0a2.52,2.52,0,0,1,.6.07,1,1,0,0,1,.75.7,2.19,2.19,0,0,1,.1.73v2.34h-.55l-.1-.41-.19.15a1.82,1.82,0,0,1-.28.15,2.13,2.13,0,0,1-.36.12,1.72,1.72,0,0,1-.43.05,1.29,1.29,0,0,1-.5-.09,1,1,0,0,1-.36-.24,1.05,1.05,0,0,1-.22-.36,1.28,1.28,0,0,1-.07-.43,1,1,0,0,1,.12-.46,1.28,1.28,0,0,1,.32-.38,1.7,1.7,0,0,1,.49-.26,1.89,1.89,0,0,1,.62-.1ZM66,49a1.29,1.29,0,0,0,.36,0,1.57,1.57,0,0,0,.29-.11,1.2,1.2,0,0,0,.22-.13l.13-.1V47.7h-.71a1.1,1.1,0,0,0-.46.09.84.84,0,0,0-.28.21.69.69,0,0,0-.14.25.77.77,0,0,0,0,.21.55.55,0,0,0,0,.23.49.49,0,0,0,.13.17.59.59,0,0,0,.2.11A.86.86,0,0,0,66,49"/><path class="cls-1" d="M68.94,45.72h.63l.06.53a1.4,1.4,0,0,1,.47-.47,1.1,1.1,0,0,1,.53-.14h.31l-.07.64-.19,0h-.21a.73.73,0,0,0-.45.15,1.87,1.87,0,0,0-.37.39v2.68h-.72Z"/><path class="cls-1" d="M71.73,45.72h.63l.06.36a2.25,2.25,0,0,1,.57-.32,1.84,1.84,0,0,1,.67-.12,1.82,1.82,0,0,1,.5.06.84.84,0,0,1,.38.21,1,1,0,0,1,.24.41,2.14,2.14,0,0,1,.09.66v2.49h-.72V47a1.58,1.58,0,0,0,0-.37.6.6,0,0,0-.12-.25.42.42,0,0,0-.2-.14.94.94,0,0,0-.3,0,1.34,1.34,0,0,0-.57.12,2.38,2.38,0,0,0-.48.3v2.87h-.72Z"/><path class="cls-5" d="M80.59,47.25a1,1,0,1,1-1.15-.86,1,1,0,0,1,1.15.86"/><path class="cls-5" d="M123.59,47.17a1,1,0,1,1-1.15-.86,1,1,0,0,1,1.15.86"/></g></g></svg>