<svg xmlns="http://www.w3.org/2000/svg" viewBox="9922 5290 61.399 54">
  <defs>
    <style>
      .cls-1 {
        fill: #fff;
      }
    </style>
  </defs>
  <g id="Group_883" data-name="Group 883" transform="translate(8385 3400)">
    <g id="Group_882" data-name="Group 882">
      <path id="Path_1674" data-name="Path 1674" class="cls-1" d="M256.3,21.3a3.869,3.869,0,0,0,2.8-3.7V5.6a3.8,3.8,0,0,0-3.8-3.8H231.6a3.8,3.8,0,0,0-3.8,3.8v12a3.869,3.869,0,0,0,2.8,3.7v8.6H226v5.6h2.8V54.9a.9.9,0,1,0,1.8,0V41.1h1.8V53a.9.9,0,1,0,1.8,0V41.1h18.4V53a.9.9,0,1,0,1.8,0V41.1h1.8V54.9a.9.9,0,1,0,1.8,0V35.5h2.8V29.9h-4.6V21.3Zm-26.6-3.7V5.6a1.988,1.988,0,0,1,1.9-2h23.7a1.923,1.923,0,0,1,1.9,2v12a1.988,1.988,0,0,1-1.9,2H231.6A1.985,1.985,0,0,1,229.7,17.6Zm24.8,3.8v8.4H232.4V21.4ZM232.4,39.2h-1.8V35.5h1.8Zm20.3,0H234.3V35.5h18.4Zm3.6,0h-1.8V35.5h1.8Zm2.8-7.5v1.9H227.8V31.7h31.3Z" transform="translate(1324.3 1888.2)"/>
      <path id="Path_1675" data-name="Path 1675" class="cls-1" d="M238.9,12.1h9.2a2.862,2.862,0,0,0,2.8-2.8,2.8,2.8,0,0,0-2.8-2.8h-9.2a2.862,2.862,0,0,0-2.8,2.8A2.862,2.862,0,0,0,238.9,12.1Zm0-3.8h9.2a.9.9,0,0,1,0,1.8h-9.2a.9.9,0,0,1,0-1.8Z" transform="translate(1324.3 1888.2)"/>
      <path id="Path_1676" data-name="Path 1676" class="cls-1" d="M270.2,25.7a3.33,3.33,0,0,0,2.4-3.2V12.1a3.329,3.329,0,0,0-3.3-3.3h-6.6v1.6h6.6a1.752,1.752,0,0,1,1.7,1.7V22.5a1.752,1.752,0,0,1-1.7,1.7h-8.6v1.6h7.8v7.3h-3.8v1.6h7.8v1.6h-9.8v1.6h4.2v3.3h-.2V43h.2V53.4a.8.8,0,1,0,1.6,0V43h1.6V55a.8.8,0,1,0,1.6,0V38.1h2.4V33.2h-4V25.7Zm0,15.6h-1.6V38h1.6Z" transform="translate(1324.3 1888.2)"/>
      <path id="Path_1677" data-name="Path 1677" class="cls-1" d="M214.4,34.8h7.8V33.2h-3.8V25.9h7.8V24.3h-8.6a1.752,1.752,0,0,1-1.7-1.7V12.1a1.752,1.752,0,0,1,1.7-1.7h6.6V8.8h-6.6a3.329,3.329,0,0,0-3.3,3.3V22.5a3.33,3.33,0,0,0,2.4,3.2v7.5h-4v4.9h2.4V55a.8.8,0,0,0,1.6,0V43h1.6V53.4a.8.8,0,0,0,1.6,0V43h.2V41.4H220V38.1h4.2V36.5h-9.8Zm2.4,3.3h1.6v3.3h-1.6Z" transform="translate(1324.3 1888.2)"/>
    </g>
  </g>
</svg>
