<svg xmlns="http://www.w3.org/2000/svg" viewBox="9111 5570 52.101 55.4">
  <defs>
    <style>
      .cls-1 {
        fill: #fff;
      }
    </style>
  </defs>
  <g id="Group_876" data-name="Group 876" transform="translate(8385 3400)">
    <path id="Path_1630" data-name="Path 1630" class="cls-1" d="M403.2,33.2h3.3a1.025,1.025,0,0,0,0-2h-3.3a1.025,1.025,0,0,0,0,2Z" transform="translate(364.9 2169.6)"/>
    <path id="Path_1631" data-name="Path 1631" class="cls-1" d="M394.3,33.2h3.3a1.025,1.025,0,0,0,0-2h-3.3a.908.908,0,0,0-.8,1C393.5,32.8,393.8,33.2,394.3,33.2Z" transform="translate(364.9 2169.6)"/>
    <path id="Path_1632" data-name="Path 1632" class="cls-1" d="M385.4,33.2h3.3a1.025,1.025,0,0,0,0-2h-3.3a.908.908,0,0,0-.8,1A.805.805,0,0,0,385.4,33.2Z" transform="translate(364.9 2169.6)"/>
    <path id="Path_1633" data-name="Path 1633" class="cls-1" d="M376.4,33.2h3.3a1.025,1.025,0,0,0,0-2h-3.3a1.025,1.025,0,0,0,0,2Z" transform="translate(364.9 2169.6)"/>
    <path id="Path_1634" data-name="Path 1634" class="cls-1" d="M367.5,33.2h3.3a1.025,1.025,0,0,0,0-2h-3.3a.908.908,0,0,0-.8,1A.805.805,0,0,0,367.5,33.2Z" transform="translate(364.9 2169.6)"/>
    <path id="Path_1635" data-name="Path 1635" class="cls-1" d="M394.3,40.5h3.3a1.025,1.025,0,0,0,0-2h-3.3a1.025,1.025,0,0,0,0,2Z" transform="translate(364.9 2169.6)"/>
    <path id="Path_1636" data-name="Path 1636" class="cls-1" d="M385.4,40.5h3.3a1.025,1.025,0,0,0,0-2h-3.3a.908.908,0,0,0-.8,1A.846.846,0,0,0,385.4,40.5Z" transform="translate(364.9 2169.6)"/>
    <path id="Path_1637" data-name="Path 1637" class="cls-1" d="M376.4,40.5h3.3a1.025,1.025,0,0,0,0-2h-3.3a.908.908,0,0,0-.8,1A.988.988,0,0,0,376.4,40.5Z" transform="translate(364.9 2169.6)"/>
    <path id="Path_1638" data-name="Path 1638" class="cls-1" d="M367.5,40.5h3.3a1.025,1.025,0,0,0,0-2h-3.3a.908.908,0,0,0-.8,1A.846.846,0,0,0,367.5,40.5Z" transform="translate(364.9 2169.6)"/>
    <path id="Path_1639" data-name="Path 1639" class="cls-1" d="M394.3,47.7h3.3a1.025,1.025,0,0,0,0-2h-3.3a.908.908,0,0,0-.8,1C393.5,47.3,393.8,47.7,394.3,47.7Z" transform="translate(364.9 2169.6)"/>
    <path id="Path_1640" data-name="Path 1640" class="cls-1" d="M403.2,40.5h3.3a1.025,1.025,0,0,0,0-2h-3.3a.908.908,0,0,0-.8,1A.988.988,0,0,0,403.2,40.5Z" transform="translate(364.9 2169.6)"/>
    <path id="Path_1641" data-name="Path 1641" class="cls-1" d="M403.2,47.7h3.3a1.025,1.025,0,0,0,0-2h-3.3a1.025,1.025,0,0,0,0,2Z" transform="translate(364.9 2169.6)"/>
    <path id="Path_1642" data-name="Path 1642" class="cls-1" d="M385.4,47.7h3.3a1.025,1.025,0,0,0,0-2h-3.3a.908.908,0,0,0-.8,1A.805.805,0,0,0,385.4,47.7Z" transform="translate(364.9 2169.6)"/>
    <path id="Path_1643" data-name="Path 1643" class="cls-1" d="M376.4,47.7h3.3a1.025,1.025,0,0,0,0-2h-3.3a1.025,1.025,0,0,0,0,2Z" transform="translate(364.9 2169.6)"/>
    <path id="Path_1644" data-name="Path 1644" class="cls-1" d="M367.5,47.7h3.3a1.025,1.025,0,0,0,0-2h-3.3a.908.908,0,0,0-.8,1A.805.805,0,0,0,367.5,47.7Z" transform="translate(364.9 2169.6)"/>
    <path id="Path_1645" data-name="Path 1645" class="cls-1" d="M403.2,26h3.3a1.025,1.025,0,0,0,0-2h-3.3a.908.908,0,0,0-.8,1A.988.988,0,0,0,403.2,26Z" transform="translate(364.9 2169.6)"/>
    <path id="Path_1646" data-name="Path 1646" class="cls-1" d="M394.3,26h3.3a1.025,1.025,0,0,0,0-2h-3.3a1.025,1.025,0,0,0,0,2Z" transform="translate(364.9 2169.6)"/>
    <path id="Path_1647" data-name="Path 1647" class="cls-1" d="M385.4,26h3.3a1.025,1.025,0,0,0,0-2h-3.3a.908.908,0,0,0-.8,1A.846.846,0,0,0,385.4,26Z" transform="translate(364.9 2169.6)"/>
    <path id="Path_1648" data-name="Path 1648" class="cls-1" d="M376.4,26h3.3a1.025,1.025,0,0,0,0-2h-3.3a.908.908,0,0,0-.8,1A.988.988,0,0,0,376.4,26Z" transform="translate(364.9 2169.6)"/>
    <path id="Path_1649" data-name="Path 1649" class="cls-1" d="M367.5,26h3.3a1.025,1.025,0,0,0,0-2h-3.3a.908.908,0,0,0-.8,1A.846.846,0,0,0,367.5,26Z" transform="translate(364.9 2169.6)"/>
    <path id="Path_1650" data-name="Path 1650" class="cls-1" d="M406.4,3.6h-5.1V2.9A2.476,2.476,0,0,0,398.8.4h-1.6a2.476,2.476,0,0,0-2.5,2.5v.9H379.4V2.9A2.476,2.476,0,0,0,376.9.4h-1.6a2.476,2.476,0,0,0-2.5,2.5v.8h-5.1a6.594,6.594,0,0,0-6.6,6.6V48.9a6.914,6.914,0,0,0,6.9,6.9h38.3a6.914,6.914,0,0,0,6.9-6.9V10.3A6.99,6.99,0,0,0,406.4,3.6Zm-9.7-.7a.472.472,0,0,1,.5-.5h1.6a.472.472,0,0,1,.5.5V6.6a.472.472,0,0,1-.5.5h-1.6a.472.472,0,0,1-.5-.5Zm-21.9,0a.472.472,0,0,1,.5-.5h1.6a.472.472,0,0,1,.5.5V6.6a.472.472,0,0,1-.5.5h-1.6a.472.472,0,0,1-.5-.5Zm36.2,46a4.908,4.908,0,0,1-4.9,4.9H367.8a4.908,4.908,0,0,1-4.9-4.9V19.2h48V48.9ZM363,17.1V10.3a4.588,4.588,0,0,1,4.6-4.6h5.1v1a2.476,2.476,0,0,0,2.5,2.5h1.6a2.476,2.476,0,0,0,2.5-2.5v-1h15.3v.9a2.476,2.476,0,0,0,2.5,2.5h1.6a2.476,2.476,0,0,0,2.5-2.5v-1h5.1a4.588,4.588,0,0,1,4.6,4.6V17H363Z" transform="translate(364.9 2169.6)"/>
  </g>
</svg>
