<svg xmlns="http://www.w3.org/2000/svg" viewBox="9927 5570 52.1 55.4">
  <defs>
    <style>
      .cls-1 {
        fill: #fff;
      }
    </style>
  </defs>
  <g id="Group_884" data-name="Group 884" transform="translate(8385 3400)">
    <path id="Path_1678" data-name="Path 1678" class="cls-1" d="M551.4,3.6h-5.1V2.9A2.476,2.476,0,0,0,543.8.4h-1.6a2.476,2.476,0,0,0-2.5,2.5v.9H524.4V2.9A2.476,2.476,0,0,0,521.9.4h-1.6a2.476,2.476,0,0,0-2.5,2.5v.8h-5.1a6.594,6.594,0,0,0-6.6,6.6V48.9a6.914,6.914,0,0,0,6.9,6.9h38.3a6.914,6.914,0,0,0,6.9-6.9V10.3A6.99,6.99,0,0,0,551.4,3.6Zm-9.7-.7a.472.472,0,0,1,.5-.5h1.6a.472.472,0,0,1,.5.5V6.6a.472.472,0,0,1-.5.5h-1.6a.472.472,0,0,1-.5-.5Zm-21.9,0a.472.472,0,0,1,.5-.5h1.6a.472.472,0,0,1,.5.5V6.6a.472.472,0,0,1-.5.5h-1.6a.472.472,0,0,1-.5-.5Zm36.2,46a4.908,4.908,0,0,1-4.9,4.9H512.8a4.908,4.908,0,0,1-4.9-4.9V19.2h48V48.9ZM508,17.1V10.3a4.588,4.588,0,0,1,4.6-4.6h5.1v1a2.476,2.476,0,0,0,2.5,2.5h1.6a2.476,2.476,0,0,0,2.5-2.5v-1h15.3v.9a2.476,2.476,0,0,0,2.5,2.5h1.6a2.476,2.476,0,0,0,2.5-2.5v-1h5.1a4.588,4.588,0,0,1,4.6,4.6V17H508Z" transform="translate(1035.899 2169.6)"/>
    <path id="Path_1679" data-name="Path 1679" class="cls-1" d="M527.9,41.8a1.712,1.712,0,0,0,2.2,0l12.5-12.5a1.485,1.485,0,1,0-2.1-2.1L529,38.7l-3.4-3.4a1.485,1.485,0,0,0-2.1,2.1Z" transform="translate(1035.899 2169.6)"/>
  </g>
</svg>
