<svg xmlns="http://www.w3.org/2000/svg" viewBox="8711 5864 54.9 55">
  <defs>
    <style>
      .cls-1 {
        fill: #fff;
      }
    </style>
  </defs>
  <g id="Group_877" data-name="Group 877" transform="translate(8385 3400)">
    <path id="Path_1651" data-name="Path 1651" class="cls-1" d="M591.1,32.3a.945.945,0,0,0-1,1V40a.945.945,0,0,0,1,1H618a.945.945,0,0,0,1-1V33.3a1,1,0,0,0-2,0V39H592.1V33.3A1,1,0,0,0,591.1,32.3Z" transform="translate(-251 2463.2)"/>
    <path id="Path_1652" data-name="Path 1652" class="cls-1" d="M603.9,33c.1.1.2.2.3.2a.85.85,0,0,0,.8,0c.1-.1.2-.1.3-.2l4-4a.99.99,0,1,0-1.4-1.4l-2.3,2.3V1.8a1,1,0,0,0-2,0V29.9l-2.3-2.3a.99.99,0,1,0-1.4,1.4Z" transform="translate(-251 2463.2)"/>
    <path id="Path_1653" data-name="Path 1653" class="cls-1" d="M630.9,15.8H611.3a1,1,0,1,0,0,2h18.6V48.9a4.908,4.908,0,0,1-4.9,4.9H583.8a4.908,4.908,0,0,1-4.9-4.9V17.8h18.7a1,1,0,0,0,0-2H578a.945.945,0,0,0-1,1V48.9a6.914,6.914,0,0,0,6.9,6.9H625a6.914,6.914,0,0,0,6.9-6.9V16.8A.945.945,0,0,0,630.9,15.8Z" transform="translate(-251 2463.2)"/>
  </g>
</svg>
