<svg xmlns="http://www.w3.org/2000/svg" viewBox="8714 5291 48 52">
  <defs>
    <style>
      .cls-1 {
        fill: #fff;
      }
    </style>
  </defs>
  <g id="Group_873" data-name="Group 873" transform="translate(8385 3400)">
    <path id="Path_1609" data-name="Path 1609" class="cls-1" d="M36.4,7.9a.789.789,0,0,0-.8.8V12a.8.8,0,1,0,1.6,0V8.7A.86.86,0,0,0,36.4,7.9Z" transform="translate(329 1889.3)"/>
    <path id="Path_1610" data-name="Path 1610" class="cls-1" d="M40.1,34.8a14.37,14.37,0,0,0-7-3.4A16.08,16.08,0,0,0,40,18.2a18.412,18.412,0,0,0-.3-3.3.764.764,0,0,0,.2-.5V6.3h3v5.1a2.087,2.087,0,0,0-1.3,2,2.836,2.836,0,0,0,.4,1.3c-1.1,1.2-1.1,3.7-1.1,4.7a13.611,13.611,0,0,0,.2,2.1.76.76,0,0,0,.8.6h3.7a.871.871,0,0,0,.8-.6,14.919,14.919,0,0,0,.2-2.1c0-1,0-3.5-1.1-4.7a2.01,2.01,0,0,0,.4-1.3,2.188,2.188,0,0,0-1.3-2V6.3h.3A2.263,2.263,0,0,0,47.2,4a2.263,2.263,0,0,0-2.3-2.3H3.3A2.414,2.414,0,0,0,1,4.1,2.263,2.263,0,0,0,3.3,6.4H8.1v8.2a.764.764,0,0,0,.2.5A16.551,16.551,0,0,0,8,18.3a16.08,16.08,0,0,0,6.9,13.2,14.37,14.37,0,0,0-7,3.4,20.4,20.4,0,0,0-5.2,7.5A34.531,34.531,0,0,0,0,52.9a1.421,1.421,0,0,0,.2.6c.1.2.4.2.6.2H47.2a1.421,1.421,0,0,0,.6-.2,1.421,1.421,0,0,0,.2-.6,35.555,35.555,0,0,0-2.7-10.6A22.238,22.238,0,0,0,40.1,34.8ZM37.6,23.1c-7.3-1.2-10.6-4.8-12.1-7.7H38.1a15.262,15.262,0,0,1,.3,3A13.278,13.278,0,0,1,37.6,23.1ZM9.7,13.8V6.3H38.3v7.4H9.7Zm35.2,5.7a4.869,4.869,0,0,1-.1,1.2H42.5c0-.4-.1-.8-.1-1.2,0-2.5.4-3.9,1.2-3.9S44.9,17,44.9,19.5Zm-1.8-6a.6.6,0,1,1,.6.6Q43.1,13.95,43.1,13.5ZM3.3,4.8a.7.7,0,1,1,0-1.4H44.7a.7.7,0,1,1,0,1.4ZM9.6,18.3a15.263,15.263,0,0,1,.3-3H22.4c-1.5,2.9-4.8,6.5-12,7.7A12.57,12.57,0,0,1,9.6,18.3ZM23.2,52.2H1.7a34.058,34.058,0,0,1,2.5-9.3c2.2-5.1,5.4-8.3,9.5-9.5l5.5,5.1a.725.725,0,0,0,1,0l3-2.6ZM15.5,33a10.284,10.284,0,0,1,1.7-.1,14.892,14.892,0,0,0,5.4,1.4l-3,2.6Zm-4.6-8.5a18.823,18.823,0,0,0,9.2-3.9A15.3,15.3,0,0,0,24,15.7a14.546,14.546,0,0,0,3.5,4.7A18.5,18.5,0,0,0,37,24.6a14.489,14.489,0,0,1-13,8.2A14.8,14.8,0,0,1,10.9,24.5ZM32.5,33l-4.2,3.9-3-2.6a16.557,16.557,0,0,0,5.4-1.4A5.462,5.462,0,0,1,32.5,33ZM24.8,52.2V35.9l3,2.6a.725.725,0,0,0,1,0l5.5-5.1c4.1,1.2,7.3,4.4,9.5,9.5a34.058,34.058,0,0,1,2.5,9.3Z" transform="translate(329 1889.3)"/>
  </g>
</svg>
