<svg xmlns="http://www.w3.org/2000/svg" viewBox="9514 5865 70 54.5">
  <defs>
    <style>
      .cls-1 {
        fill: #fff;
      }
    </style>
  </defs>
  <g id="Group_881" data-name="Group 881" transform="translate(8385 3400)">
    <rect id="Rectangle_481" data-name="Rectangle 481" class="cls-1" width="70" height="1.1" transform="translate(1129 2518.4)"/>
    <path id="Path_1666" data-name="Path 1666" class="cls-1" d="M813.7,51.9V49.8H752.3v2.1h1.4v-1h58.6v1Z" transform="translate(381 2465)"/>
    <path id="Path_1667" data-name="Path 1667" class="cls-1" d="M754.5,48.3h1.4v-.9h54.2v.9h1.4v-2h-57Z" transform="translate(381 2465)"/>
    <path id="Path_1668" data-name="Path 1668" class="cls-1" d="M757.7,43.6v1.1h6.8V43.6h-1V18.9h1V17.8h-6.8v1.1h1.2V43.6Zm2.5-24.7h2V43.6h-2Z" transform="translate(381 2465)"/>
    <path id="Path_1669" data-name="Path 1669" class="cls-1" d="M768.7,43.6v1.1h6.8V43.6h-1.2V18.9h1.2V17.8h-6.8v1.1h1V43.6Zm2.4-24.7h2V43.6h-2Z" transform="translate(381 2465)"/>
    <path id="Path_1670" data-name="Path 1670" class="cls-1" d="M779.6,43.6v1.1h6.8V43.6h-1.2V18.9h1.2V17.8h-6.8v1.1h1.2V43.6Zm2.5-24.7h1.8V43.6h-1.8Z" transform="translate(381 2465)"/>
    <path id="Path_1671" data-name="Path 1671" class="cls-1" d="M790.4,43.6v1.1h6.8V43.6h-1V18.9h1V17.8h-6.8v1.1h1.2V43.6Zm2.5-24.7h2V43.6h-2Z" transform="translate(381 2465)"/>
    <path id="Path_1672" data-name="Path 1672" class="cls-1" d="M801.4,43.6v1.1h6.8V43.6H807V18.9h1.2V17.8h-6.8v1.1h1V43.6Zm2.4-24.7h2V43.6h-2Z" transform="translate(381 2465)"/>
    <path id="Path_1673" data-name="Path 1673" class="cls-1" d="M754.5,16.2h57V13.6h3.3V9.1L785.8,1h-1.6V0h-1.3V.9h-1.7L751.1,9v4.5h3.3v2.7Zm55.6-1.1H755.8V13.6h54.3Zm-57.6-2.6V10h13.2V8.9h-7.3l-.1-.7L781.5,2h4.1L808,8.3l-.1.7h-6.4v1h12v2.4h-61Z" transform="translate(381 2465)"/>
    <rect id="Rectangle_482" data-name="Rectangle 482" class="cls-1" width="29.7" height="1.1" transform="translate(1149.7 2473.9)"/>
    <rect id="Rectangle_483" data-name="Rectangle 483" class="cls-1" width="1.3" height="1.1" transform="translate(1163.9 2470.3)"/>
    <rect id="Rectangle_484" data-name="Rectangle 484" class="cls-1" width="1.3" height="1.1" transform="translate(1159.6 2470.3)"/>
    <rect id="Rectangle_485" data-name="Rectangle 485" class="cls-1" width="1.3" height="1.1" transform="translate(1168.3 2470.3)"/>
  </g>
</svg>
