<svg xmlns="http://www.w3.org/2000/svg" viewBox="9103 5865 74.399 53.4">
  <defs>
    <style>
      .cls-1 {
        fill: #fff;
      }
    </style>
  </defs>
  <g id="Group_878" data-name="Group 878" transform="translate(8385 3400)">
    <path id="Path_1654" data-name="Path 1654" class="cls-1" d="M723.5,46.6h-2.9V8.2c0-3.7-2.5-6.8-5.6-6.8H659.1c-3.1,0-5.6,3-5.6,6.8V46.6h-3.6v3.3c0,2.7,2.8,4.9,6.2,4.9h62c3.4,0,6.2-2.2,6.2-4.9V47.4C724.2,46.9,723.9,46.6,723.5,46.6ZM654.8,8.2c0-2.9,1.9-5.3,4.2-5.3h55.9c2.3,0,4.2,2.4,4.2,5.3V46.6H654.8V8.2Zm67.9,41.6c0,1.9-2.2,3.5-4.8,3.5h-62c-2.6,0-4.8-1.6-4.8-3.5V48h71.5v1.8Z" transform="translate(68.1 2463.6)"/>
    <path id="Path_1655" data-name="Path 1655" class="cls-1" d="M683.9,52.1h7.5V49.4h-8.5v1.7A1.075,1.075,0,0,0,683.9,52.1Zm0-1.7h6.6v.7h0v0h-6.6Z" transform="translate(68.1 2463.6)"/>
    <path id="Path_1656" data-name="Path 1656" class="cls-1" d="M686,6.7h2a.8.8,0,0,0,0-1.6h-2a.789.789,0,0,0-.8.8C685.1,6.3,685.5,6.7,686,6.7Zm0-.9h2a.1.1,0,0,1,0,.2h-2a.1.1,0,0,1-.1-.1C685.9,5.8,685.9,5.8,686,5.8Z" transform="translate(68.1 2463.6)"/>
    <path id="Path_1657" data-name="Path 1657" class="cls-1" d="M672,42.7H659V21.3a.5.5,0,1,0-1,0V43.7h14a.5.5,0,1,0,0-1Z" transform="translate(68.1 2463.6)"/>
    <path id="Path_1658" data-name="Path 1658" class="cls-1" d="M715.5,23.5a.472.472,0,0,0-.5.5V42.6H677.4a.5.5,0,0,0,0,1H716V24A.642.642,0,0,0,715.5,23.5Z" transform="translate(68.1 2463.6)"/>
    <path id="Path_1659" data-name="Path 1659" class="cls-1" d="M662.6,9.2H715v6.3a.5.5,0,0,0,1,0V8.7a.472.472,0,0,0-.5-.5H662.6a.5.5,0,0,0,0,1Z" transform="translate(68.1 2463.6)"/>
  </g>
</svg>
