<svg xmlns="http://www.w3.org/2000/svg" viewBox="9921 5865 64.9 54">
  <defs>
    <style>
      .cls-1 {
        fill: #fff;
      }
    </style>
  </defs>
  <g id="Group_885" data-name="Group 885" transform="translate(8385 3400)">
    <path id="Path_1680" data-name="Path 1680" class="cls-1" d="M901,.8H855a4.012,4.012,0,0,0-4,4V18.3h-6.9a4.012,4.012,0,0,0-4,4V50.8a4.012,4.012,0,0,0,4,4h46a4.012,4.012,0,0,0,4-4V37.3H901a4.012,4.012,0,0,0,4-4V4.8A4.012,4.012,0,0,0,901,.8Zm-8.4,50a2.582,2.582,0,0,1-2.6,2.6H844a2.582,2.582,0,0,1-2.6-2.6V22.3a2.582,2.582,0,0,1,2.6-2.6h46a2.582,2.582,0,0,1,2.6,2.6Zm11-17.5a2.582,2.582,0,0,1-2.6,2.6h-6.9V22.3a4.012,4.012,0,0,0-4-4H852.5V13.2h51.1Zm0-21.6H852.5V6.6h51.1Zm0-6.5H852.5V4.8a2.582,2.582,0,0,1,2.6-2.6h46a2.582,2.582,0,0,1,2.6,2.6v.4Z" transform="translate(695.9 2464.2)"/>
    <path id="Path_1681" data-name="Path 1681" class="cls-1" d="M847.4,39.5H854a.7.7,0,1,0,0-1.4h-6.6a.684.684,0,0,0-.7.7C846.6,39.1,847,39.5,847.4,39.5Z" transform="translate(695.9 2464.2)"/>
    <path id="Path_1682" data-name="Path 1682" class="cls-1" d="M869.3,42.4h-2.2a.7.7,0,1,0,0,1.4h2.2a.7.7,0,1,0,0-1.4Z" transform="translate(695.9 2464.2)"/>
    <path id="Path_1683" data-name="Path 1683" class="cls-1" d="M875.8,42.4h-2.2a.7.7,0,1,0,0,1.4h2.2a.7.7,0,1,0,0-1.4Z" transform="translate(695.9 2464.2)"/>
    <path id="Path_1684" data-name="Path 1684" class="cls-1" d="M864.9,38h-6.6a.7.7,0,1,0,0,1.4h6.6a.7.7,0,1,0,0-1.4Z" transform="translate(695.9 2464.2)"/>
    <path id="Path_1685" data-name="Path 1685" class="cls-1" d="M875.8,38h-6.6a.7.7,0,1,0,0,1.4h6.6a.7.7,0,1,0,0-1.4Z" transform="translate(695.9 2464.2)"/>
    <path id="Path_1686" data-name="Path 1686" class="cls-1" d="M855,46.8h-7.7a.7.7,0,1,0,0,1.4H855a.7.7,0,1,0,0-1.4Z" transform="translate(695.9 2464.2)"/>
    <path id="Path_1687" data-name="Path 1687" class="cls-1" d="M864.9,46.8h-5.5a.7.7,0,1,0,0,1.4h5.5a.7.7,0,1,0,0-1.4Z" transform="translate(695.9 2464.2)"/>
    <path id="Path_1688" data-name="Path 1688" class="cls-1" d="M886.8,38h-6.6a.7.7,0,1,0,0,1.4h6.6a.7.7,0,1,0,0-1.4Z" transform="translate(695.9 2464.2)"/>
    <path id="Path_1689" data-name="Path 1689" class="cls-1" d="M853.9,27.1h-4.4a2.9,2.9,0,0,0-2.9,2.9v2.2a2.9,2.9,0,0,0,2.9,2.9h4.4a2.9,2.9,0,0,0,2.9-2.9V30A2.9,2.9,0,0,0,853.9,27.1Zm1.5,5.1a1.538,1.538,0,0,1-1.5,1.5h-4.4a1.538,1.538,0,0,1-1.5-1.5V30a1.538,1.538,0,0,1,1.5-1.5h4.4a1.538,1.538,0,0,1,1.5,1.5Z" transform="translate(695.9 2464.2)"/>
    <path id="Path_1690" data-name="Path 1690" class="cls-1" d="M883.5,23.8a4.845,4.845,0,0,0-2.6.7l-.2.1-.2-.1a4.845,4.845,0,0,0-2.6-.7,5.1,5.1,0,0,0,0,10.2,4.845,4.845,0,0,0,2.6-.7l.2-.1.2.1a4.845,4.845,0,0,0,2.6.7,5.1,5.1,0,0,0,0-10.2Zm-4.1,8.1.2.3-.4.1a5.02,5.02,0,0,1-1.2.2,3.7,3.7,0,1,1,0-7.4,5.019,5.019,0,0,1,1.2.2l.4.1-.2.3a5.389,5.389,0,0,0-1,3A4.9,4.9,0,0,0,879.4,31.9ZM881,31l-.2.4-.2-.4a3.771,3.771,0,0,1-.7-2.1,3.139,3.139,0,0,1,.7-2.1l.2-.4.2.4a4.05,4.05,0,0,1,.7,2.1A4.05,4.05,0,0,1,881,31Zm2.5,1.5a5.019,5.019,0,0,1-1.2-.2l-.4-.1.2-.3a5.389,5.389,0,0,0,1-3,4.719,4.719,0,0,0-1-3l-.2-.3.4-.1a5.019,5.019,0,0,1,1.2-.2,3.6,3.6,0,1,1,0,7.2Z" transform="translate(695.9 2464.2)"/>
  </g>
</svg>
