<?xml version="1.0" encoding="UTF-8"?>
<svg width="46px" height="48px" viewBox="0 0 46 48" version="1.1" xmlns="http://www.w3.org/2000/svg" xmlns:xlink="http://www.w3.org/1999/xlink">
    <!-- Generator: Sketch 51.3 (57544) - http://www.bohemiancoding.com/sketch -->
    <title>logo white</title>
    <desc>Created with Sketch.</desc>
    <defs></defs>
    <g id="mobile" stroke="none" stroke-width="1" fill="none" fill-rule="evenodd">
        <g id="Mobile-homepage" transform="translate(-20.000000, -11.000000)" fill-rule="nonzero">
            <g id="logo-white" transform="translate(20.000000, 11.000000)">
                <g id="Group">
                    <g>
                        <g id="EARTH_1_" fill="#FFFFFF">
                            <g id="new_earth_lines_1_" transform="translate(0.721119, 1.454545)">
                                <path d="M12.5474764,30.9090909 C8.14864845,30.9090909 4.11038019,29.9636364 0.576895466,28.0727273 L0.576895466,27.2 L0.721119332,27.2 C4.18249213,29.0909091 8.29287232,30.0363636 12.5474764,30.0363636 C15.6482895,30.0363636 18.7491026,29.5272727 21.7778038,28.5818182 C31.5850267,25.4545455 38.7962201,17.9636364 40.0221229,9.6 L40.0221229,9.38181818 L40.8153542,9.52727273 L40.8153542,9.74545455 C39.5173394,18.4727273 32.0898103,26.1818182 21.9941396,29.3818182 C18.8933265,30.4 15.7204014,30.9090909 12.5474764,30.9090909 Z" id="Shape"></path>
                                <path d="M10.3841184,14.1818182 C7.49964105,14.1818182 4.83149952,13.5272727 2.52391766,12.2909091 L2.3796938,12.2181818 L2.74025346,11.4909091 L2.88447733,11.5636364 C5.04783532,12.7272727 7.64386492,13.3090909 10.3841184,13.3090909 C12.4032525,13.3090909 14.3502747,13.0181818 16.3694088,12.3636364 C22.643147,10.3272727 27.1861988,5.6 28.051542,0.290909091 L28.051542,0.0727272727 L28.8447733,0.436363636 L28.8447733,0.509090909 C27.9794301,6.10909091 23.1479306,11.1272727 16.5857446,13.1636364 C14.4944986,13.8181818 12.4032525,14.1818182 10.3841184,14.1818182 Z" id="Shape"></path>
                                <path d="M19.0375504,41.8909091 C14.8550582,41.8909091 10.81679,40.8727273 7.42752912,38.9090909 L7.21119332,38.8363636 L6.77852172,37.5272727 L7.78808878,38.2545455 C11.0331258,40.1454545 14.9271702,41.1636364 18.9654384,41.1636364 C21.63358,41.1636364 24.3738334,40.7272727 27.0419749,39.8545455 C35.9838547,37.0181818 42.4018167,30.0363636 43.4834957,22.0363636 L43.6277196,21.3090909 L44.3488389,21.9636364 L44.3488389,22.1818182 C43.2671599,30.4727273 36.5607501,37.7454545 27.4025346,40.6545455 C24.5901692,41.4545455 21.7778038,41.8909091 19.0375504,41.8909091 Z" id="Shape"></path>
                            </g>
                            <path d="M22.7873709,46.2545455 C17.5231998,46.2545455 12.3311406,44.2909091 8.29287232,40.8 C4.18249213,37.3090909 1.44223866,32.3636364 0.649007399,26.9818182 C-0.288447733,20.9454545 1.15379093,14.9818182 4.68727566,10.1090909 C8.14864845,5.16363636 13.4128196,1.96363636 19.2538862,1.01818182 C20.4076771,0.872727273 21.561468,0.727272727 22.715259,0.727272727 C27.9794301,0.727272727 33.1714893,2.69090909 37.2097575,6.18181818 C41.3201377,9.74545455 44.0603912,14.6181818 44.8536224,20.0727273 C46.7285327,32.4363636 38.3635485,44.0727273 26.1766317,46.0363636 C25.0228408,46.1818182 23.8690499,46.2545455 22.7873709,46.2545455 Z M22.715259,1.6 C21.63358,1.6 20.479789,1.67272727 19.39811,1.89090909 C13.7012673,2.76363636 8.72554392,5.81818182 5.33628306,10.5454545 C1.87491026,15.2727273 0.504783532,21.0909091 1.44223866,26.8363636 C3.10081313,37.4545455 12.2590286,45.4545455 22.7873709,45.4545455 C23.8690499,45.4545455 25.0228408,45.3818182 26.1045198,45.1636364 C37.8587649,43.3454545 45.9353014,32.0727273 44.1325031,20.1454545 C42.4739286,9.6 33.2436012,1.6 22.715259,1.6 Z" id="Shape"></path>
                            <path d="M33.3878251,47.3454545 C33.0272654,46.4727273 32.8830415,46.2545455 32.8109296,45.9636364 C32.6667057,45.6727273 32.5945938,45.3090909 31.8734745,43.7090909 L32.2340341,43.5636364 C32.9551535,45.1636364 33.0993773,45.5272727 33.1714893,45.8181818 C33.2436012,46.0363636 33.3157131,46.2545455 33.7483847,47.2 L33.3878251,47.3454545 Z" id="Shape"></path>
                            <path d="M14.8550582,4.65454545 C13.9176031,2.47272727 13.7012673,2.03636364 13.5570434,1.67272727 C13.4849315,1.45454545 13.4128196,1.23636364 13.1243718,0.654545455 L13.4849315,0.509090909 C13.7733792,1.09090909 13.8454912,1.30909091 13.9176031,1.52727273 C14.061827,1.89090909 14.2781628,2.4 15.2156179,4.50909091 L14.8550582,4.65454545 Z" id="Shape"></path>
                        </g>
                        <g id="INTERNAL_SHAPE_1_" transform="translate(9.374551, 7.272727)">
                            <path d="M10.744678,0.654545455 C16.8741924,3.27272727 20.3355652,9.96363636 18.9654384,16.7272727 C17.306864,24.9454545 8.65343198,28.8727273 1.2980148,25.7454545 C1.081679,25.6727273 0.504783532,26.4727273 0.721119332,26.5454545 C7.35541719,29.3090909 14.8550582,26.4727273 18.316431,20 C22.2825874,12.7272727 18.6048788,3.41818182 11.3215735,0.290909091 C11.1052377,0.218181818 10.5283422,0.581818182 10.744678,0.654545455" id="Shape" fill="#7BB752"></path>
                            <g id="Group" transform="translate(0.721119, 9.454545)" fill="#F3EC54">
                                <path d="M0.793231265,16.5090909 C-0.2163358,8.72727273 4.97572339,1.52727273 12.6917002,1.01818182 C19.39811,0.581818182 25.1670647,5.89090909 26.5371914,12.5090909 C26.6093033,12.7272727 26.6814153,12.9454545 26.6814153,13.1636364 C26.6814153,13.3090909 27.4025346,13.0909091 27.3304227,12.8727273 C26.1045198,4.65454545 18.5327668,-0.727272727 10.744678,0.945454545 C3.67770859,2.47272727 -0.865343198,9.67272727 0.2163358,16.9454545 L0.793231265,16.5090909" id="Shape"></path>
                            </g>
                            <path d="M28.051542,21.6 C27.8352062,21.7454545 27.6188704,21.9636364 27.4746465,22.1090909 C27.4025346,22.1818182 27.4025346,22.0363636 27.4025346,22.0363636 C21.4172442,26.5454545 12.908036,25.0181818 8.72554392,18.4727273 C4.97572339,12.6545455 6.34585012,4.72727273 11.3936854,0.363636364 C11.7542451,0.0727272727 11.1773496,4.60742555e-15 10.9610138,0.218181818 C10.8889019,0.290909091 10.81679,0.290909091 10.744678,0.363636364 C5.26417112,5.38181818 4.47093986,13.8909091 8.94187972,20 C13.4128196,26.0363636 21.7056919,26.6909091 27.4746465,22.6909091 C27.8352062,22.4 28.1957659,22.1090909 28.5563255,21.8181818 C28.8447733,21.4545455 28.2678778,21.3818182 28.051542,21.6" id="Shape" fill="#79C5F2"></path>
                        </g>
                        <g id="EXTERNAL_SHAPE_1_" transform="translate(1.442239, 4.363636)" fill="#85A2BC">
                            <path d="M21.9220277,40.9454545 C16.4415208,40.9454545 9.66299905,37.9636364 8.72554392,29.6 C1.87491026,26.4727273 -0.144223866,18.9818182 0.937455131,13.3090909 C1.87491026,8.07272727 5.84106659,2.10909091 13.989715,1.96363636 C15.143506,1.96363636 17.1626401,2.10909091 18.8212146,2.98181818 C21.2730203,1.16363636 24.2296096,0 27.1140869,0 C31.7292506,0 36.2723024,2.54545455 39.0125559,6.69090909 C41.6806974,10.6909091 42.113369,15.5636364 40.2384587,19.9272727 C39.6615633,21.2363636 38.868332,22.1090909 38.0029888,23.1272727 C37.2818695,23.9272727 36.9213098,24.3636364 35.9117427,25.2363636 C35.9117427,25.2363636 35.9838547,25.6727273 35.9838547,25.7454545 C36.4886382,29.6727273 35.5511831,33.3818182 33.1714893,36.0727273 C30.5754597,39.1272727 26.3929675,40.9454545 21.9220277,40.9454545 Z M9.66299905,31.0545455 C11.2494616,37.6727273 17.0184162,40.0727273 21.8499158,40.0727273 C26.3208556,40.0727273 30.5033477,38.2545455 32.9551535,35.1272727 C35.1185115,32.4363636 35.9117427,29.0181818 35.1906234,25.3090909 L35.1185115,25.0181818 L35.3348473,24.8727273 C39.8778991,21.6727273 41.4643616,16.5090909 39.8057871,11.0545455 C38.2193246,5.89090909 33.2436012,0.654545455 26.8977511,0.654545455 C24.1574976,0.654545455 21.4172442,1.67272727 18.8933265,3.56363636 L18.8212146,3.63636364 C18.8212146,3.63636364 17.7395356,2.98181818 15.071394,2.83636364 C14.8550582,2.83636364 13.7733792,2.76363636 12.6917002,2.90909091 C10.6725661,3.12727273 9.44666325,3.70909091 8.86976778,3.92727273 C3.89404439,5.89090909 1.65857446,10.7636364 1.44223866,14.9818182 C1.15379093,20.4363636 3.46137279,27.1272727 9.44666325,28.6545455 C9.44666325,28.7272727 9.59088711,30.4727273 9.66299905,31.0545455 Z" id="Shape"></path>
                            <path d="M40.5269065,14.7636364 C39.950011,9.23636364 37.6424291,5.09090909 33.7483847,2.76363636 L34.1810563,2.03636364 C38.2193246,4.50909091 40.8153542,8.94545455 41.3922497,14.6181818 L40.5269065,14.7636364 Z" id="Shape"></path>
                        </g>
                        <g id="BALLS_1_" transform="translate(1.442239, 8.727273)" fill="#FFFFFF">
                            <path d="M21.9220277,14.1818182 C21.9941396,14.5454545 21.7056919,14.9090909 21.2730203,14.9818182 C20.8403487,15.0545455 20.479789,14.7636364 20.4076771,14.4 C20.3355652,14.0363636 20.6240129,13.6727273 21.0566845,13.6 C21.4893561,13.6 21.8499158,13.8181818 21.9220277,14.1818182" id="Shape"></path>
                            <path d="M3.46137279,4 C3.31714893,3.27272727 2.66814153,2.76363636 1.87491026,2.83636364 C1.081679,2.98181818 0.576895466,3.63636364 0.721119332,4.36363636 C0.865343198,5.09090909 1.5143506,5.6 2.30758186,5.45454545 C3.10081313,5.45454545 3.60559666,4.72727273 3.46137279,4" id="Shape"></path>
                            <path d="M25.3834005,36.5090909 C25.2391766,35.7818182 24.5901692,35.2727273 23.796938,35.3454545 C23.0037067,35.4909091 22.4989232,36.1454545 22.643147,36.8727273 C22.7873709,37.6 23.4363783,38.1090909 24.2296096,38.0363636 C24.9507289,37.9636364 25.4555124,37.2363636 25.3834005,36.5090909" id="Shape"></path>
                            <path d="M40.5990184,1.38181818 C40.4547945,0.654545455 39.8057871,0.145454545 39.0125559,0.218181818 C38.2193246,0.363636364 37.7145411,1.01818182 37.8587649,1.74545455 C38.0029888,2.47272727 38.6519962,2.98181818 39.4452275,2.90909091 C40.1663468,2.83636364 40.7432423,2.10909091 40.5990184,1.38181818" id="Shape"></path>
                        </g>
                    </g>
                </g>
            </g>
        </g>
    </g>
</svg>