<?xml version="1.0" encoding="UTF-8"?>
<svg enable-background="new 0 0 186.5 64.5" version="1.1" viewBox="0 0 186.5 64.5" xml:space="preserve" xmlns="http://www.w3.org/2000/svg">
<style type="text/css">
	.st0{fill-rule:evenodd;clip-rule:evenodd;fill:#b3d4fc;}
	.st1{fill:#b3d4fc;}
	.st2{fill:#FF9F1C;}
	.st3{fill:#C8D151;}
	.st4{fill:#65AFFF;}
</style>
<path class="st0" d="m7.1 17.5c-0.2-1-1.1-1.7-2.2-1.5-1 0.2-1.8 1.1-1.6 2.1s1.1 1.7 2.2 1.5c1-0.2 1.7-1.1 1.6-2.1"/>
<path class="st1" d="m18.5 44.1c-6.1 0-11.6-1.3-16.5-3.9v-1.2l0.2 0.1c4.8 2.6 10.4 3.9 16.3 3.9 4.2 0 8.5-0.7 12.7-2 13.5-4.3 23.3-14.4 25-25.9v-0.3l1.1 0.2v0.3c-1.8 11.9-11.9 22.3-25.8 26.7-4.3 1.4-8.7 2.1-13 2.1"/>
<path class="st1" d="m15.5 21.4c-3.9 0-7.6-0.9-10.8-2.5l-0.2-0.1 0.5-1 0.2 0.1c3 1.6 6.5 2.4 10.3 2.4 2.7 0 5.5-0.4 8.2-1.3 8.6-2.7 14.9-9.1 16-16.4v-0.3l1.1 0.3v0.1c-1.2 7.8-7.8 14.5-16.8 17.4-2.8 0.9-5.7 1.3-8.5 1.3"/>
<path class="st1" d="m27.4 59.1c-5.8 0-11.3-1.4-15.9-4.1l-0.2-0.1-0.6-1.8 1.4 1c4.5 2.6 9.8 3.9 15.4 3.9 3.7 0 7.4-0.6 11-1.7 12.1-3.9 21-13.4 22.4-24.3l0.2-1 1 0.9v0.3c-1.5 11.3-10.6 21.1-23.3 25.2-3.8 1.1-7.6 1.7-11.4 1.7"/>
<path class="st1" d="m31.5 63.1c-7.3 0-14.3-2.6-19.9-7.4s-9.3-11.5-10.4-18.9c-1.3-8.2 0.7-16.3 5.5-23s12-11 20.1-12.3c1.6-0.2 3.1-0.4 4.7-0.4 7.3 0 14.3 2.6 19.9 7.4s9.3 11.5 10.5 18.8c2.6 16.9-8.9 32.7-25.6 35.3-1.6 0.3-3.2 0.5-4.8 0.5m0-60.8c-1.5 0-3 0.1-4.5 0.4-7.9 1.2-14.8 5.4-19.4 11.8-4.7 6.4-6.6 14.3-5.4 22.2 2.3 14.4 14.9 25.3 29.3 25.3 1.5 0 3-0.1 4.5-0.4 16.1-2.5 27.2-17.7 24.7-34-2.2-14.4-14.8-25.3-29.2-25.3"/>
<path class="st1" d="m46.1 64.5c-0.5-1.2-0.6-1.5-0.8-1.9s-0.3-0.9-1.3-3l0.5-0.2c1 2.2 1.1 2.7 1.3 3.1 0.1 0.3 0.2 0.6 0.8 1.8l-0.5 0.2z"/>
<path class="st1" d="m20.7 6.5c-1.3-3-1.6-3.6-1.8-4.1-0.1-0.4-0.2-0.6-0.5-1.4l0.5-0.2c0.4 0.8 0.5 1.1 0.6 1.4 0.2 0.5 0.5 1.1 1.8 4.1l-0.6 0.2z"/>
<path class="st2" d="m27.9 10.9c8.4 3.6 13.1 12.6 11.2 21.8-2.3 11.2-14.1 16.5-24.2 12.3-0.3-0.1-1 1-0.8 1.1 9.1 3.8 19.3-0.1 24.1-8.9 5.4-9.9 0.4-22.5-9.6-26.8-0.2-0.1-1 0.4-0.7 0.5"/>
<path class="st3" d="m15.2 45.4c-1.4-10.6 5.8-20.4 16.3-21.1 9.2-0.6 17.1 6.6 18.9 15.6 0.1 0.3 0.2 0.6 0.2 0.9 0 0.2 1-0.1 0.9-0.4-1.6-11.2-12-18.4-22.7-16.2-9.7 2-15.9 11.8-14.4 21.8l0.8-0.6"/>
<path class="st4" d="m51.6 39.4c-0.3 0.2-0.5 0.5-0.8 0.7-0.1 0.1-0.1-0.1-0.1-0.1-8.3 6.1-19.9 4.1-25.6-4.8-5.2-7.9-3.2-18.7 3.6-24.6 0.5-0.4-0.3-0.5-0.6-0.2-0.1 0.1-0.2 0.1-0.3 0.2-7.5 6.8-8.6 18.4-2.4 26.7 6.2 8.2 17.5 9.1 25.4 3.6l1.5-1.2c0.4-0.4-0.4-0.5-0.7-0.3"/>
<path class="st1" d="m32.4 61.7c-7.6 0-16.8-4-18.1-15.4-9.5-4.2-12.2-14.4-10.8-22.1 1.3-7.2 6.7-15.3 17.9-15.4 1.6 0 4.3 0.2 6.7 1.4 3.4-2.6 7.4-4.2 11.3-4.2 6.3 0 12.6 3.5 16.3 9.1 3.6 5.5 4.2 12 1.7 18-0.7 1.7-1.9 3-3 4.4-0.9 1.1-1.4 1.7-2.8 2.9 0 0 0.1 0.6 0.1 0.7 0.7 5.4-0.6 10.3-3.8 14-3.7 4.1-9.4 6.6-15.5 6.6m-16.8-13.4c2.2 9 10.1 12.3 16.7 12.3 6.1 0 11.8-2.5 15.3-6.7 3-3.6 4-8.3 3-13.4l-0.1-0.4 0.3-0.2c6.2-4.3 8.4-11.4 6.1-18.8-2.2-7-9-14.2-17.7-14.2-3.8 0-7.5 1.3-11 4l-0.1 0.1s-1.5-0.9-5.2-1.1c-0.3 0-1.8-0.1-3.3 0.1-2.7 0.3-4.5 1.1-5.2 1.4-6.8 2.7-9.9 9.3-10.2 15.1-0.4 7.4 2.8 16.5 11 18.6 0 0 0.2 2.4 0.4 3.2"/>
<path class="st0" d="m32.3 31.4c0.1 0.5-0.3 1-0.8 1.1s-1.1-0.3-1.1-0.8c-0.1-0.5 0.3-1 0.8-1.1 0.6-0.1 1.1 0.2 1.1 0.8"/>
<path class="st0" d="m37.1 61.7c-0.2-1-1.1-1.7-2.2-1.5-1 0.2-1.8 1.1-1.6 2.1s1.1 1.7 2.2 1.5c1-0.2 1.7-1.1 1.6-2.1"/>
<path class="st0" d="m58 13.9c-0.2-1-1.1-1.7-2.2-1.5-1 0.2-1.8 1.1-1.6 2.1s1.1 1.7 2.2 1.5c1-0.1 1.7-1.1 1.6-2.1"/>
	<polygon class="st1" points="80.9 13.3 77.7 13.3 77.7 23 74.6 23 74.6 1.1 77.7 1.1 77.7 10.9 80.8 10.9 86.7 1.1 90.1 1.1 83.5 11.9 83.5 11.9 91.2 23 87.7 23"/>
	<polygon class="st1" points="93.7 1.1 96.7 1.1 96.7 1.1 96.8 1.1 107.7 18.1 107.7 1.1 110.8 1.1 110.8 23 107.7 23 96.7 5.9 96.7 23 93.7 23"/>
	<path class="st1" d="m114.3 12c0-1.7 0.2-3.3 0.7-4.7s1.1-2.6 1.9-3.6 1.8-1.7 2.9-2.3c1.1-0.5 2.4-0.8 3.8-0.8s2.6 0.3 3.7 0.8 2.1 1.3 2.9 2.3 1.5 2.2 1.9 3.6c0.5 1.4 0.7 3 0.7 4.7s-0.2 3.3-0.7 4.7-1.1 2.6-1.9 3.6-1.8 1.7-2.9 2.3c-1.1 0.5-2.4 0.8-3.7 0.8-1.4 0-2.6-0.3-3.8-0.8-1.1-0.5-2.1-1.3-2.9-2.3s-1.4-2.2-1.9-3.6-0.7-2.9-0.7-4.7m3 0c0 1.5 0.2 2.8 0.5 3.9s0.7 2 1.3 2.8c0.5 0.7 1.2 1.3 2 1.7s1.6 0.6 2.5 0.6 1.8-0.2 2.5-0.6c0.8-0.4 1.4-0.9 2-1.7 0.5-0.7 1-1.7 1.3-2.8s0.5-2.4 0.5-3.9-0.2-2.8-0.5-3.9-0.7-2-1.3-2.8c-0.5-0.7-1.2-1.3-2-1.7s-1.6-0.6-2.5-0.6-1.7 0.2-2.5 0.6-1.4 0.9-2 1.7c-0.5 0.7-1 1.7-1.3 2.8s-0.5 2.4-0.5 3.9"/>
	<polygon class="st1" points="156.9 1 160 1 155.2 23 151.9 23 147.1 6.1 142.1 23 138.9 23 134.1 1 137.2 1 140.6 19 145.6 1 148.5 1 153.4 19.1"/>
	<path class="st1" d="m74.3 38.7c0-1.7 0.2-3.2 0.7-4.6s1.1-2.6 1.9-3.6 1.9-1.7 3.1-2.3c1.2-0.5 2.6-0.8 4.1-0.8 0.5 0 1 0 1.4 0.1s0.8 0.1 1.2 0.2 0.7 0.2 1 0.3 0.6 0.3 0.9 0.4l-0.9 2.1c-0.5-0.2-1.1-0.4-1.7-0.6-0.6-0.1-1.2-0.2-2-0.2-1 0-1.9 0.2-2.7 0.5s-1.5 0.9-2.1 1.6-1 1.7-1.4 2.8c-0.3 1.1-0.5 2.5-0.5 4 0 1.6 0.2 2.9 0.5 4s0.8 2.1 1.4 2.8 1.4 1.3 2.2 1.6c0.9 0.4 1.8 0.5 2.9 0.5 0.4 0 0.9 0 1.2-0.1 0.4-0.1 0.7-0.1 1.1-0.2 0.3-0.1 0.6-0.2 0.9-0.3s0.5-0.2 0.8-0.3l0.7 2.1c-0.6 0.4-1.2 0.7-2 0.9s-1.8 0.4-2.9 0.4c-1.5 0-2.9-0.3-4.1-0.8s-2.2-1.3-3.1-2.3c-0.8-1-1.5-2.2-1.9-3.6s-0.7-2.9-0.7-4.6"/>
	<path class="st1" d="m92.5 27.7h6.9c1.2 0 2.3 0.1 3.2 0.4s1.7 0.7 2.4 1.2c0.6 0.5 1.1 1.2 1.5 2 0.3 0.8 0.5 1.6 0.5 2.6 0 0.6-0.1 1.2-0.3 1.7s-0.4 1.1-0.8 1.6c-0.3 0.5-0.7 0.9-1.1 1.3s-0.9 0.8-1.3 1l4.5 10.1h-3.2l-4.2-9.4h-5v9.4h-3.1v-21.9zm3.1 2.4v7.8h6.4c0.2-0.2 0.5-0.4 0.7-0.6s0.4-0.5 0.6-0.8 0.3-0.7 0.4-1.1 0.2-0.9 0.2-1.4c0-0.7-0.1-1.3-0.3-1.8s-0.5-0.9-0.9-1.2-0.9-0.5-1.5-0.7c-0.6-0.1-1.3-0.2-2-0.2h-3.6z"/>
	<path class="st1" d="m123.8 27.7h3.1v15.3c0 1.1-0.2 2.1-0.6 3s-1 1.6-1.7 2.2-1.6 1-2.6 1.4c-1 0.3-2.2 0.5-3.4 0.5s-2.4-0.2-3.4-0.5-1.9-0.8-2.6-1.4-1.3-1.3-1.7-2.2-0.6-1.9-0.6-3v-15.3h3.1v15.3c0 0.7 0.1 1.4 0.4 2s0.6 1.1 1.1 1.4c0.5 0.4 1 0.7 1.6 0.9s1.3 0.3 2.1 0.3 1.5-0.1 2.1-0.3 1.2-0.5 1.7-0.9 0.8-0.9 1.1-1.4c0.3-0.6 0.4-1.2 0.4-2v-15.3z"/>
	<polygon class="st1" points="130.4 27.7 133.5 27.7 133.5 27.7 133.5 27.7 144.4 44.8 144.4 27.7 147.5 27.7 147.5 49.7 144.4 49.7 133.5 32.6 133.5 49.7 130.4 49.7"/>
	<path class="st1" d="m150.7 38.7c0-1.7 0.2-3.2 0.7-4.6s1.1-2.6 1.9-3.6 1.9-1.7 3.1-2.3c1.2-0.5 2.6-0.8 4.1-0.8 0.5 0 1 0 1.4 0.1s0.8 0.1 1.2 0.2 0.7 0.2 1 0.3 0.6 0.3 0.9 0.4l-0.9 2.1c-0.5-0.2-1.1-0.4-1.7-0.6-0.6-0.1-1.2-0.2-2-0.2-1 0-1.9 0.2-2.7 0.5s-1.5 0.9-2.1 1.6-1 1.7-1.4 2.8c-0.3 1.1-0.5 2.5-0.5 4 0 1.6 0.2 2.9 0.5 4s0.8 2.1 1.4 2.8 1.4 1.3 2.2 1.6c0.9 0.3 1.8 0.5 2.9 0.5 0.4 0 0.9 0 1.2-0.1 0.4-0.1 0.7-0.1 1.1-0.2 0.3-0.1 0.6-0.2 0.9-0.3s0.5-0.2 0.8-0.3l0.7 2.1c-0.6 0.4-1.2 0.7-2 0.9s-1.8 0.4-2.9 0.4c-1.5 0-2.9-0.3-4.1-0.8s-2.2-1.3-3.1-2.3c-0.8-1-1.5-2.2-1.9-3.6-0.4-1.3-0.7-2.9-0.7-4.6"/>
	<polygon class="st1" points="168.8 27.7 171.8 27.7 171.8 37.5 182.1 37.5 182.1 27.7 185.2 27.7 185.2 49.7 182.1 49.7 182.1 39.9 171.8 39.9 171.8 49.7 168.8 49.7"/>
	<path class="st1" d="m160.6 58.1h0.7v-1.2l0.9-0.1v1.3h1.4v0.7h-1.4v2.5 0.4c0 0.1 0.1 0.2 0.1 0.3 0.1 0.1 0.1 0.1 0.2 0.1h0.3 0.2 0.2 0.2 0.2v0.6c-0.1 0-0.1 0-0.2 0.1h-0.2-0.3-0.3c-0.2 0-0.4 0-0.6-0.1-0.2 0-0.3-0.1-0.5-0.2-0.1-0.1-0.2-0.3-0.3-0.5s-0.1-0.5-0.1-0.8v-2.5h-0.8l0.3-0.6z"/>
	<path class="st1" d="m164.8 56.2h0.9v2.3c0.2-0.2 0.5-0.3 0.7-0.4s0.5-0.1 0.8-0.1c0.2 0 0.4 0 0.6 0.1s0.3 0.2 0.5 0.3c0.1 0.1 0.2 0.3 0.3 0.5s0.1 0.5 0.1 0.8v3.1h-0.9v-3.1c0-0.4-0.1-0.6-0.2-0.8s-0.3-0.2-0.6-0.2-0.5 0-0.7 0.1-0.4 0.2-0.6 0.4v3.6h-0.9v-6.6z"/>
	<path class="st1" d="m170.3 58.1h0.8l0.1 0.7c0.2-0.3 0.4-0.5 0.6-0.6s0.4-0.2 0.7-0.2h0.2 0.2l-0.1 0.8h-0.2-0.3c-0.2 0-0.4 0.1-0.6 0.2s-0.3 0.3-0.5 0.5v3.4h-0.9v-4.8z"/>
	<path class="st1" d="m173.8 56.2h1v0.8h-1v-0.8zm0.1 1.9h0.9v4.7h-0.9v-4.7z"/>
	<polygon class="st1" points="175.8 58.1 176.8 58.1 177.6 60.7 178 62 178.4 60.7 179.2 58.1 180.1 58.1 178.4 62.8 177.6 62.8"/>
	<path class="st1" d="m181.7 60.6c0 0.5 0.1 0.9 0.4 1.2 0.2 0.3 0.6 0.4 1.1 0.4h0.4c0.1 0 0.2 0 0.4-0.1 0.1 0 0.2-0.1 0.3-0.1s0.2-0.1 0.2-0.1l0.2 0.6c-0.2 0.1-0.4 0.2-0.7 0.3s-0.5 0.1-0.8 0.1c-0.4 0-0.7-0.1-1-0.2s-0.5-0.3-0.7-0.5-0.4-0.5-0.5-0.8-0.2-0.6-0.2-1 0.1-0.7 0.2-1.1c0.1-0.3 0.2-0.6 0.4-0.8s0.4-0.4 0.7-0.5 0.6-0.2 0.9-0.2 0.5 0 0.8 0.1c0.2 0.1 0.4 0.2 0.6 0.4s0.3 0.4 0.4 0.6 0.2 0.5 0.2 0.8v0.7h-3.3zm1.3-1.9c-0.2 0-0.3 0-0.5 0.1-0.1 0-0.3 0.1-0.4 0.2s-0.2 0.2-0.3 0.4-0.1 0.3-0.2 0.6h2.3c0-0.2 0-0.4-0.1-0.6s-0.1-0.3-0.2-0.4-0.2-0.2-0.3-0.2c0-0.1-0.2-0.1-0.3-0.1"/>
	<path class="st1" d="m106.7 58.2h0.7v-1.2l0.9-0.1v1.3h1.4v0.7h-1.4v2.5 0.4c0 0.1 0.1 0.2 0.1 0.3 0.1 0.1 0.1 0.1 0.2 0.1h0.3 0.2 0.2 0.2 0.2v0.6c-0.1 0-0.1 0-0.2 0.1h-0.2-0.3-0.3c-0.2 0-0.4 0-0.6-0.1-0.2 0-0.3-0.1-0.5-0.2-0.1-0.1-0.2-0.3-0.3-0.5s-0.1-0.5-0.1-0.8v-2.5h-0.8l0.3-0.6z"/>
	<path class="st1" d="m110.9 58.2h0.8l0.1 0.7c0.2-0.3 0.4-0.5 0.6-0.6s0.4-0.2 0.7-0.2h0.2 0.2l-0.1 0.8h-0.2-0.3c-0.2 0-0.4 0.1-0.6 0.2s-0.3 0.3-0.5 0.5v3.4h-0.9v-4.8z"/>
	<path class="st1" d="m117 60.1v-0.1c0-0.2 0-0.4-0.1-0.6 0-0.1-0.1-0.3-0.2-0.3-0.1-0.1-0.2-0.1-0.3-0.2-0.1 0-0.3-0.1-0.5-0.1h-0.4c-0.1 0-0.2 0-0.4 0.1-0.1 0-0.2 0.1-0.3 0.1s-0.2 0.1-0.3 0.1l-0.2-0.6c0.1-0.1 0.2-0.1 0.3-0.2s0.3-0.1 0.4-0.1 0.3-0.1 0.4-0.1h0.4c0.3 0 0.5 0 0.8 0.1l0.6 0.3c0.2 0.1 0.3 0.3 0.4 0.6 0.1 0.2 0.1 0.5 0.1 0.9v2.9h-0.7l-0.1-0.5-0.2 0.2c-0.1 0.1-0.2 0.1-0.4 0.2-0.1 0.1-0.3 0.1-0.4 0.2-0.2 0-0.3 0.1-0.5 0.1s-0.4 0-0.6-0.1-0.3-0.2-0.5-0.3c-0.1-0.1-0.2-0.3-0.3-0.4-0.1-0.2-0.1-0.4-0.1-0.5 0-0.2 0.1-0.4 0.1-0.6 0.1-0.2 0.2-0.3 0.4-0.5l0.6-0.3c0.2-0.1 0.5-0.1 0.8-0.1h1.2zm-1.3 2.2c0.2 0 0.3 0 0.4-0.1 0.1 0 0.3-0.1 0.4-0.1 0.1-0.1 0.2-0.1 0.3-0.2s0.1-0.1 0.2-0.1v-1.2h-0.9c-0.2 0-0.4 0-0.6 0.1s-0.3 0.2-0.4 0.3-0.1 0.2-0.2 0.3c0 0.1-0.1 0.2-0.1 0.3s0 0.2 0.1 0.3c0 0.1 0.1 0.2 0.2 0.2 0.1 0.1 0.2 0.1 0.3 0.1 0.1 0.1 0.2 0.1 0.3 0.1"/>
	<path class="st1" d="m119.5 58.2h0.8l0.1 0.4c0.2-0.2 0.5-0.3 0.7-0.4 0.3-0.1 0.5-0.1 0.8-0.1 0.2 0 0.4 0 0.6 0.1s0.3 0.1 0.5 0.3c0.1 0.1 0.2 0.3 0.3 0.5s0.1 0.5 0.1 0.8v3.1h-0.9v-3.1-0.5c0-0.1-0.1-0.2-0.1-0.3-0.1-0.1-0.2-0.1-0.3-0.2-0.1 0-0.2-0.1-0.4-0.1-0.3 0-0.5 0.1-0.7 0.2s-0.4 0.2-0.6 0.4v3.6h-0.9v-4.7z"/>
	<path class="st1" d="m128.1 61.6c0 0.2 0 0.4-0.1 0.6s-0.2 0.3-0.3 0.4c-0.2 0.1-0.3 0.2-0.6 0.3-0.2 0.1-0.5 0.1-0.7 0.1h-0.5c-0.2 0-0.3 0-0.5-0.1-0.1 0-0.3-0.1-0.4-0.1s-0.2-0.1-0.3-0.2l0.2-0.7c0.1 0 0.2 0.1 0.4 0.1 0.1 0 0.2 0.1 0.3 0.1s0.2 0.1 0.4 0.1h0.5c0.3 0 0.5-0.1 0.7-0.2 0.1-0.1 0.2-0.3 0.2-0.5 0-0.1 0-0.2-0.1-0.3l-0.2-0.2c-0.1-0.1-0.2-0.1-0.3-0.2s-0.3-0.1-0.4-0.1c-0.2-0.1-0.4-0.1-0.6-0.2s-0.3-0.2-0.5-0.3c-0.1-0.1-0.2-0.2-0.3-0.4-0.1-0.1-0.1-0.3-0.1-0.5s0-0.4 0.1-0.6 0.2-0.3 0.4-0.4 0.3-0.2 0.6-0.3c0.2-0.1 0.5-0.1 0.7-0.1 0.3 0 0.6 0 0.9 0.1s0.5 0.1 0.6 0.2l-0.2 0.6c-0.1 0-0.2-0.1-0.3-0.1s-0.2-0.1-0.3-0.1-0.2 0-0.3-0.1h-0.4c-0.3 0-0.5 0.1-0.7 0.2-0.1 0.1-0.2 0.3-0.2 0.5v0.3c0 0.1 0.1 0.1 0.2 0.2s0.2 0.1 0.3 0.2 0.3 0.1 0.4 0.1c0.3 0.1 0.5 0.2 0.7 0.2 0.2 0.1 0.4 0.2 0.5 0.3s0.2 0.2 0.3 0.4c-0.1 0.3-0.1 0.5-0.1 0.7"/>
	<path class="st1" d="m129.1 58.2h0.6v-0.3c0-0.3 0-0.6 0.1-0.8s0.2-0.4 0.3-0.5 0.3-0.2 0.5-0.3 0.4-0.1 0.7-0.1h0.2 0.2 0.2c0.1 0 0.1 0 0.2 0.1v0.6h-0.2-0.2-0.2-0.2c-0.1 0-0.3 0-0.4 0.1-0.1 0-0.2 0.1-0.3 0.2s-0.1 0.2-0.1 0.3v0.5 0.3h1.4v0.7h-1.4v4h-0.9v-4h-0.6l0.1-0.8z"/>
	<path class="st1" d="m132.7 60.5c0-0.4 0.1-0.7 0.2-1s0.3-0.6 0.4-0.8c0.2-0.2 0.4-0.4 0.7-0.5s0.6-0.2 0.9-0.2 0.6 0.1 0.9 0.2 0.5 0.3 0.7 0.5 0.3 0.5 0.5 0.8c0.1 0.3 0.2 0.6 0.2 1s-0.1 0.7-0.2 1-0.3 0.6-0.5 0.8-0.4 0.4-0.7 0.5-0.6 0.2-0.9 0.2-0.6-0.1-0.9-0.2-0.5-0.3-0.7-0.5-0.3-0.5-0.4-0.8c-0.2-0.2-0.2-0.6-0.2-1m0.9 0c0 0.3 0 0.6 0.1 0.8s0.2 0.4 0.3 0.5 0.3 0.2 0.4 0.3c0.2 0.1 0.3 0.1 0.5 0.1s0.4 0 0.5-0.1c0.2-0.1 0.3-0.2 0.4-0.3s0.2-0.3 0.3-0.5 0.1-0.5 0.1-0.8 0-0.6-0.1-0.8-0.2-0.4-0.3-0.5-0.3-0.2-0.4-0.3c-0.2-0.1-0.3-0.1-0.5-0.1s-0.4 0-0.5 0.1c-0.2 0.1-0.3 0.2-0.4 0.3s-0.2 0.3-0.3 0.5-0.1 0.5-0.1 0.8"/>
	<path class="st1" d="m138.4 58.2h0.8l0.1 0.7c0.2-0.3 0.4-0.5 0.6-0.6s0.4-0.2 0.7-0.2h0.2 0.2l-0.1 0.8h-0.2-0.3c-0.2 0-0.4 0.1-0.6 0.2s-0.3 0.3-0.5 0.5v3.4h-0.9v-4.8z"/>
	<path class="st1" d="m141.9 58.2h0.8l0.1 0.4c0.2-0.2 0.5-0.3 0.7-0.4 0.3-0.1 0.5-0.1 0.9-0.1 0.3 0 0.6 0 0.8 0.1s0.4 0.2 0.5 0.4c0.2-0.2 0.5-0.3 0.7-0.4 0.3-0.1 0.5-0.1 0.9-0.1 0.2 0 0.4 0 0.6 0.1s0.3 0.1 0.5 0.3c0.1 0.1 0.2 0.3 0.3 0.5s0.1 0.5 0.1 0.8v3.2h-0.9v-3.2c0-0.3-0.1-0.6-0.2-0.7s-0.3-0.2-0.6-0.2c-0.2 0-0.4 0-0.6 0.1s-0.4 0.2-0.5 0.3v0.1 0.2 3.4h-1v-3.4c0-0.3-0.1-0.5-0.2-0.6s-0.3-0.2-0.6-0.2-0.5 0.1-0.7 0.1c-0.2 0.1-0.4 0.2-0.6 0.4v3.6h-0.9v-4.7z"/>
	<rect class="st1" x="74.6" y="56.3" width=".9" height="6.6"/>
	<path class="st1" d="m77.8 60.6c0 0.5 0.1 0.9 0.4 1.2 0.2 0.3 0.6 0.4 1.1 0.4h0.4c0.1 0 0.2 0 0.4-0.1 0.1 0 0.2-0.1 0.3-0.1s0.2-0.1 0.2-0.1l0.2 0.6c-0.2 0.1-0.4 0.2-0.7 0.3s-0.5 0.1-0.8 0.1c-0.4 0-0.7-0.1-1-0.2s-0.5-0.3-0.7-0.5-0.4-0.5-0.5-0.8-0.2-0.6-0.2-1 0.1-0.7 0.2-1.1c0.1-0.3 0.2-0.6 0.4-0.8s0.4-0.4 0.7-0.5 0.6-0.2 0.9-0.2 0.5 0 0.8 0.1c0.2 0.1 0.4 0.2 0.6 0.4s0.3 0.4 0.4 0.6 0.2 0.5 0.2 0.8v0.7h-3.3zm1.2-1.9c-0.2 0-0.3 0-0.5 0.1-0.1 0-0.3 0.1-0.4 0.2s-0.1 0.2-0.1 0.4c-0.1 0.2-0.1 0.3-0.2 0.6h2.3c0-0.2 0-0.4-0.1-0.6s-0.1-0.3-0.2-0.4-0.2-0.2-0.3-0.2c-0.2 0-0.3-0.1-0.5-0.1"/>
	<path class="st1" d="m84.9 60v-0.1c0-0.2 0-0.4-0.1-0.6 0-0.1-0.1-0.3-0.2-0.3-0.1-0.1-0.2-0.1-0.3-0.2-0.1 0-0.3-0.1-0.5-0.1h-0.4c-0.1 0-0.2 0-0.4 0.1-0.1 0-0.2 0.1-0.3 0.1s-0.2 0.1-0.3 0.1l-0.2-0.6c0.1-0.1 0.2-0.1 0.3-0.2s0.3-0.1 0.4-0.1 0.3-0.1 0.4-0.1 0.3 0 0.4 0c0.3 0 0.5 0 0.8 0.1l0.6 0.3c0.2 0.1 0.3 0.3 0.4 0.6 0.1 0.2 0.1 0.5 0.1 0.9v2.9h-0.7l0.1-0.4-0.2 0.2c-0.1 0.1-0.2 0.1-0.4 0.2-0.1 0.1-0.3 0.1-0.4 0.2-0.2 0-0.3 0.1-0.5 0.1s-0.4 0-0.6-0.1-0.3-0.2-0.5-0.3c-0.1-0.1-0.2-0.3-0.3-0.4-0.1-0.2-0.1-0.4-0.1-0.5 0-0.2 0.1-0.4 0.1-0.6 0.1-0.2 0.2-0.3 0.4-0.5l0.6-0.3c0.2-0.1 0.5-0.1 0.8-0.1h1zm-1.3 2.3c0.2 0 0.3 0 0.4-0.1 0.1 0 0.3-0.1 0.4-0.1 0.1-0.1 0.2-0.1 0.3-0.2s0.1-0.1 0.2-0.1v-1.2h-0.9c-0.2 0-0.4 0-0.6 0.1s-0.3 0.2-0.4 0.3-0.1 0.2-0.2 0.3c0 0.1-0.1 0.2-0.1 0.3s0 0.2 0.1 0.3c0 0.1 0.1 0.2 0.2 0.2 0.1 0.1 0.2 0.1 0.3 0.1 0.1 0.1 0.2 0.1 0.3 0.1"/>
	<path class="st1" d="m87.3 58.1h0.8l0.1 0.7c0.2-0.3 0.4-0.5 0.6-0.6s0.4-0.2 0.7-0.2h0.2 0.2l-0.1 0.8h-0.2-0.3c-0.2 0-0.4 0.1-0.6 0.2s-0.3 0.3-0.5 0.5v3.4h-0.9v-4.8z"/>
	<path class="st1" d="m90.8 58.1h0.8l0.1 0.4c0.2-0.2 0.5-0.3 0.7-0.4 0.3-0.1 0.5-0.1 0.8-0.1 0.2 0 0.4 0 0.6 0.1s0.3 0.1 0.5 0.3c0.1 0.1 0.2 0.3 0.3 0.5s0.1 0.5 0.1 0.8v3.1h-0.9v-3.1-0.5c0-0.1-0.1-0.2-0.1-0.3-0.1-0.1-0.1-0.1-0.3-0.2-0.1 0-0.2-0.1-0.4-0.1-0.3 0-0.5 0.1-0.7 0.2s-0.4 0.2-0.6 0.4v3.6h-0.9v-4.7z"/>
	<path class="st0" d="m101.9 60.1c0.1 0.7-0.4 1.3-1.1 1.4s-1.4-0.4-1.4-1.1c-0.1-0.7 0.4-1.3 1.1-1.4s1.4 0.4 1.4 1.1"/>
	<path class="st0" d="m155.9 60c0.1 0.7-0.4 1.3-1.1 1.4s-1.4-0.4-1.4-1.1c-0.1-0.7 0.4-1.3 1.1-1.4s1.3 0.4 1.4 1.1"/>
</svg>
