<svg xmlns="http://www.w3.org/2000/svg" viewBox="7259.277 8782.312 32.439 20.656">
  <defs>
    <style>
      .cls-1 {
        fill: #3f6fb6;
      }
    </style>
  </defs>
  <g id="Group_871" data-name="Group 871" transform="translate(6029 1352)">
    <path id="Path_565" data-name="Path 565" class="cls-1" d="M335.384,19.666a10.289,10.289,0,0,0,6.947,9.745c3.842,1.291,8.546.338,11.1-2.951,1.875-2.306,2.275-5.38,2.09-8.238-3.289-.031-6.578-.031-9.868-.031v3.5c1.967.061,3.935.031,5.9.061a5.707,5.707,0,0,1-3.351,3.9,6.514,6.514,0,1,1-4.365-12.265c2.121-.738,4.273.092,6.086,1.2.922-.861,1.783-1.783,2.613-2.705a10.408,10.408,0,0,0-7.408-2.551,10.3,10.3,0,0,0-9.745,10.329Zm0,0" transform="translate(894.9 7421.002)"/>
    <path id="Path_566" data-name="Path 566" class="cls-1" d="M414.982,28.6c0,.984-.031,1.967-.031,2.951-.984,0-1.967,0-2.951.031V34.5c.984,0,1.967,0,2.951.031,0,.984,0,1.967.031,2.951h2.92c0-.984,0-1.967.031-2.951h2.951v-2.92c-.984,0-1.967,0-2.951-.031,0-.984,0-1.967-.031-2.951-.953-.031-1.937-.031-2.92-.031Zm0,0" transform="translate(841.833 7407.642)"/>
  </g>
</svg>
