<svg xmlns="http://www.w3.org/2000/svg" viewBox="7127.553 8784.368 22.287 18.106">
  <defs>
    <style>
      .cls-1 {
        fill: #3f6fb6;
      }
    </style>
  </defs>
  <path id="Path_563" data-name="Path 563" class="cls-1" d="M108.012,20.519A13,13,0,0,1,88,32.046a9.073,9.073,0,0,0,6.763-1.906,4.571,4.571,0,0,1-4.273-3.166,4.223,4.223,0,0,0,2.06-.092,4.571,4.571,0,0,1-3.658-4.55,4.7,4.7,0,0,0,2.06.584,4.566,4.566,0,0,1-1.414-6.087,12.932,12.932,0,0,0,9.437,4.765,4.582,4.582,0,0,1,7.808-4.15,9.1,9.1,0,0,0,2.89-1.107,4.555,4.555,0,0,1-2,2.521,10.579,10.579,0,0,0,2.613-.707A9.257,9.257,0,0,1,108.012,20.519Z" transform="translate(7039.553 8768.368)"/>
</svg>
