<svg xmlns="http://www.w3.org/2000/svg" viewBox="7192.92 8779.449 22.717 22.748">
  <defs>
    <style>
      .cls-1 {
        fill: #3f6fb6;
      }
    </style>
  </defs>
  <path id="Path_561" data-name="Path 561" class="cls-1" d="M217.934,22.748h-4.7V7.562h4.7ZM215.567,5.595a2.8,2.8,0,0,1,0-5.595,2.781,2.781,0,0,1,2.767,2.8A2.781,2.781,0,0,1,215.567,5.595Zm19.95,17.153h-4.673V14.786c0-2.183-.83-3.412-2.551-3.412-1.875,0-2.859,1.26-2.859,3.412v7.962h-4.488V7.562h4.488V9.591a5.29,5.29,0,0,1,4.58-2.521c3.228,0,5.5,1.967,5.5,6.025Z" transform="translate(6980.12 8779.449)"/>
</svg>
