<?xml version="1.0" encoding="UTF-8"?>
<svg version="1.1" xmlns="http://www.w3.org/2000/svg" xmlns:xlink="http://www.w3.org/1999/xlink" width="390.181" height="390.181" viewBox="0 0 390.181 390.181">
<g stroke-linecap="round" stroke-width="1.5" stroke="#323232" fill="none" stroke-linejoin="round">
    <path d="M279.171,134.2c-38.723-7.745-37.532-36.085-39.489-48.085-1.224-7.5-8.041-12.355-15.642-12.355h-2.784A17.959,17.959,0,0,0,203.3,91.679l-.19,88.54-.068-.045v31.99l-.066,31.012c0,.714-.026,1.423-.069,2.127l-.155-.08a39.27,39.27,0,1,1-38.982-43.975h.123a16.167,16.167,0,0,0,15.655-11.4l.79-2.62a14.071,14.071,0,0,0,.071-7.953c-.068-3.818-2.561-6.341-5.776-7.934a14.171,14.171,0,0,0-7.263-2.413q-1.79-.087-3.6-.087A73.792,73.792,0,0,0,90,244.416a73.012,73.012,0,0,0,9.72,34.705q.523.921,1.071,1.824c.15.245.3.487.456.73a73.865,73.865,0,0,0,43.015,32.12h0c1.122.308,2.254.594,3.4.85.046.011.092.019.138.03q1.528.339,3.08.613c.149.026.3.056.447.082.969.165,1.946.306,2.927.434.284.037.568.074.854.108q1.412.167,2.84.279c.3.023.59.043.885.063.995.067,1.994.118,3,.145.054,0,.107.006.161.008.107,0,.212,0,.319,0a76.863,76.863,0,0,0,14.31-1.054,72.543,72.543,0,0,0,47.916-30.845c.145-.209.28-.425.422-.635.413-.618.824-1.236,1.218-1.867.45-.711.881-1.435,1.307-2.163.06-.1.121-.2.18-.307a73.347,73.347,0,0,0,9.817-33.744c.02-.42.021-.843.033-1.264.016-.631.048-1.257.048-1.891,0-.056,0-.111,0-.167s0-.082,0-.123V148.922c22.124,15.66,43.4,20.447,54.379,14.894,7.245-4.091,8.27-14.723,8.27-14.723-2.653-16.256-11.988-13.084-21.036-14.894"/>
    <path d="M315.9,0H74.286A74.286,74.286,0,0,0,0,74.285V315.9a74.286,74.286,0,0,0,74.286,74.285H315.9A74.285,74.285,0,0,0,390.181,315.9V74.285A74.285,74.285,0,0,0,315.9,0M363.53,321.327a42.2,42.2,0,0,1-42.2,42.2H68.854a42.2,42.2,0,0,1-42.2-42.2V68.854a42.2,42.2,0,0,1,42.2-42.2H321.327a42.2,42.2,0,0,1,42.2,42.2Z"/>
</g>
</svg>