<?xml version="1.0" encoding="UTF-8"?><svg xmlns="http://www.w3.org/2000/svg" viewBox="0 0 24 24">

    <g stroke-linecap="round" stroke-width="1.5" stroke="#323232" fill="none" stroke-linejoin="round">
        <path d="M7.5,3h9.004c2.483,0 4.496,2.013 4.496,4.496v9.009c0,2.482 -2.013,4.495 -4.496,4.495h-9.008c-2.483,0 -4.496,-2.013 -4.496,-4.496v-9.004c0,-2.485 2.015,-4.5 4.5,-4.5Z"></path>  
        <path stroke-width="0.2" fill="#fff" d="M16.06,9.06a2.19,2.19,0,0,1-1.9-2.33.75.75,0,0,0-.76-.6h-.14A.87.87,0,0,0,12.4,7v4.28h0v3.14h0a1.9,1.9,0,1,1-1.9-2.12h0a.79.79,0,0,0,.76-.55v-.13a.81.81,0,0,0,0-.38.46.46,0,0,0-.28-.39.66.66,0,0,0-.35-.11h-.18A3.56,3.56,0,0,0,6.93,14.3v.09a3.43,3.43,0,0,0,.47,1.68.22.22,0,0,0,0,.08h0A3.6,3.6,0,0,0,9.48,17.7h.8a3.21,3.21,0,0,0,.69-.05,3.49,3.49,0,0,0,2.31-1.49h0l.06-.09.07-.1h0a3.61,3.61,0,0,0,.47-1.63v-.16h0V9.77a3,3,0,0,0,2.63.72,1,1,0,0,0,.4-.71c-.13-.79-.58-.63-1-.72"/>
    </g>

</svg>

