<?xml version="1.0" encoding="UTF-8"?><svg version="1.1" viewBox="0 0 24 24" xmlns="http://www.w3.org/2000/svg" xmlns:xlink="http://www.w3.org/1999/xlink"><!--Generated by IJSVG (https://github.com/iconjar/IJSVG)--><g stroke-linecap="round" stroke-width="1.5" stroke="#323232" fill="none" stroke-linejoin="round"><path d="M8.7,20.37l2.08,-9.4"></path><path d="M18.364,5.63604c3.51472,3.51472 3.51472,9.2132 0,12.7279c-3.51472,3.51472 -9.2132,3.51472 -12.7279,0c-3.51472,-3.51472 -3.51472,-9.2132 -1.77636e-15,-12.7279c3.51472,-3.51472 9.2132,-3.51472 12.7279,-1.77636e-15"></path><path d="M12,7c2.761,0 5,2.015 5,4.5"></path><path d="M7,11.5c0,-2.485 2.239,-4.5 5,-4.5"></path><path d="M17,11.5c0,2.485 -2.015,4.5 -4.5,4.5"></path><path d="M12.5,16c-0.99,0 -1.897,-0.329 -2.64,-0.871"></path><path d="M7,11.5c0,0.521 0.118,1.014 0.299,1.479"></path></g></svg>