<svg xmlns="http://www.w3.org/2000/svg" viewBox="8721 5571 34.819 53.3">
  <defs>
    <style>
      .cls-1 {
        fill:  #419cff;
      }
    </style>
  </defs>
  <g id="Group_874" data-name="Group 874" transform="translate(8385 3400)">
    <path id="Path_1611" data-name="Path 1611" class="cls-1" d="M311.4,37.5a.607.607,0,1,0-1.2,0v2.2l-4,4a4.608,4.608,0,0,0-1,2.6v.9a.669.669,0,0,0,.6.7h10a.669.669,0,0,0,.6-.7v-.9a4.9,4.9,0,0,0-1-2.6l-4-4Zm3.3,7.3a2.815,2.815,0,0,1,.6,1.5v.2h-8.8v-.2a2.815,2.815,0,0,1,.6-1.5l3.8-3.8Z" transform="translate(42.6 2169.6)"/>
    <ellipse id="Ellipse_93" data-name="Ellipse 93" class="cls-1" cx="0.6" cy="0.7" rx="0.6" ry="0.7" transform="translate(345.6 2181.8)"/>
    <ellipse id="Ellipse_94" data-name="Ellipse 94" class="cls-1" cx="0.6" cy="0.7" rx="0.6" ry="0.7" transform="translate(349.6 2184.1)"/>
    <path id="Path_1612" data-name="Path 1612" class="cls-1" d="M327.7,1.4H294a.669.669,0,0,0-.6.7V3.8a2.613,2.613,0,0,0,1.4,2.3h.1v5.1a12.985,12.985,0,0,0,3.2,8.1l8.7,8.7-8.7,8.7a12.985,12.985,0,0,0-3.2,8.1V50h-.1a2.5,2.5,0,0,0-1.4,2.3V54a.669.669,0,0,0,.6.7h33.6a.669.669,0,0,0,.6-.7V52.3a2.613,2.613,0,0,0-1.4-2.3h-.1V44.9a12.985,12.985,0,0,0-3.2-8.1l-8.7-8.7,8.7-8.7a12.985,12.985,0,0,0,3.2-8.1V6.1h.1a2.5,2.5,0,0,0,1.4-2.3V2.1A.545.545,0,0,0,327.7,1.4Zm-.6,51v1H294.7v-1a.923.923,0,0,1,.9-1h30.6A.988.988,0,0,1,327.1,52.4Zm-1.6-41.2a11.525,11.525,0,0,1-2.8,7l-9.3,9.3a.725.725,0,0,0,0,1l9.3,9.3a11.525,11.525,0,0,1,2.8,7v5H296.1v-5a11.525,11.525,0,0,1,2.8-7l9.3-9.3a.725.725,0,0,0,0-1l-9.3-9.3a11.525,11.525,0,0,1-2.8-7v-5h29.4Zm1.6-7.4a.923.923,0,0,1-.9,1H295.6a.987.987,0,0,1-.9-1v-1h32.4Z" transform="translate(42.6 2169.6)"/>
    <path id="Path_1613" data-name="Path 1613" class="cls-1" d="M310.2,26.8v7.3a.607.607,0,1,0,1.2,0V26.8l3.8-3.8a.769.769,0,0,0,.1-1,.5.5,0,0,0-.8,0l-3.6,3.6L301,15.7a8.14,8.14,0,0,1-1.8-4.5V9.6h23.4v1.6a8.14,8.14,0,0,1-1.8,4.5l-4,4a.769.769,0,0,0-.1,1,.5.5,0,0,0,.8,0l4-4a9.242,9.242,0,0,0,2.2-5.5V8.9a.669.669,0,0,0-.6-.7H298.5a.669.669,0,0,0-.6.7v2.3a9.631,9.631,0,0,0,2.2,5.5Z" transform="translate(42.6 2169.6)"/>
  </g>
</svg>
