<svg xmlns="http://www.w3.org/2000/svg" viewBox="9114 5288 48.902 57.3">
  <defs>
    <style>
      .cls-1 {
        fill:  #419cff;
      }
    </style>
  </defs>
  <g id="Group_875" data-name="Group 875" transform="translate(8385 3400)">
    <path id="Path_1614" data-name="Path 1614" class="cls-1" d="M94.7,20.6a.987.987,0,0,0,.9,1h8.7a.923.923,0,0,0,.9-1,.987.987,0,0,0-.9-1H95.6A.987.987,0,0,0,94.7,20.6Z" transform="translate(664 1887.4)"/>
    <path id="Path_1615" data-name="Path 1615" class="cls-1" d="M100,26.3a.987.987,0,0,0,.9,1h5.2a.923.923,0,0,0,.9-1,.987.987,0,0,0-.9-1h-5.2A1.063,1.063,0,0,0,100,26.3Z" transform="translate(664 1887.4)"/>
    <path id="Path_1616" data-name="Path 1616" class="cls-1" d="M99.1,15.8a.923.923,0,0,0,.9-1,.987.987,0,0,0-.9-1H97.4a.923.923,0,0,0-.9,1,.987.987,0,0,0,.9,1Z" transform="translate(664 1887.4)"/>
    <path id="Path_1617" data-name="Path 1617" class="cls-1" d="M88.6,25.4a.923.923,0,0,0-.9,1,.987.987,0,0,0,.9,1h8.7a.923.923,0,0,0,.9-1,.987.987,0,0,0-.9-1Z" transform="translate(664 1887.4)"/>
    <path id="Path_1618" data-name="Path 1618" class="cls-1" d="M93,52.1H76.4a2.788,2.788,0,0,1-2.6-2.9V8.1H72V49.2A4.666,4.666,0,0,0,76.4,54H93a.923.923,0,0,0,.9-1A.9.9,0,0,0,93,52.1Z" transform="translate(664 1887.4)"/>
    <path id="Path_1619" data-name="Path 1619" class="cls-1" d="M79.9,21.6H92.2a.923.923,0,0,0,.9-1,.987.987,0,0,0-.9-1H79.9a.923.923,0,0,0-.9,1A.987.987,0,0,0,79.9,21.6Z" transform="translate(664 1887.4)"/>
    <path id="Path_1620" data-name="Path 1620" class="cls-1" d="M79.9,15.8h3.5a.923.923,0,0,0,.9-1,.987.987,0,0,0-.9-1H79.9a.923.923,0,0,0-.9,1A.923.923,0,0,0,79.9,15.8Z" transform="translate(664 1887.4)"/>
    <path id="Path_1621" data-name="Path 1621" class="cls-1" d="M93.9,13.9h-7a.923.923,0,0,0-.9,1,.987.987,0,0,0,.9,1h7a.923.923,0,0,0,.9-1C94.7,14.4,94.4,13.9,93.9,13.9Z" transform="translate(664 1887.4)"/>
    <path id="Path_1622" data-name="Path 1622" class="cls-1" d="M106.1.6H72.9C68.6.6,65,4.4,65,9.1h0a8.79,8.79,0,0,0,3.9,7.4.837.837,0,0,0,1.2-.3,1.06,1.06,0,0,0-.3-1.3,6.851,6.851,0,0,1-3.1-5.8c0-3.7,2.8-6.7,6.1-6.7h33.3c3.4,0,6.1,3,6.1,6.7v40a2.3,2.3,0,0,1-.4,1.4,1.06,1.06,0,0,0,.3,1.3.6.6,0,0,0,.4.1,1.02,1.02,0,0,0,.8-.5,4.751,4.751,0,0,0,.6-2.4V9A8.018,8.018,0,0,0,106.1.6Z" transform="translate(664 1887.4)"/>
    <path id="Path_1623" data-name="Path 1623" class="cls-1" d="M108.7,44.4a5.481,5.481,0,0,0-5.2-5.7,5.628,5.628,0,0,0-5.3,5.7,5.5,5.5,0,0,0,5.3,5.7A5.417,5.417,0,0,0,108.7,44.4Zm-5.2,3.8a3.813,3.813,0,1,1,3.5-3.8A3.68,3.68,0,0,1,103.5,48.2Z" transform="translate(664 1887.4)"/>
    <path id="Path_1624" data-name="Path 1624" class="cls-1" d="M101.9,51.1a.837.837,0,0,0-1.2.3L98.8,55l-.3-.5a.755.755,0,0,0-.7-.4h-.5l1.9-3.6a1.06,1.06,0,0,0-.3-1.3.837.837,0,0,0-1.2.3l-2.6,4.9a.962.962,0,0,0,.7,1.4l1.5.1.8,1.4a.755.755,0,0,0,.7.4h0a.752.752,0,0,0,.7-.5l2.6-4.9C102.5,52,102.3,51.4,101.9,51.1Z" transform="translate(664 1887.4)"/>
    <path id="Path_1625" data-name="Path 1625" class="cls-1" d="M109.3,49.5a.773.773,0,0,0-1.2-.3.952.952,0,0,0-.3,1.3l1.9,3.6h-.5a1.012,1.012,0,0,0-.7.4l-.3.5-1.9-3.5a.773.773,0,0,0-1.2-.3.952.952,0,0,0-.3,1.3l2.6,4.9c.2.3.4.5.7.5h0a.842.842,0,0,0,.7-.4l.8-1.4,1.5-.1a.752.752,0,0,0,.7-.5,1.388,1.388,0,0,0,0-.9Z" transform="translate(664 1887.4)"/>
    <path id="Path_1626" data-name="Path 1626" class="cls-1" d="M79.9,27.3h5.2a.923.923,0,0,0,.9-1,.987.987,0,0,0-.9-1H79.9a.923.923,0,0,0-.9,1A.987.987,0,0,0,79.9,27.3Z" transform="translate(664 1887.4)"/>
    <path id="Path_1627" data-name="Path 1627" class="cls-1" d="M79.9,33H90.4a.923.923,0,0,0,.9-1,.987.987,0,0,0-.9-1H79.9a1.006,1.006,0,0,0,0,2Z" transform="translate(664 1887.4)"/>
    <path id="Path_1628" data-name="Path 1628" class="cls-1" d="M80,44.9a.785.785,0,0,0,1.2.4,1.053,1.053,0,0,0,.4-1.3c-.9-1.9-1.1-3.6-.5-4.5a1.645,1.645,0,0,1,1.5-.8.914.914,0,0,1,.7.3c.7,1,0,4.1-.6,6a1.068,1.068,0,0,0,.3,1.1.909.909,0,0,0,1.1-.1l1.1-1.1v.5a1.05,1.05,0,0,0,.5.9.955.955,0,0,0,1-.2A14.2,14.2,0,0,1,88,44.9V45a1.388,1.388,0,0,0,0,.9c.2.3.4.5.7.5h3.5a.923.923,0,0,0,.9-1,.987.987,0,0,0-.9-1H89.9a1.481,1.481,0,0,0-.2-1.3,1.149,1.149,0,0,0-1.1-.6,4.006,4.006,0,0,0-1.8.8,1.013,1.013,0,0,0-.6-.9c-.2-.1-.5-.2-1.3.2.3-1.6.4-3.5-.4-4.7a2.408,2.408,0,0,0-2.1-1.1,3.287,3.287,0,0,0-3,1.7C78.6,40,78.8,42.3,80,44.9Z" transform="translate(664 1887.4)"/>
    <path id="Path_1629" data-name="Path 1629" class="cls-1" d="M103.5,32a.987.987,0,0,0-.9-1H93.9a.923.923,0,0,0-.9,1,.987.987,0,0,0,.9,1h8.7A.923.923,0,0,0,103.5,32Z" transform="translate(664 1887.4)"/>
  </g>
</svg>
