<svg xmlns="http://www.w3.org/2000/svg" viewBox="9514 5289 56.225 55.1">
  <defs>
    <style>
      .cls-1 {
        fill:  #419cff;
      }
    </style>
  </defs>
  <g id="Group_879" data-name="Group 879" transform="translate(8385 3400)">
    <path id="Path_1660" data-name="Path 1660" class="cls-1" d="M155.8,34.4a9.093,9.093,0,0,0,2.7,6.4,9,9,0,0,0,6.4,2.6h0a9.093,9.093,0,0,0,6.4-2.7,9,9,0,0,0,2.6-6.4,1,1,0,0,0-2,0,7.028,7.028,0,0,1-2,5,6.787,6.787,0,0,1-5.1,2.1,7.028,7.028,0,0,1-5-2,6.722,6.722,0,0,1-2.1-5,7.028,7.028,0,0,1,2-5,6.722,6.722,0,0,1,5-2.1,1,1,0,0,0,0-2,9.093,9.093,0,0,0-6.4,2.7A9.345,9.345,0,0,0,155.8,34.4Z" transform="translate(985.925 1888.5)"/>
    <path id="Path_1661" data-name="Path 1661" class="cls-1" d="M184.4,37.8l-2.6-1.1c-.1-.1-.2-.1-.4-.1a.961.961,0,0,0-.9.6.854.854,0,0,0,0,.7,1.205,1.205,0,0,0,.5.5l2.6,1.1a.821.821,0,0,1,.5.5.637.637,0,0,1,0,.6l-1.2,2.8a.792.792,0,0,1-.8.5.367.367,0,0,1-.3-.1l-2.6-1.1c-.1,0-.2-.1-.4-.1a1.234,1.234,0,0,0-.8.4,15.37,15.37,0,0,1-4.4,4.4,1.093,1.093,0,0,0-.4,1.2l1.1,2.6a.637.637,0,0,1,0,.6c-.1.2-.2.4-.4.4l-2.8,1.2c-.1,0-.2.1-.3.1a.367.367,0,0,1-.3-.1c-.2-.1-.4-.2-.4-.4L169,50.4a.961.961,0,0,0-.9-.6h-.2a16.167,16.167,0,0,1-6.2,0h-.2a.961.961,0,0,0-.9.6L159.5,53a.792.792,0,0,1-.8.5.367.367,0,0,1-.3-.1l-2.8-1.2a1,1,0,0,1-.5-1.1l1.1-2.6a1,1,0,0,0-.4-1.2,16.738,16.738,0,0,1-4.4-4.4.909.909,0,0,0-.8-.4.6.6,0,0,0-.4.1l-2.6,1.1c-.1,0-.2.1-.3.1a.367.367,0,0,1-.3-.1c-.2-.1-.4-.2-.4-.4l-1.2-2.8a.637.637,0,0,1,0-.6c.1-.2.2-.4.4-.4l2.6-1.1a1.007,1.007,0,0,0,.6-1.1,16.165,16.165,0,0,1,0-6.2.906.906,0,0,0-.6-1.1l-2.6-1.1a1.205,1.205,0,0,1-.5-.5.637.637,0,0,1,0-.6l1.2-2.8a.792.792,0,0,1,.8-.5.367.367,0,0,1,.3.1l2.6,1.1c.1.1.2.1.4.1a1.234,1.234,0,0,0,.8-.4,15.37,15.37,0,0,1,4.4-4.4,1.093,1.093,0,0,0,.4-1.2l-1.1-2.6a.637.637,0,0,1,0-.6c.1-.2.2-.4.4-.4l2.8-1.2c.1,0,.2-.1.3-.1a.367.367,0,0,1,.3.1c.2.1.4.2.4.4l1.1,2.6a.961.961,0,0,0,.9.6.6.6,0,0,0,.4-.1,1.205,1.205,0,0,0,.5-.5.854.854,0,0,0,0-.7l-1.1-2.6a2.758,2.758,0,0,0-1.5-1.5,3.6,3.6,0,0,0-1.1-.2,4.253,4.253,0,0,0-1.1.2l-2.8,1.2a2.758,2.758,0,0,0-1.5,1.5,2.562,2.562,0,0,0,0,2.1l.8,1.9a19.54,19.54,0,0,0-3.8,3.8l-1.9-.8a3.6,3.6,0,0,0-1.1-.2,4.253,4.253,0,0,0-1.1.2,2.758,2.758,0,0,0-1.5,1.5l-1.2,2.8a2.562,2.562,0,0,0,0,2.1,2.758,2.758,0,0,0,1.5,1.5l1.9.8a16.312,16.312,0,0,0,0,5.4l-1.9.8a2.758,2.758,0,0,0-1.5,1.5,2.562,2.562,0,0,0,0,2.1l1.2,2.8a2.758,2.758,0,0,0,1.5,1.5,3.6,3.6,0,0,0,1.1.2,4.253,4.253,0,0,0,1.1-.2l1.9-.8a19.54,19.54,0,0,0,3.8,3.8l-.8,1.9a2.758,2.758,0,0,0,1.5,3.6l2.8,1.2a3.6,3.6,0,0,0,1.1.2,2.979,2.979,0,0,0,2.6-1.7l.8-1.9a18.325,18.325,0,0,0,5.4,0l.8,1.9a2.758,2.758,0,0,0,1.5,1.5,3.6,3.6,0,0,0,1.1.2,4.253,4.253,0,0,0,1.1-.2l2.8-1.2a2.758,2.758,0,0,0,1.5-1.5,2.562,2.562,0,0,0,0-2.1l-.8-1.9a19.54,19.54,0,0,0,3.8-3.8l1.9.8a3.6,3.6,0,0,0,1.1.2,4.253,4.253,0,0,0,1.1-.2,2.758,2.758,0,0,0,1.5-1.5l1.2-2.8a2.562,2.562,0,0,0,0-2.1A3.121,3.121,0,0,0,184.4,37.8Z" transform="translate(985.925 1888.5)"/>
    <path id="Path_1662" data-name="Path 1662" class="cls-1" d="M182.8,10.3a6.6,6.6,0,1,0,6.6,6.6A6.594,6.594,0,0,0,182.8,10.3Zm0,11.2a4.6,4.6,0,1,1,4.6-4.6A4.525,4.525,0,0,1,182.8,21.5Z" transform="translate(985.925 1888.5)"/>
    <path id="Path_1663" data-name="Path 1663" class="cls-1" d="M197,13.5h-1.2a12.155,12.155,0,0,0-1.4-3.3l.9-.9a2.36,2.36,0,0,0,.7-1.6,1.99,1.99,0,0,0-.7-1.6l-1.6-1.6a2.36,2.36,0,0,0-1.6-.7,1.99,1.99,0,0,0-1.6.7l-.9.9A12.154,12.154,0,0,0,186.3,4V2.8A2.263,2.263,0,0,0,184,.5h-2.2a2.263,2.263,0,0,0-2.3,2.3V4a12.154,12.154,0,0,0-3.3,1.4l-.9-.9a2.36,2.36,0,0,0-1.6-.7,1.99,1.99,0,0,0-1.6.7l-1.6,1.6a2.36,2.36,0,0,0-.7,1.6,1.99,1.99,0,0,0,.7,1.6l.9.9a12.154,12.154,0,0,0-1.4,3.3h-1.2a2.263,2.263,0,0,0-2.3,2.3V18a2.263,2.263,0,0,0,2.3,2.3H170a12.155,12.155,0,0,0,1.4,3.3l-.9.9a2.36,2.36,0,0,0-.7,1.6,1.99,1.99,0,0,0,.7,1.6l1.6,1.6a2.36,2.36,0,0,0,1.6.7,1.99,1.99,0,0,0,1.6-.7l.9-.9a12.154,12.154,0,0,0,3.3,1.4V31a2.263,2.263,0,0,0,2.3,2.3H184a2.263,2.263,0,0,0,2.3-2.3V29.8a12.154,12.154,0,0,0,3.3-1.4l.9.9a2.36,2.36,0,0,0,1.6.7,1.99,1.99,0,0,0,1.6-.7l1.6-1.6a2.36,2.36,0,0,0,.7-1.6,1.99,1.99,0,0,0-.7-1.6l-.9-.9a12.154,12.154,0,0,0,1.4-3.3H197a2.263,2.263,0,0,0,2.3-2.3V15.8A2.4,2.4,0,0,0,197,13.5Zm-.1,4.8h-2a.974.974,0,0,0-1,.8,11.491,11.491,0,0,1-1.7,4.1.91.91,0,0,0,.1,1.2l1.4,1.4c.1.1.1.1.1.2s0,.2-.1.2l-1.6,1.6c-.1.1-.1.1-.2.1s-.2,0-.2-.1l-1.4-1.4a.908.908,0,0,0-.7-.3.764.764,0,0,0-.5.2A11.491,11.491,0,0,1,185,28a.974.974,0,0,0-.8,1v2a.319.319,0,0,1-.3.3h-2.2a.319.319,0,0,1-.3-.3V29a.974.974,0,0,0-.8-1,11.491,11.491,0,0,1-4.1-1.7,1.689,1.689,0,0,0-.5-.2.908.908,0,0,0-.7.3l-1.4,1.4c-.1.1-.1.1-.2.1s-.2,0-.2-.1l-1.6-1.6c-.1-.1-.1-.1-.1-.2s0-.2.1-.2l1.4-1.4a.91.91,0,0,0,.1-1.2,11.491,11.491,0,0,1-1.7-4.1.974.974,0,0,0-1-.8h-2a.319.319,0,0,1-.3-.3V15.8a.319.319,0,0,1,.3-.3h2a.974.974,0,0,0,1-.8,11.491,11.491,0,0,1,1.7-4.1.91.91,0,0,0-.1-1.2L171.9,8c-.1-.1-.1-.1-.1-.2s0-.2.1-.2L173.5,6c.1-.1.1-.1.2-.1s.2,0,.2.1l1.4,1.4a.908.908,0,0,0,.7.3.764.764,0,0,0,.5-.2,11.491,11.491,0,0,1,4.1-1.7.974.974,0,0,0,.8-1v-2a.319.319,0,0,1,.3-.3h2.2a.319.319,0,0,1,.3.3v2a.974.974,0,0,0,.8,1,11.491,11.491,0,0,1,4.1,1.7c.2.1.3.2.5.2a.908.908,0,0,0,.7-.3L191.7,6c.1-.1.1-.1.2-.1s.2,0,.2.1l1.6,1.6c.1.1.1.1.1.2s0,.2-.1.2l-1.4,1.4a.91.91,0,0,0-.1,1.2,11.491,11.491,0,0,1,1.7,4.1.974.974,0,0,0,1,.8h2a.319.319,0,0,1,.3.3v2.3C197.2,18.2,197.1,18.3,196.9,18.3Z" transform="translate(985.925 1888.5)"/>
  </g>
</svg>
