<?xml version="1.0" encoding="utf-8"?>
<!-- Generator: Adobe Illustrator 21.1.0, SVG Export Plug-In . SVG Version: 6.00 Build 0)  -->
<svg version="1.1" id="Layer_1" xmlns="http://www.w3.org/2000/svg" xmlns:xlink="http://www.w3.org/1999/xlink" x="0px" y="0px"
	 viewBox="4.5 2.8 14.8 18.5" style="enable-background:new 4.5 2.8 14.8 18.5;" xml:space="preserve">
<style type="text/css">
	.st404{fill:none;stroke:#FFFFFF;stroke-width:0.1;stroke-linecap:round;stroke-linejoin:round;}
</style>
<g>
	<path class="st404" d="M18.4,6.4l-2.8-2.8C15.2,3.2,14.7,3,14.2,3H7C5.9,3,5,3.9,5,5v14c0,1.1,0.9,2,2,2h10c1.1,0,2-0.9,2-2V7.8
		C19,7.3,18.8,6.8,18.4,6.4z"/>
	<path class="st404" d="M19,8h-4c-0.6,0-1-0.4-1-1V3"/>
	<path class="st404" d="M13.5,11.7c1,1,1,2.7,0,3.8s-2.7,1-3.8,0s-1-2.7,0-3.8S12.5,10.7,13.5,11.7"/>
	<path class="st404" d="M15,17l-1.5-1.5"/>
</g>
</svg>
