<?xml version="1.0" encoding="utf-8"?>
<!-- Generator: Adobe Illustrator 21.1.0, SVG Export Plug-In . SVG Version: 6.00 Build 0)  -->
<svg version="1.1" id="Layer_1" xmlns="http://www.w3.org/2000/svg" xmlns:xlink="http://www.w3.org/1999/xlink" x="0px" y="0px"
	 viewBox="0 0 24 24" style="enable-background:new 0 0 24 24;" xml:space="preserve">
<style type="text/css">
	.st0{fill:none;stroke:#419cff;stroke-width:1.419;stroke-linecap:round;stroke-linejoin:round;}
	.st1{fill:none;stroke:#419cff;stroke-width:1.4167;stroke-linecap:round;stroke-linejoin:round;}
	.st2{fill:none;}
</style>
<g>
	<path class="st0" d="M9.7,4.1L3.5,7.5c-1.3,0.7-1.3,2.6,0,3.3l6.2,3.4c1.4,0.8,3.2,0.8,4.6,0l6.2-3.4c1.3-0.7,1.3-2.6,0-3.3
		l-6.2-3.4C12.9,3.3,11.1,3.3,9.7,4.1z"/>
	<path class="st1" d="M6,12.2v3.9c0,0.9,0.5,1.8,1.3,2.4l1.6,1.1c1.9,1.3,4.4,1.3,6.3,0l1.6-1.1c0.8-0.5,1.3-1.4,1.3-2.4v-3.9"/>
</g>
<line class="st0" x1="21.4" y1="9.6" x2="21.4" y2="18.2"/>
<line class="st0" x1="21.1" y1="12.8" x2="21.8" y2="12.8"/>
</svg>
