<?xml version="1.0" encoding="utf-8"?>
<!-- Generator: Adobe Illustrator 21.1.0, SVG Export Plug-In . SVG Version: 6.00 Build 0)  -->
<svg version="1.1" id="Layer_1" xmlns="http://www.w3.org/2000/svg" xmlns:xlink="http://www.w3.org/1999/xlink" x="0px" y="0px" viewBox="0 0 588.1 506" style="enable-background:new 0 0 588.1 506;" xml:space="preserve"><style type="text/css">.st0{fill:#FFFFFF;}</style><path class="st0" d="M537.3,442.4L400.1,335.3c21.1-32.6,32.3-70.2,32.3-109.1c0-111-90.4-201.4-201.4-201.4S29.6,115.1,29.6,226.2 c0,111,90.3,201.4,201.4,201.4c55.4,0,108.6-23.2,146.7-63.9L515,470.9c3.2,2.5,7.1,3.8,11.1,3.8c5.6,0,10.8-2.5,14.3-7 C546.6,459.9,545.2,448.5,537.3,442.4z M396.2,226.2c0,91.1-74.1,165.2-165.2,165.2S65.8,317.3,65.8,226.2S139.9,61,231,61 S396.2,135.1,396.2,226.2z"/></svg>
