<?xml version="1.0" encoding="utf-8"?>
<!-- Generator: Adobe Illustrator 21.1.0, SVG Export Plug-In . SVG Version: 6.00 Build 0)  -->
<svg version="1.1" id="Layer_1" xmlns="http://www.w3.org/2000/svg" xmlns:xlink="http://www.w3.org/1999/xlink" x="0px" y="0px"
	 viewBox="0 0 500 506" style="enable-background:new 0 0 500 506;" xml:space="preserve">
<style type="text/css">
	.st0{fill:#FFFFFF;}
</style>
<g>
	<path class="st0" d="M36.5,169l35.9,167.6c4.1,19.2,21.4,33.1,41,33.1h201.4c19.6,0,36.8-13.9,40.9-33.1l42.1-196.1
		c0-0.2,0.1-0.3,0.2-0.5l12.7-57.7h31.8c9.9,0,17.9-8,17.9-17.9s-8-17.9-17.9-17.9h-46.2c-0.5,0-1,0.3-1.5,0.3
		c-1.3,0.1-2.5,0.4-3.8,0.8c-1,0.3-2,0.7-2.9,1.1c-1.1,0.6-2,1.2-3,2c-0.9,0.7-1.7,1.4-2.4,2.3c-0.7,0.9-1.3,1.8-1.9,2.8
		c-0.6,1.1-1.1,2.1-1.5,3.3c-0.2,0.5-0.5,0.9-0.7,1.5L366,118.4H77.4c-12.7,0-24.6,5.7-32.6,15.5C36.9,143.8,33.8,156.6,36.5,169z
		 M71.6,161.5c-0.5-2.4,0.5-4.2,1.2-5s2.2-2.2,4.7-2.2h280.7L320.7,329c-0.6,2.7-3,4.7-5.8,4.7H113.4c-2.9,0-5.3-2-5.9-4.7
		L71.6,161.5z"/>
	<path class="st0" d="M78.3,447.3c0,14.9,12.1,27,26.9,27c14.8,0,26.9-12.1,26.9-26.9c0.1-7-2.7-13.8-7.8-19c-5.1-5.1-11.9-8-19.1-8
		C90.5,420.5,78.4,432.5,78.3,447.3z M96.2,447.3c0-4.8,4-8.8,9-8.8s9,4,9,9c0,7.4-10.2,11.5-15.3,6.3
		C97.2,452,96.2,449.7,96.2,447.3z"/>
	<path class="st0" d="M284.3,447.4c0,14.8,12.1,26.9,26.9,26.9c7.2,0,14-2.8,19.1-7.9s7.9-11.9,7.8-19.1c0.1-6.9-2.7-13.7-7.8-18.9
		c-5.1-5.1-11.9-8-19.1-8C296.4,420.5,284.3,432.6,284.3,447.4z M302.3,447.3c0-2.1,0.9-4.5,2.6-6.2s4-2.6,6.4-2.6c4.9,0,9,4,9,9
		c0,7.4-10.2,11.5-15.3,6.3C303.2,452,302.2,449.7,302.3,447.3z"/>
</g>
</svg>
