<?xml version="1.0" encoding="utf-8"?>
<!-- Generator: Adobe Illustrator 21.1.0, SVG Export Plug-In . SVG Version: 6.00 Build 0)  -->
<svg version="1.1" id="Layer_1" xmlns="http://www.w3.org/2000/svg" xmlns:xlink="http://www.w3.org/1999/xlink" x="0px" y="0px"
	 viewBox="0 0 504 506" style="enable-background:new 0 0 504 506;" xml:space="preserve">
<style type="text/css">
	.st0{fill:none;}
	.st1{fill:#FFFFFF;}
</style>
<g>
	<path class="st1" d="M196.5,472.8l0.3,4.7h30.7v-5c0-2.9-0.2-5.6-0.4-8.5c-13.5-1.1-24-9.7-34.8-17.7
		C194.6,455,196,463.9,196.5,472.8z"/>
	<path class="st1" d="M436.8,323.9c9.7-7.1,16.9-20.8,21.5-40.7c4.5-19.7,5.2-39.6,5.2-49.8c0-23.5-12.5-39.5-33.7-43.7
		c2-8.3,3.2-16.9,3.5-25.4v-0.1c0.6-41.4-13-76.1-40.5-102.9C341,11,258.1,6,257.3,6h-1.1c-0.8,0-83.3,5-135,55.3
		c-27.6,26.9-41.4,61.5-40.8,103.1v0.1c0.3,8.5,1.5,17,3.5,25.4c-21.2,4-33.7,20-33.7,43.8c0,10.2,0.7,30.1,5.3,49.9
		c4.6,20,11.9,33.7,21.7,40.7c6.2,4.4,13.1,6.2,20.8,5.2c3,10.9,7.2,21.5,12.5,31.5c-1.2,6.6-4.9,23.3-14.4,39.6
		c-9,15.7-20.6,26.7-34.5,32.9h48.2c1.3-1.6,2.6-3.1,3.9-4.8c9.1-11.8,15-24.4,18.9-34.7c17.1,19.6,37,36.7,59.3,50.9
		c0.1,0.5,0.2,1,0.4,1.4c10.8,8,21.3,16.6,34.8,17.7c0-0.2,0-0.5-0.1-0.7c9.2,3.6,18.8,6.1,28.7,7.4h2.9h0.7
		c9.6-1.2,19-3.6,27.9-7.1c-0.3,3-0.5,5.9-0.5,8.9v5h30.6l0.2-4.8c0.5-9.3,2-18.6,4.5-27.5c22.4-14.2,42.4-31.3,59.6-51
		c6.2,16.5,14,29.3,22.5,39.3h48.4c-36.2-16-46.6-59.2-48.9-72.1c5.4-10.2,9.7-21,12.7-32.1C423.9,330.2,430.8,328.4,436.8,323.9z
		 M96.1,266.5c-1.9,7.5-4.1,15.9-3.2,31.7c-5.6-7.7-12.2-32.7-12.2-64.6c0-6.1,1.2-10.2,3.7-12.5c1.8-1.6,4.4-2.6,8.1-2.9
		C101,247.4,98.9,255.9,96.1,266.5z M256.8,35.4c28.4,2.3,56.3,10.2,81.4,23c-13.8,2.6-26.6,6.3-38,11
		c-18.8,7.8-33.4,18.3-43.4,31.2c-19.2-24.6-52.2-36.4-81.3-42C200.6,45.7,228.4,37.7,256.8,35.4z M271.7,156.1
		c0.1,8-6.6,14.4-14.9,14.4c-8.2,0-14.9-6.4-14.9-14.4c0-7.9,6.7-14.4,14.9-14.4S271.7,148.1,271.7,156.1z M402.7,163.8
		c-0.9,12.5-3.5,24.8-7.5,36.7l-0.1,0.2c-1.1,3.8-2.1,7.3-3.2,10.7c-5.6,18-10.4,33.6-3.8,61.9v0.2c1.6,5.9,2.5,12,2.7,18.1
		c-1.1,38.4-18.8,75.2-48.6,100.8c-19,16.7-55.1,45.1-85.4,49.2c-32.2-4.4-70.3-35.8-85.2-49.2l-0.1-0.1
		c-29.9-25.6-47.6-62.3-48.6-100.8c0.2-6.2,1.1-12.3,2.7-18.2l0.1-0.2c6.9-29.9,0.2-50.7-6.3-70.8c-4.1-12.7-8-24.7-8.3-38.6v-0.2
		c-1.5-29.2,9.3-58.1,29.7-79.8c21.4,0.5,72.1,7.4,92.3,35.1c-16.2,9.5-24.8,28.2-20.8,46.4c4.4,20.1,23.1,34.7,44.5,34.7
		s40.1-14.6,44.5-34.7c4-18.2-4.6-36.8-20.8-46.3c21.7-29.1,76.5-34.1,92.8-35C393.6,105.6,404.3,134.6,402.7,163.8z M421.6,218.3
		c3.5,0.4,6.1,1.3,7.8,3c2.4,2.3,3.6,6.3,3.6,12.3c0,31-6.3,55.6-11.8,63.9c0.8-15.1-1.3-23.4-3.2-30.8
		C415.3,255.9,413.1,247.3,421.6,218.3z"/>
	<path class="st1" d="M251.3,264.7v-0.1C239.8,201.8,156.5,201,153,201c-7.8,0-14.2,6.4-14.2,14.2c0,26.1,8.3,45.4,24.7,57.5
		c12.4,9.1,28.9,12.7,45.1,12.7c11.5,0.1,22.9-1.7,32.6-4.7C248.2,278.7,252.5,271.8,251.3,264.7z M180.7,250.2
		c-5.9-4.3-9.9-10.8-11.9-19.3c16.4,2.5,39,9,49.3,25.6C201.8,258.6,189.2,256.4,180.7,250.2z"/>
	<path class="st1" d="M360.7,201.1c-3.5,0-86.8,0.7-98.2,63.7c-1.3,7,3,13.9,9.9,15.9c9.7,3,21.1,4.8,32.6,4.8
		c16.3,0,32.8-3.6,45.2-12.7c16.4-12.1,24.7-31.5,24.7-57.5C374.9,207.5,368.5,201.1,360.7,201.1z M332.9,250.1
		c-8.5,6.4-21,8.5-37.4,6.4c10.4-16.6,32.9-23.1,49.3-25.7C342.7,239.3,338.8,245.8,332.9,250.1z"/>
	<path class="st1" d="M244.1,307.6c-7.2-3.6-16-0.7-19.7,6.5c-3.6,7.2-0.7,16,6.5,19.7l6.4,3.2c6.1,3.1,12.8,4.6,19.6,4.6
		c6.7,0,13.4-1.5,19.6-4.6l6.2-3.1c5-2.2,8.4-6.9,8.8-12.3c0.4-5.5-2.2-10.7-6.9-13.7c-4.6-2.9-10.4-2.9-15.1-0.2l-6.2,3
		c-4,2-8.8,2-12.8,0L244.1,307.6z"/>
	<path class="st1" d="M284.8,359.6c-3.2,0-6.1,1.2-8.3,3.5c-1,1-2,1.9-3,2.8c-2.1-1.1-4.5-1.8-7-1.8h-19.4c-2.9,0-5.7,0.9-8.1,2.4
		c-1.2-1.2-1.9-2.1-1.9-2.1c-3.8-5.2-11.2-6.4-16.4-2.6c-2.6,1.8-4.2,4.6-4.7,7.7s0.2,6.2,2.1,8.8c0.5,0.7,13.1,17.9,33.9,19.5
		c1.1,0.1,2.2,0.1,3.3,0.1c13,0,25.8-6.1,37.9-18.2c4.6-4.6,4.6-12.1,0-16.7C290.9,360.8,288,359.6,284.8,359.6z"/>
</g>
</svg>
