<?xml version="1.0" encoding="UTF-8"?><svg version="1.1" viewBox="0 0 24 24" xmlns="http://www.w3.org/2000/svg" xmlns:xlink="http://www.w3.org/1999/xlink"><!--Generated by IJSVG (https://github.com/iconjar/IJSVG)--><g stroke-linecap="round" stroke-width="1.5" stroke="#479cfa" fill="none" stroke-linejoin="round"><path d="M12.08,14.945l2.658,0.592c0.748,0.167 1.533,-0.063 2.078,-0.609l2.9,-2.9c0.649,-0.649 0.842,-1.625 0.485,-2.463l-1.407,-3.313c-0.224,-0.527 -0.642,-0.945 -1.169,-1.169l-3.313,-1.407c-0.838,-0.356 -1.814,-0.164 -2.463,0.485l-2.722,2.725c-0.638,0.638 -0.836,1.592 -0.502,2.423l0.767,1.91l-5.772,5.772"></path><path d="M6.53,20.5l-2.91,-0.01"></path><path d="M3.62,16.99v3.5"></path><path d="M6.53,20.5l5.55,-5.56"></path></g><path fill="#479cfa" stroke="#479cfa" stroke-width="1.5" d="M14.682,9.02c-0.17,-0.169 -0.444,-0.168 -0.612,0.001c-0.169,0.169 -0.168,0.443 0.001,0.612c0.169,0.169 0.443,0.169 0.612,0c0.169,-0.169 0.169,-0.443 -0.001,-0.613"></path></svg>