<?xml version="1.0" encoding="UTF-8"?>
<svg enable-background="new 0 0 100 50" version="1.1" viewBox="0 0 100 50" xml:space="preserve" xmlns="http://www.w3.org/2000/svg"><style type="text/css">.st0 {fill: #FFFFFF;}</style><path class="st0" d="m93.8 11.8c-0.7-4.2-6-8.6-9.4-10.2-3.1-1.5-6.7 1.1-9.1 2.8-0.3 0.2-0.5 0.4-0.8 0.5 0-0.7-0.1-1.6-0.4-2.7-0.3-0.8-0.9-1.4-1.7-1.5-1-0.3-2.5 0.3-4.4 1.9-1.1 0.9-2.2 1.9-2.8 2.6-1.7-0.5-3.3-0.5-4.8-0.1-1.7 0.4-3.4 1.5-5 3.2-3.6 3.6-1.6 7.4-0.6 9.3v0.1c0.3 0.5 0.3 1.1 0.2 1.9-0.8 0.4-2 1.3-2 3.6 0 0.9 0.1 1.8 0.2 2.7 0 0.3 0.1 0.7 0.1 1 0.1 0.4 0.1 1.1 0.1 1.7 0 0.8 0 1.7 0.2 2.5 0.3 1.9 1.3 3.1 2.8 3.3h0.4c0.1 0.3 0.2 0.5 0.3 0.7 0.2 0.3 0.3 0.6 0.3 0.9 0.3 1.4 0.6 2.5 1 4 0.3 1.2 1.7 5 5 6.6 0.5 0.2 0.9 0.4 1.4 0.7 1.3 0.6 2.4 1.1 3.3 1.9 0.9 0.7 2.4 1.1 4.8 1.2h0.1 0.3 0.1c2.4-0.1 3.9-0.5 4.8-1.2 1-0.7 2.1-1.3 3.3-1.9 0.4-0.2 0.9-0.4 1.4-0.7 3.2-1.6 4.6-5.5 5-6.6 0.5-1.5 0.7-2.6 1-4 0.1-0.2 0.1-0.4 0.3-0.7 0.1-0.2 0.2-0.5 0.4-0.9l0.1-0.1h0.2c1.5-0.2 2.5-1.4 2.8-3.3 0.1-0.7 0.1-1.6 0.2-2.5 0-0.6 0-1.2 0.1-1.7 0-0.3 0.1-0.6 0.1-0.9 0.1-0.9 0.3-1.8 0.2-2.7 0-1.3-0.4-2.1-0.9-2.7 0.4-1.3 0.8-2.6 1.1-3.8 0.5-2.1 0.6-3.6 0.3-4.9zm-38.1 18.6c-0.1-0.6-0.1-1.4-0.1-2.1 0.1 0.9 0.4 2.2 0.8 3.5-0.3-0.1-0.6-0.5-0.7-1.4zm22-5.2c0.2-0.2 0.3-0.4 0.5-0.6 1.4-1.8 3.2-3.9 6.6-3.7 1.2 0.1 2.1 0.5 2.7 1.3 1.1 1.3 1.4 3.4 1.2 4.9-0.3 3.2-1.4 7-3.3 7.5-2.5 0.7-4.6 0.2-7.7-1.8-3.7-2.3-5.5-2.3-9.2 0-3.1 2-5.2 2.5-7.7 1.8-1.8-0.6-2.9-4.4-3.2-7.6-0.1-1.5 0.1-3.6 1.2-4.9 0.7-0.8 1.6-1.2 2.7-1.3h0.5c3 0 4.7 2 6.1 3.7 0.2 0.2 0.4 0.4 0.5 0.6 0.9 1.1 2.7 1.8 4.6 1.8s3.5-0.6 4.5-1.7zm7 16.5c-0.7 1.2-1.7 2.2-2.7 2.7-0.5 0.2-0.9 0.4-1.3 0.6-1.4 0.6-2.6 1.2-3.7 2.1-0.2 0.1-1 0.6-3.6 0.7h-0.3c-2.6-0.1-3.4-0.6-3.6-0.7-1.2-0.9-2.4-1.5-3.7-2.1-0.4-0.2-0.9-0.4-1.3-0.6-1-0.5-1.9-1.4-2.7-2.7-0.7-1.1-1-2.2-1.1-2.6-0.3-1-0.5-1.8-0.7-2.7 0.2 0.1 0.3 0.1 0.5 0.2 0.9 0.2 1.7 0.4 2.6 0.4 2.1 0 4.2-0.8 6.9-2.5 3-1.9 3.9-1.9 6.8 0 2.6 1.7 4.7 2.5 6.9 2.5 0.8 0 1.7-0.1 2.6-0.4 0.2-0.1 0.4-0.1 0.6-0.2-0.2 0.9-0.4 1.7-0.7 2.7-0.5 0.4-0.8 1.5-1.5 2.6zm5.4-10c0.3-1 0.5-2 0.7-2.8 0 0.6 0 1.1-0.1 1.5-0.2 0.8-0.4 1.2-0.6 1.3zm0.2-11.5-0.4 0.8 0.7 0.5c0.4 0.3 0.6 0.8 0.6 1.5s-0.1 1.5-0.2 2.3v0.2c-0.1-1.4-0.5-3.3-1.8-4.8-1.1-1.2-2.5-1.9-4.3-2-4.5-0.3-7 2.7-8.4 4.5-0.2 0.2-0.3 0.4-0.5 0.6-0.5 0.6-1.6 1-2.8 1s-2.4-0.4-2.9-1c-0.2-0.2-0.3-0.4-0.5-0.6-1.6-1.9-3.9-4.8-8.4-4.5-1.8 0.1-3.2 0.8-4.3 2-1.4 1.6-1.7 3.8-1.8 5.2 0-0.2 0-0.4-0.1-0.6-0.1-0.8-0.2-1.6-0.2-2.3 0-1.4 0.6-1.6 0.9-1.7l0.9-0.3 0.1-0.6c0.4-1.6 0.3-2.9-0.3-4v-0.1c-1.2-2.2-2.1-4.4 0.2-6.7 2.7-2.7 5-3.4 8.3-2.3l0.7 0.2 0.5-0.5c0.4-0.4 1.7-1.8 3.1-2.9 1.8-1.4 2.5-1.4 2.7-1.4 0 0 0 0.1 0.1 0.1 0.4 1.1 0.3 2 0.3 2.7 0 0.6-0.1 1.3 0.5 1.8 0.7 0.5 1.4 0.1 1.8 0 0.5-0.2 1.2-0.7 2-1.3 1.9-1.4 4.9-3.5 6.8-2.6 1.7 0.8 3.6 2.2 5.1 3.8 1.7 1.7 2.8 3.5 3 4.9 0.4 2.3-0.5 5.8-1.4 8.1z" /><path class="st0" d="m74.8 42.1h-3.3c-0.3 0-0.6 0.3-0.6 0.6s0.3 0.6 0.6 0.6h3.3c0.3 0 0.6-0.3 0.6-0.6s-0.2-0.6-0.6-0.6z" /><path class="st0" d="m37.9 2.7c-4.4-2.2-8.8-1.8-10.8-0.7-3.2-0.9-8-0.7-12.4 2.4-2.7 1.8-4.9 4.6-6.6 8.2-1.8 4-2.9 9.1-3.1 15-0.1 4.2 0.8 7.7 2.7 10.4 2 2.8 4.5 3.9 5.5 4.2 0.5 0.2 1.1 0.3 1.8 0.3l0.3 0.6c0.9 1.5 2 2.5 3.2 3.2l1.2 0.6c0.9 0.4 5.6 2.6 7.2 2.7h0.1 0.3 0.1c1.6-0.1 6.3-2.2 7.2-2.7l1.2-0.6c1.3-0.6 2.4-1.7 3.2-3.2 0.4-0.6 0.7-1.2 0.9-1.7 0.1 0 0.2 0 0.3-0.1 0.1 0 2.2-1 4.3-3.1 2.8-2.8 4.3-6.2 4.3-9.8 0-7.1-1.1-13-3.4-17.5-1.7-3.8-4.3-6.5-7.5-8.2zm-26.7 35.8c-1.9-1.6-4.2-4.9-4-10.8 0.3-7.3 2-16.9 8.7-21.6 3.2-2.2 6.6-2.7 9.3-2.3-1.6 2.2-2.3 5.1-1.8 8-5.9 4.9-9.6 9.4-11 13.5-0.6 1.7-0.6 3.4-0.5 4 0.1 0.7 0.2 2.3 0.8 4 0.1 0.4 0.2 1 0.4 1.7 0.4 1.8 0.9 4.2 1.2 5.3-0.9-0.3-2-0.8-3.1-1.8zm3.6-5.3c-0.1-0.2-0.1-0.4-0.2-0.5-0.5-1.4-0.6-2.9-0.7-3.5-0.1-0.9 0-2 0.4-3 0.2-0.4 0.4-0.8 0.7-1.2 0.6-0.6 1.3-1 2.2-1.1h0.4c2.6 0 4 1.8 5.1 3.2 0.2 0.2 0.3 0.4 0.5 0.6 1.6 1.9 3.2 1.9 3.9 1.9h0.1c0.7 0 2.3 0 3.9-1.9 0.1-0.2 0.3-0.4 0.5-0.6 1.2-1.5 2.7-3.4 5.5-3.2 0.8 0.1 1.4 0.3 1.9 0.7l0.3 0.3c1 1.1 1.2 2.9 1.1 4.2-0.1 0.7-0.3 2.4-0.9 4.1-0.4 1-1 2.2-1.9 2.4-2.1 0.6-3.8 0.1-6.5-1.6-0.8-0.5-1.7-1.1-2.6-1.4-2-0.8-3.9 0.4-5.3 1.3v0.1c-2.7 1.7-4.4 2.2-6.5 1.6-0.9-0.3-1.5-1.5-1.9-2.4zm15.2-7.6c-0.2 0.2-0.3 0.4-0.4 0.5-0.9 1.1-1.7 1.1-2.3 1.1h-0.1c-0.6 0-1.3 0-2.3-1.1-0.1-0.2-0.3-0.3-0.4-0.5-1.3-1.6-3.5-4.3-7.4-4h-0.4c1.7-2.4 4.1-4.9 7.3-7.6 1 2.6 2.8 4.6 5 5.3 0.7 0.2 1.4 0.4 2.1 0.7 1.6 0.5 3.1 1 4.5 1.6-2.8 0.6-4.5 2.7-5.6 4zm5 18.7-1.2 0.6c-2.5 1.2-5.6 2.4-6.4 2.5h-0.3c-0.8 0-3.9-1.3-6.4-2.5l-1.2-0.6c-2.2-1.1-3.1-4-3.3-4.6-0.1-0.4-0.3-1.3-0.5-2.2 0.1 0.1 0.3 0.1 0.4 0.2 0.8 0.2 1.5 0.3 2.3 0.3 1.9 0 3.7-0.7 6-2.2l0.2-0.1c1.1-0.7 2.3-1.5 3.3-1.1 0.8 0.3 1.5 0.8 2.2 1.2 3.2 2.1 5.5 2.6 8.3 1.9 0.1 0 0.2-0.1 0.3-0.1-0.1 0.9-0.3 1.7-0.4 2.2s-1.1 3.4-3.3 4.5zm8.2-7.8c-0.8 0.8-1.7 1.5-2.3 1.9 0.1-0.5 0.2-1.1 0.2-1.6 0.1-0.8 0.2-1.5 0.3-2 0.1-0.3 0.3-0.6 0.4-0.9 0.7-1.9 0.9-3.9 1-4.6 0.1-0.9 0.2-3.8-1.6-5.9l-0.5-0.5c-2.1-2.8-5.8-3.9-9-4.9-0.7-0.2-1.4-0.4-2.1-0.7-1.9-0.6-3.5-2.8-4-5.4-0.6-3.1 0.2-6 2.3-8 1.2-0.8 5.1-1.3 9 0.7 2.8 1.4 5.1 3.8 6.8 7.2 2.1 4.2 3.2 9.7 3.1 16.5 0 3.1-1.2 5.9-3.6 8.2z" /><circle class="st0" cx="27.1" cy="23.1" r=".9" /><path class="st0" d="m18 33.5c1 0.1 4.3-1.6 5-2.9-1-1-2.1-1.9-3.1-3-0.6-0.6-2.1-1.7-2.9-1-0.7 0.5-1.2 1.7-0.7 3.7s0.7 3.2 1.7 3.2z" /><path class="st0" d="m36.5 33.5c1-0.1 1.2-1.2 1.7-3.2s0.1-3.2-0.7-3.7c-0.9-0.6-2.3 0.4-2.9 1-1 1-2.1 2-3.1 3 0.7 1.4 4 3 5 2.9z" /><path class="st0" d="m63.5 31.9c3.4 1 5.2-3 5.7-4.1-2-1-5.9-2.2-9.1-4.1 0.1 3.3 0 7.2 3.4 8.2z" /><path class="st0" d="m83.2 31.9c3.4-1 3.3-4.9 3.4-8.3-3.2 1.9-7 3.2-9.1 4.1 0.5 1.2 2.3 5.2 5.7 4.2z" /><path class="st0" d="m30.3 39c-0.8 0.6-2 1.6-3.1 1.6h-0.1c-1.2 0-2.6-1.1-3-1.6-0.3-0.4-0.9-0.4-1.3 0-0.4 0.3-0.4 0.9 0 1.3 0.3 0.3 0.9 0.9 1.7 1.3 0.9 0.5 1.8 0.8 2.7 0.8h0.1c1.5 0 3-1.1 4.2-2 0.4-0.3 0.5-0.9 0.1-1.3-0.3-0.4-0.9-0.4-1.3-0.1z" /><path class="st0" d="m79 37c-2.8 1.6-5.4 2.1-5.9 2.2-0.6-0.1-3.1-0.6-5.9-2.2-0.4-0.3-1-0.1-1.2 0.3-0.3 0.4-0.1 1 0.3 1.2 3.5 2 6.6 2.4 6.7 2.5h0.1s0.1 0 0.1 0c0.1 0 3.2-0.4 6.7-2.5 0.4-0.3 0.6-0.8 0.3-1.2-0.2-0.4-0.8-0.6-1.2-0.3z" /><path class="st0" d="m71.5 36c0.1 0 0.1 0.1 0.2 0.1 0.6 0.4 1.1 0.6 1.4 0.6 0.4 0 0.8-0.3 1.4-0.6 0.1 0 0.1-0.1 0.2-0.1 0.3 0 0.6-0.2 0.7-0.5 0-0.2 0-0.4-0.1-0.5s-0.3-0.2-0.6-0.2c-0.2 0-0.4 0.1-0.8 0.3-0.2 0.1-0.6 0.4-0.8 0.5-0.2-0.1-0.6-0.3-0.8-0.5-0.4-0.2-0.5-0.3-0.8-0.3s-0.5 0.1-0.6 0.2-0.2 0.3-0.1 0.5c0.1 0.4 0.4 0.6 0.7 0.5z" /><path class="st0" d="m25.9 37.2 0.1 0.1c0.5 0.4 0.9 0.7 1.3 0.7s0.8-0.3 1.3-0.7l0.1-0.1c0.3 0 0.6-0.2 0.6-0.5 0-0.2 0-0.4-0.1-0.5s-0.2-0.2-0.5-0.2c-0.2 0-0.4 0.1-0.7 0.4-0.1 0.1-0.4 0.3-0.6 0.4-0.2-0.1-0.5-0.3-0.6-0.4-0.4-0.3-0.6-0.4-0.8-0.4-0.3 0-0.5 0.1-0.5 0.2-0.1 0.1-0.2 0.3-0.1 0.5-0.1 0.3 0.2 0.5 0.5 0.5z" /></svg>