<?xml version="1.0" encoding="UTF-8"?><svg version="1.1" viewBox="0 0 24 24" xmlns="http://www.w3.org/2000/svg" xmlns:xlink="http://www.w3.org/1999/xlink"><!--Generated by IJSVG (https://github.com/iconjar/IJSVG)--><path style="display:none;" d="M-496,-1466h1440v1864h-1440Z" fill="#FAFAFA"></path><path style="display:none;" fill="#FFF" d="M-194,-1330h1138v1578h-1138Z"></path><g fill="none"><path d="M0,0h24v24h-24Z"></path><path stroke="#323232" stroke-linecap="round" stroke-linejoin="round" stroke-width="1.5" d="M17,21h-10c-1.105,0 -2,-0.895 -2,-2v-8c0,-1.105 0.895,-2 2,-2h10c1.105,0 2,0.895 2,2v8c0,1.105 -0.895,2 -2,2Z"></path><path stroke="#323232" stroke-linecap="round" stroke-linejoin="round" stroke-width="1.5" d="M16,9v-2"></path><path stroke="#323232" stroke-linecap="round" stroke-linejoin="round" stroke-width="1.5" d="M8,9v-2"></path><path stroke="#323232" stroke-linecap="round" stroke-linejoin="round" stroke-width="1.5" d="M8,7c0,-2.209 1.791,-4 4,-4c2.209,0 4,1.791 4,4"></path><path stroke="#323232" stroke-linecap="round" stroke-linejoin="round" stroke-width="1.5" d="M12,17.09v-3.09"></path><path stroke="#323232" stroke-linecap="round" stroke-linejoin="round" stroke-width="1.5" d="M12.5466,13.2264c0.301875,0.301875 0.301875,0.791312 0,1.09319c-0.301875,0.301875 -0.791312,0.301875 -1.09319,0c-0.301875,-0.301875 -0.301875,-0.791312 0,-1.09319c0.301875,-0.301875 0.791312,-0.301875 1.09319,0"></path></g></svg>