<?xml version="1.0" encoding="UTF-8"?><svg version="1.1" viewBox="0 0 24 24" xmlns="http://www.w3.org/2000/svg" xmlns:xlink="http://www.w3.org/1999/xlink"><!--Generated by IJSVG (https://github.com/iconjar/IJSVG)--><path style="display:none;" d="M-496,-1578h1440v1864h-1440Z" fill="#FAFAFA"></path><path style="display:none;" fill="#FFF" d="M-194,-1442h1138v1578h-1138Z"></path><g fill="none"><path d="M0,0h24v24h-24v-24Z"></path><path stroke="#323232" stroke-linecap="round" stroke-linejoin="round" stroke-width="1.5" d="M21,12v0c0,4.971 -4.029,9 -9,9v0c-4.971,0 -9,-4.029 -9,-9v0c0,-4.971 4.029,-9 9,-9v0c4.971,0 9,4.029 9,9Z"></path><path stroke="#323232" stroke-linecap="round" stroke-linejoin="round" stroke-width="1.5" d="M11.206,9.115l3.694,2.185c0.532,0.315 0.532,1.085 0,1.4l-3.695,2.185c-0.542,0.321 -1.227,-0.07 -1.227,-0.7v-4.37c0,-0.63 0.686,-1.021 1.228,-0.7Z"></path></g></svg>