<?xml version="1.0" encoding="UTF-8"?><svg version="1.1" viewBox="0 0 24 24" xmlns="http://www.w3.org/2000/svg" xmlns:xlink="http://www.w3.org/1999/xlink"><!--Generated by IJSVG (https://github.com/iconjar/IJSVG)--><g stroke-linecap="round" stroke-width="1.5" stroke="#479cfa" fill="none" stroke-linejoin="round"><path d="M12,21v0c-4.971,0 -9,-4.029 -9,-9v0c0,-4.971 4.029,-9 9,-9v0c4.971,0 9,4.029 9,9v0c0,4.971 -4.029,9 -9,9Z"></path><path d="M14,9.833c0,-1.105 -0.895,-2 -2,-2c-1.105,0 -2,0.895 -2,2"></path><path d="M11.999,16c-0.138,0 -0.25,0.112 -0.249,0.25c0,0.138 0.112,0.25 0.25,0.25c0.138,0 0.25,-0.112 0.25,-0.25c0,-0.138 -0.112,-0.25 -0.251,-0.25"></path><path d="M14,9.833c0,0.8 -0.495,1.233 -0.989,1.567"></path><path d="M12,13c0,-0.817 0.505,-1.26 1.011,-1.6"></path><path d="M12,13v0.25"></path></g></svg>