<svg xmlns="http://www.w3.org/2000/svg" width="19.5" height="19.5" viewBox="0 0 19.5 19.5">
  <g id="user-circle-bg" transform="translate(9904.75 19965.75)">
    <path id="Path_31814" data-name="Path 31814" d="M12,21.75A9.75,9.75,0,1,1,21.75,12,9.75,9.75,0,0,1,12,21.75Z" transform="translate(-9907 -19968)" fill="#a9d2fe"/>
    <path id="Path_31815" data-name="Path 31815" d="M12,12.25a3,3,0,1,1,2.121-.879A3,3,0,0,1,12,12.25Zm0-4.5a1.5,1.5,0,1,0,1.061.439A1.5,1.5,0,0,0,12,7.75Z" transform="translate(-9907 -19968)" fill="#fff"/>
    <path id="Path_31816" data-name="Path 31816" d="M16.32,17.291a.75.75,0,0,1-.74-.632,2.145,2.145,0,0,0-2.124-1.821H10.544A2.145,2.145,0,0,0,8.42,16.659a.75.75,0,1,1-1.481-.236,3.639,3.639,0,0,1,3.606-3.085h2.912a3.655,3.655,0,0,1,3.606,3.085.751.751,0,0,1-.742.868Z" transform="translate(-9907 -19968)" fill="#fff"/>
  </g>
</svg>
