<?xml version="1.0" encoding="UTF-8"?><svg version="1.1" width="50" height="50" viewBox="0 0 24 24" xmlns="http://www.w3.org/2000/svg" xmlns:xlink="http://www.w3.org/1999/xlink"><!--Generated by IJSVG (https://github.com/iconjar/IJSVG)--><path style="display:none;" d="M-832,-290h1440v1864h-1440Z" fill="#f53000"></path><path style="display:none;" fill="#f53000" d="M-530,-154h1138v1578h-1138Z"></path><g stroke-linecap="round" stroke-width="1.5" stroke="#f53000" fill="none" stroke-linejoin="round"><path d="M4.746,10.175c0,3.243 3.913,7.992 5.992,10.286c0.679,0.749 1.846,0.749 2.525,0c2.078,-2.294 5.992,-7.043 5.992,-10.286c0,-4.526 -3.748,-7.152 -7.254,-7.152c-3.506,0 -7.255,2.626 -7.255,7.152Z"></path><path d="M13.509,8.76803c0.833379,0.833379 0.833379,2.18455 0,3.01793c-0.833379,0.833379 -2.18455,0.833379 -3.01793,0c-0.833379,-0.833379 -0.833379,-2.18455 0,-3.01793c0.833379,-0.833379 2.18455,-0.833379 3.01793,0"></path></g><path fill="none" d="M0,0h24v24h-24Z"></path></svg>