<?xml version="1.0" standalone="no"?>
<!DOCTYPE svg PUBLIC "-//W3C//DTD SVG 20010904//EN"
 "http://www.w3.org/TR/2001/REC-SVG-20010904/DTD/svg10.dtd">
<svg version="1.0" xmlns="http://www.w3.org/2000/svg"
 width="700.000000pt" height="700.000000pt" viewBox="0 0 700.000000 700.000000"
 preserveAspectRatio="xMidYMid meet">
<metadata>
Created by potrace 1.11, written by Peter Selinger 2001-2013
</metadata>
<g transform="translate(0.000000,700.000000) scale(0.100000,-0.100000)"
fill="#000000" stroke="none">
<path d="M2098 6908 c-15 -12 -13 -22 18 -103 19 -49 44 -109 56 -133 12 -23
19 -43 17 -45 -2 -1 -71 -35 -152 -75 -399 -194 -734 -450 -1021 -781 -94
-108 -229 -289 -296 -399 -39 -62 -49 -73 -80 -78 -114 -21 -203 -127 -185
-222 3 -20 15 -52 25 -70 21 -35 21 -36 -20 -127 -36 -81 -37 -85 -79 -205
-62 -179 -128 -437 -145 -571 -3 -19 -7 -56 -11 -84 -4 -27 -8 -61 -10 -74
-21 -129 -22 -583 -1 -696 2 -11 7 -51 11 -90 4 -38 9 -79 11 -90 2 -10 11
-60 19 -110 35 -203 136 -540 210 -702 8 -17 15 -34 15 -37 0 -14 139 -285
185 -361 156 -258 293 -434 494 -636 234 -235 395 -360 676 -527 219 -130 514
-260 725 -318 183 -50 167 -46 280 -69 116 -24 122 -25 170 -31 25 -3 52 -7
60 -9 8 -2 51 -7 95 -11 44 -3 96 -8 115 -10 63 -5 354 -4 389 2 28 5 39 1 65
-25 88 -85 219 -80 306 11 17 18 33 43 36 55 6 22 21 32 64 39 14 2 36 7 50
10 14 3 36 8 50 11 114 20 340 91 508 159 62 26 115 45 116 43 3 -4 91 -209
168 -394 21 -51 28 -60 48 -57 13 1 25 4 28 6 2 2 -13 42 -32 88 -105 249
-156 382 -149 388 4 4 44 27 88 50 895 468 1524 1316 1719 2315 21 108 28 157
40 270 3 28 9 75 12 105 7 69 8 461 0 515 -3 22 -8 65 -11 95 -15 141 -34 253
-67 390 -11 47 -21 93 -23 102 -8 40 -78 255 -109 336 -51 132 -136 314 -206
437 -34 61 -68 120 -75 132 -10 20 -8 31 16 78 22 43 27 65 23 101 -8 78 -52
137 -126 167 -36 15 -124 17 -145 4 -6 -4 -44 33 -86 81 -381 443 -924 801
-1488 981 -101 32 -305 85 -379 97 -25 4 -47 8 -50 9 -3 1 -23 4 -45 8 -36 6
-64 10 -155 22 -160 22 -558 23 -676 1 -11 -2 -50 -7 -89 -10 -226 -22 -622
-123 -826 -210 -13 -6 -23 8 -49 71 -82 201 -87 208 -122 181z m1672 -159 c36
-4 92 -11 125 -14 33 -4 67 -9 75 -10 8 -2 56 -10 105 -20 94 -17 263 -60 272
-68 5 -6 -7 -57 -44 -179 -24 -81 -28 -88 -52 -89 -14 0 -33 -2 -42 -4 -8 -1
-42 -6 -75 -10 -32 -3 -77 -10 -99 -15 -22 -5 -51 -11 -65 -13 -14 -3 -59 -15
-100 -27 -223 -65 -470 -185 -669 -326 -70 -50 -76 -52 -100 -40 -95 49 -281
99 -456 121 -92 12 -421 13 -470 2 -11 -2 -47 -8 -80 -11 -224 -27 -513 -129
-715 -253 -187 -116 -373 -285 -501 -458 -38 -52 -75 -93 -80 -89 -6 4 -5 14
4 27 7 12 22 36 33 52 40 65 151 215 222 300 83 99 309 327 387 390 27 22 55
45 62 51 31 30 223 165 305 216 115 71 408 220 426 216 7 -2 31 -44 53 -94
l40 -92 30 11 c16 6 29 14 29 18 0 4 -18 47 -41 95 -36 78 -38 90 -24 100 21
16 276 97 401 128 107 27 293 60 459 80 113 14 486 18 585 5z m868 -210 c269
-107 523 -253 777 -447 78 -59 267 -225 287 -250 6 -10 -3 -3 -22 13 -94 83
-263 199 -393 269 -260 141 -578 231 -866 245 -18 1 -22 5 -16 19 3 9 17 55
31 102 13 47 26 91 29 98 6 16 13 14 173 -49z m-417 -291 c-12 -31 -62 -126
-85 -163 -59 -95 -134 -202 -182 -262 -58 -71 -233 -253 -244 -253 -4 0 -36
23 -71 52 -91 74 -228 161 -341 218 l-98 49 33 24 c95 72 307 185 452 241 99
38 309 92 395 101 30 3 55 7 56 8 1 1 23 3 48 5 44 3 45 2 37 -20z m360 3
c531 -87 1036 -438 1374 -956 80 -123 120 -198 116 -220 -14 -89 -125 -374
-214 -550 -71 -143 -249 -430 -287 -465 -3 -3 -28 -34 -55 -70 -50 -65 -176
-210 -248 -285 l-39 -40 -25 30 c-195 234 -418 413 -669 539 l-112 56 -8 48
c-28 171 -119 431 -211 601 -92 171 -217 347 -325 462 -91 95 -91 78 6 175
172 172 316 370 423 583 l57 113 81 -6 c45 -4 106 -10 136 -15z m-1979 -305
c65 -4 123 -8 130 -11 7 -2 31 -6 53 -9 103 -13 275 -59 275 -74 0 -4 -23 -29
-50 -56 -194 -186 -392 -503 -480 -765 -26 -75 -41 -105 -55 -111 -24 -9 -211
-49 -268 -57 -171 -24 -277 -30 -477 -28 -124 2 -235 5 -247 8 -12 3 -48 8
-80 12 -32 3 -65 8 -73 10 -16 4 -52 11 -110 21 -19 3 -38 8 -41 10 -3 2 -20
6 -36 9 -41 7 -240 73 -276 92 -22 11 -26 17 -17 28 6 7 14 38 17 69 5 49 14
65 83 158 280 371 697 601 1240 683 57 9 225 20 265 19 17 -1 83 -5 147 -8z
m803 -264 c64 -41 175 -124 217 -162 21 -19 26 -13 -100 -109 -231 -176 -595
-360 -881 -445 l-53 -16 7 28 c22 91 130 320 210 447 78 124 155 224 251 323
l82 85 98 -53 c55 -29 131 -73 169 -98z m430 -374 c158 -183 286 -393 369
-604 33 -83 106 -331 106 -359 0 -8 -18 -6 -57 8 -72 24 -233 64 -293 72 -25
3 -56 8 -70 10 -84 14 -359 21 -445 11 -117 -13 -161 -20 -259 -42 -61 -13
-154 -38 -206 -55 -109 -35 -325 -138 -419 -199 -35 -22 -66 -39 -69 -36 -8 8
-7 300 1 391 4 44 17 131 28 192 l21 113 117 36 c202 63 459 175 641 280 83
48 295 193 355 243 33 28 65 51 72 51 6 0 55 -51 108 -112z m2479 -304 c193
-386 302 -775 333 -1184 12 -155 9 -228 -10 -325 -3 -11 -7 -36 -11 -55 -3
-19 -8 -46 -11 -60 -3 -14 -7 -34 -9 -45 -31 -158 -136 -443 -232 -631 -181
-354 -400 -636 -733 -943 -36 -33 -49 -35 -33 -4 12 21 41 154 57 258 26 172
21 480 -11 637 -4 22 2 32 33 59 82 71 198 197 318 347 176 218 214 279 290
457 31 72 79 244 100 351 30 159 35 224 36 399 0 147 -2 181 -28 335 -26 159
-124 469 -169 535 -8 11 -14 24 -14 29 0 19 29 -31 94 -160z m-5364 -159 c4
-2 67 -20 141 -39 175 -45 292 -64 484 -81 70 -6 325 -6 405 0 157 12 268 26
394 50 43 8 80 15 83 15 2 0 2 -8 -2 -19 -39 -123 -61 -463 -43 -658 l6 -62
-57 -48 c-101 -85 -231 -224 -314 -337 -87 -118 -92 -126 -162 -252 -150 -271
-250 -641 -254 -942 -1 -55 -3 -63 -18 -58 -10 3 -45 8 -78 11 -33 4 -67 8
-75 10 -8 3 -33 7 -55 11 -22 3 -89 16 -150 29 l-110 23 -82 86 c-175 186
-328 468 -408 756 -1 3 -7 24 -14 47 -18 63 -48 210 -56 272 -4 30 -8 62 -10
72 -8 39 -18 230 -17 324 0 136 10 234 37 396 18 103 100 361 141 441 l14 26
97 -34 c53 -19 99 -37 103 -39z m5239 -5 c106 -279 149 -613 115 -900 -16
-130 -19 -144 -50 -255 -83 -292 -234 -546 -446 -750 -88 -85 -169 -155 -179
-155 -4 0 -12 28 -18 61 -39 195 -161 491 -273 663 -21 32 -37 62 -36 66 2 4
46 54 98 110 113 122 104 111 160 180 25 30 48 60 53 65 177 215 389 587 492
868 26 70 49 127 50 127 2 0 17 -36 34 -80z m-5559 65 c0 -3 -29 -75 -40 -100
-32 -71 -102 -334 -114 -425 -7 -57 -15 -122 -21 -170 -7 -56 -7 -347 0 -415
15 -153 30 -246 65 -389 67 -279 207 -574 371 -783 27 -35 48 -63 46 -63 -30
0 -322 114 -451 175 -81 39 -89 49 -100 121 -4 21 -11 55 -16 74 -5 19 -11 49
-13 65 -3 17 -10 59 -16 95 -5 36 -13 97 -17 135 -3 39 -8 86 -10 105 -5 48
-4 402 1 470 2 30 7 73 9 95 3 22 8 69 12 105 3 36 8 68 10 71 1 3 6 28 10 55
16 119 131 531 155 559 5 5 9 15 9 23 0 29 82 199 96 199 8 0 14 -1 14 -2z
m3165 -509 c107 -11 256 -43 355 -77 138 -46 180 -66 180 -86 1 -10 4 -45 8
-78 9 -81 9 -353 -1 -445 -31 -293 -116 -555 -258 -796 -47 -79 -54 -87 -107
-110 -114 -51 -319 -133 -419 -168 l-102 -35 -73 48 c-389 254 -696 675 -821
1121 -36 128 -57 252 -45 267 17 22 197 134 286 177 118 59 256 109 382 140
102 24 129 29 255 42 33 4 61 7 62 8 6 5 233 -2 298 -8z m815 -299 c41 -27
107 -74 145 -105 88 -70 275 -257 339 -341 l49 -64 -54 -51 c-30 -29 -83 -76
-119 -105 -36 -30 -67 -57 -70 -60 -13 -16 -238 -177 -343 -246 -129 -84 -405
-240 -412 -234 -2 3 10 27 27 54 106 171 194 394 238 610 30 146 35 209 35
437 l-1 206 46 -26 c25 -14 79 -48 120 -75z m-2175 -158 c3 -13 8 -40 11 -59
13 -76 57 -229 93 -325 143 -378 374 -695 671 -919 102 -77 103 -79 43 -90
-10 -2 -63 -15 -118 -29 -55 -14 -113 -28 -130 -31 -16 -3 -41 -7 -55 -10
-103 -23 -360 -61 -491 -73 -46 -5 -227 -8 -402 -8 -252 0 -319 3 -326 13 -4
7 -7 37 -5 65 8 125 14 203 18 222 2 11 7 43 10 70 8 61 58 260 84 335 73 208
184 414 320 590 65 84 260 285 268 277 3 -2 7 -15 9 -28z m2823 -526 c59 -100
120 -226 160 -328 35 -90 88 -264 98 -320 2 -16 7 -37 10 -47 10 -34 -248
-182 -452 -259 -102 -38 -263 -82 -339 -94 -23 -3 -52 -8 -65 -11 -14 -3 -110
-7 -215 -9 -168 -3 -275 3 -355 19 -14 3 -50 11 -80 16 -30 6 -99 25 -153 41
l-97 30 64 65 c36 35 88 91 117 124 46 53 66 66 208 136 184 90 319 167 491
279 117 76 336 237 411 301 90 79 125 110 132 122 12 18 20 10 65 -65z m1292
-684 c-137 -526 -434 -1043 -825 -1434 -208 -208 -418 -370 -660 -510 -257
-148 -637 -298 -855 -339 -14 -2 -47 -9 -74 -15 -27 -7 -51 -9 -54 -6 -8 8 3
15 34 21 127 23 368 111 533 195 241 124 502 326 644 500 46 56 133 189 176
269 28 53 54 86 88 112 27 20 59 46 73 58 367 316 623 625 822 990 37 69 76
144 85 168 20 53 28 48 13 -9z m-2670 -85 c0 -11 -162 -164 -173 -164 -7 0
-39 13 -71 28 l-60 28 65 22 c35 12 102 37 149 56 47 19 86 35 88 35 1 1 2 -2
2 -5z m-3355 -48 c22 -10 58 -26 80 -36 76 -34 231 -89 362 -128 123 -37 135
-43 204 -102 100 -84 263 -192 373 -247 50 -25 92 -46 93 -47 0 0 4 -26 8 -56
9 -77 42 -226 70 -318 84 -279 209 -498 400 -701 l65 -68 -53 14 c-261 67
-614 222 -785 344 -46 33 -80 54 -76 47 13 -21 -25 12 -75 66 -25 27 -53 56
-61 65 -80 82 -257 320 -349 466 -85 137 -219 412 -280 577 -28 75 -51 141
-51 147 0 6 7 7 18 3 9 -5 35 -16 57 -26z m5029 -3 c15 -52 27 -198 27 -335 0
-210 -30 -387 -98 -577 -31 -86 -49 -102 -268 -246 -471 -308 -943 -495 -1501
-594 -61 -11 -144 -23 -185 -27 -41 -3 -77 -8 -80 -10 -11 -6 -264 -18 -394
-18 -133 0 -354 11 -377 18 -7 3 -44 7 -83 11 -110 9 -139 19 -207 71 -106 81
-195 171 -312 314 -142 175 -286 524 -311 754 -6 53 -5 58 12 54 103 -29 216
-57 253 -63 25 -4 54 -9 65 -11 113 -22 380 -29 500 -14 33 5 82 11 109 15 27
3 52 8 55 10 3 1 22 6 41 9 129 21 331 91 495 173 97 48 281 164 357 225 l27
21 78 -26 c91 -30 231 -64 300 -72 26 -4 75 -10 108 -15 174 -24 501 -2 685
46 8 2 35 8 60 14 150 37 461 174 575 254 58 41 62 42 69 19z m-2034 -148 l92
-46 -24 -17 c-86 -66 -258 -163 -358 -203 -96 -38 -252 -89 -289 -95 -20 -3
-39 -8 -42 -9 -8 -6 -125 -25 -194 -33 -77 -9 -384 -9 -455 0 -101 12 -224 37
-310 62 -107 31 -200 65 -200 74 -1 4 -3 31 -6 60 l-6 53 94 -7 c161 -13 650
-5 677 10 3 2 38 7 76 10 39 4 81 8 95 10 14 2 48 7 75 10 159 21 638 137 681
165 1 1 43 -19 94 -44z m-1975 -135 c44 -7 81 -12 82 -13 0 -1 3 -23 6 -48 l5
-46 -41 14 c-51 18 -195 86 -221 106 -21 15 -35 16 169 -13z m3723 -1027 c-37
-52 -242 -262 -303 -311 -36 -29 -181 -129 -230 -159 -161 -98 -473 -221 -629
-249 -17 -3 -50 -9 -74 -15 -23 -5 -71 -6 -105 -3 -52 5 -72 2 -115 -16 -46
-20 -69 -22 -214 -23 -194 -1 -233 3 -483 47 -64 12 -342 101 -358 115 -4 4
10 6 30 4 21 -2 121 -4 223 -5 214 -2 357 6 520 28 25 3 61 8 80 10 42 5 173
29 295 54 50 10 101 21 115 23 158 30 394 105 615 197 186 78 497 241 610 321
56 40 61 36 23 -18z m-3487 -388 c160 -64 339 -116 547 -160 51 -10 96 -29
147 -60 172 -104 419 -199 630 -241 163 -33 299 -46 483 -48 59 -1 92 -5 92
-12 0 -6 -6 -11 -12 -12 -53 -3 -345 -2 -393 3 -124 11 -172 16 -230 25 -33 5
-78 12 -100 15 -81 13 -326 76 -436 114 -259 87 -551 231 -769 378 -44 29 -39
29 41 -2z"/>
<path d="M3433 3712 c-68 -32 -80 -114 -23 -164 34 -31 67 -35 109 -14 43 23
64 61 57 107 -7 50 -11 56 -45 74 -33 17 -58 16 -98 -3z"/>
</g>
</svg>
